<svg xmlns="http://www.w3.org/2000/svg" width="277" height="87"><g fill="none" fill-rule="evenodd" transform="translate(.5 5.5)"><circle cx="31" cy="46" r="18.5" fill="#FFF"/><path fill="#2047DB" d="M90.664 49.375c.83.92 1.85 1.682 3.061 2.288 1.211.606 2.545.909 4.004.909 1.817 0 3.15-.424 4.003-1.272.852-.847 1.279-1.836 1.279-2.967 0-.908-.253-1.652-.757-2.229a5.15 5.15 0 00-1.868-1.345c-.74-.32-1.76-.676-3.06-1.069-1.66-.41-2.99-.807-3.987-1.195a6.604 6.604 0 01-2.557-1.76c-.706-.785-1.06-1.834-1.06-3.148 0-1.162.337-2.195 1.01-3.1.672-.904 1.592-1.609 2.758-2.115 1.166-.505 2.478-.759 3.936-.759 3.342 0 6 .976 7.973 2.927l-1.682 2.052a7.69 7.69 0 00-2.893-2.019 9.613 9.613 0 00-3.6-.673c-1.345 0-2.45.342-3.313 1.025-.864.684-1.296 1.57-1.296 2.657 0 .718.24 1.314.724 1.789a5.055 5.055 0 001.766 1.111c.694.267 1.681.573 2.96.92 1.66.45 3.01.894 4.054 1.332a6.942 6.942 0 012.674 1.99c.74.889 1.11 2.063 1.11 3.525 0 1.168-.28 2.253-.84 3.254-.561 1-1.464 1.81-2.709 2.429-1.244.617-2.82.927-4.726.927-1.862 0-3.516-.294-4.962-.881-1.447-.588-2.664-1.416-3.65-2.484l1.648-2.12zm30.277-5.684c0-1.38-.314-2.359-.942-2.936-.628-.577-1.526-.866-2.692-.866-.942 0-1.855.248-2.741.747-.886.498-1.576 1.098-2.07 1.8V54.42h-2.523V38.173h2.523v2.355c.628-.74 1.469-1.385 2.524-1.935 1.053-.549 2.14-.824 3.263-.824 3.453 0 5.18 1.75 5.18 5.248v11.404h-2.523V43.69zm17.728 8.88c-1.368 1.526-3.162 2.288-5.382 2.288a6.24 6.24 0 01-2.742-.623 5.267 5.267 0 01-2.12-1.856c-.55-.822-.824-1.795-.824-2.92 0-1.148.275-2.126.824-2.936a5.177 5.177 0 012.12-1.822 6.372 6.372 0 012.742-.608c2.309 0 4.104.74 5.382 2.22v-2.96c0-1.13-.381-2.011-1.144-2.646-.762-.635-1.75-.953-2.96-.953-.987 0-1.884.185-2.691.555-.808.37-1.57.936-2.288 1.699l-1.178-1.75c.876-.864 1.845-1.496 2.911-1.894 1.065-.397 2.26-.595 3.583-.595 1.861 0 3.374.449 4.54 1.346 1.167.897 1.75 2.276 1.75 4.137v11.169h-2.523v-1.85zm0-4.56c-.47-.623-1.105-1.1-1.9-1.433a6.608 6.608 0 00-2.574-.5c-1.166 0-2.124.317-2.876.95-.752.634-1.127 1.454-1.127 2.464 0 .988.375 1.798 1.127 2.432.751.633 1.71.95 2.876.95.92 0 1.777-.167 2.574-.5.795-.332 1.43-.81 1.9-1.433v-2.93zm7.57 12.6V38.173h2.522v2.422a6.732 6.732 0 012.355-2.052 6.533 6.533 0 013.129-.774c1.413 0 2.668.343 3.767 1.028 1.099.686 1.952 1.674 2.557 2.966.606 1.292.908 2.803.908 4.533 0 1.73-.302 3.242-.908 4.535-.605 1.291-1.458 2.286-2.557 2.982-1.098.696-2.354 1.046-3.767 1.046a6.6 6.6 0 01-3.079-.741 6.663 6.663 0 01-2.405-2.12v8.613h-2.523zm11.168-18.93c-.942-1.195-2.21-1.792-3.801-1.792-.965 0-1.901.258-2.81.775-.907.517-1.586 1.142-2.035 1.878v7.51c.448.758 1.128 1.396 2.035 1.912.909.517 1.845.775 2.81.775 1.592 0 2.859-.603 3.801-1.809.942-1.206 1.413-2.75 1.413-4.634 0-1.882-.471-3.421-1.413-4.616zm26.206 12.74h-3.466a66.557 66.557 0 01-2.456-2.354c-1.883 1.86-4.048 2.792-6.492 2.792-2.019 0-3.684-.546-4.996-1.637-1.312-1.09-1.968-2.637-1.968-4.639 0-1.597.438-2.9 1.313-3.914.874-1.011 2.085-1.945 3.633-2.8-1.144-1.957-1.716-3.633-1.716-5.027 0-.99.247-1.883.74-2.682a5.116 5.116 0 012.036-1.873c.863-.45 1.821-.674 2.876-.674 1.48 0 2.697.393 3.65 1.18.953.786 1.43 1.863 1.43 3.233 0 1.056-.258 1.96-.774 2.712a6.852 6.852 0 01-1.9 1.87c-.752.494-1.767 1.078-3.045 1.752.583.832 1.446 1.898 2.59 3.2l2.658 2.999a21.486 21.486 0 002.422-5.12l2.153.943c-1.032 2.47-2.041 4.401-3.028 5.794.987 1.057 2.433 2.471 4.34 4.245zm-7.435-3.933c-1.637-1.639-2.68-2.728-3.128-3.266-1.122-1.323-2.042-2.511-2.759-3.566-1.054.651-1.873 1.352-2.456 2.103-.583.75-.875 1.665-.875 2.742 0 1.262.443 2.256 1.33 2.982.885.725 1.945 1.089 3.178 1.089 1.66 0 3.23-.695 4.71-2.084zm-4.777-9.792c1.48-.74 2.59-1.44 3.33-2.103.74-.661 1.11-1.47 1.11-2.43 0-.724-.246-1.282-.739-1.674-.493-.392-1.122-.589-1.884-.589-.897 0-1.648.277-2.254.83-.605.553-.908 1.252-.908 2.097 0 1.01.448 2.3 1.345 3.869zm23.719 5.686h-3.5v8.04h-4.776V31.985h10.496c1.525 0 2.86.309 4.003.925 1.144.617 2.019 1.475 2.624 2.573.606 1.1.908 2.344.908 3.735 0 1.839-.477 3.33-1.43 4.474-.953 1.144-2.114 1.872-3.482 2.186l5.047 8.545h-5.484l-4.406-8.04zm3.92-9.63c-.64-.621-1.442-.933-2.406-.933h-5.013v6.729h5.013c.964 0 1.766-.311 2.405-.933.64-.621.96-1.432.96-2.432-.001-1-.32-1.81-.96-2.431zM207.431 42a8.146 8.146 0 012.994-3.083c1.278-.765 2.725-1.147 4.34-1.147 1.592 0 3.004.376 4.238 1.127 1.234.752 2.192 1.806 2.877 3.163.684 1.357 1.026 2.91 1.026 4.659v.941H210.83c.135 1.173.617 2.15 1.446 2.932.83.782 1.907 1.173 3.23 1.173.785 0 1.575-.146 2.372-.438.795-.291 1.452-.684 1.968-1.177l1.883 2.656c-.807.675-1.8 1.186-2.977 1.532a13.074 13.074 0 01-3.717.522c-1.638 0-3.117-.354-4.44-1.062a7.766 7.766 0 01-3.112-3c-.752-1.292-1.127-2.791-1.127-4.5 0-1.572.358-3.006 1.076-4.298zm4.508-.01c-.673.75-1.057 1.607-1.152 2.575h7.981c-.067-.944-.432-1.798-1.093-2.559-.662-.76-1.631-1.14-2.91-1.14-1.211 0-2.153.374-2.826 1.123zm23.817 10.75c-.56.652-1.295 1.167-2.203 1.548a7.53 7.53 0 01-2.944.573c-.92 0-1.811-.203-2.674-.608a5.254 5.254 0 01-2.137-1.84c-.56-.82-.84-1.805-.84-2.953 0-1.192.28-2.175.84-2.953a4.96 4.96 0 012.12-1.703c.851-.36 1.749-.54 2.69-.54 1.1 0 2.098.167 2.995.504.896.336 1.614.83 2.153 1.48v-2.29c0-.941-.326-1.692-.976-2.252-.651-.56-1.514-.84-2.59-.84-1.773 0-3.353.639-4.744 1.917l-1.615-2.75a10.105 10.105 0 013.28-1.697 12.883 12.883 0 013.818-.565c2.086 0 3.79.482 5.114 1.446 1.323.965 1.985 2.535 1.985 4.71v10.496h-4.273V52.74h.001zm0-4.097c-.336-.407-.813-.723-1.43-.948a5.817 5.817 0 00-2.002-.337c-.874 0-1.604.205-2.186.613-.583.408-.875.949-.875 1.622 0 .674.292 1.203.875 1.591.582.388 1.312.581 2.186.581a5.82 5.82 0 002.002-.336c.617-.224 1.093-.541 1.43-.949v-1.837zm19.68 3.727a7.118 7.118 0 01-2.27 1.834 5.992 5.992 0 01-2.742.656c-1.369 0-2.602-.339-3.7-1.013-1.1-.674-1.957-1.65-2.574-2.932-.617-1.28-.925-2.808-.925-4.585 0-1.73.308-3.24.925-4.533.617-1.292 1.469-2.286 2.557-2.982 1.087-.697 2.326-1.046 3.717-1.046.964 0 1.884.214 2.758.64a6.375 6.375 0 012.254 1.85v-8.275h4.306v22.438h-4.306V52.37zm0-9.27c-.382-.6-.914-1.096-1.598-1.484-.684-.389-1.385-.583-2.102-.583-1.211 0-2.199.489-2.96 1.466-.764.978-1.145 2.256-1.145 3.835 0 1.553.381 2.82 1.144 3.797.762.977 1.75 1.466 2.96 1.466.718 0 1.419-.194 2.103-.583.684-.388 1.216-.883 1.598-1.485v-6.428zm9.992-3.715h-.942V33.06h-2.086v-1.076h5.114v1.076h-2.086v6.325zm9.554-6.123l-2.523 6.123h-.27l-2.522-6.123v6.123h-.942v-7.401h1.447l2.153 5.382 2.153-5.382h1.447v7.4h-.942v-6.122h-.001zM30.425 41.369a3.92 3.92 0 013.914 3.924 3.92 3.92 0 01-3.914 3.926 3.92 3.92 0 01-3.916-3.926 3.92 3.92 0 013.916-3.924zm39.338-7.581c-4.232-13.357-15.228-23.951-28.7-27.65L42.728.056c15.506 4.256 28.163 16.452 33.03 31.823l-5.997 1.909h.002z"/><path fill="#2047DB" d="M59.476 36.504c-3.034-9.805-11.067-17.538-20.96-20.182l1.62-6.098c11.966 3.192 21.679 12.545 25.348 24.407l-6.008 1.863v.01z"/><path fill="#2047DB" d="M60.197 40.164l-.005-.004-3.932.992c-1.776-11.101-10.545-19.895-21.625-21.709l.98-3.912a31.333 31.333 0 00-5.216-.435c-1.738 0-3.453.149-5.117.435v.012l.981 3.913C15.144 21.243 6.361 30.037 4.563 41.15l-3.876-.97a30.607 30.607 0 00-.447 5.23c0 1.751.149 3.465.434 5.142l.006.005 3.885-.977c1.801 11.118 10.583 19.912 21.68 21.7l-.98 3.913c1.676.29 3.453.443 5.216.443 1.752 0 3.462-.149 5.13-.435v-.003l-.98-3.925C45.71 69.448 54.475 60.66 56.267 49.557l3.93.985c.298-1.69.447-3.466.447-5.23 0-1.75-.15-3.465-.435-5.139l-.013-.009zM32.383 62.276l-1.954-7.82-1.955 7.824c-7.825-.886-14.06-7.123-14.967-14.967l7.838-1.966-7.838-1.974c.906-7.847 7.142-14.083 14.98-14.977l1.962 7.838 1.963-7.838c7.813.907 14.023 7.143 14.917 14.977l-7.788 1.95 7.788 1.949c-.907 7.838-7.117 14.073-14.93 14.98l-.016.024z"/></g></svg>