<svg xmlns="http://www.w3.org/2000/svg" viewBox="0 0 24 24" fill="currentColor" class="w-5 h-5" data-v-61b00448=""><g data-v-61b00448=""><rect fill="none" height="24" width="24" data-v-61b00448=""></rect><rect fill="none" height="24" width="24" data-v-61b00448=""></rect></g><g data-v-61b00448=""><g data-v-61b00448=""><g data-v-61b00448=""><path d="M22,4c0-1.1-0.9-2-2-2H4C2.9,2,2.01,2.9,2.01,4L2,22l4-4h9v-7c0-0.55,0.45-1,1-1h6V4z" data-v-61b00448=""></path></g><g data-v-61b00448=""><path d="M21.69,16H20.3l1.4-3.3c0.14-0.33-0.1-0.7-0.46-0.7H17.5c-0.28,0-0.5,0.22-0.5,0.5v5c0,0.28,0.22,0.5,0.5,0.5H19v3.94 c0,0.26,0.36,0.35,0.47,0.11l2.66-5.33C22.3,16.39,22.06,16,21.69,16z" data-v-61b00448=""></path></g></g></g></svg>