<svg viewBox="0 0 40 37" fill="none" stroke="currentColor" class="w-12 h-12" xmlns="http://www.w3.org/2000/svg"><g fill="none" fill-rule="evenodd"><g fill-rule="nonzero"><path d="M37.4,0.9V9.6h-2V2.9H24.4c-1.5,0.4-4.4,1.6-4.4,3.1V17.2h-2V6c0-1-2.4-2.4-4.2-3.1H2V29h10.4v2H0V0.9H14.1l0.2,0.1c0.7,0.2,3.2,1.2,4.6,2.8,1.6-1.8,4.6-2.6,5-2.7h0.2h13.3V0.9Z" fill="currentColor"></path><path d="M27.4,37h-1.6L18.4,29.4H14V21h4.4L26.1,13h1.3V37ZM16,27.4h3.2l6.1,6.3V16.6l-6.1,6.3H15.9v4.5Z" fill="#0197F2"></path><path d="M31.3,32.7l-1.7-1c0,0,2.1-3.4,2.1-6.5s-2.1-6.5-2.1-6.6l1.7-1c0.1,0.2,2.4,3.9,2.4,7.8S31.4,32.6,31.3,32.7Z" fill="#0197F2"></path><path d="M36.4,36.2l-1.6-1.2c0,0,3.2-4.2,3.2-9.8s-3.2-9.8-3.2-9.8l1.6-1.2c0.1,0.2,3.6,4.8,3.6,11s-3.5,10.7-3.6,10.9Z" fill="#0197F2"></path></g></g></svg>