<svg xmlns="http://www.w3.org/2000/svg" xmlns:xlink="http://www.w3.org/1999/xlink" xmlns:ev="http://www.w3.org/2001/xml-events" viewBox="0 0 941.28 821.49">
                        <path class="cls-1" d="M2463.1,1819.37c-0.16,1.57-.39,3.14-0.46,4.72a82.67,82.67,0,0,1-8.48,32.92c-11.33,23.19-30,37.64-54.47,44.87-12.17,3.59-24.64,4.49-37.23,3.74a130.49,130.49,0,0,1-27.5-4.89c-0.69-.19-1.38-0.34-2.22-0.54-0.81,1.67-1.6,3.31-2.4,5-16.89,34.61-38,66.37-64.23,94.63a336.88,336.88,0,0,1-91.73,70.05,371.63,371.63,0,0,1-117.47,37.1c-8.07,1.06-16.16,2-24.25,2.85-11.52,1.23-23.09,1.61-34.67,2a379.83,379.83,0,0,1-38.07-1c-8.12-.55-16.25-1.13-24.34-2.08-8.31-1-16.59-2.32-24.85-3.68a357.3,357.3,0,0,1-48-11.55,342.69,342.69,0,0,1-86.11-40.32,338.35,338.35,0,0,1-51.67-41.53,363.25,363.25,0,0,1-45.76-54.72,398.84,398.84,0,0,1-30.31-52.4c-0.17-.35-0.38-0.68-0.62-1.1-2.23.17-4.46,0.29-6.67,0.51a105.52,105.52,0,0,1-18.43,0,98.44,98.44,0,0,1-28.79-6.56c-17.63-6.95-31.89-18.31-43.29-33.34-11.52-15.19-18.8-32.35-23.45-50.73a181.39,181.39,0,0,1-5-30.94,20,20,0,0,0-.81-3.3v-24.48c0.9-1,.71-2.29.86-3.48,0.88-7.13,1.47-14.31,2.68-21.39a209.12,209.12,0,0,1,12.29-43.19c9.92-24.52,23.78-46.43,43-64.74a142.05,142.05,0,0,1,42.09-27.91,4.12,4.12,0,0,0,2.61-3.25c2.93-11.93,5.74-23.89,8.9-35.77q15.05-56.55,34.12-111.89a14.65,14.65,0,0,0,.56-6.6,3,3,0,0,0-2.35-3c-2.46-.63-4.89-1.46-7.38-1.84-3.55-.55-7.19-0.51-10.71-1.17a36.43,36.43,0,0,1-29.89-35.74c-0.08-22.48-.13-45,0-67.44,0.09-12.52,5.6-22.43,15.75-29.7a36.06,36.06,0,0,1,20.16-6.6c2.62-.1,5.24-0.33,7.87-0.5h24.48c1.42,0.13,2.84.32,4.27,0.39,20.43,1,40.42,4.35,59.63,11.6,13.63,5.14,26.17,12.14,37.08,21.91a83.1,83.1,0,0,1,25.74,43.4,92.83,92.83,0,0,1,2.08,29.26c-0.93,12-3.25,23.73-5.2,35.54-4.34,26.24-10.91,52-16.42,78-4.17,19.68-8.34,39.36-12.15,59.1-3.26,16.85-6,33.79-9,50.7-0.58,3.3-1,6.63-1.49,9.95-0.06.44,0,.9-0.09,1.71,0.73-.59,1.22-0.95,1.66-1.36a116.16,116.16,0,0,1,54.45-28.53,122.8,122.8,0,0,1,19.91-2.67,106,106,0,0,1,51,9.31,97.46,97.46,0,0,1,19.91,12.31l1.68,1.3c0.55-2.1.21-4.06,0.27-6s0-4,0-6v-11.84c3.89-.14,7.55-0.31,11.21-0.39,12.47-.24,24.93-0.48,37.4-0.65,11.35-.15,22.71-0.34,34.06-0.29,13.19,0.06,26.38.34,39.56,0.56,5.75,0.09,11.5.25,17.25,0.38,0.31,0,.61.05,1,0.1v12.72c1.68-2.83,2.23-6,3.13-9s1.75-6.3,2.71-9.78l53.92,3.36,2,6.55,78.53,8.18a28.67,28.67,0,0,1,1.69-5,6.27,6.27,0,0,0,.4-4.5c-3.14-16.63-6.17-33.28-9.46-49.89-2.78-14-5.83-28-8.84-41.93-4.49-20.75-9.18-41.45-13.53-62.23-2-9.45-3.44-19-5-28.54-1.06-6.62-2.15-13.25-2.68-19.93-2.31-29.38,6.16-54.74,28.61-74.65,12.44-11,27-18.32,42.68-23.48a181.57,181.57,0,0,1,29.06-6.84,239.89,239.89,0,0,1,26.45-2.59c0.7,0,1.39-.17,2.09-0.26h24.48c0.55,0.09,1.09.22,1.64,0.26,4.45,0.32,8.92.21,13.34,1.14,16.29,3.44,28.66,18.61,28.67,35.32q0,33.35,0,66.7a46.87,46.87,0,0,1-.42,6.21c-2.1,15.55-15.39,28.63-31,30.55-3.09.38-6.22,0.46-9.28,1a71.09,71.09,0,0,0-7.6,2,2.68,2.68,0,0,0-1.94,2.49,15.76,15.76,0,0,0,.46,6.86c4.09,12.16,8.2,24.32,12.11,36.55q15.14,47.3,27.2,95.48c1.35,5.41,2.65,10.83,4,16.26a154.19,154.19,0,0,1,23.71,9,42.85,42.85,0,0,0,6.95,3.12c16.45,4.44,32.95,8.72,49.42,13.07a12.74,12.74,0,0,1,1.63.66l23.34,122.27-23.76,1.11c0.62,0.8,1,1.3,1.38,1.79a119.2,119.2,0,0,1,18.59,31.69c4.08,10.57,6.79,21.43,7.15,32.82,0,1.18.25,2.36,0.39,3.53v9.12Zm-713.8-217.44c0.06,0.55.08,1.12,0.19,1.66q4.06,19.33,8.16,38.65c0.12,0.54.35,1.06,0.66,2,0.7-4.9,1.27-9.33,2-13.73,2.76-17,5.2-34.11,8.44-51,4.8-25.08,10-50.08,15.33-75.07,5.37-25.37,11.77-50.53,15.92-76.16,1.78-11,3.93-22,4.72-33.18a81.09,81.09,0,0,0-2.54-27.28,71.16,71.16,0,0,0-19.38-33.07,98,98,0,0,0-27.54-18.43c-17.82-8.21-36.73-12-56.12-13.83a230.57,230.57,0,0,0-27.3-1c-6.54.17-13.1,0.33-19.62,0.9-12.43,1.1-22.51,12.32-22.45,25.34,0.1,22.24,0,44.47,0,66.71,0,8.47,3.55,15.25,10.24,20.41,4.74,3.66,10.24,5,16.11,5.22a41.45,41.45,0,0,1,15.33,3.34c2.83,1.28,5.35,3,6.73,5.86a20.69,20.69,0,0,1,1.26,15.61c-3.38,10.64-7.15,21.15-10.57,31.78-11.67,36.31-22.22,72.94-31.19,110a12.89,12.89,0,0,0-.18,1.64c3.31-.88,6.45-1.75,9.61-2.54,2.23-.56,4.48-1,6.72-1.54,0.87-.06,1.75-0.1,2.62-0.18,2.6-.26,5.2-0.54,7.8-0.8,1.74-.17,3.47-0.34,5.22-0.43a29.26,29.26,0,0,1,3.59.05c3.48,0.26,7,.66,10.43.79,1.22,0,2.44-.63,3.69-0.85,4.06-.72,8.14-1.34,12.19-2.06,8.74-1.55,17.47-3.14,26.21-4.71,5.23-.94,10.45-1.88,15.68-2.79a6.87,6.87,0,0,1,1.59.09,18.66,18.66,0,0,1,.65,1.93c1.31,6.13,2.59,12.27,3.9,18.39C1748,1596.4,1748.68,1599.17,1749.3,1601.93Zm576.56-16.31c0.48,0.83,1.27.76,2.08,0.85,4.2,0.47,8.39,1,12.59,1.5a13,13,0,0,0,1.46,0c-0.05-.35-0.06-0.58-0.11-0.79-2.61-10.28-5.14-20.59-7.86-30.85q-14.57-55.07-33.23-108.89a28.28,28.28,0,0,1-1.44-11.28c0.42-6.59,3.66-11,9.88-13.33a45,45,0,0,1,14-2.8c5.2-.21,10.17-1.21,14.56-4.08,8-5.21,11.94-12.7,12-22.18q0.09-32.4,0-64.79a39.58,39.58,0,0,0-.42-5.73c-1.58-10.68-11-19.81-21.75-20.89-4.68-.47-9.39-0.77-14.1-0.86a280.62,280.62,0,0,0-40.43,1.75,190,190,0,0,0-27.9,5.41c-14.55,4.07-28.24,10-40.37,19.16-10,7.6-18.11,16.84-23.34,28.4-6.48,14.31-8.25,29.33-6.15,44.75,1.8,13.28,4,26.52,6.41,39.71,2.13,11.61,4.8,23.12,7.27,34.67,5.86,27.39,11.85,54.76,17.57,82.18,2.59,12.42,4.69,24.95,7,37.43,0.66,3.6,1.27,7.2,1.9,10.84l3.21,0.5,12.07,1.84c3.06,0.42,6.13.82,9.19,1.26,3.69,0.54,7.4,1,11,1.72,2.12,0.44,4.54-.19,6.11,1.57,2.85-2.48,5.56-4.93,8.37-7.27a81.12,81.12,0,0,1,26.93-14.61,101.27,101.27,0,0,1,30.27-4.71A25.25,25.25,0,0,0,2325.87,1585.63ZM2202,1874.09c-4.66-.63-9.34-1.22-14-1.92a3.31,3.31,0,0,0-3.68,1.77,214.53,214.53,0,0,1-32,38.08,211.41,211.41,0,0,1-77,46.57,240,240,0,0,1-44.3,10.62,281.61,281.61,0,0,1-30.28,2.65,279.83,279.83,0,0,1-64.75-5.53,227.8,227.8,0,0,1-61-21.78,216.58,216.58,0,0,1-62-49.16,230.71,230.71,0,0,1-24.38-33.46,6,6,0,0,0-2.08-2.18,100.94,100.94,0,0,1-24.4-18.38,6.76,6.76,0,0,0-1.53-.9,12.43,12.43,0,0,0-1.11-2c-1.15-1.42-2.4-2.76-3.61-4.13l-3.15-3.62c-0.48.58-.76,0.86-1,1.18-3,4.76-6,9.6-9.13,14.28a92,92,0,0,1-7.11,9.27c-3.53,4-7.31,7.79-11,11.61a109.56,109.56,0,0,1-16.2,13.33,126.29,126.29,0,0,1-25.81,14c-2.66,1-5.34,2.06-8,3.09l-14.75,4.09c1.44,2.8,2.74,5.35,4.06,7.9,18.53,35.84,41.83,68.16,70.93,96.21a325.73,325.73,0,0,0,43.92,35.55,330.55,330.55,0,0,0,84.52,40.8,378.2,378.2,0,0,0,52,12.59q18.2,3.1,36.58,4.59c8.27,0.68,16.58,1.17,24.88,1.33,9.5,0.19,19,.09,28.52-0.2,8.62-.26,17.24-0.72,25.82-1.52q14.66-1.36,29.24-3.51a355.72,355.72,0,0,0,37.9-8,341.11,341.11,0,0,0,71.41-27.43,325,325,0,0,0,82.35-61.2,351.94,351.94,0,0,0,28.5-33,385.73,385.73,0,0,0,35.91-57.13c2-3.86,3.87-7.78,5.82-11.71l-13.94-5.65c-1.64-.83-3.27-1.68-4.92-2.47a7.66,7.66,0,0,0-2-.67c-4.54-.74-9.1-1.37-13.63-2.17-5.47-1-10.92-2.11-16.39-3.09q-11.13-2-22.3-3.84a1.83,1.83,0,0,1-1.76-1.81c-0.82-4.61-1.78-9.2-2.68-13.8q-2.49-12.75-5-25.5c-1.2-6.24-2.34-12.49-3.54-18.73-0.87-4.52-1.83-9-2.7-13.55-1.66-8.58-3.27-17.17-4.95-25.74-1.78-9.12-3.62-18.23-5.44-27.34-0.27-1.38.06-1.89,1.48-2.15,2-.37,4.07-0.67,6.11-1l12.92-2.17c4.23-.71,8.47-1.35,12.67-2.2,1.64-.33,3.5,0,5-1.26l-10.25-14.11-24.71,9.82c-0.45-.78-0.8-1.31-1.07-1.88q-2.44-5.08-4.84-10.17c-1.39-3-2.71-6-4.15-8.89-1.23-2.5-2.6-4.93-3.93-7.38a3.65,3.65,0,0,0-.73-0.72v94.86c6.55,1.46,13.09,2.16,19.34,3.79,0.56,6,.3,66.6-0.3,68.4a20.79,20.79,0,0,1-2.34,0c-2.29-.26-4.57-0.57-6.85-0.88-3.14-.43-6.28-0.92-9.43-1.31S2205.22,1874.44,2202,1874.09Zm54-159.47c0.39,0.69.69,1.24,1,1.79,1.92,3.31,3.69,6.72,5.79,9.92,7.91,12,18.1,21.88,29.41,30.66,10.3,8,21.35,14.86,32.47,21.64,7.56,4.61,15.11,9.25,22.45,14.18a70.35,70.35,0,0,1,17.51,16.24c4,5.31,6.57,11.1,6.34,17.92-0.17,5-2.42,8.54-6.89,10.62a19,19,0,0,1-12.37,1.57,84,84,0,0,1-11.45-3.31c-12.34-4.73-22.46-12.68-31.39-22.25a140.14,140.14,0,0,1-22.36-32.74,238.85,238.85,0,0,1-10.17-24.52c-0.3-.8-0.64-1.58-1-2.52l-38.94,6.52,21,108.31,36.16,6.51,1-2.08,0.92-2,1.38,0.82c20.07,11.93,41.55,19.75,64.9,22a90.37,90.37,0,0,0,40.53-5c23.47-8.75,39.08-25,46-49.26,3.56-12.39,4-25,2.4-37.75a98.33,98.33,0,0,0-10.78-34c-7.45-14.12-17.74-25.93-29.71-36.37-0.38-.33-0.69-0.73-1.25-1.33l36.41-1.78L2426,1626.32l-35.74-9.42-1.54,3c-0.53-.32-0.87-0.52-1.2-0.73-17.92-11.59-37.38-18.79-58.71-20.74a79.28,79.28,0,0,0-32.14,3.55c-20.37,6.66-35.18,19.62-43.8,39.4-0.2.45-.46,0.87-0.9,1.7l-5.14-20.28c-12.46-2.11-24.9-3.81-37.31-5.6l-2,6.26q-47.07-6.17-94.18-9.89l-2-6.53c-12.54-1.19-25.09-1.76-37.7-2.47-7.73,28.79-16,57.18-23.32,85.89l34.89,20.13c3.24-5.27,6.38-10.35,9.5-15.44a100.28,100.28,0,0,1,10.81-14.92,40.61,40.61,0,0,1,11.44-9.35c0.75-.38,1.56-0.65,2.44-1V1768c-0.67-.48-1.12-0.79-1.56-1.12-5.18-4-10.29-8.13-15.56-12-4.55-3.36-8.55-7.53-14-9.87l-9.66,12.91c-6.38,8.54-13.19,16.68-21.34,23.61-5.88,5-12.24,9.21-19.66,11.61a33.82,33.82,0,0,1-8.26,1.7v-139l19.23-.42c1.42-15.3,1.25-30.34,1.12-45.51-1.38-.11-2.56-0.26-3.74-0.28-12.47-.19-24.94-0.5-37.41-0.5-18.79,0-37.58.22-56.37,0.37-5,0-9.91.16-14.86,0.28-2.29.06-4.57,0.22-7,.34v39.12c-0.7-.84-1.12-1.29-1.48-1.77a97.87,97.87,0,0,0-11.26-12.74c-16.34-15.48-35.91-23.37-58.24-24.6a107.4,107.4,0,0,0-27.86,2.28,104.28,104.28,0,0,0-52.45,28,124.44,124.44,0,0,0-25.27,35.86c-0.21.44-.49,0.85-0.87,1.5-0.22-.66-0.38-1-0.46-1.41q-3.4-16-6.78-32.09-5.82-27.65-11.65-55.3a24.91,24.91,0,0,0-.77-2.42c-3.88.66-7.49,1.26-11.09,1.9-8.56,1.52-17.09,3.19-25.68,4.5-2.68.41-4.21,1.39-4.71,4a0.71,0.71,0,0,1-.24.29c-3.92-.68-7.73-1.53-11.6-2a86.32,86.32,0,0,0-28.59,1.49c-24.73,5.34-46.08,17-64.28,34.55a160.28,160.28,0,0,0-32.33,44.33,202.17,202.17,0,0,0-21.39,102.68,166.83,166.83,0,0,0,6.42,38.17c4.48,15.3,11.06,29.6,21,42.17,16.9,21.32,39,32.67,66.13,34.12a111.86,111.86,0,0,0,30.92-3c26.72-6.09,49-19.64,66.85-40.39a156.47,156.47,0,0,0,25.79-42.38c0.31-.73.66-1.45,1.07-2.35,0.34,0.51.49,0.7,0.6,0.91a100.25,100.25,0,0,0,22.42,30.53c15,13.79,32.83,21.16,53,23a107.46,107.46,0,0,0,21.77-.34,112.9,112.9,0,0,0,25.38-5.66c22.42-7.92,40.19-21.93,53.85-41.29,0.47-.67,1-1.31,1.48-2l0.41,0.17v39.65c4.36-.16,8.49-0.37,12.63-0.45,12.15-.23,24.29-0.54,36.44-0.56,14.31,0,28.62.19,42.93,0.42q15.7,0.25,31.39.83c10.61,0.38,21.22.94,31.83,1.42a3.64,3.64,0,0,0,3.83-2.4q3-7.29,6.06-14.59l4-9.59,0.42,0.09v27.14c1.18,0.16,2.18.34,3.19,0.42,6.69,0.54,13.38,1,20.06,1.61,7.72,0.69,15.42,1.48,23.13,2.24,6.91,0.68,13.83,1.31,20.74,2.08,7.46,0.83,14.9,1.79,22.35,2.7,8.24,1,16.49,1.94,24.72,3.07,1.64,0.23,3,.3,4.25-1V1819c-1-.22-2-0.46-3-0.65-4.07-.77-8.16-1.47-12.22-2.28-4.38-.87-4.37-0.91-4.37-5.49q0-64,0-127.92c0-.77,0-1.53,0-2.64,0.76,0.49,1.22.76,1.65,1.07a56.32,56.32,0,0,1,10.27,10,128.82,128.82,0,0,1,13.88,21.79c1.93,3.66,3.89,7.31,5.9,11.07,4.63-.9,8.6-3.22,12.87-4.67S2251.7,1716.23,2256,1714.62Zm-83,155.86c-6.65-.74-12.9-1.5-19.17-2.11-9.22-.9-18.44-1.73-27.67-2.54-10.26-.9-20.51-1.88-30.79-2.57-10-.67-19.93-1-29.91-1.47-8.94-.38-17.88-0.77-26.82-0.95q-23.37-.46-46.75-0.63c-9.59-.06-19.18.17-28.77,0.34-12.38.21-24.77,0.5-37.15,0.74-1.81,0-3.63,0-5.73,0v-21.64a117.69,117.69,0,0,1-53.85,28.64c-20.17,4.69-40.35,4.88-60.94-.72,0.6,0.92.84,1.33,1.11,1.71a216.37,216.37,0,0,0,30.17,34.66,206.13,206.13,0,0,0,52.63,35.42c25.19,11.83,51.79,18.24,79.42,20.56a262.26,262.26,0,0,0,31.6.75,277.65,277.65,0,0,0,32.18-3,219.21,219.21,0,0,0,40.72-10.22c41-14.68,73.77-40.07,98.86-75.53C2172.49,1871.59,2172.68,1871.17,2173.07,1870.48ZM2109.61,1745v-49.81l-0.46-.18-18.36,29.85-16.39-9.5c-5.45-3.16-10.9-6.32-16.37-9.45s-10.74-6.3-16.39-9.33v82.82c1.86-1.18,3.48-2.13,5-3.21,7.79-5.48,14.23-12.36,20-19.84,6.8-8.78,13.38-17.72,20.06-26.59,0.36-.48.79-0.91,1.24-1.43Zm187.82,30.25-0.48.45c1.71,3,3.38,6.11,5.15,9.12a110.23,110.23,0,0,0,24.07,28.87,63.7,63.7,0,0,0,18.33,11.08,75.7,75.7,0,0,0,8.2,2.59c2.75,0.7,3.51.13,4.2-2.57a7.38,7.38,0,0,1,.31-1.4c1-2.13.38-4-.82-5.8-0.13-.2-0.29-0.38-0.43-0.58a52.09,52.09,0,0,0-9.67-10.2,131.81,131.81,0,0,0-16.35-11.59q-15.35-9.49-30.71-19C2298.63,1776,2298,1775.64,2297.43,1775.3Z" transform="translate(-1521.82 -1290.41)"></path>
                        <path class="cls-2" d="M2256,1714.62c-4.32,1.61-8.53,3.27-12.8,4.73s-8.25,3.77-12.87,4.67c-2-3.77-4-7.41-5.9-11.07a128.82,128.82,0,0,0-13.88-21.79,56.32,56.32,0,0,0-10.27-10c-0.43-.31-0.88-0.58-1.65-1.07,0,1.1,0,1.87,0,2.64q0,64,0,127.92c0,4.57,0,4.61,4.37,5.49,4.06,0.81,8.15,1.52,12.22,2.28,1,0.19,2,.43,3,0.65v44.19c-1.24,1.25-2.61,1.18-4.25,1-8.22-1.13-16.48-2.07-24.72-3.07-7.45-.91-14.9-1.87-22.35-2.7-6.9-.77-13.82-1.4-20.74-2.08-7.71-.76-15.42-1.55-23.13-2.24-6.68-.6-13.38-1.06-20.06-1.61-1-.08-2-0.27-3.19-0.42v-27.14l-0.42-.09-4,9.59q-3,7.29-6.06,14.59a3.64,3.64,0,0,1-3.83,2.4c-10.61-.48-21.22-1-31.83-1.42q-15.69-.56-31.39-0.83c-14.31-.23-28.62-0.44-42.93-0.42-12.15,0-24.29.33-36.44,0.56-4.14.08-8.27,0.29-12.63,0.45v-39.65l-0.41-.17c-0.49.66-1,1.3-1.48,2-13.66,19.36-31.43,33.37-53.85,41.29a112.9,112.9,0,0,1-25.38,5.66,107.46,107.46,0,0,1-21.77.34c-20.17-1.88-38-9.25-53-23a100.25,100.25,0,0,1-22.42-30.53c-0.1-.21-0.26-0.4-0.6-0.91-0.41.9-.77,1.62-1.07,2.35a156.47,156.47,0,0,1-25.79,42.38c-17.88,20.74-40.13,34.3-66.85,40.39a111.86,111.86,0,0,1-30.92,3c-27.13-1.45-49.23-12.8-66.13-34.12-10-12.57-16.54-26.87-21-42.17a166.83,166.83,0,0,1-6.42-38.17,202.17,202.17,0,0,1,21.39-102.68,160.28,160.28,0,0,1,32.33-44.33c18.2-17.5,39.56-29.2,64.28-34.55a86.32,86.32,0,0,1,28.59-1.49c3.86,0.46,7.68,1.31,11.6,2a0.71,0.71,0,0,0,.24-0.29c0.51-2.6,2-3.59,4.71-4,8.59-1.3,17.12-3,25.68-4.5,3.6-.64,7.21-1.24,11.09-1.9a24.91,24.91,0,0,1,.77,2.42q5.84,27.64,11.65,55.3,3.38,16,6.78,32.09c0.08,0.38.24,0.75,0.46,1.41,0.38-.64.66-1.05,0.87-1.5a124.44,124.44,0,0,1,25.27-35.86,104.28,104.28,0,0,1,52.45-28,107.4,107.4,0,0,1,27.86-2.28c22.33,1.22,41.9,9.11,58.24,24.6a97.87,97.87,0,0,1,11.26,12.74c0.36,0.49.77,0.93,1.48,1.77v-39.12c2.48-.12,4.76-0.28,7-0.34,5-.12,9.91-0.24,14.86-0.28,18.79-.15,37.58-0.37,56.37-0.37,12.47,0,24.94.31,37.41,0.5,1.18,0,2.36.17,3.74,0.28,0.12,15.16.3,30.21-1.12,45.51l-19.23.42v139a33.82,33.82,0,0,0,8.26-1.7c7.42-2.4,13.78-6.61,19.66-11.61,8.15-6.93,15-15.08,21.34-23.61l9.66-12.91c5.43,2.34,9.43,6.51,14,9.87,5.27,3.89,10.38,8,15.56,12,0.43,0.33.89,0.64,1.56,1.12v-98.17c-0.88.36-1.69,0.63-2.44,1a40.61,40.61,0,0,0-11.44,9.35,100.28,100.28,0,0,0-10.81,14.92c-3.12,5.09-6.26,10.18-9.5,15.44l-34.89-20.13c7.3-28.71,15.59-57.1,23.32-85.89,12.61,0.71,25.16,1.28,37.7,2.47l2,6.53q47.19,3.75,94.18,9.89l2-6.26c12.41,1.79,24.85,3.48,37.31,5.6l5.14,20.28c0.44-.82.71-1.25,0.9-1.7,8.62-19.78,23.43-32.74,43.8-39.4a79.28,79.28,0,0,1,32.14-3.55c21.33,1.95,40.79,9.15,58.71,20.74,0.33,0.21.67,0.41,1.2,0.73l1.54-3,35.74,9.42,19.49,102.07-36.41,1.78c0.56,0.6.87,1,1.25,1.33,12,10.43,22.25,22.25,29.71,36.37a98.33,98.33,0,0,1,10.78,34c1.58,12.74,1.15,25.36-2.4,37.75-7,24.23-22.56,40.51-46,49.26a90.37,90.37,0,0,1-40.53,5c-23.36-2.2-44.83-10-64.9-22l-1.38-.82-0.92,2-1,2.08-36.16-6.51-21-108.31,38.94-6.52c0.39,0.94.73,1.72,1,2.52a238.85,238.85,0,0,0,10.17,24.52,140.14,140.14,0,0,0,22.36,32.74c8.92,9.58,19,17.52,31.39,22.25a84,84,0,0,0,11.45,3.31,19,19,0,0,0,12.37-1.57c4.47-2.08,6.72-5.66,6.89-10.62,0.23-6.82-2.39-12.62-6.34-17.92a70.35,70.35,0,0,0-17.51-16.24c-7.35-4.93-14.9-9.57-22.45-14.18-11.12-6.78-22.17-13.65-32.47-21.64-11.31-8.77-21.51-18.63-29.41-30.66-2.1-3.19-3.87-6.6-5.79-9.92C2256.71,1715.87,2256.42,1715.32,2256,1714.62Zm33,133.19c0.41,0.29.74,0.51,1,.75a137.41,137.41,0,0,0,73.45,30.42,74,74,0,0,0,33.26-4c17.46-6.31,29.74-18,36-35.66,3.56-10.09,4.45-20.54,3.6-31.18a84.59,84.59,0,0,0-9.91-33.76c-6-11.11-14-20.55-23.3-29-11.08-10.15-23.45-18.5-36.31-26.15-8.51-5.06-17.17-9.86-25.62-15a83.32,83.32,0,0,1-20-16.33c-6.09-7-10-14.93-10.4-24.41-0.61-13.24,8.47-23,21.19-25.08,5.77-.94,11.27.08,16.74,1.76,15,4.58,27.36,13.27,38,24.53,12,12.69,20.86,27.41,27.35,43.59,0.86,2.14,1.65,4.3,2.52,6.54l10.78-.64L2413,1638.44l-14.16-3.71-4.16,9.52c-0.53-.47-0.86-0.79-1.22-1.09-4-3.31-7.82-6.87-12-9.87-13-9.23-27.5-15.07-43.05-18.38-12-2.56-24-2.58-35.78,1-17.4,5.28-29.88,16.14-36.59,33.21-3.29,8.37-4.31,17.13-4,26.1a80.93,80.93,0,0,0,7.86,33.07c5.6,11.64,13.75,21.31,23.31,29.86,10.35,9.25,21.88,16.86,33.67,24.11,8.57,5.27,17.23,10.4,25.67,15.87a96.51,96.51,0,0,1,21.9,18.88c7.46,8.92,12.16,18.89,11.65,30.84-0.34,7.94-3.32,14.59-9.52,19.62-7.67,6.22-16.63,7.83-26.18,6.74a61.67,61.67,0,0,1-15.85-4.43c-14.77-5.91-27-15.36-37.59-27.06-13.13-14.5-22.76-31.15-30-49.24-0.35-.87-0.71-1.74-1.13-2.77l-11.56,1.92,16.14,83,14.27,2.57ZM1701.4,1619.92c-3.08-1.45-5.83-2.94-8.72-4.06-12.78-5-25.89-5.11-39.09-2.14-22,4.95-40.79,15.86-56.68,31.75a146.61,146.61,0,0,0-29,41.73,185.7,185.7,0,0,0-17.92,85.66,156.91,156.91,0,0,0,4.54,33.65c3.43,13.66,8.65,26.57,16.88,38.1q22.1,31,60.18,31.25a94.51,94.51,0,0,0,17.37-1.7,105.35,105.35,0,0,0,61.76-34.86c10.49-11.86,18.27-25.37,24.2-40a153,153,0,0,0,6.07-17.82l-19.64-4.53-0.38,1.44c-5.35,20.07-14.61,38-29.6,52.57-9.58,9.34-20.77,15.85-34.05,18.38a37.14,37.14,0,0,1-17.78-.54c-8.16-2.42-14-7.78-18.54-14.73a70.67,70.67,0,0,1-8.47-19.47c-4-14-5.48-28.36-6.09-42.83-0.33-7.73-.24-15.48-0.3-23.23a289.34,289.34,0,0,1,1.49-31.83,191.38,191.38,0,0,1,4.48-26.67c2.71-10.9,6.49-21.38,12.66-30.87,7-10.73,16.2-18.62,28.56-22.51,10.7-3.36,21.23-3.12,31.48,1.72a57.49,57.49,0,0,1,17,12.69,107.09,107.09,0,0,1,15.56,21.5c1.68,3,3.25,6,4.94,9.13l12.14-6.28-14.64-69.3-14.29,2.55Zm234.8,108.52a127.7,127.7,0,0,0-3.55-31.6c-3.73-15.92-10.19-30.57-20.78-43.19a71.87,71.87,0,0,0-34.5-23.2,80,80,0,0,0-28.64-3.19,91.57,91.57,0,0,0-29.52,6.63c-17.14,7.07-30.62,18.64-41,33.86-15.21,22.34-21.75,47.38-22.48,74.12a130.94,130.94,0,0,0,2.17,27.18c2.44,13.32,6.78,25.93,14,37.45,9.7,15.52,22.94,26.67,40.56,32.22a84.48,84.48,0,0,0,36,2.88,94.14,94.14,0,0,0,31.06-9.08c19.86-9.92,33.95-25.47,43.61-45.22C1932.2,1768.74,1936.13,1749,1936.21,1728.44Zm263.68,104.83c-3.2-1.08-6.28-1.93-9.2-3.17a15.84,15.84,0,0,1-9.63-12,28.17,28.17,0,0,1-.62-5.71q0-73.06,0-146.12a13.72,13.72,0,0,1,.53-3.77,5.79,5.79,0,0,1,6.26-4.47,33.9,33.9,0,0,1,5,.78c10.89,2.52,19.64,8.59,27.21,16.56,7.09,7.47,12.67,16,17.63,25l1.42,2.58,8.84-3.27-15.57-62-10.24-1.48c-2.33,4.74-3.94,5.68-9,5.13-3.65-.39-7.28-1-10.93-1.42-7.05-.88-14.11-1.76-21.17-2.6-6.42-.76-12.85-1.5-19.29-2.18-7.23-.76-14.46-1.46-21.7-2.15-6.36-.6-12.73-1.16-19.1-1.72-5.33-.46-10.67-0.85-16-1.35a7.71,7.71,0,0,1-6.45-4.72c-0.31-.64-0.56-1.31-0.91-2.14l-10.58-.64-16.14,58.68,8.84,5.07c0.53-.79,1-1.42,1.4-2.08,4.7-7.37,9.91-14.33,16.46-20.19,9-8,19.2-12.79,31.54-12.06,4,0.24,7,2.57,7.76,6.52a22.34,22.34,0,0,1,.37,4.28q0,70.18,0,140.36c0,2.64.24,5.28,0.07,7.91-0.35,5.37-2.84,9.43-7.94,11.55a20.2,20.2,0,0,1-4.58,1.28c-2.34.37-4.72,0.5-7.1,0.73v11.77l82.86,8.69v-11.64ZM2091.57,1769l-2.13,2.73a144.94,144.94,0,0,1-24.36,25.36c-13.78,10.93-29.24,16.41-47,14.74a7.1,7.1,0,0,1-6.57-5.08,16.85,16.85,0,0,1-.62-4.72q0-72.71,0-145.42a29.55,29.55,0,0,1,.57-5.71,13.25,13.25,0,0,1,8.79-10.51,24.54,24.54,0,0,1,4.39-1.1c1.93-.33,3.89-0.48,5.74-0.7v-12.1c-27.8-.79-55.42-0.57-83.14.09v12.06c2.71,0.41,5.34.62,7.89,1.22,6.16,1.43,10.31,5,11.23,11.54a65.43,65.43,0,0,1,.44,9.06q0,68.27,0,136.54c0,1.12.11,2.24,0.08,3.35a47,47,0,0,1-.3,5.26c-1.06,7.41-5.62,11.55-12.68,13.21-2.16.51-4.37,0.81-6.61,1.22v12.13q64.59-1.46,128.77,1.62l24.1-58.15ZM1749,1687.21l-34.35,17.71-5.26-10.78c-3.68-7.53-7.41-15-12.24-21.92-4.06-5.79-8.58-11.13-14.36-15.31-8.24-6-17-7-26.49-3.24-6.94,2.75-12.14,7.55-16.3,13.58-4.86,7-7.83,14.95-10.11,23.12-3.87,13.84-5.46,28-6.09,42.32-0.35,7.89-.24,15.8-0.3,23.7a259.76,259.76,0,0,0,1.52,30.85,129.64,129.64,0,0,0,4.89,24.85c1.86,5.89,4.2,11.55,8.38,16.25a13.85,13.85,0,0,0,8.15,4.62,21.92,21.92,0,0,0,8.08-.4,46.16,46.16,0,0,0,19.35-9c8.8-6.69,15.4-15.25,20.81-24.8a111.5,111.5,0,0,0,11.53-31.31c0.78-3.56,1.71-7.08,2.61-10.8l31.09,7A165.19,165.19,0,0,1,1749,1687.21Zm655.87,39.44c-1.69-4.67-3.06-8.9-4.73-13-7-17.06-16.6-32.34-30.51-44.67a67.35,67.35,0,0,0-26.92-15,18.12,18.12,0,0,0-8.72-.7c-4.7,1-8.62,4-8.11,10a23.73,23.73,0,0,0,4.75,12.09A51.9,51.9,0,0,0,2341.3,1686c7.05,5.41,14.77,9.75,22.5,14.08,13.87,7.76,27.39,16,39.86,25.95A11.64,11.64,0,0,0,2404.82,1726.65Zm-454.94,36.57a159.88,159.88,0,0,1-16.41,40.86c5.75-.72,11.14-0.69,16.41-1.77v-39.08Zm-15.64-107.64a109.8,109.8,0,0,1,9.14,18.64c2.26,6.32,4.25,12.74,6.45,19.38V1656Zm185.17,122.05-0.42-.05-12.15,29.25,12.57,0.47v-29.67Z" transform="translate(-1521.82 -1290.41)"></path>
                        <path class="cls-3" d="M1674.45,1897.4c2.67-1,5.35-2,8-3.09a126.29,126.29,0,0,0,25.81-14,109.56,109.56,0,0,0,16.2-13.33c3.73-3.82,7.51-7.61,11-11.61a92,92,0,0,0,7.11-9.27c3.17-4.68,6.09-9.52,9.13-14.28,0.21-.32.48-0.6,1-1.18l3.15,3.62c1.21,1.38,2.46,2.71,3.61,4.13a12.43,12.43,0,0,1,1.11,2c2.43,5,4.77,10.1,7.32,15.06a243.53,243.53,0,0,0,41.6,58.33,231.21,231.21,0,0,0,67.93,48.79A251.16,251.16,0,0,0,1949,1984a285.76,285.76,0,0,0,36.52,2.95,302.05,302.05,0,0,0,38.06-1.59,271,271,0,0,0,30.69-5.11A235.42,235.42,0,0,0,2117.7,1956a228,228,0,0,0,74.15-66.57c3.59-5,6.77-10.25,10.13-15.39,3.24,0.35,6.48.67,9.71,1.07s6.28,0.88,9.43,1.31c2.28,0.31,4.56.62,6.85,0.88a20.79,20.79,0,0,0,2.34,0c0.6-1.79.86-62.39,0.3-68.4-6.25-1.62-12.8-2.32-19.34-3.79v-94.86a3.65,3.65,0,0,1,.73.72c1.33,2.45,2.69,4.88,3.93,7.38,1.45,2.93,2.76,5.93,4.15,8.89q2.4,5.09,4.84,10.17c0.27,0.57.62,1.1,1.07,1.88l24.71-9.82,10.25,14.11c-1.47,1.22-3.33.93-5,1.26-4.2.85-8.44,1.48-12.67,2.2l-12.92,2.17c-2,.34-4.08.65-6.11,1-1.42.26-1.75,0.77-1.48,2.15,1.81,9.11,3.65,18.22,5.44,27.34,1.68,8.57,3.29,17.16,4.95,25.74,0.88,4.52,1.83,9,2.7,13.55,1.2,6.24,2.34,12.49,3.54,18.73q2.45,12.75,5,25.5c0.9,4.6,1.85,9.19,2.68,13.8a1.83,1.83,0,0,0,1.76,1.81q11.16,1.84,22.3,3.84c5.47,1,10.91,2.12,16.39,3.09,4.53,0.8,9.09,1.43,13.63,2.17a7.66,7.66,0,0,1,2,.67c1.66,0.79,3.29,1.64,4.92,2.47-0.34.63-.69,1.26-1,1.9-3.69,7.08-7.2,14.26-11.1,21.22a343.35,343.35,0,0,1-63.65,82.41,310.47,310.47,0,0,1-93,60.73c-34.52,14.63-70.62,22.91-107.87,26.31-11.2,1-22.47,1.63-33.72,1.84-10.78.2-21.57-.25-32.35-0.62a342.07,342.07,0,0,1-34.58-3.14q-17.91-2.44-35.52-6.54a330.55,330.55,0,0,1-79.62-29.44,310.47,310.47,0,0,1-81.27-61.84,345.89,345.89,0,0,1-50-68C1681,1909.83,1677.78,1903.59,1674.45,1897.4Zm337.47,145.93a19.87,19.87,0,0,0-20.29-20.3,20.28,20.28,0,0,0-20.16,20.3c-0.11,11.27,9.69,20.44,20.28,20.44S2012.51,2054.59,2011.92,2043.33Zm211.2-120.28a20.36,20.36,0,0,0,0,40.72,20.05,20.05,0,0,0,20.55-20.2C2243.76,1932.08,2234.6,1923.16,2223.12,1923.05Zm-439.68,17.35c0.86-10.89-9.8-20.22-19.78-20.35-11.18-.15-20.63,9.63-20.66,20.15a20.51,20.51,0,0,0,20.23,20.56C1774.73,1960.82,1784,1951.28,1783.44,1940.4Z" transform="translate(-1521.82 -1290.41)"></path>
                        <path class="cls-3" d="M2325.87,1585.63a25.25,25.25,0,0,1-3.21.46,101.27,101.27,0,0,0-30.27,4.71,81.12,81.12,0,0,0-26.93,14.61c-2.8,2.34-5.52,4.79-8.37,7.27-1.57-1.75-4-1.13-6.11-1.57-3.65-.75-7.36-1.19-11-1.72-3.06-.44-6.13-0.84-9.19-1.26-0.27-2.2-.43-4.43-0.84-6.61-3.88-20.88-7.54-41.8-11.77-62.6-4.5-22.13-9.39-44.18-14.37-66.21-5.43-24-10.16-48.1-13.43-72.49a71.55,71.55,0,0,1,.17-22.67c2.21-11.92,7.16-22.44,15.81-31.1a84,84,0,0,1,26.85-17.65c17.92-7.68,36.83-10.83,56.14-11.88,7.57-.41,15.17-0.39,22.76-0.36a136.1,136.1,0,0,1,13.63.74,9.54,9.54,0,0,1,8.29,6.7,15.59,15.59,0,0,1,.8,5.15q0.08,31.79,0,63.58c0,0.48,0,1,0,1.44-0.34,6-4.05,9.94-10,10.64-1.11.13-2.22,0.21-3.34,0.29a60.24,60.24,0,0,0-16.83,3.39c-7.28,2.68-13.23,7-16.9,14a33.67,33.67,0,0,0-3.52,14.3,36.61,36.61,0,0,0,1.95,14.35c3.29,9.07,6.28,18.26,9.25,27.44,10.25,31.74,19.62,63.74,27.89,96.06C2324.25,1578.31,2325,1582,2325.87,1585.63Zm-69.71-113.31c-11.81-.47-20.41,9.13-20.44,20.11s8.46,19.83,19.92,20.3c10.86,0.44,20.78-9.17,20.83-20.15C2276.52,1482.13,2267.28,1471.48,2256.16,1472.32Z" transform="translate(-1521.82 -1290.41)"></path>
                        <path class="cls-3" d="M1749.3,1601.93c-0.63-2.77-1.28-5.53-1.87-8.3-1.31-6.13-2.59-12.26-3.9-18.39a18.66,18.66,0,0,0-.65-1.93,6.87,6.87,0,0,0-1.59-.09c-5.23.91-10.46,1.85-15.68,2.79-8.74,1.57-17.47,3.16-26.21,4.71-4.06.72-8.13,1.35-12.19,2.06-1.24.22-2.47,0.89-3.69,0.85-3.48-.13-7-0.53-10.43-0.79a29.26,29.26,0,0,0-3.59-.05c-1.74.09-3.48,0.26-5.22,0.43-2.6.25-5.2,0.54-7.8,0.8-0.87.09-1.75,0.12-2.62,0.18a7.51,7.51,0,0,1,.13-0.94c2.66-10.19,5.25-20.41,8-30.57q14.19-52.23,31.9-103.37a17.18,17.18,0,0,0,1.09-4.64,77.17,77.17,0,0,0,0-10.29c-0.59-7.13-3.06-13.53-8.29-18.63s-11.64-7.8-18.64-9.15c-4.53-.87-9.17-1.22-13.75-1.81a10.51,10.51,0,0,1-9.57-10.72q0-33.12,0-66.24a10.35,10.35,0,0,1,9.41-10.58c4.29-.42,8.61-0.64,12.92-0.69q9.46-.11,18.93.18a190.19,190.19,0,0,1,38.43,4.94c12.57,3,24.6,7.35,35.57,14.31,8.13,5.15,15.28,11.38,20.47,19.56,8.32,13.09,10.74,27.5,8.9,42.72-0.74,6.1-1.59,12.2-2.66,18.25-2.34,13.21-4.58,26.44-7.36,39.56-6.59,31.16-13.58,62.24-20.17,93.4-3,14.06-5.36,28.24-8,42.36Zm-22.22-129.62a19.71,19.71,0,0,0-20.34,20.17,20.14,20.14,0,0,0,20,20.21c11.66,0.31,20.59-9.5,20.75-20.21S1737.64,1471.38,1727.08,1472.32Z" transform="translate(-1521.82 -1290.41)"></path>
                        <path class="cls-2" d="M1674.45,1897.4c3.33,6.18,6.56,12.43,10,18.54a345.89,345.89,0,0,0,50,68,310.47,310.47,0,0,0,81.27,61.84,330.55,330.55,0,0,0,79.62,29.44q17.62,4.1,35.52,6.54a342.07,342.07,0,0,0,34.58,3.14c10.78,0.36,21.57.82,32.35,0.62,11.25-.21,22.51-0.82,33.72-1.84,37.25-3.4,73.34-11.69,107.87-26.31a310.47,310.47,0,0,0,93-60.73,343.35,343.35,0,0,0,63.65-82.41c3.9-7,7.41-14.14,11.1-21.22,0.33-.64.68-1.26,1-1.9l13.94,5.65c-1.95,3.93-3.83,7.85-5.82,11.71a385.73,385.73,0,0,1-35.91,57.13,351.94,351.94,0,0,1-28.5,33,325,325,0,0,1-82.35,61.2,341.11,341.11,0,0,1-71.41,27.43,355.72,355.72,0,0,1-37.9,8q-14.56,2.17-29.24,3.51c-8.58.8-17.21,1.25-25.82,1.52-9.5.29-19,.39-28.52,0.2-8.3-.16-16.6-0.66-24.88-1.33q-18.38-1.5-36.58-4.59a378.2,378.2,0,0,1-52-12.59,330.55,330.55,0,0,1-84.52-40.8,325.73,325.73,0,0,1-43.92-35.55c-29.11-28-52.4-60.37-70.93-96.21-1.32-2.55-2.62-5.1-4.06-7.9Z" transform="translate(-1521.82 -1290.41)"></path>
                        <path class="cls-2" d="M1749.3,1601.93l1.9-10.11c2.65-14.13,5-28.31,8-42.36,6.58-31.16,13.58-62.24,20.17-93.4,2.77-13.12,5-26.35,7.36-39.56,1.07-6.05,1.92-12.15,2.66-18.25,1.84-15.22-.59-29.63-8.9-42.72-5.19-8.18-12.34-14.4-20.47-19.56-11-7-23-11.33-35.57-14.31a190.19,190.19,0,0,0-38.43-4.94q-9.46-.27-18.93-0.18c-4.31,0-8.63.27-12.92,0.69a10.35,10.35,0,0,0-9.41,10.58q0,33.12,0,66.24a10.51,10.51,0,0,0,9.57,10.72c4.59,0.59,9.22.94,13.75,1.81,7,1.34,13.43,4.07,18.64,9.15s7.7,11.5,8.29,18.63a77.17,77.17,0,0,1,0,10.29,17.18,17.18,0,0,1-1.09,4.64q-17.71,51.14-31.9,103.37c-2.76,10.17-5.35,20.38-8,30.57a7.51,7.51,0,0,0-.13.94c-2.24.51-4.49,1-6.72,1.54-3.16.8-6.3,1.66-9.61,2.54a12.89,12.89,0,0,1,.18-1.64c9-37.08,19.52-73.71,31.19-110,3.42-10.63,7.19-21.14,10.57-31.78a20.69,20.69,0,0,0-1.26-15.61c-1.38-2.86-3.9-4.58-6.73-5.86a41.45,41.45,0,0,0-15.33-3.34c-5.87-.27-11.36-1.57-16.11-5.22-6.69-5.15-10.23-11.94-10.24-20.41,0-22.24.06-44.47,0-66.71-0.06-13,10-24.24,22.45-25.34,6.52-.58,13.07-0.73,19.62-0.9a230.57,230.57,0,0,1,27.3,1c19.39,1.79,38.3,5.62,56.12,13.83a98,98,0,0,1,27.54,18.43,71.16,71.16,0,0,1,19.38,33.07,81.09,81.09,0,0,1,2.54,27.28c-0.79,11.18-2.94,22.15-4.72,33.18-4.15,25.63-10.55,50.79-15.92,76.16-5.29,25-10.54,50-15.33,75.07-3.24,16.93-5.68,34-8.44,51-0.71,4.41-1.28,8.84-2,13.73-0.32-.94-0.55-1.46-0.66-2q-4.09-19.32-8.16-38.65C1749.38,1603.05,1749.37,1602.49,1749.3,1601.93Z" transform="translate(-1521.82 -1290.41)"></path>
                        <path class="cls-2" d="M2325.87,1585.63c-0.85-3.65-1.62-7.31-2.55-10.94-8.27-32.32-17.65-64.32-27.89-96.06-3-9.19-6-18.37-9.25-27.44a36.61,36.61,0,0,1-1.95-14.35,33.67,33.67,0,0,1,3.52-14.3c3.67-7.05,9.62-11.35,16.9-14a60.24,60.24,0,0,1,16.83-3.39c1.11-.08,2.23-0.16,3.34-0.29,5.93-.7,9.64-4.66,10-10.64,0-.48,0-1,0-1.44q0-31.79,0-63.58a15.59,15.59,0,0,0-.8-5.15,9.54,9.54,0,0,0-8.29-6.7,136.1,136.1,0,0,0-13.63-.74c-7.59,0-15.19-.05-22.76.36-19.31,1.05-38.22,4.21-56.14,11.88a84,84,0,0,0-26.85,17.65c-8.66,8.66-13.61,19.19-15.81,31.1a71.55,71.55,0,0,0-.17,22.67c3.27,24.39,8,48.5,13.43,72.49,5,22,9.88,44.08,14.37,66.21,4.23,20.81,7.89,41.73,11.77,62.6,0.4,2.18.57,4.4,0.84,6.61l-12.07-1.84-3.21-.5c-0.64-3.64-1.24-7.24-1.9-10.84-2.31-12.48-4.4-25-7-37.43-5.72-27.42-11.71-54.78-17.57-82.18-2.47-11.55-5.14-23.06-7.27-34.67-2.42-13.18-4.6-26.42-6.41-39.71-2.09-15.42-.32-30.43,6.15-44.75,5.23-11.57,13.29-20.81,23.34-28.4,12.13-9.17,25.82-15.09,40.37-19.16a190,190,0,0,1,27.9-5.41,280.62,280.62,0,0,1,40.43-1.75c4.7,0.1,9.42.39,14.1,0.86,10.73,1.08,20.17,10.21,21.75,20.89a39.58,39.58,0,0,1,.42,5.73q0,32.4,0,64.79c0,9.48-4,17-12,22.18-4.39,2.88-9.36,3.87-14.56,4.08a45,45,0,0,0-14,2.8c-6.22,2.33-9.46,6.75-9.88,13.33a28.28,28.28,0,0,0,1.44,11.28q18.64,53.83,33.23,108.89c2.71,10.26,5.25,20.56,7.86,30.85,0.05,0.21.06,0.44,0.11,0.79a13,13,0,0,1-1.46,0c-4.2-.5-8.39-1-12.59-1.5C2327.14,1586.38,2326.34,1586.45,2325.87,1585.63Z" transform="translate(-1521.82 -1290.41)"></path>
                        <path class="cls-2" d="M2202,1874.09c-3.37,5.14-6.55,10.41-10.13,15.39A228,228,0,0,1,2117.7,1956a235.42,235.42,0,0,1-63.47,24.18,271,271,0,0,1-30.69,5.11,302.05,302.05,0,0,1-38.06,1.59A285.76,285.76,0,0,1,1949,1984a251.16,251.16,0,0,1-71.5-21.32,231.21,231.21,0,0,1-67.93-48.79,243.53,243.53,0,0,1-41.6-58.33c-2.55-5-4.89-10-7.32-15.06a6.76,6.76,0,0,1,1.53.9,100.94,100.94,0,0,0,24.4,18.38,6,6,0,0,1,2.08,2.18,230.71,230.71,0,0,0,24.38,33.46,216.58,216.58,0,0,0,62,49.16,227.8,227.8,0,0,0,61,21.78,279.83,279.83,0,0,0,64.75,5.53,281.61,281.61,0,0,0,30.28-2.65,240,240,0,0,0,44.3-10.62,211.41,211.41,0,0,0,77-46.57,214.53,214.53,0,0,0,32-38.08,3.31,3.31,0,0,1,3.68-1.77C2192.64,1872.87,2197.31,1873.46,2202,1874.09Z" transform="translate(-1521.82 -1290.41)"></path>
                        <path class="cls-4" d="M2297.43,1775.3c0.6,0.34,1.2.66,1.79,1q15.36,9.47,30.71,19a131.81,131.81,0,0,1,16.35,11.59,52.09,52.09,0,0,1,9.67,10.2c0.13,0.2.29,0.38,0.43,0.58,1.2,1.8,1.86,3.67.82,5.8a7.38,7.38,0,0,0-.31,1.4c-0.69,2.71-1.45,3.28-4.2,2.57a75.7,75.7,0,0,1-8.2-2.59,63.7,63.7,0,0,1-18.33-11.08,110.23,110.23,0,0,1-24.07-28.87c-1.77-3-3.44-6.08-5.15-9.12Z" transform="translate(-1521.82 -1290.41)"></path>
                        <path class="cls-3" d="M2289,1847.81l-4.5,10.42-14.27-2.57-16.14-83,11.56-1.92c0.42,1,.78,1.9,1.13,2.77,7.28,18.08,16.91,34.73,30,49.24,10.59,11.7,22.83,21.15,37.59,27.06a61.67,61.67,0,0,0,15.85,4.43c9.54,1.09,18.51-.52,26.18-6.74,6.2-5,9.18-11.68,9.52-19.62,0.51-12-4.19-21.92-11.65-30.84a96.51,96.51,0,0,0-21.9-18.88c-8.44-5.47-17.1-10.6-25.67-15.87-11.78-7.25-23.32-14.86-33.67-24.11-9.56-8.55-17.7-18.21-23.31-29.86a80.93,80.93,0,0,1-7.86-33.07c-0.27-9,.75-17.73,4-26.1,6.71-17.07,19.19-27.94,36.59-33.21,11.8-3.58,23.78-3.55,35.78-1,15.55,3.31,30.05,9.15,43.05,18.38,4.22,3,8,6.56,12,9.87,0.36,0.3.7,0.62,1.22,1.09l4.16-9.52,14.16,3.71,14.46,75.71-10.78.64c-0.86-2.25-1.66-4.41-2.52-6.54-6.5-16.17-15.34-30.9-27.35-43.59-10.66-11.26-23-19.95-38-24.53-5.47-1.67-11-2.7-16.74-1.76-12.72,2.07-21.8,11.84-21.19,25.08,0.44,9.48,4.31,17.39,10.4,24.41a83.32,83.32,0,0,0,20,16.33c8.45,5.14,17.11,9.94,25.62,15,12.87,7.65,25.24,16,36.31,26.15,9.26,8.48,17.32,17.92,23.3,29a84.59,84.59,0,0,1,9.91,33.76c0.85,10.65,0,21.1-3.6,31.18-6.22,17.65-18.5,29.35-36,35.66a74,74,0,0,1-33.26,4,137.41,137.41,0,0,1-73.45-30.42C2289.76,1848.32,2289.43,1848.1,2289,1847.81Z" transform="translate(-1521.82 -1290.41)"></path>
                        <path class="cls-3" d="M1701.4,1619.92l4.14-11.21,14.29-2.55,14.64,69.3-12.14,6.28c-1.69-3.13-3.26-6.16-4.94-9.13a107.09,107.09,0,0,0-15.56-21.5,57.49,57.49,0,0,0-17-12.69c-10.25-4.84-20.78-5.08-31.48-1.72-12.36,3.88-21.59,11.77-28.56,22.51-6.17,9.49-9.95,20-12.66,30.87a191.38,191.38,0,0,0-4.48,26.67,289.34,289.34,0,0,0-1.49,31.83c0.06,7.74,0,15.49.3,23.23,0.61,14.47,2.08,28.84,6.09,42.83a70.67,70.67,0,0,0,8.47,19.47c4.55,7,10.38,12.31,18.54,14.73a37.14,37.14,0,0,0,17.78.54c13.29-2.53,24.47-9,34.05-18.38,15-14.61,24.25-32.51,29.6-52.57l0.38-1.44,19.64,4.53a153,153,0,0,1-6.07,17.82c-5.94,14.62-13.71,28.13-24.2,40a105.35,105.35,0,0,1-61.76,34.86,94.51,94.51,0,0,1-17.37,1.7q-38.05-.22-60.18-31.25c-8.23-11.53-13.46-24.43-16.88-38.1a156.91,156.91,0,0,1-4.54-33.65,185.7,185.7,0,0,1,17.92-85.66,146.61,146.61,0,0,1,29-41.73c15.9-15.89,34.65-26.8,56.68-31.75,13.2-3,26.31-2.82,39.09,2.14C1695.57,1617,1698.32,1618.47,1701.4,1619.92Z" transform="translate(-1521.82 -1290.41)"></path>
                        <path class="cls-3" d="M1936.21,1728.44c-0.08,20.57-4,40.3-13.08,58.86-9.66,19.75-23.75,35.29-43.61,45.22a94.14,94.14,0,0,1-31.06,9.08,84.48,84.48,0,0,1-36-2.88c-17.62-5.55-30.86-16.69-40.56-32.22-7.2-11.52-11.54-24.14-14-37.45a130.94,130.94,0,0,1-2.17-27.18c0.73-26.74,7.27-51.78,22.48-74.12,10.36-15.22,23.84-26.79,41-33.86a91.57,91.57,0,0,1,29.52-6.63,80,80,0,0,1,28.64,3.19,71.87,71.87,0,0,1,34.5,23.2c10.58,12.62,17,27.27,20.78,43.19A127.7,127.7,0,0,1,1936.21,1728.44Zm-47,5.28c-0.21-7.86-.31-13.21-0.5-18.56a165.29,165.29,0,0,0-4-32.51c-1.94-8.2-4.67-16.1-9.54-23.09-4.19-6-9.58-10.57-16.78-12.41a36.62,36.62,0,0,0-26.71,3.28c-7.18,3.74-12.27,9.59-16.21,16.54-5.39,9.52-8.07,19.92-9.91,30.58a220.89,220.89,0,0,0-2.74,36c-0.07,9.5.35,19,.75,28.5a128.7,128.7,0,0,0,3.91,26.49c1.92,7.55,4.61,14.79,9.19,21.19,5.61,7.84,13.08,12.56,22.84,13.11,11.87,0.67,22.21-2.84,30.51-11.6a51.46,51.46,0,0,0,9.89-15.74c4.95-11.77,7.09-24.18,8.07-36.79C1888.68,1749.59,1888.87,1740.39,1889.18,1733.71Z" transform="translate(-1521.82 -1290.41)"></path>
                        <path class="cls-3" d="M2199.89,1833.27v11.64l-82.86-8.69v-11.77c2.38-.23,4.76-0.37,7.1-0.73a20.2,20.2,0,0,0,4.58-1.28c5.1-2.12,7.59-6.18,7.94-11.55,0.17-2.62-.07-5.27-0.07-7.91q0-70.18,0-140.36a22.34,22.34,0,0,0-.37-4.28c-0.78-4-3.72-6.28-7.76-6.52-12.34-.73-22.57,4-31.54,12.06-6.55,5.86-11.76,12.82-16.46,20.19-0.42.66-.87,1.29-1.4,2.08l-8.84-5.07,16.14-58.68,10.58,0.64c0.35,0.84.6,1.5,0.91,2.14a7.71,7.71,0,0,0,6.45,4.72c5.33,0.5,10.66.89,16,1.35,6.37,0.55,12.73,1.11,19.1,1.72,7.24,0.69,14.47,1.39,21.7,2.15,6.43,0.68,12.86,1.42,19.29,2.18,7.06,0.84,14.12,1.72,21.17,2.6,3.64,0.46,7.28,1,10.93,1.42,5.09,0.55,6.71-.39,9-5.13l10.24,1.48,15.57,62-8.84,3.27-1.42-2.58c-5-9-10.54-17.53-17.63-25-7.57-8-16.32-14-27.21-16.56a33.9,33.9,0,0,0-5-.78,5.79,5.79,0,0,0-6.26,4.47,13.72,13.72,0,0,0-.53,3.77q0,73.06,0,146.12a28.17,28.17,0,0,0,.62,5.71,15.84,15.84,0,0,0,9.63,12C2193.61,1831.34,2196.69,1832.18,2199.89,1833.27Z" transform="translate(-1521.82 -1290.41)"></path>
                        <path class="cls-3" d="M2091.57,1769l8.62,6.65-24.1,58.15q-64.25-3.17-128.77-1.62v-12.13c2.25-.41,4.45-0.72,6.61-1.22,7.06-1.66,11.62-5.8,12.68-13.21a47,47,0,0,0,.3-5.26c0-1.12-.08-2.24-0.08-3.35q0-68.27,0-136.54a65.43,65.43,0,0,0-.44-9.06c-0.91-6.49-5.07-10.1-11.23-11.54-2.54-.59-5.18-0.81-7.89-1.22v-12.06c27.72-.66,55.34-0.88,83.14-0.09v12.1c-1.85.22-3.81,0.38-5.74,0.7a24.54,24.54,0,0,0-4.39,1.1,13.25,13.25,0,0,0-8.79,10.51,29.55,29.55,0,0,0-.57,5.71q0,72.71,0,145.42a16.85,16.85,0,0,0,.62,4.72,7.1,7.1,0,0,0,6.57,5.08c17.73,1.67,33.19-3.82,47-14.74a144.94,144.94,0,0,0,24.36-25.36Z" transform="translate(-1521.82 -1290.41)"></path>
                        <path class="cls-1" d="M1749,1687.21a165.19,165.19,0,0,0-9.1,76.46l-31.09-7c-0.9,3.71-1.83,7.24-2.61,10.8a111.5,111.5,0,0,1-11.53,31.31c-5.4,9.55-12,18.1-20.81,24.8a46.16,46.16,0,0,1-19.35,9,21.92,21.92,0,0,1-8.08.4,13.85,13.85,0,0,1-8.15-4.62c-4.19-4.7-6.52-10.36-8.38-16.25a129.64,129.64,0,0,1-4.89-24.85,259.76,259.76,0,0,1-1.52-30.85c0.06-7.9-.05-15.81.3-23.7,0.63-14.29,2.22-28.48,6.09-42.32,2.29-8.17,5.25-16.07,10.11-23.12,4.16-6,9.36-10.83,16.3-13.58,9.44-3.74,18.25-2.71,26.49,3.24,5.78,4.18,10.3,9.52,14.36,15.31,4.83,6.89,8.56,14.39,12.24,21.92l5.26,10.78Zm-38.62,33.37c-0.53-1-1-1.77-1.34-2.55-3.69-7.53-7.35-15.08-11.07-22.6-4-8.17-8.44-16.08-14.49-23a37.82,37.82,0,0,0-7.61-6.83c-2.68-1.77-5.65-3.14-9-2.65a21.81,21.81,0,0,0-12.51,6c-4.88,4.81-7.83,10.81-10.18,17.13a96.76,96.76,0,0,0-5.3,20.53c-0.54,3.93-1.29,7.83-1.78,11.77-0.34,2.76-.39,5.55-0.55,8.33-0.32,5.56-.77,11.12-0.89,16.68-0.15,7.11,0,14.23,0,21.35,0,0.64,0,1.28,0,1.92,0.3,4,.62,7.92.91,11.88,0.19,2.62.18,5.26,0.56,7.85,1,6.68,1.89,13.37,3.81,19.87a53,53,0,0,0,4.68,11.51c1.63,2.84,3.54,4,6.14,3.5a36.25,36.25,0,0,0,12.84-5,54.66,54.66,0,0,0,14.52-13.69,86.33,86.33,0,0,0,11.72-21.29,102.58,102.58,0,0,0,4.48-15.34c1.1-5.21,2.46-10.37,3.73-15.54,0.62-2.53,1.32-5.05,2-7.72l25.59,5.72c0.22-4.49.38-8.7,0.65-12.9s0.56-8.25,1-12.36,1.5-8.15,1.93-12.78Z" transform="translate(-1521.82 -1290.41)"></path>
                        <path class="cls-1" d="M2404.82,1726.65a11.64,11.64,0,0,1-1.16-.64c-12.47-9.9-26-18.19-39.86-25.95-7.73-4.32-15.45-8.67-22.5-14.08a51.9,51.9,0,0,1-10.72-10.55,23.73,23.73,0,0,1-4.75-12.09c-0.51-6,3.41-9,8.11-10a18.12,18.12,0,0,1,8.72.7,67.35,67.35,0,0,1,26.92,15c13.91,12.33,23.54,27.6,30.51,44.67C2401.77,1717.75,2403.14,1722,2404.82,1726.65Zm-30.53-34.47,0.22,0.19-0.2-.21a15.06,15.06,0,0,0-1.16-2.3c-0.84-1.15-1.86-2.18-2.74-3.31a69.66,69.66,0,0,0-11.58-11.38,55,55,0,0,0-19.42-10,13.21,13.21,0,0,0-1.55-.21c0.59,1.06,1,1.84,1.43,2.57a34.75,34.75,0,0,0,7.92,8.2c6.75,5.38,14.3,9.55,21.77,13.8C2370.71,1690.47,2372.53,1691.29,2374.3,1692.18Z" transform="translate(-1521.82 -1290.41)"></path>
                        <path class="cls-1" d="M1949.89,1763.22v39.08c-5.27,1.08-10.66,1.05-16.41,1.77A159.88,159.88,0,0,0,1949.89,1763.22Z" transform="translate(-1521.82 -1290.41)"></path>
                        <path class="cls-1" d="M1934.24,1655.58l15.6,0.43v37.6c-2.2-6.65-4.19-13.07-6.45-19.38A109.8,109.8,0,0,0,1934.24,1655.58Z" transform="translate(-1521.82 -1290.41)"></path>
                        <path class="cls-1" d="M2119.41,1777.63v29.67l-12.57-.47,12.15-29.25Z" transform="translate(-1521.82 -1290.41)"></path>
                        <path class="cls-1" d="M2011.92,2043.33c0.6,11.26-9.58,20.44-20.17,20.44s-20.39-9.17-20.28-20.44a20.28,20.28,0,0,1,20.16-20.3A19.87,19.87,0,0,1,2011.92,2043.33Zm-20-11.91c-7-.29-12.24,5.81-12.24,11.75a12,12,0,1,0,24.08.39A12,12,0,0,0,1991.93,2031.42Z" transform="translate(-1521.82 -1290.41)"></path>
                        <path class="cls-1" d="M2223.12,1923.05c11.49,0.11,20.64,9,20.53,20.51a20.05,20.05,0,0,1-20.55,20.2A20.36,20.36,0,0,1,2223.12,1923.05Zm0.29,8.33a12.09,12.09,0,0,0-12.16,11.89,11.93,11.93,0,0,0,12.09,12.21,11.73,11.73,0,0,0,12-12A11.88,11.88,0,0,0,2223.41,1931.38Z" transform="translate(-1521.82 -1290.41)"></path>
                        <path class="cls-1" d="M1783.44,1940.4c0.56,10.89-8.71,20.42-20.22,20.36A20.51,20.51,0,0,1,1743,1940.2c0-10.52,9.48-20.3,20.66-20.15C1773.64,1920.18,1784.3,1929.5,1783.44,1940.4Zm-8.14.06a11.87,11.87,0,0,0-11.89-12.1,12.05,12.05,0,1,0-.09,24.11A11.93,11.93,0,0,0,1775.3,1940.46Z" transform="translate(-1521.82 -1290.41)"></path>
                        <path class="cls-1" d="M2256.16,1472.32c11.12-.83,20.36,9.82,20.32,20.26,0,11-10,20.59-20.83,20.15-11.46-.46-19.94-9.31-19.92-20.3S2244.35,1471.85,2256.16,1472.32Zm-12.06,20.24a12,12,0,0,0,12.07,11.95,12.06,12.06,0,1,0-.24-24.12A12,12,0,0,0,2244.1,1492.56Z" transform="translate(-1521.82 -1290.41)"></path>
                        <path class="cls-1" d="M1727.08,1472.32c10.56-.93,20.56,9.33,20.4,20.17s-9.09,20.53-20.75,20.21a20.14,20.14,0,0,1-20-20.21A19.71,19.71,0,0,1,1727.08,1472.32Zm-11.94,20.12c-0.38,5.44,4.3,12,11.91,12.06a12.06,12.06,0,1,0,0-24.12C1720.08,1480.37,1714.77,1486.5,1715.14,1492.44Z" transform="translate(-1521.82 -1290.41)"></path>
                        <path class="cls-2" d="M1889.18,1733.71c-0.31,6.68-.49,15.87-1.2,25-1,12.61-3.13,25-8.07,36.79a51.46,51.46,0,0,1-9.89,15.74c-8.3,8.76-18.64,12.27-30.51,11.6-9.77-.55-17.24-5.27-22.84-13.11-4.57-6.4-7.26-13.64-9.19-21.19a128.7,128.7,0,0,1-3.91-26.49c-0.39-9.49-.82-19-0.75-28.5a220.89,220.89,0,0,1,2.74-36c1.84-10.66,4.52-21.07,9.91-30.58,3.94-6.95,9-12.8,16.21-16.54a36.62,36.62,0,0,1,26.71-3.28c7.2,1.84,12.58,6.39,16.78,12.41,4.87,7,7.61,14.89,9.54,23.09a165.29,165.29,0,0,1,4,32.51C1888.86,1720.5,1889,1725.85,1889.18,1733.71Zm-69.58,7.49c0.37,7.1.66,16.13,1.35,25.12a99.27,99.27,0,0,0,4.74,23.9,34.29,34.29,0,0,0,4.19,8.84c2.52,3.63,5.77,6.34,10.27,6.76,7.47,0.69,13.84-1.68,18.66-7.65,4-5,6.32-10.87,8.09-16.94,3-10.41,4.23-21.13,4.68-31.91,0.32-7.65.31-15.32,0.27-23,0-5.67-.28-11.34-0.55-17a126.61,126.61,0,0,0-2.95-21.81,56.24,56.24,0,0,0-5.95-16.36c-3.06-5.2-7.27-8.26-13.69-7.85-5.87.37-10.86,2.29-14.77,6.77a40.7,40.7,0,0,0-7.34,13.34c-3.91,10.85-5.39,22.16-6.15,33.57C1820,1724.41,1819.92,1731.84,1819.6,1741.2Z" transform="translate(-1521.82 -1290.41)"></path>
                        <path class="cls-3" d="M1710.33,1720.58l19.86-10.26c-0.43,4.63-1.5,8.66-1.93,12.78s-0.72,8.23-1,12.36-0.43,8.4-.65,12.9l-25.59-5.72c-0.7,2.67-1.4,5.19-2,7.72-1.28,5.17-2.63,10.33-3.73,15.54a102.58,102.58,0,0,1-4.48,15.34,86.33,86.33,0,0,1-11.72,21.29,54.66,54.66,0,0,1-14.52,13.69,36.25,36.25,0,0,1-12.84,5c-2.6.48-4.51-.66-6.14-3.5a53,53,0,0,1-4.68-11.51c-1.92-6.5-2.83-13.19-3.81-19.87-0.38-2.59-.36-5.24-0.56-7.85-0.29-4-.62-7.92-0.91-11.88,0-.64,0-1.28,0-1.92,0-7.12-.12-14.24,0-21.35,0.12-5.56.57-11.12,0.89-16.68,0.16-2.78.21-5.58,0.55-8.33,0.48-3.94,1.23-7.84,1.78-11.77a96.76,96.76,0,0,1,5.3-20.53c2.35-6.32,5.3-12.32,10.18-17.13a21.81,21.81,0,0,1,12.51-6c3.35-.49,6.32.87,9,2.65a37.82,37.82,0,0,1,7.61,6.83c6,6.94,10.46,14.84,14.49,23,3.71,7.52,7.38,15.07,11.07,22.6C1709.38,1718.8,1709.8,1719.57,1710.33,1720.58Z" transform="translate(-1521.82 -1290.41)"></path>
                        <path class="cls-4" d="M2374.3,1692.18c-1.77-.89-3.58-1.71-5.3-2.69-7.48-4.25-15-8.42-21.77-13.8a34.75,34.75,0,0,1-7.92-8.2c-0.47-.73-0.85-1.51-1.43-2.57a13.21,13.21,0,0,1,1.55.21,55,55,0,0,1,19.42,10,69.66,69.66,0,0,1,11.58,11.38c0.89,1.13,1.9,2.15,2.74,3.31a15.06,15.06,0,0,1,1.16,2.3Z" transform="translate(-1521.82 -1290.41)"></path>
                        <path class="cls-5" d="M2374.31,1692.16l0.2,0.21-0.22-.19Z" transform="translate(-1521.82 -1290.41)"></path>
                        <path class="cls-2" d="M1991.93,2031.42a12,12,0,0,1,11.84,12.14,12,12,0,1,1-24.08-.39C1979.7,2037.23,1985,2031.13,1991.93,2031.42Z" transform="translate(-1521.82 -1290.41)"></path>
                        <path class="cls-2" d="M2223.41,1931.38a11.88,11.88,0,0,1,12,12.09,11.73,11.73,0,0,1-12,12,11.93,11.93,0,0,1-12.09-12.21A12.09,12.09,0,0,1,2223.41,1931.38Z" transform="translate(-1521.82 -1290.41)"></path>
                        <path class="cls-2" d="M1775.3,1940.46a11.93,11.93,0,0,1-12,12,12.05,12.05,0,1,1,.09-24.11A11.87,11.87,0,0,1,1775.3,1940.46Z" transform="translate(-1521.82 -1290.41)"></path>
                        <path class="cls-2" d="M2244.1,1492.56a12,12,0,0,1,11.83-12.17A12.06,12.06,0,1,1,2244.1,1492.56Z" transform="translate(-1521.82 -1290.41)"></path>
                        <path class="cls-2" d="M1715.14,1492.44c-0.37-5.93,4.93-12.06,11.92-12.06a12.06,12.06,0,1,1,0,24.12C1719.44,1504.41,1714.77,1497.88,1715.14,1492.44Z" transform="translate(-1521.82 -1290.41)"></path>
                        <path class="cls-1" d="M1819.6,1741.2c0.32-9.36.38-16.8,0.87-24.21,0.76-11.41,2.24-22.72,6.15-33.57a40.7,40.7,0,0,1,7.34-13.34c3.92-4.48,8.9-6.4,14.77-6.77,6.41-.41,10.63,2.65,13.69,7.85a56.24,56.24,0,0,1,5.95,16.36,126.61,126.61,0,0,1,2.95,21.81c0.28,5.66.52,11.33,0.55,17,0,7.66.05,15.33-.27,23-0.45,10.78-1.65,21.5-4.68,31.91-1.77,6.08-4,11.94-8.09,16.94-4.82,6-11.19,8.34-18.66,7.65-4.5-.42-7.75-3.13-10.27-6.76a34.29,34.29,0,0,1-4.19-8.84,99.27,99.27,0,0,1-4.74-23.9C1820.26,1757.33,1820,1748.3,1819.6,1741.2Zm40.77-6.78c-0.21-7.65-.33-13.08-0.53-18.51a141.48,141.48,0,0,0-2.5-22.59c-1-5.09-2.27-10.13-4.76-14.74-1.84-3.42-3.22-3.92-6.75-2.27a10.16,10.16,0,0,0-3.39,2.55,17.83,17.83,0,0,0-3.08,4.81,108.16,108.16,0,0,0-4.08,12c-2.51,9.54-3.37,19.35-3.67,29.16-0.46,15.17-.7,30.36,1.26,45.47a73.8,73.8,0,0,0,4.32,18.34,32.32,32.32,0,0,0,2.78,5.27,3,3,0,0,0,2.09,1.26,8.91,8.91,0,0,0,8-4,39.07,39.07,0,0,0,3.4-6.29c3.51-8.58,5-17.64,5.73-26.82C1859.83,1749.46,1860.06,1740.83,1860.37,1734.43Z" transform="translate(-1521.82 -1290.41)"></path>
                    </svg>