<svg width="103" height="18" viewBox="0 0 103 18" xmlns="http://www.w3.org/2000/svg"><g fill="none" opacity=".9"><path fill="#FFD377" d="M9.5 13.11l-5.584 4.076 2.15-6.57-5.6-4.052 6.913.015L9.5 0l2.122 6.58 6.913-.016-5.602 4.052 2.151 6.57zm21 0l-5.584 4.076 2.15-6.57-5.601-4.052 6.913.015L30.5 0l2.122 6.58 6.913-.016-5.602 4.052 2.151 6.57zm21 0l-5.584 4.076 2.15-6.57-5.601-4.052 6.913.015L51.5 0l2.122 6.58 6.913-.016-5.602 4.052 2.151 6.57zm21 0l-5.584 4.076 2.15-6.57-5.601-4.052 6.913.015L72.5 0l2.122 6.58 6.913-.016-5.602 4.052 2.151 6.57z"/><path fill="#D6D9E3" d="M93.5 13.11l-5.584 4.076 2.15-6.57-5.601-4.052 6.913.015L93.5 0l2.122 6.58 6.913-.016-5.602 4.052 2.151 6.57z"/><path d="M96 6.579v8.356l-2.5-1.825-5.584 4.076 2.15-6.57-5.601-4.052 6.913.015L93.5 0l2.122 6.58.378-.001z" fill="#FFD377"/></g></svg>