<svg data-name="Layer 1" xmlns="http://www.w3.org/2000/svg" xmlns:xlink="http://www.w3.org/1999/xlink" viewBox="0 0 383.42 344.76"><defs><linearGradient id="42-03architect-0383r" x1="67.4" y1="-29.14" x2="231.87" y2="224.42" xlink:href="#42-03architect-0383a"/><linearGradient id="42-03architect-0383b" x1="283.72" y1="303.17" x2="292.04" y2="303.17" gradientUnits="userSpaceOnUse"><stop offset=".01"/><stop offset=".83" stop-opacity=".07"/><stop offset="1" stop-opacity="0"/></linearGradient><linearGradient id="42-03architect-0383d" x1="245.36" y1="278.78" x2="253.68" y2="278.78" xlink:href="#42-03architect-0383b"/><linearGradient id="42-03architect-0383e" x1="247.36" y1="268.05" x2="241.4" y2="289.98" gradientTransform="rotate(11.52 244.074 279.671)" xlink:href="#42-03architect-0383b"/><linearGradient id="42-03architect-0383f" x1="6823.11" y1="280.29" x2="6831.43" y2="280.29" gradientTransform="matrix(-1 0 0 1 7114.35 0)" xlink:href="#42-03architect-0383b"/><linearGradient id="42-03architect-0383g" x1="6825.1" y1="269.56" x2="6819.14" y2="291.48" gradientTransform="matrix(-.2 -.98 -.98 .2 1929.93 6909.75)" xlink:href="#42-03architect-0383b"/><linearGradient id="42-03architect-0383h" x1="6864.33" y1="302.99" x2="6872.65" y2="302.99" gradientTransform="matrix(-1 0 0 1 7114.35 0)" xlink:href="#42-03architect-0383b"/><linearGradient id="42-03architect-0383i" x1="6866.33" y1="292.26" x2="6860.37" y2="314.18" gradientTransform="matrix(-.2 -.98 -.98 .2 1919.18 6968.31)" xlink:href="#42-03architect-0383b"/><linearGradient id="42-03architect-0383j" x1="269.45" y1="314.75" x2="262.87" y2="232.28" xlink:href="#42-03architect-0383b"/><linearGradient id="42-03architect-0383k" x1="263.26" y1="287.58" x2="268.4" y2="276.38" xlink:href="#42-03architect-0383b"/><linearGradient id="42-03architect-0383l" x1="174.3" y1="289.95" x2="210.41" y2="289.95" xlink:href="#42-03architect-0383b"/><linearGradient id="42-03architect-0383m" x1="211.5" y1="234.99" x2="267.37" y2="234.99" xlink:href="#42-03architect-0383b"/><linearGradient id="42-03architect-0383n" x1="222.01" y1="251.7" x2="299.79" y2="251.7" xlink:href="#42-03architect-0383b"/><linearGradient id="42-03architect-0383o" x1="252.85" y1="257.47" x2="302.31" y2="257.47" xlink:href="#42-03architect-0383b"/><linearGradient id="42-03architect-0383p" x1="126.36" y1="282.51" x2="201.16" y2="126.34" xlink:href="#42-03architect-0383b"/><linearGradient id="42-03architect-0383q" x1="222.01" y1="208.88" x2="111.67" y2="118.88" xlink:href="#42-03architect-0383b"/><linearGradient id="42-03architect-0383a" x1="178.75" y1="138.47" x2="3.99" y2="285.13" gradientUnits="userSpaceOnUse"><stop offset=".02" stop-color="#fff" stop-opacity="0"/><stop offset=".39" stop-color="#fff" stop-opacity=".39"/><stop offset="1" stop-color="#fff"/></linearGradient><linearGradient id="42-03architect-0383c" x1="285.71" y1="292.43" x2="279.75" y2="314.36" gradientTransform="rotate(11.52 282.434 304.043)" xlink:href="#42-03architect-0383b"/><linearGradient id="42-03architect-0383s" x1="157.72" y1="180.26" x2="184.12" y2="180.26" xlink:href="#42-03architect-0383b"/><linearGradient id="42-03architect-0383t" x1="138.15" y1="173.14" x2="158.21" y2="173.14" xlink:href="#42-03architect-0383b"/><linearGradient id="42-03architect-0383u" x1="114.4" y1="197.39" x2="134.42" y2="155.6" xlink:href="#42-03architect-0383b"/><linearGradient id="42-03architect-0383v" x1="150.13" y1="214.37" x2="208.79" y2="91.9" xlink:href="#42-03architect-0383b"/><linearGradient id="42-03architect-0383w" x1="248.56" y1="134.98" x2="224.31" y2="168.27" xlink:href="#42-03architect-0383b"/><linearGradient id="42-03architect-0383x" x1="221.57" y1="181.6" x2="196.09" y2="205.85" xlink:href="#42-03architect-0383b"/><linearGradient id="42-03architect-0383y" x1="268.9" y1="181.45" x2="243.2" y2="135.53" xlink:href="#42-03architect-0383b"/><linearGradient id="42-03architect-0383z" x1="262.77" y1="218.87" x2="233.07" y2="185.97" xlink:href="#42-03architect-0383b"/><linearGradient id="42-03architect-0383A" x1="270.48" y1="198.03" x2="315.03" y2="242.58" xlink:href="#42-03architect-0383b"/><linearGradient id="42-03architect-0383B" x1="278.34" y1="203.38" x2="313.49" y2="238.52" xlink:href="#42-03architect-0383b"/><linearGradient id="42-03architect-0383C" x1="276.5" y1="237.55" x2="305.28" y2="248.69" xlink:href="#42-03architect-0383b"/><linearGradient id="42-03architect-0383D" x1="128.65" y1="173.52" x2="141.54" y2="146.59" xlink:href="#42-03architect-0383b"/><linearGradient id="42-03architect-0383E" x1="132.41" y1="184.13" x2="150.6" y2="184.13" xlink:href="#42-03architect-0383b"/><linearGradient id="42-03architect-0383F" x1="176.84" y1="131.24" x2="226.86" y2="131.24" xlink:href="#42-03architect-0383b"/><linearGradient id="42-03architect-0383G" x1="184.68" y1="202.52" x2="155.71" y2="164.3" xlink:href="#42-03architect-0383b"/><linearGradient id="42-03architect-0383H" x1="209.74" y1="134.71" x2="225.65" y2="134.71" xlink:href="#42-03architect-0383b"/></defs><path d="M383.41 154.4c.11 21.56-10 41.15-20 60.62-2.9 5.65-5.79 11.29-8.42 17-9.58 20.65-16.26 43.29-31.39 60.38-10.75 12.13-25 20.48-39.13 28.45-17.19 9.69-34.94 19.25-54.39 22.64-33.86 5.91-60.46-10.32-92.34-16.3-27.3-5.11-56.15.54-81.59-13.41-10.11-5.54-18.53-13.73-25.78-22.69a140.2 140.2 0 01-13-19 131.43 131.43 0 01-17.3-59.11c-1.18-28.4 8-57.35 26.41-79 12.54-14.75 28.8-25.76 43.68-38.14 24.15-20 45-43.92 69.66-63.28S194.73-1.85 226.03.19c26.58 1.73 50.7 15.38 73.76 28.7 14.22 8.21 28.65 16.58 39.91 28.51 11 11.68 18.51 26.21 25.72 40.58 8.94 17.81 17.89 36.49 17.99 56.42z" fill="#68e1fd" opacity=".25" style="isolation:isolate"/><path d="M363.41 215.02c-2.9 5.65-5.79 11.29-8.42 17-9.58 20.65-16.26 43.29-31.39 60.38-10.75 12.13-25 20.48-39.13 28.45-17.19 9.69-34.94 19.25-54.39 22.64-33.86 5.91-60.46-10.32-92.34-16.3-27.3-5.11-56.15.54-81.59-13.41-10.11-5.54-18.53-13.73-25.78-22.69a140.2 140.2 0 01-13-19c23.51-54.51 104-94.65 199.56-94.65 57.27-.05 109.08 14.34 146.48 37.58z" fill="#68e1fd" opacity=".43" style="isolation:isolate"/><path d="M275.15 300.31c.59 2.93-.22 5.57-1.81 5.89-.4.08-3.32 1.41-3.72 1.21-1.2-.59.2-3.73-.25-5.92s-3-3.49-2.17-4.5a21.08 21.08 0 014-1.39c1.53-.29 3.35 1.76 3.95 4.71z" fill="#3f3d56"/><path d="M289.42 302c.59 2.93-.22 5.57-1.81 5.89-.4.08-3.32 1.41-3.72 1.21-1.2-.59.2-3.73-.25-5.92s-3-3.49-2.17-4.5a21.08 21.08 0 014-1.39c1.53-.29 3.35 1.76 3.95 4.71z" transform="translate(-14.27 -1.69)" fill="url(#42-03architect-0383b)"/><ellipse cx="282.81" cy="303.78" rx="2.95" ry="5.41" transform="rotate(-11.52 267.162 373.551)" fill="#3f3d56"/><ellipse cx="282.81" cy="303.78" rx="2.95" ry="5.41" transform="rotate(-11.52 267.162 373.551)" fill="#3f3d56"/><ellipse cx="282.52" cy="304.19" rx="1.83" ry="3.36" transform="rotate(-11.52 266.874 373.923)" fill="url(#42-03architect-0383c)"/><path d="M236.79 275.91c.6 2.92-.21 5.56-1.81 5.89-.4.08-3.32 1.4-3.72 1.21-1.2-.6.2-3.73-.25-5.93s-3-3.48-2.16-4.5a21.68 21.68 0 014-1.38c1.57-.33 3.34 1.78 3.94 4.71z" fill="#3f3d56"/><path d="M251.06 277.6c.6 2.92-.21 5.56-1.81 5.89-.4.08-3.32 1.4-3.72 1.21-1.2-.6.2-3.73-.25-5.93s-3-3.48-2.16-4.5a21.68 21.68 0 014-1.38c1.57-.33 3.34 1.78 3.94 4.71z" transform="translate(-14.27 -1.69)" fill="url(#42-03architect-0383d)"/><ellipse cx="244.45" cy="279.4" rx="2.95" ry="5.41" transform="rotate(-11.52 228.813 349.153)" fill="#3f3d56"/><ellipse cx="244.45" cy="279.4" rx="2.95" ry="5.41" transform="rotate(-11.52 228.813 349.153)" fill="#3f3d56"/><ellipse cx="244.16" cy="279.81" rx="1.83" ry="3.36" transform="rotate(-11.52 228.52 349.575)" fill="url(#42-03architect-0383e)"/><path d="M271.27 277.41c-.6 2.93.21 5.57 1.81 5.89.4.08 3.31 1.41 3.71 1.21 1.21-.59-.19-3.72.26-5.92s3-3.48 2.16-4.5a21 21 0 00-4-1.39c-1.57-.32-3.34 1.79-3.94 4.71z" fill="#3f3d56"/><path d="M285.54 279.1c-.6 2.93.21 5.57 1.81 5.89.4.08 3.31 1.41 3.71 1.21 1.21-.59-.19-3.72.26-5.92s3-3.48 2.16-4.5a21 21 0 00-4-1.39c-1.57-.32-3.34 1.79-3.94 4.71z" transform="translate(-14.27 -1.69)" fill="url(#42-03architect-0383f)"/><ellipse cx="292.14" cy="280.9" rx="5.41" ry="2.95" transform="rotate(-78.48 284.003 288.793)" fill="#3f3d56"/><ellipse cx="292.14" cy="280.9" rx="5.41" ry="2.95" transform="rotate(-78.48 284.003 288.793)" fill="#3f3d56"/><ellipse cx="292.44" cy="281.31" rx="3.36" ry="1.83" transform="rotate(-78.48 284.292 289.202)" fill="url(#42-03architect-0383g)"/><path d="M230.05 300.11c-.6 2.93.21 5.57 1.81 5.89.39.08 3.31 1.41 3.71 1.21 1.2-.59-.19-3.72.25-5.92s3-3.48 2.17-4.5a21.08 21.08 0 00-4-1.39c-1.57-.32-3.35 1.79-3.94 4.71z" fill="#3f3d56"/><path d="M244.32 301.8c-.6 2.93.21 5.57 1.81 5.89.39.08 3.31 1.41 3.71 1.21 1.2-.59-.19-3.72.25-5.92s3-3.48 2.17-4.5a21.08 21.08 0 00-4-1.39c-1.57-.32-3.35 1.79-3.94 4.71z" transform="translate(-14.27 -1.69)" fill="url(#42-03architect-0383h)"/><ellipse cx="250.92" cy="303.6" rx="5.41" ry="2.95" transform="rotate(-78.48 242.774 311.495)" fill="#3f3d56"/><ellipse cx="250.92" cy="303.6" rx="5.41" ry="2.95" transform="rotate(-78.48 242.774 311.495)" fill="#3f3d56"/><ellipse cx="251.21" cy="304.01" rx="3.36" ry="1.83" transform="rotate(-78.48 243.074 311.903)" fill="url(#42-03architect-0383i)"/><path d="M248.81 276.31l-12.89-7.91a11.36 11.36 0 00-4.74-2c-1.73-.15-3.67.74-4.12 2.41-.72 2.63 2.33 4.58 4.8 5.73a65.26 65.26 0 0111.57 7 1.4 1.4 0 01.62.76c.14.67-.65 1.11-1.3 1.34a88.09 88.09 0 00-14.68 6.67 7.72 7.72 0 00-2.32 1.75c-2 2.47-.56 6.09.92 8.88a3 3 0 001.37 1.56 2.81 2.81 0 001.91-.15c7.56-2.57 13.08-9.23 20.44-12.32a7.29 7.29 0 013.26-.73 8.16 8.16 0 012.63.79 67 67 0 0114.31 8.53c2.06 1.61 4.77 3.43 7 2.15 2-1.11 2.16-4.05 1-6s-3.24-3.09-5.22-4.17l-12.76-6.92 17.44-7.85a5.3 5.3 0 002.32-1.6c1.07-1.56.21-3.68-.68-5.36a4.07 4.07 0 00-1.69-2c-1-.48-2.26 0-3.3.49a116.28 116.28 0 00-17.38 10.11c.85-3.15-.21-6.47-1.26-9.56l-1.87-5.48c-1.46-4.29-2.8-.32-3.08 1.77-.5 4.05-1.53 8.11-2.3 12.11z" fill="#68e1fd"/><path d="M263.08 278l-12.89-7.91a11.36 11.36 0 00-4.74-2c-1.73-.15-3.67.74-4.12 2.41-.72 2.63 2.33 4.58 4.8 5.73a65.26 65.26 0 0111.57 7 1.4 1.4 0 01.62.76c.14.67-.65 1.11-1.3 1.34a88.09 88.09 0 00-14.68 6.67 7.72 7.72 0 00-2.32 1.75c-2 2.47-.56 6.09.92 8.88a3 3 0 001.37 1.56 2.81 2.81 0 001.91-.15c7.56-2.57 13.08-9.23 20.44-12.32a7.29 7.29 0 013.26-.73 8.16 8.16 0 012.63.79 67 67 0 0114.31 8.53c2.06 1.61 4.77 3.43 7 2.15 2-1.11 2.16-4.05 1-6s-3.24-3.09-5.22-4.17l-12.76-6.92 17.44-7.85a5.3 5.3 0 002.32-1.6c1.07-1.56.21-3.68-.68-5.36a4.07 4.07 0 00-1.69-2c-1-.48-2.26 0-3.3.49a116.28 116.28 0 00-17.38 10.11c.85-3.15-.21-6.47-1.26-9.56l-1.87-5.48c-1.46-4.29-2.8-.32-3.08 1.77-.5 4.05-1.53 8.11-2.3 12.11z" transform="translate(-14.27 -1.69)" fill="url(#42-03architect-0383j)"/><path d="M263.89 285.19a3.72 3.72 0 001.64 1 3.63 3.63 0 003.89-.74 4.75 4.75 0 00.82-2 38.11 38.11 0 00.46-13.3c-1.48 0-3.09-.07-4.29.8-2.95 2.05-5.17 11.32-2.52 14.24z" transform="translate(-14.27 -1.69)" fill="url(#42-03architect-0383k)"/><path d="M173.87 283.99c-2.51.7-5.15.83-7.72 1.31s-5.4 1.69-6 4.22c-.57 2.37 1.21 4.71 3.28 6 3.6 2.26 8.08 2.5 12.32 2.4a96.71 96.71 0 0018.26-2.19 3 3 0 001.68-.79 2.91 2.91 0 00.46-1.91 46.5 46.5 0 00-1.25-10.44 4.69 4.69 0 00-1.75-3.14 4.82 4.82 0 00-2.41-.5c-2.78-.08-7.88-1-10.3.43s-3.43 3.75-6.57 4.61z" fill="#3f3d56"/><path d="M188.14 285.68c-2.51.7-5.15.83-7.72 1.31s-5.4 1.69-6 4.22c-.57 2.37 1.21 4.71 3.28 6 3.6 2.26 8.08 2.5 12.32 2.4a96.71 96.71 0 0018.26-2.19 3 3 0 001.68-.79 2.91 2.91 0 00.46-1.91 46.5 46.5 0 00-1.25-10.44 4.69 4.69 0 00-1.75-3.14 4.82 4.82 0 00-2.41-.5c-2.78-.08-7.88-1-10.3.43s-3.43 3.75-6.57 4.61z" transform="translate(-14.27 -1.69)" fill="url(#42-03architect-0383l)"/><path d="M219.41 200.7c-4.29-1.56-9.24-2.81-13.23-.62-5.13 2.8-6.09 9.63-6.44 15.47q-1.22 20-2.42 39.95c-.16 2.68-.27 5.57 1.19 7.82 2 3.09 6.14 3.81 9.8 4.25 1.7.2 3.62.34 4.91-.79a6.08 6.08 0 001.56-3.34 178.31 178.31 0 004.34-31.27 31 31 0 0017.9 10.89 11.38 11.38 0 005.47.05 11 11 0 005.29-4 24.82 24.82 0 005.26-13.54c.38-5.06-1.07-6.49-4.93-9.31a116 116 0 00-28.7-15.56z" fill="#3f3d56"/><path d="M233.68 202.39c-4.29-1.56-9.24-2.81-13.23-.62-5.13 2.8-6.09 9.63-6.44 15.47q-1.22 20-2.42 39.95c-.16 2.68-.27 5.57 1.19 7.82 2 3.09 6.14 3.81 9.8 4.25 1.7.2 3.62.34 4.91-.79a6.08 6.08 0 001.56-3.34 178.31 178.31 0 004.34-31.27 31 31 0 0017.9 10.89 11.38 11.38 0 005.47.05 11 11 0 005.29-4 24.82 24.82 0 005.26-13.54c.38-5.06-1.07-6.49-4.93-9.31a116 116 0 00-28.7-15.56z" transform="translate(-14.27 -1.69)" fill="url(#42-03architect-0383m)"/><path d="M243.78 275.94l41.46-38.72c3.69-2.13-31-15.23-34.71-13.1l-36.11 20.85c-3.69 2.13-6.69 7.84-6.69 12.75s32.37 20.35 36.05 18.22z" fill="#68e1fd"/><path d="M258.05 277.63l41.46-38.72c3.69-2.13-31-15.23-34.71-13.1l-36.11 20.85c-3.69 2.13-6.69 7.84-6.69 12.75s32.37 20.35 36.05 18.22z" transform="translate(-14.27 -1.69)" fill="url(#42-03architect-0383n)"/><path d="M245.25 275.1l36.12-20.85c3.68-2.13 6.67-7.84 6.67-12.75s-3-7.17-6.67-5l-36.12 20.81c-3.68 2.12-6.67 7.83-6.67 12.74 0 4.92 2.99 7.17 6.67 5.05z" fill="#68e1fd"/><path d="M259.52 276.79l36.12-20.85c3.68-2.13 6.67-7.84 6.67-12.75s-3-7.17-6.67-5L259.52 259c-3.68 2.12-6.67 7.83-6.67 12.74 0 4.92 2.99 7.17 6.67 5.05z" transform="translate(-14.27 -1.69)" fill="url(#42-03architect-0383o)"/><path d="M199.42 218.76c-4.74-.44-9.6-.69-14.21.54s-9 4.19-10.8 8.59c-1.25 3-1.23 6.31-1.17 9.54q.27 14 1.35 28c.38 4.89.84 9.82 2.44 14.45a9 9 0 002.17 3.79 8.3 8.3 0 003.75 1.77 20.88 20.88 0 007.26.48 5.45 5.45 0 002.45-.72c1.31-.88 1.75-2.58 2-4.14 2-13.12-2.45-26.78.7-39.68 15 7.2 31.4 12.17 48 11.3 2.58-.13 13.73-1.87 16.09-2.93 7.08-3.2 14.62-11.69 13.7-15.54s-22.42-1.07-25.42-3.67c-5.7-5-12.53-5.93-19.64-7.35a273.93 273.93 0 00-28.67-4.43z" fill="#3f3d56"/><path fill="#68e1fd" d="M44.14 203.28v9.17l77.6 55.07 189.46-120-.14-5.48-266.92 61.24z"/><path fill="url(#42-03architect-0383p)" d="M44.14 203.28v9.17l77.6 55.07 189.46-120-.14-5.48-266.92 61.24z"/><path fill="#68e1fd" d="M96.53 177.38l-52.39 25.9 77.67 55.47 189.25-116.71-38.63-19.73-175.9 55.07z"/><path fill="url(#42-03architect-0383q)" d="M96.53 177.38l-52.39 25.9 77.67 55.47 189.25-116.71-38.63-19.73-175.9 55.07z"/><path fill="#68e1fd" d="M55.44 132.59l79.27 116.74 156.48-92.07 2.96-7.76-236.43-22.62-2.28 5.71z"/><path fill="url(#42-03architect-0383a)" d="M55.44 132.59l79.27 116.74 156.48-92.07 2.96-7.76-236.43-22.62-2.28 5.71z"/><path fill="#68e1fd" d="M57.72 126.88l162.42-89.09 74.01 111.71-157.62 93.2-78.81-115.82z"/><path fill="url(#42-03architect-0383r)" d="M57.72 126.88l162.42-89.09 74.01 111.71-157.62 93.2-78.81-115.82z"/><path fill="none" stroke-miterlimit="10" stroke-width=".73" stroke="url(#42-03architect-0383s)" d="M157.91 187.79l26.02-15.06"/><path fill="none" stroke-miterlimit="10" stroke-width=".73" stroke="url(#42-03architect-0383t)" d="M138.45 158.48l19.46 29.31"/><path fill="none" stroke-miterlimit="10" stroke-width=".73" stroke="url(#42-03architect-0383u)" d="M97.08 138.07l54.66 76.85"/><path fill="#68e1fd" d="M187.9 176.01l21.79-13.97-5.48-6.57-76.92 44.65 4.86 7.95 55.75-32.06z"/><path fill="none" stroke-miterlimit="10" stroke-width=".73" stroke="url(#42-03architect-0383v)" d="M151.74 214.92l123.29-74.8-18.3-24.73-93.48 54.73-33.29-49.31-32.88 17.26"/><path d="M223.18 158.3c-3.55-4.63-6.65-9.92-11.71-12.82a4.29 4.29 0 002.45-4.8c-.36-1.48-1.21-3.62.25-4.09a2 2 0 011 0c7.67 1.55 12.2 9.35 18.71 13.68 1.73 1.14 3.62 2.05 5.25 3.33a28.36 28.36 0 013.66 3.69l11.47 13a2 2 0 01.72 1.64c-.11.56-.66.91-1.16 1.2-2.14 1.22-6 4.6-8.58 4.58s-5.79-3.59-7.66-5.08c-5.22-4.19-10.43-8.87-14.4-14.33z" transform="translate(-14.27 -1.69)" fill="url(#42-03architect-0383w)"/><path d="M198.11 200a21.77 21.77 0 01-5.85-9.3 3.85 3.85 0 01.08-3.35 3.79 3.79 0 012.79-1.22 14.06 14.06 0 016.59.79c2.6 1 4.73 2.95 6.8 4.83 4 3.64 16.1 11.44 7.69 16.79-6.67 4.26-13.74-4.44-18.1-8.54z" transform="translate(-14.27 -1.69)" fill="url(#42-03architect-0383x)"/><path d="M187.9 176.01a1 1 0 00-.58.08c-.62.34-.29 1.27-.36 2a2.07 2.07 0 01-2.38 1.59 6 6 0 01-2.8-1.46 3.92 3.92 0 00-2.84-1.17 3.65 3.65 0 00-1.15.44 5.74 5.74 0 00-2.72 2.24 4.07 4.07 0 00-.34 2c.11 3.49 2.73 6.52 5.86 8.06s6.71 1.87 10.19 2c3.78.14 4.59-4.77 3.42-7.58-1-2.51-3.28-7.9-6.3-8.2zm18.12-43.63a10.7 10.7 0 00-8.28-.47 2.56 2.56 0 00-1.2.83 2.78 2.78 0 00.21 2.72 20.46 20.46 0 002.21 3.6 8.19 8.19 0 011 1.29 13.41 13.41 0 01.56 2.37 2.08 2.08 0 00.42 1 1.84 1.84 0 00.65.41 13.88 13.88 0 012.52 1c.31.21.58.47.91.66.63.36 1.63.17 2.37.35a6.55 6.55 0 003 .22c2.7-.59 4-4.5 3.12-6.93-1.14-2.95-4.71-5.76-7.49-7.05z" fill="#e8b08d"/><path d="M247.11 148.79c-4.23 1.22-8.65 2.91-12.9 1.77-2.86-.77-5.21-2.72-7.56-4.53a100.21 100.21 0 00-8.9-6.12 5.26 5.26 0 00-2.62-1c-1.38 0-2.53 1-3.52 2-2.74 2.6-5.71 6.39-3.95 9.74a8.79 8.79 0 003.56 3.12q7.29 4.31 14.71 8.4a23.5 23.5 0 005.79 2.54 24.24 24.24 0 005.71.44h11.18a39.37 39.37 0 0010.84-1c3.5-1 6.83-3.18 8.42-6.46 7.01-14.63-14.14-10.78-20.76-8.9z" fill="#68e1fd"/><path d="M261.38 150.48c-4.23 1.22-8.65 2.91-12.9 1.77-2.86-.77-5.21-2.72-7.56-4.53a100.21 100.21 0 00-8.9-6.12 5.26 5.26 0 00-2.62-1c-1.38 0-2.53 1-3.52 2-2.74 2.6-5.71 6.39-3.95 9.74a8.79 8.79 0 003.56 3.12q7.29 4.31 14.71 8.4a23.5 23.5 0 005.79 2.54 24.24 24.24 0 005.71.44h11.18a39.37 39.37 0 0010.84-1c3.5-1 6.83-3.18 8.42-6.46 7.01-14.63-14.14-10.78-20.76-8.9z" transform="translate(-14.27 -1.69)" fill="url(#42-03architect-0383y)"/><path d="M281.73 218.74c-2.21 8.76-6.94 17.15-14.36 22.31s-17.7 6.56-25.64 2.26a15.67 15.67 0 01-7.82-9.23 23.88 23.88 0 01-.59-6.32q-.1-23.38 1.44-46.73c.24-3.56.52-7.2 1.86-10.51 1.55-3.79 4.36-6.88 7.12-9.87l.78-.84c4.15-4.57 9.49-10.54 15-12.43 4-1.37 8-.61 11.74 4.35 8.35 11.07 10.81 26.65 11.88 40.08.7 8.98.81 18.17-1.41 26.93z" fill="#68e1fd"/><path d="M228.22 179.87a60.61 60.61 0 01-12.58 13.49 3 3 0 01-1.3.7 3 3 0 01-2-.63l-17.3-10.42a38.83 38.83 0 00-4.45 7.08c-.76 1.55-1.42 3.33-.88 5a7.29 7.29 0 002.94 3.27 155.61 155.61 0 0018.46 11.52c2.29 1.22 4.72 2.4 7.31 2.44 4.58.07 8.37-3.37 11.63-6.59 5.27-5.21 10.63-10.59 13.72-17.32 2.24-4.86 4.89-17.28-1.17-20.84-5.76-3.42-11.87 8.74-14.38 12.3z" fill="#68e1fd"/><path d="M242.49 181.56a60.61 60.61 0 01-12.58 13.49 3 3 0 01-1.3.7 3 3 0 01-2-.63l-17.3-10.42a38.83 38.83 0 00-4.45 7.08c-.76 1.55-1.42 3.33-.88 5a7.29 7.29 0 002.94 3.27 155.61 155.61 0 0018.46 11.52c2.29 1.22 4.72 2.4 7.31 2.44 4.58.07 8.37-3.37 11.63-6.59 5.27-5.21 10.63-10.59 13.72-17.32 2.24-4.86 4.89-17.28-1.17-20.84-5.76-3.42-11.87 8.74-14.38 12.3z" transform="translate(-14.27 -1.69)" fill="url(#42-03architect-0383z)"/><path d="M259.49 147.31c-5.48 1.89-10.82 7.86-15 12.43-.79-2.5.36-7.27.16-9.43a29.56 29.56 0 01-.38-5.54 6.24 6.24 0 012.47-4.78 8.32 8.32 0 015-.92 5.82 5.82 0 011.94.33 5 5 0 011.63 1.35 24.26 24.26 0 014.18 6.56z" fill="#e6b28b"/><path d="M232.83 136.73a22.21 22.21 0 004.2 9.07c2.19 2.55 5.58 4.28 8.9 3.73a10.36 10.36 0 004.07-1.73 19.83 19.83 0 007.55-11.21 42.16 42.16 0 001.07-13.68c-.14-2.62-.43-5.35-1.9-7.52-1.69-2.5-4.72-3.84-7.72-4.26a46.62 46.62 0 00-9.07.1 16.76 16.76 0 00-5.65.9c-4.2 1.79-3.37 6.89-3.32 10.67a58.55 58.55 0 001.87 13.93z" fill="#e8b08d"/><path d="M243.96 94.04a15.17 15.17 0 00-1.75.38 15.7 15.7 0 00-10.76 11.19c-1.47.22-3.07.5-4 1.63a4.22 4.22 0 00-.44 4.25c1.95 4.87 6.45 5.87 10 9a5.79 5.79 0 01.51.48 12.32 12.32 0 013.13 6.83 29.71 29.71 0 01.35 4v2c0 .62-.16 1.33.26 1.85a.6.6 0 00.58.26c.3-.08.37-.47.38-.79a12.64 12.64 0 01.28-3.19c.21-.72.7-2.1 1.66-2a1.42 1.42 0 01.86.54 6.79 6.79 0 01-.63 9.35 4.82 4.82 0 015.12 2.89c.58 1.49.62 3.54 2.11 4.12a2.46 2.46 0 002.65-.9 7.16 7.16 0 001.19-2.72c1.29 1.52 4 .64 5-1.09s.83-3.85.79-5.84a59.54 59.54 0 012-14.77c1.69-7.14 1.2-12.22-2.58-18.69a20.87 20.87 0 00-3.36-4.5 15.75 15.75 0 00-13.35-4.28z" fill="#3f3d56"/><path d="M284.84 185.75c-8.08 5.57-15.69 11.79-23.29 18-3 2.47-6.12 5-8 8.44-3.52 6.4-2 14.31-.06 21.35 1 3.7 2.8 8 6.56 8.77a8.93 8.93 0 004.07-.27c5.35-1.36 10.06-4.48 14.65-7.54 4.8-3.21 9.88-6.75 11.94-12.15a25 25 0 001.27-8.26 121.09 121.09 0 00-.89-18.55c-.36-3.34-.36-13.88-6.25-9.79z" fill="#68e1fd"/><path d="M306.3 215.79a25.52 25.52 0 01-1.27 8.26c-2.07 5.4-7.14 8.95-11.95 12.15-4.16 2.77-8.42 5.6-13.15 7.12-.49.16-1 .3-1.49.43a9.12 9.12 0 01-4.08.26c-3.76-.8-5.52-5.07-6.56-8.77-2-7-3.45-15 .07-21.35 1.87-3.42 5-6 8-8.43 7.61-6.21 15.22-12.43 23.29-18 3.64-2.52 5 .51 5.64 4 .37 2.17.47 4.52.63 5.79a121.09 121.09 0 01.87 18.54z" transform="translate(-14.27 -1.69)" fill="url(#42-03architect-0383A)"/><path d="M306.3 215.79a25.52 25.52 0 01-1.27 8.26c-2.07 5.4-7.14 8.95-11.95 12.15-4.16 2.77-8.42 5.6-13.15 7.12a18 18 0 01-3.05-6.54c-2-7-3.45-14.94.06-21.34 1.88-3.42 5-6 8-8.45 6.5-5.32 13-10.63 19.84-15.54.37 2.17.47 4.52.63 5.79a121.09 121.09 0 01.89 18.55z" transform="translate(-14.27 -1.69)" fill="url(#42-03architect-0383B)"/><path d="M283.05 215.54c-.71 12.34-2.41 41.12-2.95 43.27-.68 2.74-3.42 4.8-8.91 7.88a8.54 8.54 0 01-1.19.56c-5.14 2.05-10.45-.9-10.45-.9l8.9-4.8 4.54-38.24c.17-1.41 1.12-4.43 2.09-5.49l4.53-3.7a2 2 0 013.44 1.42z" fill="#68e1fd"/><path d="M297.32 217.23c-.71 12.34-2.41 41.12-2.95 43.27-.68 2.74-3.42 4.8-8.91 7.88a8.54 8.54 0 01-1.19.56 4.4 4.4 0 001.53-1.94c.34-1.37 5.32-39.23 5-42.32s6.52-7.45 6.52-7.45z" transform="translate(-14.27 -1.69)" fill="url(#42-03architect-0383C)"/><path fill="none" stroke-miterlimit="10" stroke-width=".73" stroke="url(#42-03architect-0383D)" d="M119.89 169.1l30.41-18.09"/><path fill="none" stroke-miterlimit="10" stroke-width=".73" stroke="url(#42-03architect-0383E)" d="M132.6 189.61l17.81-10.96"/><path fill="none" stroke-miterlimit="10" stroke-width=".73" stroke="url(#42-03architect-0383F)" d="M193.87 154.3l-16.51-24.59 36.44-21.23 12.74 23.83"/><path fill="url(#42-03architect-0383G)" d="M129.96 201.77l76.3-44.11-2.05-2.19-76.92 44.65 2.67 1.65z"/><path d="M196.94 140.47l12.1-18.29a1.28 1.28 0 011.83-.32 1.29 1.29 0 01.29 1.74l-12.6 18.65-3.09 2.19z" fill="#68e1fd"/><path d="M211.21 142.16l12.1-18.29a1.28 1.28 0 011.83-.32 1.29 1.29 0 01.29 1.74l-12.6 18.65-3.09 2.19z" transform="translate(-14.27 -1.69)" fill="url(#42-03architect-0383H)"/><path d="M197.57 138.64a.7.7 0 00-.55 0 .67.67 0 00-.19.25 2.27 2.27 0 00-.29 1.73 2.48 2.48 0 001.38 1.28c.83.39 2.78 2 3.7 2.1.57.06.14-1.3.58-1.67a1.65 1.65 0 00.51-1.31c0-1.46-.65-1.47-1.91-1.73z" fill="#e8b08d"/></svg>