<svg data-name="Layer 1" xmlns="http://www.w3.org/2000/svg" xmlns:xlink="http://www.w3.org/1999/xlink" viewBox="0 0 324.06 336.43"><defs><linearGradient id="112-03astronaut-032k" x1="104.15" y1="200.43" x2="132.62" y2="200.43" xlink:href="#112-03astronaut-032a"/><linearGradient id="112-03astronaut-032a" x1="240.97" y1="36.92" x2="158.76" y2="160.8" gradientUnits="userSpaceOnUse"><stop offset="0" stop-opacity="0"/><stop offset=".91" stop-opacity=".8"/><stop offset="1"/></linearGradient><linearGradient id="112-03astronaut-032e" x1="171.87" y1="102.56" x2="229.13" y2="102.56" xlink:href="#112-03astronaut-032a"/><linearGradient id="112-03astronaut-032f" x1="123.51" y1="178.52" x2="50.02" y2="243.28" xlink:href="#112-03astronaut-032a"/><linearGradient id="112-03astronaut-032g" x1="149.42" y1="222.57" x2="201.74" y2="222.57" xlink:href="#112-03astronaut-032a"/><linearGradient id="112-03astronaut-032h" x1="178.23" y1="163.1" x2="231.67" y2="163.1" xlink:href="#112-03astronaut-032a"/><linearGradient id="112-03astronaut-032i" x1="309.4" y1="140.84" x2="306.86" y2="171.81" xlink:href="#112-03astronaut-032a"/><linearGradient id="112-03astronaut-032j" x1="326.5" y1="124.09" x2="321.43" y2="167.45" xlink:href="#112-03astronaut-032a"/><linearGradient id="112-03astronaut-032d" x1="207.73" y1="120.88" x2="191.97" y2="279.68" xlink:href="#112-03astronaut-032a"/><linearGradient id="112-03astronaut-032l" x1="226.41" y1="249.05" x2="292.74" y2="249.05" xlink:href="#112-03astronaut-032a"/><linearGradient id="112-03astronaut-032m" x1="287.36" y1="142.78" x2="227.11" y2="170.94" xlink:href="#112-03astronaut-032a"/><linearGradient id="112-03astronaut-032b" x1="202.12" y1="97.41" x2="196.86" y2="114.49" gradientUnits="userSpaceOnUse"><stop offset="0" stop-color="#ecc4d7"/><stop offset=".42" stop-color="#efd4d1"/><stop offset="1" stop-color="#f2eac9"/></linearGradient><linearGradient id="112-03astronaut-032n" x1="183.3" y1="68.38" x2="212.96" y2="75.89" xlink:href="#112-03astronaut-032b"/><linearGradient id="112-03astronaut-032o" x1="182.81" y1="81.6" x2="191.36" y2="81.6" xlink:href="#112-03astronaut-032b"/><linearGradient id="112-03astronaut-032p" x1="193.67" y1="123.13" x2="200.62" y2="99.85" xlink:href="#112-03astronaut-032a"/><linearGradient id="112-03astronaut-032c" x1="133.54" y1="74.1" x2="320.88" y2="29.97" gradientTransform="rotate(7.8 182.906 61.951)" gradientUnits="userSpaceOnUse"><stop offset="0" stop-color="#fff" stop-opacity="0"/><stop offset="1" stop-color="#fff"/></linearGradient><linearGradient id="112-03astronaut-032q" x1="196.15" y1="8.4" x2="200.28" y2="45.76" gradientTransform="rotate(9.08 197.622 22.137)" xlink:href="#112-03astronaut-032c"/></defs><path d="M294.72 184.47c3.33 18.69 44.26 44.74-7.26 109.55-29.92 37.64-67.14 17.83-76 20.38-14.24 4.1-26.5 20.3-41.28 21.21-16.8 1-105.72 6.68-142.59-35.21a62.31 62.31 0 01-7.7-10.82c-14.23-25.34 44.33-33.85-12.39-92.6-10.61-11-16-82.63 26.18-105.8 23.52-12.9 11.19-19.04 50.19-67.71 21.66-27 73.36-30.36 99.64-11.81q4.1 2.9 8 5.42C252.87 56.96 281 34.71 311.64 78.64c37.12 53.21-21.25 81.58-16.92 105.83z" fill="#4E7699" opacity=".27" style="isolation:isolate"/><path d="M224.38 220.79c-4.46 18.45 22.55 58.75-50.66 97.4-42.52 22.45-68.65-10.65-77.76-11.86-14.68-2-32.42 7.95-46.32 2.83-3.89-1.43-11.9-4.36-22-8.76a62.31 62.31 0 01-7.7-10.82c-14.23-25.34 44.33-33.85-12.39-92.6-10.61-11-16-82.63 26.18-105.8 23.47-12.9 11.14-19.04 50.14-67.71 21.66-27 73.36-30.36 99.64-11.81q4.1 2.9 8 5.42l.47.76c42.38 70.26 79.6 58.07 90.45 112.83 12.58 63.64-52.27 66.17-58.05 90.12z" fill="#4E7699" opacity=".27" style="isolation:isolate"/><path d="M219.05 18.43s32.51 41.92-2.89 77.69l13 7.2S249.74 83.75 248.05 64s-4.49-30.1-29-45.57z" transform="translate(-54.13 -2.96)" opacity=".25" fill="url(#112-03astronaut-032a)" style="isolation:isolate"/><path d="M88.05 72.14c.75 29.21 0 36.1 0 36.1s-54.32 24.93-54.32 61.53 16.31 55.49 16.31 55.49 17.64-1.34 21.91-9.78-2.55-43.52-2.55-43.52l18.39-8.16s-2.57 34.74 11.81 61.46 24.17 47.86 19.27 59.25-6.52 26.87-6.52 26.87l16.35 17.37s7.68 6.26 16.63-5 3.52-61.66 5.51-64.2 11.2-25.92 11.2-25.92 12.75-6.16 21.2.59 19.11 40.54 22.23 43.07 10.8 24.05 10.8 24.05l22.36 3.05 4.58-12.08-20.34-36.58-2.66-34.93-9.15-15.38-36.58-22.71-2.23-26.36s33.92 22.4 44 23.12 41.29-3.14 41.29-3.14l15-12.53-22.88-3.66-44.17-9.59-43.43-29.8-25.79-56.87 1-16.45s-49.97-4.5-49.22 24.71z" fill="#4E7699" opacity=".27" style="isolation:isolate"/><path d="M126.48 294.04s-11.25 12.19-6.43 18.24 26.83 18.6 32.5 16.18 5.25-10.5 1.71-15.89-7.56-11-7.56-11zm102.07-16.54s-.22 11.08 4.25 16.52 38.64-7 39.59-11.64-4.47-9.82-13.41-9.94a36.36 36.36 0 01-14.72-3s-16.63-.77-15.71 8.06z" fill="#4E7699"/><path d="M197.71 58.97A49.07 49.07 0 11148.64 9.9a49 49 0 0149.07 49.07z" fill="#4E7699" opacity=".49" style="isolation:isolate"/><path d="M175 100.36a49.1 49.1 0 01-57.26-3.32s12-6.44 31-5.87c15.64.51 26.26 6.49 26.26 9.19z" fill="#4E7699"/><path d="M254.2 160.13a18.65 18.65 0 01-13.2 8 85.94 85.94 0 01-15.33.4c-24.81-1.41-47.37-26.8-47.37-26.8s.68 31.38 7.68 38.64 26.94 8.46 39.69 15.28c13.67 7.32 18.88 40.9 21 59.82 1.68 15.22.38 20.6-8 24-5.65 2.3-11.28 1.27-12.86-10.4-6.68-49.47-42.54-44.65-50.16-48.28-1.43-.68-2.5-.65-3.31-.06-1.88 1.37-2.28 5.78-2.28 11.24 0 4.65.29 10.06.21 15-.23 13.19-9.14 41.31-21.49 52.87-4 3.78-7.94 4.85-11.36 4.58a16.7 16.7 0 01-8.68-3.6 6.31 6.31 0 01-2.22-6.71c2.69-9.62 7.8-37.44-11.85-66.53-24.32-36-18.78-87.9-18.78-87.9s-13 8.51-19.94 14.53.12 25.62-1.48 31.18c-3.74 12.92-19.67 11.29-19.67 11.29a13 13 0 01-9.9-5.07c-4.18-5.18-7.14-15.61-2.55-36.61 8.42-38.49 63.18-54.67 73.73-57.45 1.14-.3 1.76-.44 1.76-.44l57.26 3.28s39.71 31.26 53.33 36.51a33 33 0 0018.9 1.24 8 8 0 019.47 5.74l.18.66a18.74 18.74 0 01-2.78 15.59z" fill="#4E7699"/><path d="M308.33 163.09a18.65 18.65 0 01-13.2 8 85.94 85.94 0 01-15.33.4c-24.81-1.41-47.37-26.8-47.37-26.8s.68 31.38 7.68 38.64 26.94 8.46 39.69 15.28c13.67 7.32 18.88 40.9 21 59.82 1.68 15.22.38 20.6-8 24-5.65 2.3-11.28 1.27-12.86-10.4-6.68-49.47-42.54-44.65-50.16-48.28-1.43-.68-2.5-.65-3.31-.06-1.88 1.37-2.28 5.78-2.28 11.24 0 4.65.29 10.06.21 15-.23 13.19-9.14 41.31-21.49 52.87-4 3.78-7.94 4.85-11.36 4.58a16.7 16.7 0 01-8.68-3.6 6.31 6.31 0 01-2.22-6.71c2.69-9.62 7.8-37.44-11.85-66.53-24.32-36-18.78-87.9-18.78-87.9s-13 8.51-19.94 14.53.12 25.62-1.48 31.18c-3.74 12.92-19.67 11.29-19.67 11.29a13 13 0 01-9.9-5.07c-4.18-5.18-7.14-15.61-2.55-36.61 8.42-38.49 63.18-54.67 73.73-57.45 1.14-.3 1.76-.44 1.76-.44l57.26 3.28s39.71 31.26 53.33 36.51a33 33 0 0018.9 1.24 8 8 0 019.47 5.74l.18.66a18.74 18.74 0 01-2.78 15.59z" transform="translate(-54.13 -2.96)" opacity=".25" fill="url(#112-03astronaut-032d)" style="isolation:isolate"/><path d="M118.87 105.69s-47.62 16.34-54.6 35.09-8.32 31.95-8.32 31.95l-11.08 18.88c-4.18-5.18-7.14-15.61-2.55-36.61 8.42-38.49 63.18-54.67 73.73-57.45z" fill="#fff" opacity=".25" style="isolation:isolate"/><path d="M229.13 103.32a49.1 49.1 0 01-57.26-3.32s12-6.44 31-5.87c15.64.51 26.26 6.49 26.26 9.19z" transform="translate(-54.13 -2.96)" opacity=".25" fill="url(#112-03astronaut-032e)" style="isolation:isolate"/><path d="M99 194.57s-.15-18.45 14.77-19.58 14.8 13.36 14.8 13.36-7.58 13.78-19.67 11.29c-7.65-1.57-9.9-5.07-9.9-5.07z" transform="translate(-54.13 -2.96)" fill="url(#112-03astronaut-032f)"/><path d="M191.49 307.38a16.62 16.62 0 01-8.51-3.47 6.5 6.5 0 01-2.37-6.93c2.7-9.69 7.72-37.43-11.87-66.44-24.32-36-18.78-87.9-18.78-87.9s16.14-9.16 19.54-2.37-6.63 11.22.8 40.23 16.38 46.46 26.17 64.34 4.72 59.65-4.98 62.54z" transform="translate(-54.13 -2.96)" opacity=".25" fill="url(#112-03astronaut-032g)" style="isolation:isolate"/><path d="M189 135.86s24.86-2.93 31.62-.94 6.76 38.61 10.59 48c0 0 2.2 1.49-2.52 2.77s-29 8.3-33.45 5.74-9.13-15.75-11.8-24.26-6.93-25.55-4.38-28.53 9.94-2.78 9.94-2.78z" transform="translate(-54.13 -2.96)" opacity=".25" fill="url(#112-03astronaut-032h)" style="isolation:isolate"/><path d="M308.08 142.64s-4.25-.57-5.67 5.18-.15 13.78 1.34 15.28 1.5 2.12 4.58 0 6.7-9.56 6.7-9.56.64-12.07-6.95-10.9z" transform="translate(-54.13 -2.96)" opacity=".25" fill="url(#112-03astronaut-032i)" style="isolation:isolate"/><path d="M253.95 139.68c.35 4.07-2.28 12.84 0 15.67s25.48.26 31.44-15.67-2.56-14.55-4.58-14.34-15 8.73-15 8.73 6.71-5.32 3.73-7.45-15.94 8.98-15.59 13.06z" fill="#4E7699"/><path d="M308.08 142.64c.35 4.07-2.28 12.84 0 15.67s25.48.26 31.44-15.67-2.56-14.55-4.58-14.34-15 8.73-15 8.73 6.71-5.32 3.73-7.45-15.94 8.98-15.59 13.06z" transform="translate(-54.13 -2.96)" opacity=".25" fill="url(#112-03astronaut-032j)" style="isolation:isolate"/><path d="M51.17 188.93s3.58-12.44 13.52-8.79 13.85 14.42 13.8 14.89-1.11 5.73-5.57 2.87-5.37-1.84-5.26-1.35 3.6 9.15 8.55 10.49.49 8.49-4.28 8.44-15.2-3.59-16.28-5.3-8.42-12.85-4.48-21.25z" fill="#4E7699"/><path d="M105.3 191.89s3.58-12.44 13.52-8.79 13.85 14.42 13.8 14.89-1.11 5.73-5.57 2.87-5.37-1.84-5.26-1.35 3.6 9.15 8.55 10.49.49 8.49-4.28 8.44-15.2-3.59-16.28-5.3-8.42-12.85-4.48-21.25z" transform="translate(-54.13 -2.96)" opacity=".25" fill="url(#112-03astronaut-032k)" style="isolation:isolate"/><path d="M292.74 282.44c-5.65 2.3-11.28 1.27-12.86-10.4-6.68-49.47-42.54-44.65-50.16-48.28-1.43-.68-2.5-.65-3.31-.06 0 0 2.13-7.52 10.07-8.66s33.64 0 37.89 8.72 18 35.41 18.37 58.68z" transform="translate(-54.13 -2.96)" opacity=".25" fill="url(#112-03astronaut-032l)" style="isolation:isolate"/><path d="M308.33 163.09a18.65 18.65 0 01-13.2 8 85.94 85.94 0 01-15.33.4c-24.81-1.41-47.37-26.8-47.37-26.8-.32-6.69 2.67-10.45 2.67-10.45s21.39 18.79 38.57 25.16 35.47-6.94 34.66 3.69z" transform="translate(-54.13 -2.96)" opacity=".25" fill="url(#112-03astronaut-032m)" style="isolation:isolate"/><path d="M190.11 86.46s6.32 15.12-3 17.89 12.92 8 20 6.64 7-2.38 7-2.38a5.69 5.69 0 01-1.59-7c1.83-4.49-22.41-15.15-22.41-15.15z" transform="translate(-54.13 -2.96)" fill="url(#112-03astronaut-032b)"/><path d="M223.36 57.1s3.1 31.9-1.75 37.9-12 10.81-24.08 1.06-16.37-35.75-7.65-40.86 24.19-12.79 33.48 1.9z" transform="translate(-54.13 -2.96)" fill="url(#112-03astronaut-032n)"/><path d="M153.72 40.73s-10.53 1-16.49 6.7-6.08 6.28-6.08 6.28-5.42-.85-5.31 4.15-1.81 4.69-.74 10.54 12.13 18.64 12.13 18.64l-4.71-12.7 2.3 1.3s-3.13-9.8 1.45-11.76 11.18-7.19 12.77-7.4 15.65-.85 17.35 1.28a36 36 0 013.56 6.58s3.89-6.58 2.08-11.69-4.55-7-4.55-7l3.59-2.43s-14.79-4.83-17.35-2.49z" fill="#001316"/><path d="M189 78.6s-6.06-4.26-6.14 0 3.92 7.32 7.3 7.86S189 78.6 189 78.6z" transform="translate(-54.13 -2.96)" fill="url(#112-03astronaut-032o)"/><path d="M115.37 95.78s-3.54 1.16-3 3.88 18.5 17.49 40.54 14.22 25.37-11 25.37-11 .83-3.32-3.3-2.57-36.33 13.73-59.61-4.53z" fill="#4E7699"/><path d="M169.5 98.74s-3.54 1.16-3 3.88 18.5 17.49 40.54 14.22 25.37-11 25.37-11 .83-3.32-3.3-2.57-36.33 13.73-59.61-4.53z" transform="translate(-54.13 -2.96)" opacity=".25" fill="url(#112-03astronaut-032p)" style="isolation:isolate"/><path d="M242.6 71.68a1 1 0 01-.22.49 1 1 0 01-.51.22l-3.68.87 2.8 1a1.36 1.36 0 01.61.37 1.24 1.24 0 01.17.76l.05 3 2.33-3.19 2.4 2-1.6-4.26a9.28 9.28 0 003.06-1.33l-2.52-.27c-1.55-.18-1.52-1.16-2.08-2.35a13.76 13.76 0 00-.81 2.69zm34.27 145.91a.92.92 0 01-.22.48 1 1 0 01-.51.23l-3.68.87 2.8 1a1.28 1.28 0 01.61.37 1.24 1.24 0 01.17.76l.05 3 2.33-3.19 2.4 2-1.6-4.26a9.49 9.49 0 003.06-1.33l-2.52-.28c-1.55-.17-1.52-1.15-2.08-2.34a13.76 13.76 0 00-.81 2.69zM68.66 267.35a.92.92 0 01-.22.48 1 1 0 01-.51.23l-3.68.87 2.8 1a1.36 1.36 0 01.61.37 1.24 1.24 0 01.17.76v3l2.34-3.19 2.4 2-1.6-4.26a9.28 9.28 0 003.06-1.33l-2.52-.28c-1.55-.17-1.52-1.15-2.08-2.34a13.11 13.11 0 00-.77 2.69zm173.69-76.09a.55.55 0 01-.12.28.64.64 0 01-.3.14l-2.14.5 1.63.6a.75.75 0 01.35.22.74.74 0 01.1.44v1.74l1.36-1.86 1.39 1.15-.93-2.47a5.55 5.55 0 001.78-.78l-1.47-.16c-.9-.1-.88-.67-1.21-1.36a8.57 8.57 0 00-.44 1.56zm-54.79 87.19a1.12 1.12 0 01-.22.48 1 1 0 01-.52.23l-3.67.87 2.8 1a1.33 1.33 0 01.61.37 1.24 1.24 0 01.17.76v3l2.34-3.19 2.4 2-1.6-4.26a9.49 9.49 0 003.06-1.33l-2.53-.28c-1.54-.17-1.51-1.15-2.07-2.34a13.11 13.11 0 00-.77 2.69zm28.37-230.36a.44.44 0 01-.07.17.58.58 0 01-.18.08l-1.24.29.95.35a.44.44 0 01.2.13.42.42 0 01.06.25v1l.79-1.08.82.66-.55-1.44a3.22 3.22 0 001-.45l-.85-.09c-.53-.06-.52-.39-.71-.8a5.33 5.33 0 00-.22.93zm-10.65 34.73a.35.35 0 01-.08.16.45.45 0 01-.17.08l-1.24.29.94.35a.42.42 0 01.21.13.44.44 0 01.06.25v1l.79-1.08.81.66-.54-1.44a3.1 3.1 0 001-.45l-.86-.09c-.52-.06-.51-.39-.7-.8a4.46 4.46 0 00-.22.94zM78.32 77.74a.4.4 0 01-.08.16.34.34 0 01-.17.08l-1.25.29 1 .35a.42.42 0 01.21.13.55.55 0 01.06.26v1l.78-1.07.81.67-.54-1.45a3.1 3.1 0 001-.45l-.86-.09c-.52-.06-.51-.39-.7-.79a4.37 4.37 0 00-.26.91zM47.59 98.76l2.51-5.6a7.09 7.09 0 00.45 4.18 3.65 3.65 0 003.42 2.11c-1.6 0-3.68.36-3.92 1.93-.15 1 .49 2.48-.47 2.91l-1.36-3.31a9.65 9.65 0 01-3.26 1.17 3.9 3.9 0 011.55-1.57 10.81 10.81 0 01-2.15-3.38 10 10 0 012.37 1.91m35.84-49.58l.75-1.67a2 2 0 00.13 1.24 1.09 1.09 0 001 .63c-.48 0-1.1.11-1.17.58 0 .31.15.74-.14.86l-.4-1a3.05 3.05 0 01-1 .35 1.1 1.1 0 01.46-.47 3.33 3.33 0 01-.64-1 3.23 3.23 0 01.7.57" fill="#fff"/><path d="M179.83 99.53c3.25.43 4.85-2 5.62-5a15.24 15.24 0 00-2.21-12.35c-4.65-6.89-12.55-22.55-2.39-38.85 13.61-21.83-3.47-19.41-9-13.54-31.97 34.13.39 68.74 7.98 69.74z" transform="translate(-54.13 -2.96)" fill="url(#112-03astronaut-032c)" style="isolation:isolate"/><ellipse cx="197.67" cy="22.14" rx="9.65" ry="5.87" transform="rotate(-9.08 151.955 361.466)" fill="url(#112-03astronaut-032q)" style="isolation:isolate"/></svg>