<svg data-name="Layer 1" xmlns="http://www.w3.org/2000/svg" xmlns:xlink="http://www.w3.org/1999/xlink" viewBox="0 0 559.17 427.23"><defs><linearGradient id="74-03complete-039c" x1="491.63" y1="135.71" x2="473.1" y2="134.61" xlink:href="#74-03complete-039a"/><linearGradient id="74-03complete-039b" x1="180.3" y1="-55.7" x2="214.23" y2="485.87" gradientUnits="userSpaceOnUse"><stop offset="0" stop-color="#fff" stop-opacity="0"/><stop offset=".14" stop-color="#fff" stop-opacity=".22"/><stop offset=".3" stop-color="#fff" stop-opacity=".45"/><stop offset=".45" stop-color="#fff" stop-opacity=".65"/><stop offset=".6" stop-color="#fff" stop-opacity=".8"/><stop offset=".73" stop-color="#fff" stop-opacity=".91"/><stop offset=".85" stop-color="#fff" stop-opacity=".98"/><stop offset=".94" stop-color="#fff"/></linearGradient><linearGradient id="74-03complete-039d" x1="466.09" y1="314.23" x2="387.87" y2="307.63" xlink:href="#74-03complete-039a"/><linearGradient id="74-03complete-039e" x1="456.36" y1="227.03" x2="601.49" y2="80.01" xlink:href="#74-03complete-039a"/><linearGradient id="74-03complete-039f" x1="457.81" y1="169.83" x2="537.68" y2="127.19" xlink:href="#74-03complete-039a"/><linearGradient id="74-03complete-039g" x1="430.89" y1="420.62" x2="412.04" y2="349.93" xlink:href="#74-03complete-039a"/><linearGradient id="74-03complete-039h" x1="469.8" y1="410.24" x2="450.95" y2="339.55" xlink:href="#74-03complete-039a"/><linearGradient id="74-03complete-039i" x1="474.69" y1="118.57" x2="446.73" y2="132.07" xlink:href="#74-03complete-039a"/><linearGradient id="74-03complete-039a" x1="275.51" y1="500.74" x2="298.12" y2="-86.06" gradientUnits="userSpaceOnUse"><stop offset="0" stop-color="#010101" stop-opacity="0"/><stop offset=".95" stop-color="#010101"/></linearGradient><linearGradient id="74-03complete-039j" x1="68.91" y1="390.96" x2="535.09" y2="-122.97" xlink:href="#74-03complete-039a"/><linearGradient id="74-03complete-039k" x1="515.21" y1="172.37" x2="-336.48" y2="513.92" xlink:href="#74-03complete-039b"/><linearGradient id="74-03complete-039l" x1="411.07" y1="388.32" x2="245.74" y2="454.62" xlink:href="#74-03complete-039b"/><linearGradient id="74-03complete-039m" x1="385.17" y1="79.23" x2="382.66" y2="124.47" xlink:href="#74-03complete-039b"/><linearGradient id="74-03complete-039n" x1="381.53" y1="84.99" x2="397.23" y2="45.23" xlink:href="#74-03complete-039a"/><linearGradient id="74-03complete-039o" x1="200.69" y1="89.02" x2="200.06" y2="58.24" xlink:href="#74-03complete-039b"/><linearGradient id="74-03complete-039p" x1="381.55" y1="349.37" x2="383.44" y2="401.51" xlink:href="#74-03complete-039a"/><linearGradient id="74-03complete-039q" x1="384.08" y1="408.66" x2="384.4" y2="341.12" xlink:href="#74-03complete-039a"/></defs><path d="M559.15 258.91c-.2 25.94-3.61 52.38-14.25 75.54a124.21 124.21 0 01-28.12 38.83c-27.71 26.21-66.17 40.4-103.36 44.85-52.58 6.29-105.77-2.64-158.65.13-33 1.74-65.77 8-98.81 8.87s-67.37-4.21-95.42-23.26a124.2 124.2 0 01-28-26.51 152 152 0 01-23.66-43.84C-12.2 272.7 5.21 198.43 50.5 156.15c17.87-16.7 39.16-28.41 60.31-39.73 44.25-23.59 118.55-188 292.64-80 34 21.15 51.61 64.46 81.67 91.87 26.77 24.4 57.13 48.27 68.45 84.28 4.68 14.81 5.69 30.71 5.58 46.34z" fill="#4E7699" opacity=".24" style="isolation:isolate"/><path d="M516.78 373.28c-27.71 26.21-66.17 40.4-103.36 44.85-52.58 6.29-105.77-2.64-158.65.13-33 1.74-65.77 8-98.81 8.87s-67.37-4.21-95.42-23.26a124.2 124.2 0 01-28-26.51 69.54 69.54 0 018.18-1.57c55.46-7.5 111.59-8.4 167.55-9.27l152.77-2.41c16.93-.27 33.94-.54 50.81 1.1 21.58 2.08 42.77 7.23 64.36 9.17 13.69 1.25 27.08-.75 40.57-1.1z" fill="#4E7699" opacity=".24" style="isolation:isolate"/><path d="M422.83 402.89a2856.06 2856.06 0 00-310.08-.28c-17.45.93-35.21 2.09-51.51 8.4 8 7.31 19.9 7.89 30.74 8.07q119.15 1.92 238.32 1.06c4.66 0 11.1-2.07 10.18-6.65-.28-1.38-1.29-2.62-1.21-4 .15-2.55 3.41-3.47 6-3.59a98.56 98.56 0 0120.62 1.1c2.47.41 5.11 1 6.74 2.9 1.28 1.48 1.71 3.49 2.64 5.2 3.06 5.59 10.7 6.81 17 5.58s12.16-4.2 18.53-4.52c5.61-.29 11.09 1.52 16.57 2.79 17.91 4.14 36.58 2.61 54.89 1.06 19-1.61 19.4-14.74.46-15.79-19.88-1.07-39.97-.22-59.89-1.33z" transform="translate(-2.28 -26.37)" fill="url(#74-03complete-039a)"/><path d="M491.29 240.37l-8.57-46.8h11.77s2.7 37.44 4 47.59z" fill="#f5c7c8"/><path d="M497.89 237.8s1.65 7.3.68 11.37-5 8.81-7.28 9.09-3.68-.84-3.51-2.39 6-7.06 5.1-8.81-3.2 3.57-4 2.28-.46-3.29 1.55-5.82 0-6.06 0-6.06 6.04-2.68 7.46.34z" fill="#f5c7c8"/><path d="M474.92 96.55c2.45-1.81 7.43-1.19 9.9-.2a12.57 12.57 0 017.37 8.3 15 15 0 01.38 5.33c-.36 3.93-2.05 7.9-5.24 10.24-6.68 4.88-10.8.35-12.78-5.74a22.62 22.62 0 01-1.18-10.78c.36-2.75-.9-4.92 1.23-6.89z" fill="#606161"/><path d="M477.2 122.92c2.45-1.81 7.43-1.19 9.9-.2a12.57 12.57 0 017.37 8.3 15 15 0 01.38 5.33c-.36 3.93-2.05 7.9-5.24 10.24-6.68 4.88-10.8.35-12.78-5.74a22.62 22.62 0 01-1.18-10.78c.36-2.75-.9-4.92 1.23-6.89z" transform="translate(-2.28 -26.37)" fill="url(#74-03complete-039c)"/><ellipse cx="460.92" cy="107.76" rx="18.52" ry="23.1" fill="#606161"/><path d="M402.15 171.49s-3.4-6-4.87-6.89-4.08-3.36-4.84-2.8c-1.37 1 4.53 6.24-.73 5.85-.83-.07-5.05 0-7.09 1.91a3.91 3.91 0 00.19 5.84c1.38.94 6.12 1.38 8.68 1.3s5.56.29 7.3 1.34" fill="#f5c7c8"/><path d="M438.44 146.03s-2.43 7.64-2.67 11.77-2.18 21.48-2.83 22.33-31.77-9.73-31.77-9.73-1.88 2.65-.38 7.64c0 0 23.11 20.91 37.1 21.73s12.19-32.31 12.19-32.31m15.73 196.6l-2.57 5.81c1.52-.52 8.8 5.33 12.08 5.34a10.42 10.42 0 005.94-2.17l-2.06-10.53-3.67-52.13-19.73 2.86zm-38.03-.43l-3.79 3.55c1.6-.12 7.19 7.36 10.37 8.19a10.45 10.45 0 006.3-.62l.62-10.72 4-48.25-19.45 1.91zm40.38-240.46l.79 16.78a8.73 8.73 0 01-8 3.75c-8.1-.9-7.75-3.3-7.75-3.3s0-12.11-.32-14.82" fill="#f5c7c8"/><path d="M466.23 128.63l1.87-3.38-15.21 1.69c.12 1 .2 3.44.24 6a12.1 12.1 0 0013.1-4.31z" fill="#dbb4af"/><path d="M480.14 244.63s2.44 46.16 5.69 83.52c0 0-44.64 6.43-62.87-.72 0 0 3.92-74.44 4.74-85.12z" fill="#606161"/><path d="M482.42 271s2.44 46.16 5.69 83.52c0 0-44.64 6.43-62.87-.72 0 0 3.92-74.44 4.74-85.12z" transform="translate(-2.28 -26.37)" fill="url(#74-03complete-039d)"/><path d="M480.15 145.06s-.08-3.3-11.51-3.4c-8.33-.08-11.24-.76-17.16.37-10.8 2.06-12 2.73-13.65 4.13-3.91 3.37-10.54 94-10.54 94s-6.63 10.88 27.7 14.38c12.7 1.3 25-7.5 25-7.5z" fill="#4E7699"/><path d="M474.48 96s-.67 21.49-6.92 28.84c-6.59 7.76-10.34 8.71-18.34 5.54-6.8-2.71-7.61-21.32-7.84-26.68-.59-13.91 20.73-25.89 33.1-7.7z" fill="#f5c7c8"/><path fill="url(#74-03complete-039e)" d="M479.45 159.78l.5 87.22-7.89 4.55-1.41-77.04 8.8-14.73z"/><path d="M472.81 137.93l.15 3.93a1.64 1.64 0 01-.9 1.52s-6.16 2.09-16.83 2.65l-7.84-2a1.63 1.63 0 01-1-1.41l-.11-1.95a1.65 1.65 0 011.45-1.73l23.21-2.63a1.65 1.65 0 011.87 1.62z" fill="#4E7699"/><path d="M475.09 164.3l.15 3.93a1.64 1.64 0 01-.9 1.52s-6.16 2.09-16.83 2.65l-7.84-2a1.63 1.63 0 01-1-1.41l-.11-1.95a1.65 1.65 0 011.45-1.73l23.21-2.63a1.65 1.65 0 011.87 1.62z" transform="translate(-2.28 -26.37)" fill="url(#74-03complete-039f)"/><path d="M472 109.63s.34-3.24 3.53-1.84.19 7-1.05 8.57-3.62 1.07-3.62 1.07" fill="#f5c7c8"/><path fill="#4eae93" d="M477.04 94.7l1.27 5.08h-2.08l-1.75-7.75 2.56 2.67z"/><path d="M479.72 144.16s4.7 4.42 13.35 25.17c3.53 8.48 6.48 24.27 6.48 24.27s-12.06 6.19-19.17 6.19c-3.18-18.45-10.82-25.6-12.24-34.11s7.28-23.16 11.58-21.52zm-61.63 224.05a16.94 16.94 0 00-8.78 5.92 7.42 7.42 0 00-1.55 3.91 3.91 3.91 0 001.83 3.61 6.08 6.08 0 002.68.52 214.89 214.89 0 0025.63-.45 2.47 2.47 0 001.93-.77 2.49 2.49 0 00.24-1.46l-.24-5.36a2.77 2.77 0 00-.44-1.7c-.95-1.16-2.8-.19-4.29-.27-3-.16-3.76-3.89-6.23-4.92-2.82-1.18-7.96.11-10.78.97zm41.63-.31a16.82 16.82 0 00-8.78 5.92 7.4 7.4 0 00-1.56 3.91 3.9 3.9 0 001.84 3.6 6.09 6.09 0 002.68.53 212.81 212.81 0 0025.63-.46 1.82 1.82 0 002.17-2.22l-.24-5.37a2.74 2.74 0 00-.44-1.69c-.95-1.16-2.8-.19-4.3-.27-3-.16-3.75-3.89-6.22-4.93-2.87-1.18-8 .11-10.78.98z" fill="#4E7699"/><path d="M420.37 394.58a16.94 16.94 0 00-8.78 5.92 7.42 7.42 0 00-1.55 3.91 3.91 3.91 0 001.83 3.61 6.08 6.08 0 002.68.52 214.89 214.89 0 0025.63-.45 2.47 2.47 0 001.93-.77 2.49 2.49 0 00.24-1.46l-.24-5.36a2.77 2.77 0 00-.44-1.7c-.95-1.16-2.8-.19-4.29-.27-3-.16-3.76-3.89-6.23-4.92-2.82-1.18-7.96.11-10.78.97z" transform="translate(-2.28 -26.37)" fill="url(#74-03complete-039g)"/><path d="M462 394.27a16.82 16.82 0 00-8.78 5.92 7.4 7.4 0 00-1.56 3.91 3.9 3.9 0 001.84 3.6 6.09 6.09 0 002.68.53 212.81 212.81 0 0025.63-.46 1.82 1.82 0 002.17-2.22l-.24-5.37a2.74 2.74 0 00-.44-1.69c-.95-1.16-2.8-.19-4.3-.27-3-.16-3.75-3.89-6.22-4.93-2.87-1.18-8 .11-10.78.98z" transform="translate(-2.28 -26.37)" fill="url(#74-03complete-039h)"/><path d="M441.83 91c-.33.59-.64 1.21-.95 1.87a11.81 11.81 0 00-1.17 5.6c0 .8 1.55 4.62 1.4 4.93A27.64 27.64 0 01450 93.12c1.42 3.21 4.87 4.93 8 6.44s6.6 3.36 7.82 6.66c.85 2.26.53 5 2 6.91 3.63-.49 4.42-6.35 8-7 .65-.12 1.33 0 2-.18a4 4 0 002.87-3.72c.56-7.57-8.62-14.6-14.75-17.13a23 23 0 00-17.94 0 12.6 12.6 0 00-6.17 5.9z" fill="#606161"/><path d="M444.11 117.37c-.33.59-.64 1.21-.95 1.87a11.81 11.81 0 00-1.17 5.6c0 .8 1.55 4.62 1.4 4.93a27.64 27.64 0 018.89-10.28c1.42 3.21 4.87 4.93 8 6.44s6.6 3.36 7.82 6.66c.85 2.26.53 5 2 6.91 3.63-.49 4.42-6.35 8-7 .65-.12 1.33 0 2-.18a4 4 0 002.87-3.72c.56-7.57-8.62-14.6-14.75-17.13a23 23 0 00-17.94 0 12.6 12.6 0 00-6.17 5.9z" transform="translate(-2.28 -26.37)" fill="url(#74-03complete-039i)"/><rect x="83.55" y="55.3" width="215.81" height="329.84" rx="15.98" fill="#4E7699"/><rect x="89.68" y="55.3" width="215.81" height="329.84" rx="15.98" fill="#4E7699"/><rect x="89.68" y="55.3" width="215.81" height="329.84" rx="15.98" fill="url(#74-03complete-039b)"/><path d="M108.45 271.41l5.65-173.72 163.35 3.45S256.09 281.46 271.17 328s17.59 64 17.59 64l-176.54 5z" transform="translate(-2.28 -26.37)" fill="url(#74-03complete-039j)"/><path d="M315.85 350.27l-178.58 1.89s-18.36-106.67-21.55-142.43c-3.13-34.45-3.85-138.41-3.85-138.41H282.4s.43 100.75 3.45 134.13c3.34 36.83 30 144.82 30 144.82z" fill="#fff"/><path d="M395.55 69.43L383.4 41.85l-1-2.34a.35.35 0 00-.17-.17.55.55 0 00-.9.17l-13.16 29.92a5 5 0 00-.4 2v288.9h28.18V71.44a5 5 0 00-.4-2.01zm.17 290.73h-27.79v-6.13h27.79z" fill="#4E7699"/><path d="M393.38 97.81V380.4h-17.27V97.77a7.59 7.59 0 01.23-2l8.07-29.92a.26.26 0 01.06-.17c.17-.27.47-.2.57.17l.64 2.34 7.43 27.58a7.68 7.68 0 01.27 2.04z" transform="translate(-2.28 -26.37)" fill="url(#74-03complete-039k)"/><path d="M376.11 386.53h17.27v20.82c0 2.74-1.38 4.95-3.05 4.95h-11.21c-1.68 0-3-2.21-3-4.95z" transform="translate(-2.28 -26.37)" fill="url(#74-03complete-039l)"/><path d="M398.23 97.81a32.14 32.14 0 01-28.18 0l8.3-18.14 6.29-13.75 5.42 12.75z" transform="translate(-2.28 -26.37)" fill="url(#74-03complete-039m)"/><path d="M387.78 52.26a17 17 0 01-11.71 1l6.29-13.75z" fill="#4E7699"/><path d="M390.06 78.63c-4 2-9 1.66-12.38.86L384 64.7z" transform="translate(-2.28 -26.37)" fill="url(#74-03complete-039n)"/><rect x="128.48" y="106.5" width="89.84" height="5.65" rx="2.83" fill="#4E7699"/><rect x="128.48" y="116.24" width="89.84" height="5.65" rx="2.83" fill="#4E7699"/><rect x="128.48" y="125.98" width="89.84" height="5.65" rx="2.83" fill="#4E7699"/><rect x="157.88" y="135.72" width="60.44" height="5.65" rx="2.32" fill="#4E7699"/><rect x="129.42" y="168.23" width="89.84" height="5.65" rx="2.83" fill="#4E7699"/><rect x="129.42" y="177.97" width="89.84" height="5.65" rx="2.83" fill="#4E7699"/><rect x="129.42" y="187.7" width="89.84" height="5.65" rx="2.83" fill="#4E7699"/><rect x="158.82" y="197.44" width="60.44" height="5.65" rx="2.32" fill="#4E7699"/><path d="M222.84 232.78h-84.19a3.34 3.34 0 01-3.2-2.83 2.41 2.41 0 012.45-2.82h84.18a3.33 3.33 0 013.21 2.82 2.42 2.42 0 01-2.45 2.83zm1.3 9.72h-84.19a3.34 3.34 0 01-3.23-2.87 2.42 2.42 0 012.45-2.82h84.19a3.34 3.34 0 013.2 2.82 2.42 2.42 0 01-2.42 2.87zm1.3 9.72h-84.19a3.34 3.34 0 01-3.2-2.82 2.42 2.42 0 012.45-2.83h84.22a3.34 3.34 0 013.2 2.83 2.42 2.42 0 01-2.48 2.82zm1.81 9.72h-55.8a2.74 2.74 0 01-2.63-2.31l-.14-1a2 2 0 012-2.32h55.81a2.74 2.74 0 012.63 2.32l.13 1a2 2 0 01-2 2.31zm5.81 32.69h-84.19a3.6 3.6 0 01-3.37-2.86 2.3 2.3 0 012.29-2.86h84.19a3.6 3.6 0 013.37 2.86 2.29 2.29 0 01-2.29 2.86zm1.87 9.82h-84.21a3.6 3.6 0 01-3.37-2.87 2.29 2.29 0 012.28-2.86h84.19a3.59 3.59 0 013.37 2.86 2.29 2.29 0 01-2.26 2.87zm1.86 9.86H152.6a3.6 3.6 0 01-3.37-2.86 2.3 2.3 0 012.29-2.82h84.2a3.61 3.61 0 013.37 2.87 2.3 2.3 0 01-2.3 2.81zm2.37 9.86h-55.8a3 3 0 01-2.77-2.35l-.19-1a1.87 1.87 0 011.88-2.34h55.8a3 3 0 012.76 2.34l.2 1a1.88 1.88 0 01-1.88 2.35zm18.88-176.26h-16.78a12.14 12.14 0 01-12.13-12.13v-18.15a12.14 12.14 0 0112.13-12.13h16.78a12.14 12.14 0 0112.13 12.13v18.19a12.14 12.14 0 01-12.13 12.09zm-16.78-39.11a8.8 8.8 0 00-8.79 8.79v18.19a8.8 8.8 0 008.79 8.79h16.78a8.79 8.79 0 008.78-8.79v-18.15a8.79 8.79 0 00-8.78-8.79zm21.19 101.56h-16.73a12.12 12.12 0 01-12.12-11.58l-.8-17.82a12.13 12.13 0 0112.12-12.68h16.75a12.11 12.11 0 0112.05 11.59l.81 17.81a12.13 12.13 0 01-12.12 12.68zm-17.56-38.73a8.78 8.78 0 00-8.78 9.18l.81 17.82a8.76 8.76 0 008.77 8.38h16.76a8.78 8.78 0 008.78-9.18l-.81-17.81a8.78 8.78 0 00-8.78-8.39zm6.13 96.49a12.11 12.11 0 01-12.08-11.16l-1.43-17.77a12.14 12.14 0 0111.67-13.1l16.75-.58a12.23 12.23 0 0112.52 11.12l1.43 17.77a12.15 12.15 0 01-11.67 13.1l-16.75.58zm15.35-39.27h-.32l-16.75.58a8.8 8.8 0 00-8.45 9.49l1.43 17.77a8.82 8.82 0 009.06 8.08l16.75-.59a8.78 8.78 0 008.45-9.48l-1.43-17.77a8.76 8.76 0 00-8.74-8.08zm-2.2 98.16a12.16 12.16 0 01-12-10.19l-2.8-17.32a12.13 12.13 0 0111.55-14.07l16.6-.58a12.26 12.26 0 0112.4 10.19l2.8 17.32a12.14 12.14 0 01-11.55 14.07l-16.61.57zm13.8-38.82h-.31l-16.6.58a8.79 8.79 0 00-8.34 10.19l2.81 17.32a8.9 8.9 0 009 7.38l16.6-.58a8.77 8.77 0 008.36-10.18l-2.8-17.33a8.8 8.8 0 00-8.72-7.38z" fill="#4E7699"/><rect x="153.76" y="64.72" width="93.3" height="21.2" rx="5.95" fill="#4E7699"/><rect x="153.76" y="64.72" width="93.3" height="21.2" rx="5.95" fill="url(#74-03complete-039o)"/><path d="M250.31 140.26l-14.66-14.63a5.02 5.02 0 017.1-7.1l7 7 23.49-27.17a5.023 5.023 0 017.6 6.57zm6.91 60.94l-14.65-14.65a5.02 5.02 0 017.1-7.1l7 7 23.49-27.17a5.023 5.023 0 017.6 6.57zm5.03 58.11l-14.66-14.68a5.02 5.02 0 017.1-7.1l7 7 23.49-27.17a5.016 5.016 0 117.59 6.56zm13.02 58.43l-14.65-14.66a5.017 5.017 0 117.1-7.09l7 7 23.5-27.16a5.023 5.023 0 017.6 6.57zm92.67 36.29h27.78v6.13h-27.78z" fill="#4E7699"/><path fill="url(#74-03complete-039p)" d="M367.94 354.03h27.78v6.13h-27.78z"/><path d="M395.95 360.33v20.65a4.94 4.94 0 01-5 4.95h-18.23a4.94 4.94 0 01-4.95-4.95v-20.65z" fill="#4E7699"/><path d="M398.23 386.7v20.65a4.94 4.94 0 01-5 4.95H375a4.94 4.94 0 01-4.95-4.95V386.7z" transform="translate(-2.28 -26.37)" fill="url(#74-03complete-039q)"/></svg>