<svg data-name="Layer 1" xmlns="http://www.w3.org/2000/svg" xmlns:xlink="http://www.w3.org/1999/xlink" viewBox="0 0 642.02 503.42"><defs><linearGradient id="32-03customer_service-0377o" x1="447.72" y1="106.46" x2="461.86" y2="764.83" xlink:href="#32-03customer_service-0377a"/><linearGradient id="32-03customer_service-0377c" x1="241.67" y1="167.93" x2="86.48" y2="-96.21" gradientUnits="userSpaceOnUse"><stop offset="0" stop-color="#010101" stop-opacity="0"/><stop offset=".54" stop-color="#010101" stop-opacity=".54"/><stop offset=".95" stop-color="#010101"/></linearGradient><linearGradient id="32-03customer_service-0377d" x1="187.33" y1="125.8" x2="199.12" y2="573.62" xlink:href="#32-03customer_service-0377a"/><linearGradient id="32-03customer_service-0377e" x1="291.58" y1="123.05" x2="303.36" y2="570.87" xlink:href="#32-03customer_service-0377a"/><linearGradient id="32-03customer_service-0377f" x1="265.22" y1="123.75" x2="277.01" y2="571.57" xlink:href="#32-03customer_service-0377a"/><linearGradient id="32-03customer_service-0377g" x1="378.85" y1="120.76" x2="390.63" y2="568.58" xlink:href="#32-03customer_service-0377a"/><linearGradient id="32-03customer_service-0377h" x1="447.18" y1="118.96" x2="458.96" y2="566.78" xlink:href="#32-03customer_service-0377a"/><linearGradient id="32-03customer_service-0377i" x1="414.73" y1="119.81" x2="426.52" y2="567.63" xlink:href="#32-03customer_service-0377a"/><linearGradient id="32-03customer_service-0377j" x1="352.49" y1="121.45" x2="364.27" y2="569.27" xlink:href="#32-03customer_service-0377a"/><linearGradient id="32-03customer_service-0377k" x1="187.59" y1="112.05" x2="201.73" y2="770.42" xlink:href="#32-03customer_service-0377a"/><linearGradient id="32-03customer_service-0377l" x1="291.76" y1="109.81" x2="305.9" y2="768.18" xlink:href="#32-03customer_service-0377a"/><linearGradient id="32-03customer_service-0377m" x1="265.61" y1="110.37" x2="279.75" y2="768.74" xlink:href="#32-03customer_service-0377a"/><linearGradient id="32-03customer_service-0377n" x1="379.15" y1="107.93" x2="393.29" y2="766.31" xlink:href="#32-03customer_service-0377a"/><linearGradient id="32-03customer_service-0377a" x1="262.15" y1="451.13" x2="434.2" y2="64.62" gradientUnits="userSpaceOnUse"><stop offset="0" stop-color="#010101" stop-opacity="0"/><stop offset=".95" stop-color="#010101"/></linearGradient><linearGradient id="32-03customer_service-0377p" x1="415.55" y1="107.15" x2="429.69" y2="765.52" xlink:href="#32-03customer_service-0377a"/><linearGradient id="32-03customer_service-0377q" x1="353" y1="108.49" x2="367.14" y2="766.87" xlink:href="#32-03customer_service-0377a"/><linearGradient id="32-03customer_service-0377b" x1="534.41" y1="126.91" x2="524.48" y2="110.81" gradientUnits="userSpaceOnUse"><stop offset="0" stop-color="#fff" stop-opacity="0"/><stop offset=".95" stop-color="#fff"/></linearGradient><linearGradient id="32-03customer_service-0377r" x1="539.59" y1="143.06" x2="578.13" y2="148.12" xlink:href="#32-03customer_service-0377a"/><linearGradient id="32-03customer_service-0377s" x1="419.36" y1="196.29" x2="455.33" y2="238.69" xlink:href="#32-03customer_service-0377a"/><linearGradient id="32-03customer_service-0377t" x1="361.81" y1="220.9" x2="402.57" y2="263.89" xlink:href="#32-03customer_service-0377a"/><linearGradient id="32-03customer_service-0377u" x1="363.57" y1="217.94" x2="425.75" y2="316.86" xlink:href="#32-03customer_service-0377b"/><linearGradient id="32-03customer_service-0377v" x1="364.07" y1="257.83" x2="371.46" y2="257.83" xlink:href="#32-03customer_service-0377a"/><linearGradient id="32-03customer_service-0377w" x1="358.62" y1="252.64" x2="362.24" y2="252.64" xlink:href="#32-03customer_service-0377a"/><linearGradient id="32-03customer_service-0377x" x1="312.33" y1="202.68" x2="338.92" y2="202.68" gradientTransform="rotate(-17.17 139.422 449.695)" xlink:href="#32-03customer_service-0377a"/><linearGradient id="32-03customer_service-0377y" x1="294.36" y1="137.07" x2="366.42" y2="137.07" gradientTransform="rotate(-17.17 139.422 449.695)" xlink:href="#32-03customer_service-0377b"/><linearGradient id="32-03customer_service-0377z" x1="325.91" y1="170.73" x2="337.56" y2="225.54" gradientTransform="rotate(-17.17 139.422 449.695)" xlink:href="#32-03customer_service-0377a"/><linearGradient id="32-03customer_service-0377A" x1="319.71" y1="197.97" x2="359.62" y2="150.18" gradientTransform="rotate(-17.17 139.422 449.695)" xlink:href="#32-03customer_service-0377a"/></defs><path d="M73.37 136.3c-19.27 41.43-49 78-64.53 120.89S-3.65 354.96 33.3 382.56c39.08 29.19 96.34 15.39 141.62 34.11 35.26 14.58 59.45 47.28 93 65.33 16.67 9 35.24 14.07 54 17.27 97.77 16.69 199.47-18.5 278.2-77.74 11.5-8.65 22.8-18 30.47-30.08 19.57-30.81 11.13-71.25-3.59-104.57s-35.28-65.31-38.93-101.45c-3.44-34.14 7.81-72.49-12.41-100.49-22.58-31.27-70.3-29.82-108-19.55s-77.76 26-114.3 12.43C297.53 57.04 256.19-1.83 189.33.04 118.84 2.02 96.81 85.88 73.37 136.3z" fill="#4E7699" opacity=".24" style="isolation:isolate"/><path d="M327.72 150.06a19.58 19.58 0 01-2.66 11.21c-4.16 7.52-12.67 13.1-21.28 15.33-12.56 3.21-25.81 1.64-38.66 3.36a75.39 75.39 0 00-33.29 13.06c-10.69 7.56-22 18.58-34.68 15-10.77-3-15.77-18.14-8.9-27a101.66 101.66 0 00-49.9 6.68c-6.32 2.55-12.52 5.8-19.31 6.24s-14.46-2.88-16.28-9.42c-2.08-7.37 4.09-14.71 11-18.1a80.84 80.84 0 0111-4.09 49.83 49.83 0 0010.22-4.45 19.32 19.32 0 004.38-3.72c4-4.49 6-10.73 2.88-15.63a14.54 14.54 0 00-7-5.36c-8.84-3.54-18.95-1.9-28.15-4.35s-17.81-13-12.52-21c4.68-6.93 14.35-6.71 25.15-5 11.72 1.82 24.72 5.44 34 3.54 5.51-1.13 9.71-4.2 11.57-10.73 3.25-11.46-16.46-27.93.62-36.8 11-5.69 23.07 9.42 34.68 4.53 8.21-3.47 9.38-14.42 9.71-23.33s3-20 11.75-21.79c6.43-1.31 12.74 3.94 15 10.11a23.82 23.82 0 011.35 6.17 62.62 62.62 0 01-.41 13.36c-.33 3.25-.62 6.68.8 9.57 2.34 4.74 7.41 5.73 12.63 4.52a25.5 25.5 0 0012-6.68c6.78-6.86 13.68-16.31 23.32-15.36 6.61.65 10.7 5.84 12.52 12.34a33 33 0 01.18 16.75c-3.06 11.68-9.71 23.43-6.53 35.08 5.16 19.06 33.45 26.32 34.81 45.96z" fill="#4E7699"/><path d="M334 157.18a19.58 19.58 0 01-2.66 11.21 42.94 42.94 0 01-7.59 2.33c-12.56 2.63-25.81 1.35-38.66 2.74a86.08 86.08 0 00-33.29 10.66c-10.7 6.13-22 15.11-34.64 12.26-10.77-2.44-15.81-14.78-9-22a122.82 122.82 0 00-49.89 5.44c-6.28 2.08-12.52 4.71-19.31 5.07s-14.24 3.18-16.07-2.12c-1.78-5.14 2.45-10.22 8-13.28a17.68 17.68 0 013-1.46 70.73 70.73 0 0011.75-6.79 94.5 94.5 0 019.36-5.74c6.5-3.28 11.28-10.48 7.23-15.77-1.57-2.08-4.23-3.47-7-4.38-8.87-2.88-18.94-1.53-28.14-3.54s-17.85-10.59-12.56-17c2.52-3.06 6.57-4.41 11.46-4.74 11.72 1.82 24.72 5.44 34 3.54 11.86 1.28 22.09.47 25.3-8.73s-16.5-22.7.58-29.93c11-4.63 23.11 7.67 34.68 3.69 8.25-2.85 9.38-11.75 9.75-19s2.98-16.39 11.7-17.81a11.21 11.21 0 012.7-.11 62.62 62.62 0 01-.43 13.28c-.33 3.25-.62 6.68.8 9.57 2.34 4.74 7.41 5.73 12.63 4.52a8.59 8.59 0 001.1 4.64c4.27 7 17.81 3.83 24.6-1.79 6.5-5.36 13.07-12.66 22.12-12.55a33 33 0 01.18 16.75c-3.06 11.68-9.71 23.43-6.53 35.08 5.18 19.06 33.47 26.32 34.83 45.96z" transform="translate(-6.28 -7.12)" fill="url(#32-03customer_service-0377c)"/><path d="M170.05 38.15c-2.71-2.27-5.17-5.52-4.64-9a6.28 6.28 0 018.85-4.79c3.21 1.47 4.61 5.37 4.62 8.91 0 1.87.14 7.63-1.88 8.56s-5.6-2.55-6.95-3.68zM97.72 139.69a5.18 5.18 0 00-2.76 2.83c-2 4-1.66 9.56 1.95 12.21 5.58 4.09 16 3.13 16.79-5 .69-6.85-10.13-11.93-15.98-10.04zm49.11-109.58c-.23-1.84-1.85-3.15-3.35-4.25-2.6-1.91-6.23-3.84-8.78-1.85-1.72 1.34-1.92 4-1.06 6a15 15 0 004.19 5 11.32 11.32 0 004.3 2.77c1.67.44 3.73-.09 4.47-1.64s.41-4.06 2.1-4.37m-47.49 43.99a3.87 3.87 0 00-6.49 1.52c-.58 1.8.23 3.77 1.39 5.26a5.37 5.37 0 003.21 2.19c2.28.33 4.31-1.8 4.81-4a5.11 5.11 0 00-.41-3.63 3.19 3.19 0 00-3-1.7m45.14-26.58a2.64 2.64 0 00-4.4 1 4 4 0 00.95 3.58 3.61 3.61 0 002.19 1.49c1.55.23 2.93-1.22 3.27-2.75a3.41 3.41 0 00-.28-2.47 2.19 2.19 0 00-2.1-1.13" fill="#4E7699"/><path d="M239.58 376.06c32.85-2.07 70.78.32 91 26.31 7.86 10.11 12.06 22.86 20.87 32.16 17.23 18.22 45.83 17.85 70.85 16.16 26.3-1.77 55.17-4.68 73.47-23.66 24.27-25.17 21.44-70.47 50.17-90.4 11.55-8 26.09-10.12 38.9-15.89s25-18.2 22.32-32c-2.94-15.21-21-21.45-36.15-24.49a909.6 909.6 0 00-331.48-4.47c-28.44 4.89-57.88 11.72-80 30.25-17.94 15-38.84 53.15-18.46 73.51 20.89 20.9 72.72 14.15 98.51 12.52z" fill="#4E7699" opacity=".24" style="isolation:isolate"/><path d="M215.3 226.81c188-44.79 281.65 47.72 290.49 114.31 7.39 55.64-19.32 133.11-117.85 108.42-74.44-18.66-10.8-75.23-75.22-88.58-48.31-10-144.54 1.58-184.89-21.68-4.33-2.5-100.5-67.69 87.47-112.47z" fill="#4E7699"/><path d="M221.58 233.93c188-44.79 281.65 47.72 290.49 114.31 7.39 55.64-19.32 133.11-117.85 108.42-74.44-18.66-10.8-75.23-75.22-88.58-49-10.17-147.42 1.92-186.65-22.74-3.58-2.25-98.74-66.63 89.23-111.41z" transform="translate(-6.28 -7.12)" fill="url(#32-03customer_service-0377a)"/><path d="M116.89 314.01s-89.56-58.92 98.41-103.7 281.65 47.73 290.49 114.31c7.39 55.64-19.32 133.12-117.85 108.42-74.44-18.66-10.8-75.23-75.22-88.58-53.5-11.09-165.77 4.32-195.83-30.45z" fill="#4E7699"/><path d="M224.67 260.74a10.14 10.14 0 01-1.5 5.94c-4.06 7.37-16.33 13.27-31.14 14.15-15.53 1-29-3.89-33.32-11.3a10.25 10.25 0 01-1.51-4.69c-.58-10 14-19 32.65-20.09s34.2 6.03 34.82 15.99z" transform="translate(-6.28 -7.12)" fill="url(#32-03customer_service-0377d)"/><path d="M328.35 237.17a10.54 10.54 0 01-1.47 6c-4.1 7.37-16.32 13.22-31.14 14.1-15.52 1-29-3.89-33.31-11.3a9.62 9.62 0 01-1.51-4.68c-.59-10 14-19 32.61-20.1s34.23 6.02 34.82 15.98z" transform="translate(-6.28 -7.12)" fill="url(#32-03customer_service-0377e)"/><path d="M303.24 284.3a10.27 10.27 0 01-1.51 5.95c-4.06 7.36-16.32 13.26-31.14 14.14-15.53 1-29-3.89-33.32-11.3a10 10 0 01-1.5-4.69c-.59-10 14-19 32.64-20.09s34.2 6.03 34.83 15.99z" transform="translate(-6.28 -7.12)" fill="url(#32-03customer_service-0377f)"/><path d="M416.37 262.7a10.18 10.18 0 01-1.51 5.95c-4.06 7.36-16.32 13.27-31.14 14.15-15.52 1-29-3.9-33.31-11.31a10.06 10.06 0 01-1.51-4.68c-.59-10 14-19 32.65-20.09s34.19 6.02 34.82 15.98z" transform="translate(-6.28 -7.12)" fill="url(#32-03customer_service-0377g)"/><path d="M485.89 306.9a10.46 10.46 0 01-1.46 6c-4.1 7.36-16.37 13.27-31.18 14.14-15.57 1-29-3.89-33.32-11.34a10 10 0 01-1.47-4.64c-.62-10 14-19 32.61-20.09s34.19 5.97 34.82 15.93z" transform="translate(-6.28 -7.12)" fill="url(#32-03customer_service-0377h)"/><path d="M455 365.25a10.48 10.48 0 01-1.46 5.94c-4.06 7.37-16.33 13.27-31.14 14.15-15.57 1-29.05-3.89-33.36-11.34a10 10 0 01-1.47-4.65c-.62-10 14-19 32.61-20.09s34.2 6.03 34.82 15.99z" transform="translate(-6.28 -7.12)" fill="url(#32-03customer_service-0377i)"/><path d="M391.22 309.83a10.27 10.27 0 01-1.51 5.95c-4.06 7.36-16.32 13.27-31.1 14.14-15.57 1-29.05-3.89-33.36-11.34a9.84 9.84 0 01-1.46-4.64c-.63-10 14-18.92 32.6-20.09s34.2 6.02 34.83 15.98z" transform="translate(-6.28 -7.12)" fill="url(#32-03customer_service-0377j)"/><path d="M216.89 259.56c-4.06 7.37-16.33 13.27-31.14 14.15-15.53 1-29-3.89-33.32-11.3 4.06-7.37 16.32-13.27 31.14-14.15 15.53-.96 28.96 3.89 33.32 11.3zM320.6 236c-4.1 7.37-16.32 13.22-31.14 14.1-15.52 1-29-3.89-33.31-11.3 4.06-7.36 16.28-13.27 31.1-14.14 15.57-.93 29 3.93 33.35 11.34zm-25.15 47.13c-4.06 7.36-16.32 13.26-31.14 14.14-15.53 1-29-3.89-33.32-11.3 4.06-7.36 16.33-13.27 31.14-14.15 15.53-.94 28.97 3.9 33.32 11.31zm113.13-21.6c-4.06 7.36-16.32 13.27-31.14 14.15-15.52 1-29-3.9-33.31-11.31 4.06-7.36 16.32-13.26 31.14-14.14 15.53-.97 28.96 3.89 33.31 11.3zm69.57 44.2c-4.1 7.36-16.37 13.27-31.18 14.14-15.57 1-29-3.89-33.32-11.34 4.06-7.36 16.32-13.22 31.14-14.15 15.57-.96 29 3.9 33.36 11.35zm-30.93 58.34c-4.06 7.37-16.33 13.27-31.14 14.15-15.57 1-29.05-3.89-33.36-11.34 4.06-7.37 16.32-13.27 31.14-14.15 15.57-.96 29.05 3.89 33.36 11.34zm-63.79-55.41c-4.06 7.36-16.32 13.27-31.1 14.14-15.57 1-29.05-3.89-33.36-11.34 4.1-7.36 16.33-13.22 31.14-14.1 15.53-.97 28.97 3.89 33.32 11.3z" fill="#4E7699"/><path d="M223.17 266.68c-4.06 7.37-16.33 13.27-31.14 14.15-15.53 1-29-3.89-33.32-11.3 4.06-7.37 16.32-13.27 31.14-14.15 15.53-.96 28.96 3.89 33.32 11.3z" transform="translate(-6.28 -7.12)" fill="url(#32-03customer_service-0377k)"/><path d="M326.88 243.12c-4.1 7.37-16.32 13.22-31.14 14.1-15.52 1-29-3.89-33.31-11.3 4.06-7.36 16.28-13.27 31.1-14.14 15.57-.93 29 3.93 33.35 11.34z" transform="translate(-6.28 -7.12)" fill="url(#32-03customer_service-0377l)"/><path d="M301.73 290.25c-4.06 7.36-16.32 13.26-31.14 14.14-15.53 1-29-3.89-33.32-11.3 4.06-7.36 16.33-13.27 31.14-14.15 15.53-.94 28.97 3.9 33.32 11.31z" transform="translate(-6.28 -7.12)" fill="url(#32-03customer_service-0377m)"/><path d="M414.86 268.65c-4.06 7.36-16.32 13.27-31.14 14.15-15.52 1-29-3.9-33.31-11.31 4.06-7.36 16.32-13.26 31.14-14.14 15.53-.97 28.96 3.89 33.31 11.3z" transform="translate(-6.28 -7.12)" fill="url(#32-03customer_service-0377n)"/><path d="M484.43 312.85c-4.1 7.36-16.37 13.27-31.18 14.14-15.57 1-29-3.89-33.32-11.34 4.06-7.36 16.32-13.22 31.14-14.15 15.57-.96 29 3.9 33.36 11.35z" transform="translate(-6.28 -7.12)" fill="url(#32-03customer_service-0377o)"/><path d="M453.5 371.19c-4.06 7.37-16.33 13.27-31.14 14.15-15.57 1-29.05-3.89-33.36-11.34 4.06-7.37 16.32-13.27 31.14-14.15 15.57-.96 29.05 3.89 33.36 11.34z" transform="translate(-6.28 -7.12)" fill="url(#32-03customer_service-0377p)"/><path d="M389.71 315.78c-4.06 7.36-16.32 13.27-31.1 14.14-15.57 1-29.05-3.89-33.36-11.34 4.1-7.36 16.33-13.22 31.14-14.1 15.53-.97 28.97 3.89 33.32 11.3z" transform="translate(-6.28 -7.12)" fill="url(#32-03customer_service-0377q)"/><path d="M514.77 139.96s-5.68-4.06-6.68-5.49 2.54-5.75 1.5-6.69-4.89-2.91-4.51-4.79 6.78 2.44 9.69 4.6 5.55 7.91 5.55 7.91-.75 5.54-5.55 4.46z" fill="#c58067"/><path d="M473.47 161.7l121.67-90.07 42.77-32.23s2.06-6.68-4.11-6.17-212.41 138.75-212.41 138.75l-15.07 13 15.76 17.81z" fill="#4E7699"/><path d="M479.75 168.82l121.67-90.07 42.77-32.23s2.06-6.68-4.11-6.17S427.67 179.1 427.67 179.1l-15.07 13 15.76 17.81z" transform="translate(-6.28 -7.12)" fill="url(#32-03customer_service-0377b)"/><path d="M573.28 114.69s11-3.35 12.14-2.24-8.67 70.64-9.17 73.61-16.85 2-23.79 0a76.6 76.6 0 01-13.38-5.45s8-63.52 9.47-64.51 12.26-1.86 12.26-1.86z" fill="#4E7699"/><path d="M550.04 115.45a10.59 10.59 0 00-4.46 3c-1.48 2-13.38 25.78-11.89 30.73s6.62 8.58 8.11 7.59 4.28-10.07 4.77-12.05 1.46-8.51 1.46-8.51z" fill="#4E7699"/><path d="M533.4 283.23s-2.1 7.9-3.08 8.48-4.41-1.24-6.4-2.68-1.28-4.51-1.28-4.51l.87-2.41zm52.65-3.82s3.83 10.76 3.44 11.83-5-.49-7.5-.33-3.39-3.64-3.39-3.64l-.88-2.39zm-11.78-170.67s-1.49 6.44-1 8.92-3.47 9.42-8.43 9.42-5-8.43-5-9.42 1.49-1.48 1-4 12.93-7.89 13.43-4.92z" fill="#c58067"/><path d="M560.89 113.7a3.84 3.84 0 01-.8 3.33 6.19 6.19 0 004.08 1.81c3 0 7.43-2.48 9.42-6.94l.1-.25c.28-1.63.58-2.91.58-2.91-.5-2.97-13.88 2.48-13.38 4.96z" fill="#b6765e"/><path d="M573.18 116.74s-4 9.35-7.4 10.34c0 0-.93.5 1.55 2s9.42-6 8.43-11.4a4.1 4.1 0 00-2.47-3.16zm-12.29-2.05s-1.1 6.88 1.68 11.62c0 0-1.19 1.76-2.18 1.76s-3.47-5.95-2.48-10.41c.58-2.6 2.48-3.68 2.98-2.97z" fill="#fff"/><path d="M576.25 186.06l-5.42 43.12 16.89 55.75s-3.1 1.72-9.54 1.22l-22.89-55.13-.32-35-7.44 30.23-14.25 58.95s-7.25 1.59-11.52-1.48l9.42-57.47 7.93-45.6z" fill="#606161"/><path d="M557.91 94.37s-1 12.88 0 16.35 4 6.45 6.94 6.45 7.44-2.48 9.42-6.94 3-15.37 2.48-16.86-3.49-6.17-11.4-5.45c-5.46.5-7.44 4.46-7.44 6.45z" fill="#c58067"/><path d="M576.15 100.72a1.83 1.83 0 01-2.83.29 3.66 3.66 0 01-.81-3.11c.14-1.11.51-2.18.58-3.29a.94.94 0 00-.17-.72.92.92 0 00-.72-.2c-1.5 0-3.26.63-4.3-.44-.63-.63-.81-1.74-1.65-2-.69-.25-1.42.22-2.07.56a6.91 6.91 0 01-5.05.48 1.37 1.37 0 01-.89-.57 1.42 1.42 0 01-.09-.82 6.23 6.23 0 012.71-4.43 10.68 10.68 0 014.14-1.42 41.76 41.76 0 015.09-.59 5.31 5.31 0 012.69.34 9.62 9.62 0 012.12 1.87c1 .9 2.21 1.54 3 2.64.6.89 1.91.87 2.37 3 .39 1.91.65 3.84 1 5.76s-.47 3.9-.87 5.81c-.83 3.91-.83 3.91-2.25 5.25a12 12 0 01-2.83 1.81 1.63 1.63 0 01-1.22.25c-.4-.14-.56-.82-.16-1" fill="#606161"/><path d="M574.48 102.72s.5-3 2.48-2-.49 6.44-1.49 6.94a2.89 2.89 0 01-1.48.42" fill="#c58067"/><path d="M543.04 152.76l-24.05-20.31s-5.6.65-5.86 7.31c0 0 11.05 13.85 22.37 20.82 4.89 3.01 8.73-6.7 7.54-7.82z" fill="#4E7699"/><path fill="url(#32-03customer_service-0377r)" d="M541.8 156.74l4.41-28.67-5.68 30.98 1.27-2.31z"/><path d="M512.92 288.15a8.4 8.4 0 00-3.4 1.74 2.81 2.81 0 00-.55 3.5 4 4 0 003.09 1.15 100.16 100.16 0 0017.49-.34 1.45 1.45 0 00.65-.19c.29-.21 1.29-.82 1.34-1.18l.76-5.71c-1.78.33-4.53.88-6.32.57-2.31-.41-3.22-2.68-5.45-2.24-2.54.51-5.14 1.88-7.61 2.7zm57.94 1.8a8.4 8.4 0 00-3.4 1.74 2.79 2.79 0 00-.55 3.49 4 4 0 003.09 1.16 100.16 100.16 0 0017.49-.34 1.45 1.45 0 00.65-.19c.29-.21 2.32-1.23 2.36-1.59.26-1.9-1.28-4.69-1.47-6-1.78.34-3.32 1.62-5.11 1.31-2.31-.41-3.22-2.69-5.45-2.24-2.54.47-5.14 1.84-7.61 2.66z" fill="#4E7699"/><path d="M595.09 78.32a12.87 12.87 0 000-6.69 16 16 0 00-3.37-6.11 8 8 0 00-4.81-.07c-2.17.85.89 4.74.61 6.59s-2.06-3.31-3.11-2.86 1.63 7.56 3.63 8.45" fill="#c58067"/><path d="M574.08 138.13s7.43-1.94 9.85-6.51 15.29-25.61 14.91-30.51c-.44-5.66-3.18-24.25-3.18-24.25s-.3-1.52-3.89-1.06-4.15 2.52-4.15 2.52l-.32 21.83-10.94 20.08s-4.47 13.81-2.28 17.9zm-158.54 38.2c-3.18.14-5 3.62-7.58 5.47-1.86 1.33-4.19 1.81-6.22 2.88s-3.89 3.15-3.43 5.39a6.91 6.91 0 001.64 2.87l11.77 14.42c.71.88 1.7 1.85 2.79 1.55a3 3 0 001-.61l13.4-10.81c1.32-1.06 2.78-2.43 2.59-4.11a5.08 5.08 0 00-1.51-2.66c-3.58-4.06-8.18-14.39-14.45-14.39z" fill="#4E7699"/><path d="M421.82 183.45c-3.18.14-5 3.62-7.58 5.47-1.86 1.33-4.19 1.81-6.22 2.88s-3.89 3.15-3.43 5.39a6.91 6.91 0 001.64 2.87L418 214.48c.71.88 1.7 1.85 2.79 1.55a3 3 0 001-.61l13.4-10.81c1.32-1.06 2.78-2.43 2.59-4.11a5.08 5.08 0 00-1.51-2.66c-3.58-4.06-8.18-14.39-14.45-14.39z" transform="translate(-6.28 -7.12)" fill="url(#32-03customer_service-0377s)"/><path d="M388.48 194.82c-3.05 3.61-5.16 7.91-7.56 12s-5.25 8.08-9 11-8.69 4.62-13.38 3.76l2.35 4.28a96.33 96.33 0 0035.49-2.9c5.08-1.39 10.23-3.32 13.94-7s5.63-9.7 3.35-14.44-7.87-7.09-11.35-11c-2.12-2.39-2.74-2.71-6-1.44a19.76 19.76 0 00-7.84 5.74z" fill="#fff"/><path d="M378.72 213.88a1.3 1.3 0 00-.36-1c-.54-.42-1.26.14-1.76.59-3 2.71-7.34 2.87-11.32 3.25s-8.5 1.51-10.32 5.07c-1 1.88-1 4.09-.94 6.2 0 3.47.08 7 1.38 10.25.41 1 1.37 2.17 2.39 1.74a2.17 2.17 0 001-1.48c.6-1.89 1-3.94 2.31-5.43 2-2.27 5.42-2.45 8.44-2.83a37.59 37.59 0 0014.18-4.7c1.1-.64 2.33-1.68 2-2.92s-2.18-1.58-3.49-1.16-2.56 1.27-3.89 1c.06-1.35-.34-2.69-.24-4 .07-1.58.73-2.98.62-4.58z" fill="#4E7699"/><path d="M385 221a1.3 1.3 0 00-.36-1c-.54-.42-1.26.14-1.76.59-3 2.71-7.34 2.87-11.32 3.25s-8.5 1.51-10.32 5.07c-1 1.88-1 4.09-.94 6.2 0 3.47.08 7 1.38 10.25.41 1 1.37 2.17 2.39 1.74a2.17 2.17 0 001-1.48c.6-1.89 1-3.94 2.31-5.43 2-2.27 5.42-2.45 8.44-2.83a37.59 37.59 0 0014.18-4.7c1.1-.64 2.33-1.68 2-2.92s-2.18-1.58-3.49-1.16-2.56 1.27-3.89 1c.06-1.35-.34-2.69-.24-4 .07-1.58.73-2.98.62-4.58z" transform="translate(-6.28 -7.12)" fill="url(#32-03customer_service-0377t)"/><path d="M366.67 231a14.63 14.63 0 015-3.12 32.75 32.75 0 018.91-2.24 5.8 5.8 0 002.62-.65 1.6 1.6 0 10-1.24-3 8.42 8.42 0 00-2 1c-2.77 1.49-6.05 1.57-9.16 2s-6.45 1.62-8 4.35c-1 1.83-1.1 4-1.1 6.15a28.2 28.2 0 00.88 8.4c.13.41.4.9.83.86a.9.9 0 00.55-.39c1.82-2.27.11-4.34.11-6.82a9.49 9.49 0 012.6-6.54z" transform="translate(-6.28 -7.12)" fill="url(#32-03customer_service-0377u)"/><path d="M366.49 249.8c-1.59.7-2 2.72-2.18 4.44a39.53 39.53 0 00-.05 8.21 4.37 4.37 0 001.39 3.17 2.88 2.88 0 002.88.14 4.91 4.91 0 002.09-2.14c1.72-3.12.35-5.55-.09-8.71-.27-1.86-1.15-6.38-4.04-5.11z" transform="translate(-6.28 -7.12)" fill="url(#32-03customer_service-0377v)"/><path d="M360.94 250.37a2.89 2.89 0 00-1.95 1.68 2.39 2.39 0 00-.29 1.83 1.71 1.71 0 002.08 1 2.25 2.25 0 001.44-1.9 3.37 3.37 0 00-.72-2.36" transform="translate(-6.28 -7.12)" fill="url(#32-03customer_service-0377w)"/><path d="M224.49 152.49s4.11 4.17 6 4.4 16-4.08 17.18-5.11 2.15-7.39 2.15-7.39z" fill="#4E7699"/><path d="M230.77 159.61s4.11 4.17 6 4.4 16-4.08 17.18-5.11 2.15-7.39 2.15-7.39z" transform="translate(-6.28 -7.12)" fill="url(#32-03customer_service-0377x)"/><path d="M247.81 118.68a2.14 2.14 0 00.21.88c2.25 4.2-16.92 34-33.19 12.16a43.17 43.17 0 01-3.69-6s-37.26-40-27.81-65.33c9.4-25.19 45.44-33.7 64.85-9 14.38 18.24-1.01 59.61-.37 67.29z" fill="#4E7699"/><path d="M254.09 125.8a2.14 2.14 0 00.21.88c2.25 4.2-16.92 34-33.19 12.16a43.17 43.17 0 01-3.69-6s-37.26-40-27.81-65.33c9.4-25.19 45.44-33.7 64.85-9 14.38 18.24-1.01 59.61-.37 67.29z" transform="translate(-6.28 -7.12)" fill="url(#32-03customer_service-0377y)"/><path d="M254.3 126.68c2.25 4.2-16.92 34-33.19 12.16a38.22 38.22 0 0133-13 2.14 2.14 0 00.19.84z" transform="translate(-6.28 -7.12)" fill="url(#32-03customer_service-0377z)"/><path d="M218.44 139.27a2.18 2.18 0 01.57 1.05 2.44 2.44 0 01-.26 1.11 5 5 0 001.59 5.51c-1.7 1-1.28 3.86.31 5.05s3.75 1.2 5.73 1a54.92 54.92 0 0022.34-6.63c2.63-1.46 5.42-3.59 5.56-6.6a6.38 6.38 0 00-2.51-1.38c.55-1.2 1-2.9-.13-3.62-.37-.23-.83-.28-1.21-.5a2.73 2.73 0 01-1-2.79 8.73 8.73 0 00.16-3.13 2.87 2.87 0 00-3.11-2c-5.89 4.74-12.53 9.74-20.07 9.3-3.48-.23-13.5-3.49-7.97 3.63z" fill="#4E7699"/><path d="M224.72 146.39a2.18 2.18 0 01.57 1.05 2.44 2.44 0 01-.26 1.11 5 5 0 001.59 5.51c-1.7 1-1.28 3.86.31 5.05s3.75 1.2 5.73 1a54.92 54.92 0 0022.34-6.63c2.63-1.46 5.42-3.59 5.56-6.6a6.38 6.38 0 00-2.51-1.38c.55-1.2 1-2.9-.13-3.62-.37-.23-.83-.28-1.21-.5a2.73 2.73 0 01-1-2.79 8.73 8.73 0 00.16-3.13 2.87 2.87 0 00-3.11-2c-5.89 4.74-12.53 9.74-20.07 9.3-3.48-.23-13.5-3.49-7.97 3.63z" transform="translate(-6.28 -7.12)" fill="url(#32-03customer_service-0377A)"/><path d="M240.27 131.58l-2.46.14-.72-12.3c-1.35-23.23-3.8-27.93-5.14-28.67-.1-.05-.22-.12-.55 0a3.2 3.2 0 00-1.05 1 12.9 12.9 0 012.57 3c1.34 2.21 1.53 4.28.53 5.68a2.59 2.59 0 01-2.73 1.25c-1.92-.48-3.13-3.24-3.45-5.61a9.48 9.48 0 01.12-3.43 4.16 4.16 0 00-2.56-.65c-1.15.13-2 1.19-2.51 3.07a17.34 17.34 0 00-.47 2.24c2.88 1.38 5.43 4.76 5 7a2.31 2.31 0 01-1.79 2 3.79 3.79 0 01-3.66-1.13c-.77-.73-2.16-2.56-2.17-6.06-.81 0-1.74.48-2.4 2.41-2 5.7 9.13 25.11 13.57 32.1l-2.08 1.32c-1.7-2.67-16.52-26.37-13.82-34.22 1.2-3.5 3.38-4.13 4.94-4.06a21 21 0 01.5-2.27c1-3.63 3-4.65 4.54-4.85a6.48 6.48 0 013.87.83 5.67 5.67 0 011.88-1.73 2.94 2.94 0 012.94-.06c2.23 1.22 5 5.81 6.41 30.69zm-18.55-31.49a5.17 5.17 0 001.36 3.32 1.51 1.51 0 001.23.55c.2-.83-.98-2.71-2.59-3.87zm7.89-5.61a6.87 6.87 0 00.06 1.24c.28 2.11 1.21 3.42 1.58 3.56 0 0 .08-.09.2-.25.38-.53.13-1.69-.64-3a10.37 10.37 0 00-1.2-1.55z" fill="#fff"/></svg>