<svg data-name="Layer 1" xmlns="http://www.w3.org/2000/svg" xmlns:xlink="http://www.w3.org/1999/xlink" width="519.25" height="482.26"><defs><linearGradient id="99-03drink_coffee_with_laptop_in_cafe-0316d" x1="456.28" y1="175.34" x2="465.37" y2="492.12" xlink:href="#99-03drink_coffee_with_laptop_in_cafe-0316a"/><linearGradient id="99-03drink_coffee_with_laptop_in_cafe-0316n" x1="234.38" y1="123.6" x2="275.92" y2="133.16" xlink:href="#99-03drink_coffee_with_laptop_in_cafe-0316b"/><linearGradient id="99-03drink_coffee_with_laptop_in_cafe-0316e" x1="83.16" y1="395.13" x2="238.32" y2="395.13" xlink:href="#99-03drink_coffee_with_laptop_in_cafe-0316a"/><linearGradient id="99-03drink_coffee_with_laptop_in_cafe-0316f" x1="235.79" y1="358.5" x2="192.01" y2="572.79" xlink:href="#99-03drink_coffee_with_laptop_in_cafe-0316a"/><linearGradient id="99-03drink_coffee_with_laptop_in_cafe-0316g" x1="279.23" y1="106.22" x2="274.13" y2="116.42" xlink:href="#99-03drink_coffee_with_laptop_in_cafe-0316a"/><linearGradient id="99-03drink_coffee_with_laptop_in_cafe-0316h" x1="273.73" y1="100.95" x2="277.45" y2="94.75" xlink:href="#99-03drink_coffee_with_laptop_in_cafe-0316a"/><linearGradient id="99-03drink_coffee_with_laptop_in_cafe-0316i" x1="382.27" y1="278.15" x2="136.34" y2="329.8" xlink:href="#99-03drink_coffee_with_laptop_in_cafe-0316a"/><linearGradient id="99-03drink_coffee_with_laptop_in_cafe-0316b" x1="226.2" y1="238.13" x2="385.84" y2="238.13" gradientUnits="userSpaceOnUse"><stop offset="0" stop-color="#ecc4d7"/><stop offset=".42" stop-color="#efd4d1"/><stop offset=".6" stop-color="#f0dcce"/><stop offset="1" stop-color="#f2eac9"/></linearGradient><linearGradient id="99-03drink_coffee_with_laptop_in_cafe-0316j" x1="290.49" y1="271.09" x2="260.71" y2="370.9" xlink:href="#99-03drink_coffee_with_laptop_in_cafe-0316a"/><linearGradient id="99-03drink_coffee_with_laptop_in_cafe-0316k" x1="189.31" y1="254.86" x2="13.41" y2="176.56" xlink:href="#99-03drink_coffee_with_laptop_in_cafe-0316a"/><linearGradient id="99-03drink_coffee_with_laptop_in_cafe-0316l" x1="210.92" y1="155.92" x2="224.98" y2="168.05" gradientUnits="userSpaceOnUse"><stop offset="0" stop-color="#ecc4d7"/><stop offset=".42" stop-color="#efd4d1"/><stop offset="1" stop-color="#f2eac9"/></linearGradient><linearGradient id="99-03drink_coffee_with_laptop_in_cafe-0316m" x1="216.8" y1="183.71" x2="227.27" y2="32.35" xlink:href="#99-03drink_coffee_with_laptop_in_cafe-0316a"/><linearGradient id="99-03drink_coffee_with_laptop_in_cafe-0316a" x1="293.86" y1="452.52" x2="144.98" y2="349.96" gradientUnits="userSpaceOnUse"><stop offset="0" stop-opacity="0"/><stop offset=".99"/></linearGradient><linearGradient id="99-03drink_coffee_with_laptop_in_cafe-0316o" x1="216.09" y1="155.84" x2="176.38" y2="148.67" xlink:href="#99-03drink_coffee_with_laptop_in_cafe-0316a"/><linearGradient id="99-03drink_coffee_with_laptop_in_cafe-0316c" x1="374.65" y1="206.68" x2="433.84" y2="253.73" gradientUnits="userSpaceOnUse"><stop offset=".02" stop-color="#fff" stop-opacity="0"/><stop offset=".58" stop-color="#fff" stop-opacity=".39"/><stop offset=".68" stop-color="#fff" stop-opacity=".68"/><stop offset="1" stop-color="#fff"/></linearGradient><linearGradient id="99-03drink_coffee_with_laptop_in_cafe-0316p" x1="380.51" y1="209.14" x2="431.23" y2="249.46" xlink:href="#99-03drink_coffee_with_laptop_in_cafe-0316c"/><linearGradient id="99-03drink_coffee_with_laptop_in_cafe-0316q" x1="424.46" y1="250.03" x2="412.42" y2="251.98" xlink:href="#99-03drink_coffee_with_laptop_in_cafe-0316c"/><linearGradient id="99-03drink_coffee_with_laptop_in_cafe-0316r" x1="412.63" y1="225.76" x2="423.52" y2="257.47" xlink:href="#99-03drink_coffee_with_laptop_in_cafe-0316a"/><linearGradient id="99-03drink_coffee_with_laptop_in_cafe-0316s" x1="248.03" y1="323.45" x2="388.64" y2="323.45" xlink:href="#99-03drink_coffee_with_laptop_in_cafe-0316c"/><linearGradient id="99-03drink_coffee_with_laptop_in_cafe-0316t" x1="265.85" y1="227.72" x2="315.21" y2="232.66" xlink:href="#99-03drink_coffee_with_laptop_in_cafe-0316a"/><linearGradient id="99-03drink_coffee_with_laptop_in_cafe-0316u" x1="158.31" y1="253.94" x2="321.44" y2="253.94" xlink:href="#99-03drink_coffee_with_laptop_in_cafe-0316b"/><linearGradient id="99-03drink_coffee_with_laptop_in_cafe-0316v" x1="252.1" y1="194.27" x2="288.49" y2="194.27" xlink:href="#99-03drink_coffee_with_laptop_in_cafe-0316c"/><linearGradient id="99-03drink_coffee_with_laptop_in_cafe-0316w" x1="262.06" y1="186.7" x2="262.65" y2="200.25" xlink:href="#99-03drink_coffee_with_laptop_in_cafe-0316a"/><linearGradient id="99-03drink_coffee_with_laptop_in_cafe-0316x" x1="338.24" y1="290.96" x2="340.26" y2="318.16" xlink:href="#99-03drink_coffee_with_laptop_in_cafe-0316a"/><linearGradient id="99-03drink_coffee_with_laptop_in_cafe-0316y" x1="265.83" y1="277.45" x2="250.67" y2="546.81" xlink:href="#99-03drink_coffee_with_laptop_in_cafe-0316a"/></defs><path d="M488.24 316.94c-10.48 12.44-23.21 23-32.14 36.62-10.48 15.95-15.1 35-22.24 52.75a109.37 109.37 0 01-11.73 22.37 78.93 78.93 0 01-8.07 9.67c-24.31 24.94-63 32.93-98.51 36.8a917.38 917.38 0 01-143.43 4.33c-21-1-40.15-4.42-60 .89-19.37 5.17-40.13-4.14-55.76-15.07C35.53 450.74 17.78 431.12 8 407.66s-11.08-50.9-.92-74.21c13.94-32 46.79-52.52 61.46-84.19 7.34-15.86 9.64-33.54 11.46-50.94q4.4-42.31 5.86-84.91c.64-18.93.94-38.39 8.28-55.84 12-28.66 41.46-47 71.8-53.69s61.88-3.44 92.75.1c52.77 6.03 106.14 13.08 155.37 33.03l1.15.46c3.91 1.6 7.9 3.35 10.77 6.44 4.89 5.23 5.52 13 7.05 20 .25 1.13.52 2.24.83 3.35 8.83 32.3 39.82 53.65 59.89 80.91 36.03 48.84 33.65 122.34-5.51 168.77z" fill="#4E7699" opacity=".18" style="isolation:isolate"/><path d="M160.45 30.74a3.86 3.86 0 011.49-2 5.36 5.36 0 012.77-.59 3.41 3.41 0 012.76 1c.53.64.8 2 .8 3.93 0 3.48 0 6.71.11 9.71s.1 4.29.1 3.9c0 1.67-.28 2.8-.85 3.38a4.18 4.18 0 01-3 .88q-3.51 0-4.57-5c-.25-1-.44-1.75-.59-2.29a10.87 10.87 0 00-4.83-6.51 16 16 0 00-9-2.52 18.63 18.63 0 00-15.1 6.87q-5.69 6.89-5.69 18.46t5.77 18.46a18.91 18.91 0 0015.23 6.87 23.82 23.82 0 006.28-.87 27.56 27.56 0 006.27-2.7 34.38 34.38 0 003.94-2.52c1.66-1.19 2.85-1.78 3.56-1.78a3.87 3.87 0 012.79 1.09 3.55 3.55 0 011.14 2.68 4.61 4.61 0 01-1.25 3.06 21 21 0 01-4.65 3.6 35.07 35.07 0 01-9 4.34 32.15 32.15 0 01-9.53 1.39q-13.14 0-21.69-9.28t-8.56-23.74q0-14.29 8.66-23.76a28.32 28.32 0 0121.8-9.47 31.78 31.78 0 017.15.85 47.65 47.65 0 017.69 2.56zm40.31 5.9h-7.77a8.51 8.51 0 01-4.54-.88 3.29 3.29 0 01-1.31-3 3.48 3.48 0 011.15-3q1.11-.75 6.24-.75h15.16c2 0 3.27.26 4 .77a6.75 6.75 0 011.89 2.85l20.78 51.94h.91a6.94 6.94 0 013.93.8 3.38 3.38 0 011.07 2.87 3.72 3.72 0 01-1 3 6.26 6.26 0 01-3.87.77h-14.42c-2.7 0-4.42-.28-5.18-.83a3.45 3.45 0 01-1.15-3 3.15 3.15 0 011.25-2.84c.83-.55 2.4-.83 4.71-.83h4.94l-5.15-12.62h-27l-4.58 12.65h5.16c2.34 0 3.93.28 4.79.83a3.11 3.11 0 011.27 2.84 3.47 3.47 0 01-1.14 3c-.76.55-2.44.83-5 .83h-14c-2.27 0-3.77-.28-4.52-.83a3.52 3.52 0 01-1.11-3 3.31 3.31 0 011.13-2.87c.75-.53 2.18-.8 4.31-.8h1zm-2.72 28.18h21.75L208.4 36.64zm75.87 19.72h2.08a4.86 4.86 0 013.24.88 3.51 3.51 0 011 2.79 3.89 3.89 0 01-1 2.84 3.67 3.67 0 01-2.76 1h-26.16a3.68 3.68 0 01-2.77-1 3.89 3.89 0 01-1-2.84 3.46 3.46 0 011-2.82 5.7 5.7 0 013.54-.85h5.1v-47.9h-3.35c-2.69 0-4.42-.28-5.18-.83a3.46 3.46 0 01-1.15-3 3.89 3.89 0 011-2.84 3.68 3.68 0 012.77-1h47a3.43 3.43 0 012.74 1.09 4.76 4.76 0 01.93 3.17v13.72a3.79 3.79 0 01-.93 2.79 3.68 3.68 0 01-2.74.93 3.42 3.42 0 01-3-1.17c-.53-.77-.8-2.53-.8-5.26v-7.6h-28.81v17.92h14v-1.39c0-2.58.24-4.32.74-5.21a2.8 2.8 0 012.66-1.33 2.92 2.92 0 012.47 1 5.38 5.38 0 01.77 3.25v13.5a6.81 6.81 0 01-.71 3.67 2.92 2.92 0 01-2.53 1 2.78 2.78 0 01-2.66-1.31c-.5-.88-.74-2.62-.74-5.21v-1.52h-14v23.53zm43.01 7.47h-2.52a4 4 0 01-2.9-1 3.81 3.81 0 01-1-2.87 3.25 3.25 0 011.15-2.9c.76-.51 2.5-.77 5.23-.77h3.41V36.64h-3.41c-2.65 0-4.38-.28-5.18-.83a3.38 3.38 0 01-1.2-3 3.81 3.81 0 011-2.9 4.21 4.21 0 013-.93h46.31a3.43 3.43 0 012.74 1.09 4.76 4.76 0 01.93 3.17v12.54a6.69 6.69 0 01-.8 3.83 3.38 3.38 0 01-2.87 1.06 3.42 3.42 0 01-3-1.17c-.55-.77-.83-2.53-.83-5.26v-7.6h-28.25v17.92h13.93v-2.82a7.36 7.36 0 01.77-4 3 3 0 012.68-1.12 2.76 2.76 0 012.58 1.2q.71 1.19.71 5.19v9.89q0 4-.75 5.1a2.93 2.93 0 01-2.65 1.12 2.77 2.77 0 01-2.6-1.33c-.47-.85-.71-2.5-.71-4.94v-1.84h-13.96v23.53h28.28v-8.61q0-4.1.83-5.26a3.42 3.42 0 013-1.17 3.33 3.33 0 012.84 1.09c.55.72.83 2.1.83 4.12V88.1a4.09 4.09 0 01-1 2.93 3.57 3.57 0 01-2.71 1z" opacity=".4" fill="#4E7699"/><path fill="#3f3d56" d="M117.35 424.09h14.34v54.04h-14.34z"/><path d="M227.91 363.16s29.77 7.44 36.39 17.37-25.64 100.9-25.64 100.9l-45.49-1.65 13.23-77.77z" fill="#4E7699"/><path d="M262.51 365.15s29.77 7.44 36.39 17.37-25.64 100.9-25.64 100.9l-45.49-1.65L241 404z" transform="translate(-34.6 -1.99)" fill="url(#99-03drink_coffee_with_laptop_in_cafe-0316a)"/><path d="M433.86 67.18v339.13a109.37 109.37 0 01-11.73 22.37 78.93 78.93 0 01-8.07 9.67V37.01l1.15.46c3.91 1.6 7.9 3.35 10.77 6.44 4.89 5.23 5.52 13 7.05 20 .25 1.1.52 2.16.83 3.27z" fill="#4E7699"/><path d="M468.46 69.17V408.3a109.37 109.37 0 01-11.73 22.37 78.93 78.93 0 01-8.07 9.67V39l1.15.46c3.91 1.6 7.9 3.35 10.77 6.44 4.89 5.23 5.52 13 7.05 20 .25 1.1.52 2.16.83 3.27z" transform="translate(-34.6 -1.99)" fill="url(#99-03drink_coffee_with_laptop_in_cafe-0316d)"/><path d="M55.2 347.01c-4.59 5.67-6.47 13.16-6.63 20.46-.48 22.84 15 43.68 34.48 55.67s42.43 16.64 65 20.46c14.76 2.5 30.74 4.56 44-2.33 5-2.58 9.51-6.64 11.07-12 2.81-9.68-4.65-19.11-12-26a244.89 244.89 0 00-67.72-45.26c-16.24-7.26-54.08-28.43-68.2-11z" fill="#3f3d56"/><path d="M89.8 349c-4.59 5.67-6.47 13.16-6.63 20.46-.48 22.84 15 43.68 34.48 55.67s42.43 16.64 65 20.46c14.76 2.5 30.74 4.56 44-2.33 5-2.58 9.51-6.64 11.07-12 2.81-9.68-4.65-19.11-12-26A244.89 244.89 0 00158 360c-16.24-7.26-54.08-28.43-68.2-11z" transform="translate(-34.6 -1.99)" fill="url(#99-03drink_coffee_with_laptop_in_cafe-0316e)"/><path d="M315.55 475.15l-15.95 2.74-25.37 4.37-65.34-73.61s-104.78 8.82-120.21-22.06c-8.16-16.31-7.39-40-4.86-58.72a230.93 230.93 0 016-29.5s37.5 20.95 83.82 28.67 141.91 148.11 141.91 148.11z" fill="#4E7699"/><path d="M334.2 479.88l-25.37 4.37-65.34-73.61s-104.78 8.82-120.21-22.06c-8.16-16.31-7.39-40-4.86-58.72 7.2 8 45.41 48 87.57 44.94 52.34-3.8 102.19 63.01 128.21 105.08z" transform="translate(-34.6 -1.99)" fill="url(#99-03drink_coffee_with_laptop_in_cafe-0316f)"/><path d="M252.77 106.11a14.52 14.52 0 01-3.86 8.73 47.21 47.21 0 01-5.85 5.06 78.41 78.41 0 00-10.72 10.37c0-3.91 0-7.88 1.08-11.64a48.47 48.47 0 001.57-5.24c.56-3.24-.34-6.61.28-9.84a18.84 18.84 0 012.18-5.37c.86-1.57 1.88-3.21 3.52-3.92a5.58 5.58 0 014.49.22c4.34 2 7.59 6.84 7.31 11.63z" fill="#3f3d56"/><path d="M287.37 108.1a14.52 14.52 0 01-3.86 8.73 47.21 47.21 0 01-5.85 5.06 78.41 78.41 0 00-10.72 10.37c0-3.91 0-7.88 1.08-11.64a48.47 48.47 0 001.57-5.24c.56-3.24-.34-6.61.28-9.84a18.84 18.84 0 012.18-5.37c.86-1.57 1.88-3.21 3.52-3.92a5.58 5.58 0 014.49.22c4.34 2 7.59 6.84 7.31 11.63z" transform="translate(-34.6 -1.99)" fill="url(#99-03drink_coffee_with_laptop_in_cafe-0316g)"/><path d="M249.3 96.42c1.27-2.61 2-5.67 1-8.4a1.06 1.06 0 00-1.29-.85 25.52 25.52 0 00-14.44 4.84 18.51 18.51 0 015.55 7 12.87 12.87 0 011 5.41c0 .39-.39 1.88-.06 2.06s1.47-1.11 1.71-1.36a34.9 34.9 0 006.53-8.7z" fill="#2b2a44"/><path d="M283.9 98.41c1.27-2.61 2-5.67 1-8.4a1.06 1.06 0 00-1.29-.85A25.52 25.52 0 00269.17 94a18.51 18.51 0 015.55 7 12.87 12.87 0 011 5.41c0 .39-.39 1.88-.06 2.06s1.47-1.11 1.71-1.36a34.9 34.9 0 006.53-8.7z" transform="translate(-34.6 -1.99)" fill="url(#99-03drink_coffee_with_laptop_in_cafe-0316h)"/><path fill="#fff" d="M296.55 247.64L166.97 351.85l315.96.55-61.76-106.97-124.62 2.21z"/><path fill="#4E7699" d="M319.16 254.99l42.28-.37-2.21 14.7-45.22-1.83 5.15-12.5z"/><path fill="#4E7699" d="M441.21 186.98l-38.23 113.96-127.93 2.2 11.89-18.28 3.18-4.87 35.58-.62 70.66-1.22 32.71-94.11 12.14 2.94z"/><path d="M382.36 286l-12.65-.71a5.16 5.16 0 00-2.54.29 7.06 7.06 0 00-2 1.94 13 13 0 01-7.61 4 37.09 37.09 0 01-8.75.26 41 41 0 01-9.38-1.23c-2.08-.6-4.05-1.51-6.09-2.22a29.84 29.84 0 00-11.8-1.54l3.17-4.88 35.59-.62c1.08.22 2.18.41 3.29.57 4.42.61 8.93.47 13.35 1.08 2.16.36 4.6 1.06 5.42 3.06z" transform="translate(-34.6 -1.99)" fill="url(#99-03drink_coffee_with_laptop_in_cafe-0316i)"/><path d="M385.84 280.24s-1.93 4.31-3.77 3.58-13.24-5.51-13.24-5.51a11.73 11.73 0 01-4.36 3.47 16.73 16.73 0 01-5.93 1.67c-7.35.73-27.93-2.94-27.93-2.94l-85.29 6.25-19.12-17.27 1.59-46.91 1.12-33.08 30.75 68.59s90.16 4.13 104.22 10.75 21.96 11.4 21.96 11.4z" transform="translate(-34.6 -1.99)" fill="url(#99-03drink_coffee_with_laptop_in_cafe-0316b)"/><path d="M364.47 281.78a16.73 16.73 0 01-5.93 1.67c-7.35.73-27.93-2.94-27.93-2.94l-85.29 6.25-19.12-17.27 1.59-46.91 18.63 41.57s90.16 4.14 104.22 10.75c5.64 2.65 10.28 5.01 13.83 6.88z" transform="translate(-34.6 -1.99)" fill="url(#99-03drink_coffee_with_laptop_in_cafe-0316j)"/><path d="M195.4 188.62c.1.86.21 1.72.36 2.57 1.33 7.73 8.28 48.22 9.78 57.5 1.38 8.47-7.19 24.16-10.24 29.39-.74 1.27-1.42 2.58-2 3.91l-16 34.92a45.06 45.06 0 01-57.34 23.17 45.07 45.07 0 01-26.05-57.2c15.59-43.52 39.3-106.8 48.06-114.75 13.32-12.12 48.68-19.43 53.43 20.49z" fill="#4E7699"/><path d="M227.1 178.28c-11.58-2.53-24.78 2.53-31.84 8.93-8.77 7.95-32.48 71.24-48.06 114.75a45 45 0 003.92 38.63 45 45 0 01-22.67-55.72c15.59-43.52 39.3-106.79 48.06-114.74 11.79-10.7 40.63-17.64 50.59 8.15z" transform="translate(-34.6 -1.99)" fill="url(#99-03drink_coffee_with_laptop_in_cafe-0316k)"/><path d="M233.28 164.16s-12 6.07-8.54 18.61-22.06-16-22.06-16-3.31-19.3 16.54-17.64 14.06 15.03 14.06 15.03z" transform="translate(-34.6 -1.99)" fill="url(#99-03drink_coffee_with_laptop_in_cafe-0316l)"/><path d="M204.2 168.57s3.86-7.58 7-9.23 9.51-1.93 9.92 3.72a45.24 45.24 0 002.9 11.72s5.51-8.69 9.23-10.62c0 0-10.47-7.17-13.37-11.71s-14.2 3.86-14.2 3.86-4.93 8.69-1.48 12.26z" transform="translate(-34.6 -1.99)" fill="url(#99-03drink_coffee_with_laptop_in_cafe-0316m)"/><path d="M273.92 116.1c-1.84 6.53-5.49 13.08-3.94 19.68a24.66 24.66 0 01.94 4 3.75 3.75 0 01-1.61 3.57 7.46 7.46 0 01-2.1.54c-5 1-8 6.12-10 10.83s-4.23 10-8.92 12c-3.94 1.75-8.58.67-12.48-1.16a40.83 40.83 0 01-16.22-14.18A27.92 27.92 0 01215 141.1a31.44 31.44 0 01-.09-9.19 62.64 62.64 0 018.41-26 44.78 44.78 0 0120.25-18 23.29 23.29 0 017.34-2c5.06-.38 10.07 1.6 14.22 4.53 3.21 2.26 8.9 6.34 10 10.31 1.25 4.55.04 10.95-1.21 15.35z" transform="translate(-34.6 -1.99)" fill="url(#99-03drink_coffee_with_laptop_in_cafe-0316n)"/><path d="M226.46 99.01a138.79 138.79 0 00-22.83 30.17c-2.66 4.75-5.07 9.71-8.57 13.87a33.17 33.17 0 01-16.93 10.67 13.43 13.43 0 00-4 1.42c-2.85 1.83-3.43 5.67-5.16 8.57-2.26 3.8-6.56 6-10.87 6.94s-8.77 1-13.16 1.52c-16.16 2-27.22 53.8-34.91 68.16.92-7.23-23.16-26.84-1.09-63.2 2-3.31 1-7.84-.3-11.5-1.52-4.36-5.47-8.46-4.09-12.87a9.7 9.7 0 014-4.74c7-4.91 16.25-6.45 22.41-12.42-.37 1.13-2.2 1-2.88.07a4.27 4.27 0 01-.25-3.44c1.55-6.43 6-11.8 10.87-16.22s10.43-8.16 15.16-12.78c-3.3-1.28-4.43-5.72-3.11-9s4.36-5.53 7.46-7.22 6.45-3 9.16-5.27c3-2.52 5-6 7.74-8.87 4.28-4.5 10.1-7.16 15.8-9.63a45.91 45.91 0 0110.87-3.59 29.75 29.75 0 0112.71 1c11 3.17 20 10.89 28.37 18.6 1.94 1.77 3.86 3.55 5.78 5.35 1 1 2.13 2.16 1.91 3.55s-9.22.82-11.1 1.52c-5.05 1.87-9.27 5.56-12.99 9.34z" fill="#3f3d56"/><path d="M261.06 101a138.79 138.79 0 00-22.83 30.17c-2.66 4.75-5.07 9.71-8.57 13.87a33.17 33.17 0 01-16.93 10.67 13.43 13.43 0 00-4 1.42c-2.85 1.83-3.43 5.67-5.16 8.57-2.26 3.8-6.56 6-10.87 6.94s-8.77 1-13.16 1.52c-16.16 2-27.22 53.8-34.91 68.16.92-7.23-23.16-26.84-1.09-63.2 2-3.31 1-7.84-.3-11.5-1.52-4.36-5.47-8.46-4.09-12.87a9.7 9.7 0 014-4.74c7-4.91 16.25-6.45 22.41-12.42-.37 1.13-2.2 1-2.88.07a4.27 4.27 0 01-.25-3.44c1.55-6.43 6-11.8 10.87-16.22s10.43-8.16 15.16-12.78c-3.3-1.28-4.43-5.72-3.11-9s4.36-5.53 7.46-7.22 6.45-3 9.16-5.27c3-2.52 5-6 7.74-8.87 4.28-4.5 10.1-7.16 15.8-9.63a45.91 45.91 0 0110.87-3.59 29.75 29.75 0 0112.71 1c11 3.17 20 10.89 28.37 18.6 1.94 1.77 3.86 3.55 5.78 5.35 1 1 2.13 2.16 1.91 3.55s-9.22.82-11.1 1.52c-5.05 1.87-9.27 5.56-12.99 9.34z" transform="translate(-34.6 -1.99)" fill="url(#99-03drink_coffee_with_laptop_in_cafe-0316o)"/><path opacity=".69" fill="url(#99-03drink_coffee_with_laptop_in_cafe-0316c)" style="isolation:isolate" d="M396.36 278.15l5.33 20.95 36.94-112.48-9.56-2.58-32.71 94.11z"/><path opacity=".69" fill="url(#99-03drink_coffee_with_laptop_in_cafe-0316p)" style="isolation:isolate" d="M399.12 270.39l4.56 17.96 31.67-96.41-8.2-2.2-28.03 80.65z"/><path d="M338.83 281.46l-3.86 16.17 8.82-.37 1.29-15.44-6.25-.36zm40.71-.19l3.72.14 2.35 14.34h-4.42l-1.65-14.48zm-8.27-.07h5.72l2.27 14.5-6.8-.09-1.19-14.41zm-7.9.26h5.88l.73 14.33H363l.37-14.33zm-8.18.18l5.97-.09.46 14.89h-7.08l.65-14.8zm-7.72.18l5.23.1-.18 14.88h-6.43l1.38-14.98z" fill="#fff"/><path d="M366.9 236.34s3.86 23.34 5.15 24.63l20.4-.37s4-20.58 3.49-23.34l-6.06-2.2z" fill="#4E7699"/><path d="M405.18 240.39s3.13 20.77 4.42 22.06l17.45.14s4-20.58 3.49-23.34l-6.06-2.2z" transform="translate(-34.6 -1.99)" opacity=".69" fill="url(#99-03drink_coffee_with_laptop_in_cafe-0316q)" style="isolation:isolate"/><path d="M392.45 260.6s4-20.58 3.49-23.34m-31.28-8.34a1.58 1.58 0 01-.81-.78c-.25-.77.73-1.36 1.52-1.5a8.57 8.57 0 015.36.84 40 40 0 01-7.63-7.47 18.87 18.87 0 016.89 3 10.16 10.16 0 016-5.06 19.9 19.9 0 018-.76 2.84 2.84 0 012.35 1c.52.87 0 2-.48 2.85a4.39 4.39 0 014.17-2.72q-1.53 2.84-3.33 5.5c1.58-1.15 3.67-1.23 5.63-1.27a1.52 1.52 0 01.87.17c.59.44.19 1.38-.29 1.94-2 2.35-4.82 4.18-5.9 7.08a38.5 38.5 0 00-1 4.66 2.29 2.29 0 01-.55 1.15 2.42 2.42 0 01-1.34.51c-3.21.52-7.44 1-9.93-1.5a43.73 43.73 0 00-9.53-7.64z" fill="#4E7699"/><path d="M399.26 230.91a1.58 1.58 0 01-.81-.78c-.25-.77.73-1.36 1.52-1.5a8.57 8.57 0 015.36.84 40 40 0 01-7.63-7.47 18.87 18.87 0 016.89 3 10.16 10.16 0 016-5.06 19.9 19.9 0 018-.76 2.84 2.84 0 012.35 1c.52.87 0 2-.48 2.85a4.39 4.39 0 014.17-2.72q-1.53 2.84-3.33 5.5c1.58-1.15 3.67-1.23 5.63-1.27a1.52 1.52 0 01.87.17c.59.44.19 1.38-.29 1.94-2 2.35-4.82 4.18-5.9 7.08a38.5 38.5 0 00-1 4.66 2.29 2.29 0 01-.55 1.15 2.42 2.42 0 01-1.34.51c-3.21.52-7.44 1-9.93-1.5a43.73 43.73 0 00-9.53-7.64z" transform="translate(-34.6 -1.99)" fill="url(#99-03drink_coffee_with_laptop_in_cafe-0316r)"/><path fill="#dedee0" d="M267.33 313.25l119.65-2.75 3.86 29.77-140.6-1.1 17.09-25.92z"/><path opacity=".69" fill="url(#99-03drink_coffee_with_laptop_in_cafe-0316s)" style="isolation:isolate" d="M265.12 311.32l119.66-2.75 3.86 29.77-140.61-1.1 17.09-25.92z"/><path fill="#4E7699" d="M254.65 219.79l-.28-22.88 32.53-.28-7.44 63.41-19.57.28-6.62-21.51 1.38-19.02z"/><path fill="url(#99-03drink_coffee_with_laptop_in_cafe-0316t)" d="M254.65 219.79l-.28-22.88 32.53-.28-7.44 63.41-19.57.28-6.62-21.51 1.38-19.02z"/><path d="M302.05 260.21q-38.24 30.48-78.55 58.2c-10.61 7.3-22.05 14.7-34.91 15.24-4 .17-8.14-.4-11.41-2.65-5.18-3.55-6.93-10.26-8.18-16.41-6.79-33.42-9.91-67.53-10.63-101.63-.16-7.69-.18-15.55 2.32-22.82s8-14 15.47-15.82c0 0 17.7-2.44 22.85 15.94s0 98.15 3.67 98.89S279.51 252 279.51 252c1.55 0 1.86-2.77 2.09-4.31a18.92 18.92 0 00-.15-4.63 41 41 0 016.47-26c1.54 2.25 1.47 5.2 1.34 7.92L289 231a3.08 3.08 0 00.43 2.16 2.58 2.58 0 001.65.77c2.89.44 5.74-.81 8.45-1.93a120.18 120.18 0 0117.56-5.76 3.43 3.43 0 012.83.15 2.68 2.68 0 01.56 3.11c-.39 1.06-1.11 2-1.44 3.08a1.38 1.38 0 000 1c.26.52 1 .59 1.43.92a3 3 0 01.85 2.42l.07 2.24c.15 4.72.21 9.79-2.4 13.74a15.49 15.49 0 01-8.06 5.75 37 37 0 01-8.88 1.56z" transform="translate(-34.6 -1.99)" fill="url(#99-03drink_coffee_with_laptop_in_cafe-0316u)"/><path fill="#4E7699" d="M252.63 198.38h36.2v-4.04l-2.75-.56-.55-4.04-30.52.37-1.1 4.04-1.47.74.19 3.49z"/><path opacity=".69" fill="url(#99-03drink_coffee_with_laptop_in_cafe-0316v)" style="isolation:isolate" d="M252.28 198.59h36.21v-4.05l-2.76-.55-.55-4.04-30.51.36-1.1 4.05-1.47.73.18 3.5z"/><path fill="#4E7699" d="M255.01 190.11l1.43-5.33 12.96 5.1-14.39.23z"/><path fill="url(#99-03drink_coffee_with_laptop_in_cafe-0316w)" d="M255.01 190.11l1.43-5.33 12.96 5.1-14.39.23z"/><path fill="#dedee0" d="M166.97 351.85h314.85v10.48H166.97z"/><path fill="#4E7699" d="M403.16 300.02l-128.04 3.01v3.12l128.04-3.01v-3.12z"/><path fill="url(#99-03drink_coffee_with_laptop_in_cafe-0316x)" d="M403.16 300.02l-128.04 3.01v3.12l128.04-3.01v-3.12z"/><path fill="url(#99-03drink_coffee_with_laptop_in_cafe-0316y)" d="M284.98 288.17l-44.39 3.85 11.58-8.82 37.95-3.21-5.14 8.18z"/></svg>