<svg data-name="Layer 1" xmlns="http://www.w3.org/2000/svg" xmlns:xlink="http://www.w3.org/1999/xlink" viewBox="0 0 349.8 355.98"><defs><linearGradient id="56-03following_the_idea-0334a" x1="151.4" y1="288.34" x2="163.4" y2="288.34" gradientUnits="userSpaceOnUse"><stop offset=".01"/><stop offset=".13" stop-opacity=".69"/><stop offset="1" stop-opacity="0"/></linearGradient><linearGradient id="56-03following_the_idea-0334b" x1="111.21" y1="231.35" x2="124.62" y2="231.35" xlink:href="#56-03following_the_idea-0334a"/><linearGradient id="56-03following_the_idea-0334c" x1="149.35" y1="181.58" x2="222.02" y2="193.43" xlink:href="#56-03following_the_idea-0334a"/><linearGradient id="56-03following_the_idea-0334d" x1="168.06" y1="238.52" x2="144.82" y2="200.96" xlink:href="#56-03following_the_idea-0334a"/><linearGradient id="56-03following_the_idea-0334e" x1="162.37" y1="246.43" x2="193.54" y2="271.91" xlink:href="#56-03following_the_idea-0334a"/><linearGradient id="56-03following_the_idea-0334f" x1="210.48" y1="129.08" x2="215.76" y2="135.8" xlink:href="#56-03following_the_idea-0334a"/><linearGradient id="56-03following_the_idea-0334h" x1="-1103.21" y1="1287.02" x2="-1079.54" y2="1287.02" gradientTransform="translate(1383.91 -1150.77)" xlink:href="#56-03following_the_idea-0334a"/><linearGradient id="56-03following_the_idea-0334i" x1="-1104.47" y1="1287.16" x2="-1078.01" y2="1287.16" gradientTransform="translate(1383.84 -1150.73)" xlink:href="#56-03following_the_idea-0334a"/><radialGradient id="56-03following_the_idea-0334g" cx="7211.7" cy="344.08" r="23.6" gradientTransform="rotate(-156.33 3733.987 949.725)" gradientUnits="userSpaceOnUse"><stop offset=".34" stop-color="#fff"/><stop offset="1" stop-color="#fff" stop-opacity=".39"/></radialGradient></defs><path d="M348.53 149.04c-4.16 20.51-18.51 37.55-34.64 50.89-15.27 12.64-32.67 23-45.65 37.95-22.51 26-29.39 63.39-54.11 87.3-18.58 18-45.75 25-71.4 21.36a88.29 88.29 0 01-34.06-12.17c-14-8.65-25.46-20.79-39-30.15-11.49-7.95-24.34-13.83-35.51-22.23a85.74 85.74 0 01-14-13.28c-17-20.14-25.07-48-17.11-72.92 7.17-22.38 25.5-39.6 33.75-61.6 11.43-30.41 2.73-67.31 20.75-94.34 12-17.95 33.55-27.38 54.89-30.52s43.05-.93 64.61-.63a364.55 364.55 0 0069.33-5.68c24.75-4.45 31.14-7.63 36.51 19.08 3 15 15.27 25.94 26.15 36.62 24.48 24 46.33 56.7 39.49 90.32z" fill="#FFA6D8" opacity=".18" style="isolation:isolate"/><path d="M246.08 139.02c-7.34 18.83 9.38 41.32.67 59.56-7 14.62-26.45 18.27-37.14 30.45-12.8 14.59-10 37.36-19.42 54.33-9.91 17.83-32.16 27.25-39.25 46.41-2.2 5.91-3.28 13.12-8.18 16.77a88.29 88.29 0 01-34.06-12.17c-14-8.65-25.46-20.79-39-30.15-11.49-7.95-24.34-13.83-35.51-22.23a85.74 85.74 0 01-14-13.28 26.1 26.1 0 018.75-4.36 74.75 74.75 0 0153.24-31.3c10.55-1.06 21.18.18 31.77.81q13.77.79 27.57.23c5.37-.23 11-.7 15.48-3.69 9.39-6.32 9.21-20.21 15.45-29.65 5.56-8.41 15.59-12.45 24.87-16.39s19.12-8.95 23.27-18.14c3.81-8.41 1.86-18.2 3.24-27.32 1.17-7.83 4.77-15.05 8.31-22.12 2.05-4.07 7.46-1.13 11.54.89a11.5 11.5 0 016.18 11.23c-.41 3.6-2.47 6.75-3.78 10.12z" fill="#FFA6D8" opacity=".48" style="isolation:isolate"/><path d="M228.84 169.19c-6.6 16.95 8.45 37.2.61 53.61-6.29 13.14-23.82 16.39-33.44 27.39-11.52 13.13-9 33.63-17.48 48.91-8.92 16.09-29 24.53-35.35 41.77-2 5.33-3 11.82-7.37 15.11a79.62 79.62 0 01-30.66-11c-12.58-7.79-22.92-18.72-35.09-27.14-10.35-7.17-21.92-12.46-32-20a76.53 76.53 0 01-12.59-11.95 23.47 23.47 0 017.86-3.93 67.34 67.34 0 0147.92-28.18c9.5-.94 19.07.17 28.6.73a244.64 244.64 0 0024.82.21c4.84-.2 9.92-.63 13.94-3.32 8.45-5.69 8.29-18.19 13.91-26.69 5-7.57 14-11.2 22.38-14.75s17.22-8.07 21-16.33c3.42-7.57 1.67-16.39 2.9-24.6 1.06-7 20.55-46.89 23.74-53.25 1.84-3.66 7.46 0 11.13 1.87s1.83 1.43 1.39 5.5c-.35 3.25-15.04 42.98-16.22 46.04z" fill="#FFA6D8" opacity=".48" style="isolation:isolate"/><path d="M108.78 257.19a6.21 6.21 0 00-2.33.59 7.12 7.12 0 00-3.34 2.12c-1.2 1.64-.79 3.93-.24 5.89a23.33 23.33 0 002.22 5.71 10 10 0 004.38 4.17 1.49 1.49 0 00.82.18 1.56 1.56 0 001-.83 8 8 0 001.11-5.3 4.42 4.42 0 010-2.31 6.32 6.32 0 011.11-1.43 4.14 4.14 0 00.23-4.78c-.73-1.1-2-1.56-2.8-2.51-.71-.76-.93-1.5-2.16-1.5z" fill="#FFA6D8"/><path d="M108.94 258.09a3 3 0 00-.94 1.34 1.9 1.9 0 00.08 1.08 3.7 3.7 0 001.36 1.74 2.53 2.53 0 001.48.56 2.89 2.89 0 001.14-.34 13.91 13.91 0 003.67-2.49 3.43 3.43 0 001.2-1.85 3.75 3.75 0 00-.11-1.33c-.09-.43-.2-.85-.3-1.28a1.89 1.89 0 00-.18-.52 1.92 1.92 0 00-.37-.44 5.9 5.9 0 00-2-1.45c-.71-.26-.94.09-1.34.64a36.49 36.49 0 01-3.69 4.34z" fill="#f3bd8f"/><path d="M155.99 192.27c-.71 5.72-3.89 17.21-5.47 22.78-3.13 11-4.12 17.17-11.21 26.18a85.19 85.19 0 01-13.37 13.54c-3 2.43-6.34 4.71-10.13 5.57-.84-1.72-3-2.41-4-4-.05-.08-.09-.16-.14-.23-1-1.88-.06-4.18.92-6.08a236.49 236.49 0 0113.35-22.75 16.07 16.07 0 002-3.56 16.81 16.81 0 00.65-3.67c.2-1.69.47-3.36.8-5a143.43 143.43 0 015.16-17.72 17.39 17.39 0 012.76-5.71c2.37-2.82 6.25-3.84 9.9-4.36 5.62-.83 9.61-1.65 8.78 5.01z" fill="#3e3e54"/><path d="M74.35 202.68a6.08 6.08 0 00-2.17-1.05 7.2 7.2 0 00-3.92-.52c-2 .49-3.12 2.51-4 4.36a23.48 23.48 0 00-2 5.8 10 10 0 00.68 6 1.49 1.49 0 00.51.67 1.57 1.57 0 001.29 0 8 8 0 004.25-3.35 4.48 4.48 0 011.46-1.8 5.76 5.76 0 011.77-.38 4.16 4.16 0 003.25-3.52c.14-1.31-.51-2.45-.54-3.72.01-.98.34-1.69-.58-2.49z" fill="#FFA6D8"/><path d="M157.84 279a6.21 6.21 0 00-2.33.59 7.12 7.12 0 00-3.34 2.12c-1.2 1.64-.79 3.93-.24 5.89a23.33 23.33 0 002.22 5.71 10 10 0 004.38 4.17 1.49 1.49 0 00.82.18 1.56 1.56 0 001-.83 8 8 0 001.11-5.3 4.42 4.42 0 010-2.31 6.32 6.32 0 011.11-1.43 4.14 4.14 0 00.23-4.78c-.73-1.1-2-1.56-2.8-2.51-.71-.76-.93-1.5-2.16-1.5z" transform="translate(-49.06 -21.81)" fill="url(#56-03following_the_idea-0334a)"/><path d="M123.41 224.49a6.08 6.08 0 00-2.17-1.05 7.2 7.2 0 00-3.92-.52c-2 .49-3.12 2.51-4 4.36a23.48 23.48 0 00-2 5.8 10 10 0 00.68 6 1.49 1.49 0 00.51.67 1.57 1.57 0 001.29 0 8 8 0 004.25-3.35 4.48 4.48 0 011.46-1.8 5.76 5.76 0 011.77-.38 4.16 4.16 0 003.25-3.52c.14-1.31-.51-2.45-.54-3.72.01-.98.34-1.69-.58-2.49z" transform="translate(-49.06 -21.81)" fill="url(#56-03following_the_idea-0334b)"/><path d="M74.82 204.54a3.1 3.1 0 00-1.63.14 2 2 0 00-.78.77 3.72 3.72 0 00-.44 2.15 2.51 2.51 0 00.53 1.5 2.75 2.75 0 001 .65 14.17 14.17 0 004.27 1.2 3.41 3.41 0 002.19-.29 3.61 3.61 0 00.94-.93c.27-.35.52-.7.78-1.06a2.29 2.29 0 00.26-.48 2.19 2.19 0 00.09-.57 6 6 0 00-.09-2.43c-.26-.7-.68-.66-1.36-.61a36.28 36.28 0 01-5.76-.04z" fill="#f3bd8f"/><path d="M144.13 194.39a3.27 3.27 0 01-1.24 1.9c-6.1 5.69-8.25 13.22-14.34 18.91a17.61 17.61 0 01-4.79 3.54c-1.47.64-20.68.31-26.72.31s-12.54-.47-17.68-3.78a4.15 4.15 0 01-1.61-1.58 4.82 4.82 0 01-.18-2.77 18.23 18.23 0 011.22-5 6.41 6.41 0 011.92-2.54c2-1.53 4.74-1.49 7.25-1.42a214 214 0 0026.91-.93 3.24 3.24 0 001.63-.45 3.34 3.34 0 001-1.9 107.52 107.52 0 014.35-12.49c.91-2.15 3-9.3 5.53-10.13l.19-.05c2.68-.53 7.18 5.41 8.78 7.17a66.25 66.25 0 017.1 9.32 3.11 3.11 0 01.68 1.89z" fill="#3e3e54"/><path d="M93.15 157.24a6.52 6.52 0 01.93-3.55 16.73 16.73 0 0110.19-8.25c.88 1.59 1.75 3.12 2.62 4.71a3.6 3.6 0 01.54 1.39 4.44 4.44 0 01-.84 2.4 12.36 12.36 0 00-1.3 3.62 3.9 3.9 0 01-.57 1.75 1.12 1.12 0 01-1.61.25 10.21 10.21 0 00-.5-4.07c-1.33.52-2 1.95-2.47 3.29a9.17 9.17 0 01-1.79 3.82c-.2.21-.5.4-.76.28s-.31-.52-.29-.84l.2-3.18a3.61 3.61 0 01-2.43 3.41 7.08 7.08 0 01.56-4.87c-.41.44-.46 1.1-.76 1.62s-1.14.84-1.45.32a1 1 0 01-.06-.7 19.94 19.94 0 01.91-3.81l-.81 2.22c-.16.14-.16.31-.31.19z" fill="#f3bd8f"/><path d="M233.07 108.66a10.87 10.87 0 01-2.37 4.09c-2.94 3.42-6.83 5.85-10.55 8.39-9.89 6.75-19 14.66-29.7 20.12-2.87 1.47-5.89 2.79-8.23 5a21.48 21.48 0 00-3.46 4.57 47.88 47.88 0 00-4.19 8.9c-2 5.57-4.67 10.81-6.88 16.28-2.37 5.87-4.9 11.73-8.64 16.83-2.51 3.42-5.79 6.61-10 7.45-4 .79-8.18-.77-11.41-3.25s-5.65-5.79-8-9.06l-.06-.07c-.59-.81-1.19-1.64-1.72-2.51a11.24 11.24 0 01-1.63-3.9 10.44 10.44 0 01-.14-1.47c0-2.84 1.23-5.63 2.47-8.24q6.83-14.37 13.65-28.73v-.08a54.71 54.71 0 00-24.14 6.69 29.7 29.7 0 01-6.34 3 7.36 7.36 0 01-6.67-1.12c-2.42-2.13-2.32-6.13-.64-8.88s4.53-4.55 7.29-6.23c10.36-6.26 21.61-12.35 33.72-12 4.82.14 11.82-.89 16.62-.36 10.11 1.11 19.59 3.87 27.77-2.17a151.6 151.6 0 0118.16-12.1c4.46-2.38 9.16-4.32 13.84-6.25a17.39 17.39 0 015.47-1.57 5.8 5.8 0 015.08 2.08 5.48 5.48 0 01.7 4.59z" fill="#FFA6D8"/><path d="M165.69 108.5l-.51-.75a4.3 4.3 0 00-.93-1.06 1.36 1.36 0 00-1.34-.19c-.63.3-1.36.63-1.41 1.33a9.43 9.43 0 001.07 4.46 7.65 7.65 0 011.09 2 4.6 4.6 0 010 1.23c-.17 3.36 1.32 6.84.19 10-.39 1.08-1.07 2.1-1 3.25a3.39 3.39 0 001.07 2.23 6.62 6.62 0 002.16 1.31 13.37 13.37 0 003.8.92 2.72 2.72 0 002.85-1.18 14.92 14.92 0 002.45-4.09 57.59 57.59 0 015.72-3c5.53-2.34 8.19-8.74 8.85-14.71.31-2.75.28-5.66-1-8.11a10.14 10.14 0 00-8.56-5.14 14.22 14.22 0 00-9.56 3.59c-2.29 1.93-5.15 4.9-4.94 7.91z" fill="#f3bd8f"/><path d="M187.14 94.19c-2.13-1.63-5-1.69-7.52-2.72a23.16 23.16 0 00-2.52-1.06c-2.47-.69-5 .47-7.32 1.64a14.73 14.73 0 00-3.63 2.39c-1.51 1.48-2.33 3.53-3.7 5.14s-3.26 2.71-4.9 4.06-3.13 3.13-3.27 5.25c-.17 2.65 1.81 4.95 3.91 6.59s4.51 3 5.85 5.35l.56-4.72a3 3 0 000-1.34 3.89 3.89 0 00-.81-1.18 8.17 8.17 0 01-1.87-5.46c0-.56.17-1.22.7-1.42s1.25.37 1.66.92l2.6 3.51a10.91 10.91 0 013.14-10.09 14.29 14.29 0 0110.05-3.86c2.06 0 4.31.54 5.55 2.19s3 4.94 3.72.74a6.3 6.3 0 00-2.2-5.93z" fill="#3e3e54"/><path d="M231.37 98.19a17.1 17.1 0 012-4.13 9.77 9.77 0 012.63-2 .69.69 0 01.53-.14.58.58 0 01.33.46c.28 1.1-.36 2.24-.26 3.37a.37.37 0 00.11.27c.15.12.36 0 .5-.13a45 45 0 014.45-3.72 8.84 8.84 0 015.44-1.71c0 1.54-1.29 2.73-2.5 3.69a11.32 11.32 0 015.52-2.47c.37.57-.14 1.29-.62 1.78l-3.33 3.37a10.53 10.53 0 014.66-1.82.82.82 0 01.49 0 .6.6 0 01.23.75 1.63 1.63 0 01-.53.67 36.28 36.28 0 01-6.12 4.41 14.45 14.45 0 013.87-1.18 1.85 1.85 0 01-.73 1.84 13.43 13.43 0 01-2.81 1.89 17.65 17.65 0 01-6.06 2.46c-1.36.18-2.82.07-4 .75-.55.32-1 .8-1.52 1.16a4.34 4.34 0 01-3.59.67 3.92 3.92 0 01-2.48-2.11 3.43 3.43 0 01.51-3.88 13.46 13.46 0 003.28-4.25z" fill="#f3bd8f"/><path d="M194.67 174.74a142 142 0 00-10.44 23.56c-1.36 4.07-2.64 8.34-5.51 11.5a1.42 1.42 0 01-.2.22 20.91 20.91 0 01-1.58-2.8 23.49 23.49 0 01-1.77-5.37c0-2.84 1.23-5.63 2.47-8.24q6.83-14.37 13.65-28.73c1.62-.15 3.46.58 5.49 2.91 1.63 1.86-.91 4.79-2.11 6.95z" transform="translate(-49.06 -21.81)" fill="url(#56-03following_the_idea-0334c)"/><path d="M178.1 209c-.42 1.77-1.79 3.35-2.48 5-1.51 3.68-1.89 9.08-5.32 11.64-2.46 2.19-6 2.71-9.23 3-9.65.88-19.37.68-29 .47a5.94 5.94 0 01-3.71-.89 2.86 2.86 0 01-.46-.46 6.41 6.41 0 011.92-2.54c2-1.53 4.74-1.49 7.25-1.42a214 214 0 0026.91-.93 3.24 3.24 0 001.63-.45 3.34 3.34 0 001-1.9 107.52 107.52 0 014.3-12.52c.91-2.15 3-9.3 5.53-10.13a8.65 8.65 0 011 3.41c.29 2.35 1.23 5.31.66 7.72z" transform="translate(-49.06 -21.81)" fill="url(#56-03following_the_idea-0334d)"/><path d="M161.76 277.46a4.34 4.34 0 01-.92.69c-.05-.08-.09-.16-.14-.23-1-1.88-.06-4.18.92-6.08A236.49 236.49 0 01175 249.09a16.07 16.07 0 002-3.56 16.81 16.81 0 00.65-3.67c.2-1.69.47-3.36.8-5 2.53-2.08 6.54-4.23 6.54-5 .17 3.74.27 7.46.3 11.21-.07 2.2-20.48 31.67-23.53 34.39z" transform="translate(-49.06 -21.81)" fill="url(#56-03following_the_idea-0334e)"/><path d="M212.63 130.61a.67.67 0 00-.69.37 1.18 1.18 0 00-.06.83 7.52 7.52 0 00.32.78 6.22 6.22 0 00.69 1.39 1.32 1.32 0 001.35.56.73.73 0 00.3-.19.84.84 0 00.12-.45 3.59 3.59 0 00-.6-2.1 2.71 2.71 0 00-.6-.52c-.26-.22-.46-.6-.83-.67z" transform="translate(-49.06 -21.81)" fill="url(#56-03following_the_idea-0334f)"/><rect x="280.71" y="130.59" width="23.66" height="11.3" rx="2.36" transform="rotate(23.67 320.095 8.298)" fill="#FFA6D8"/><rect x="279.37" y="134.38" width="26.46" height="4.1" rx="1.98" transform="rotate(23.67 320.16 8.484)" fill="#FFA6D8"/><path d="M278.06 89.69a20.79 20.79 0 01-6.05 7.9l-16.5 16.21-19.28-8.45 1.77-24a20.91 20.91 0 1140.06 8.3z" fill="#FFA6D8"/><path d="M327.12 111.5a20.79 20.79 0 01-6.05 7.9l-16.5 16.21-19.28-8.45 1.77-24a20.91 20.91 0 1140.06 8.3z" transform="translate(-49.06 -21.81)" opacity=".69" fill="url(#56-03following_the_idea-0334g)" style="isolation:isolate"/><path d="M243.14 108.75a48.21 48.21 0 013.92-20.72c.63-1.46 1.61-3.09 3.19-3.24 1.95-.18 3.29 2 3.46 4a9 9 0 01-2.51 7 9.75 9.75 0 01.54-5.32 8.84 8.84 0 011.8-3.53 3.46 3.46 0 013.64-1c1.9.76 2.2 3.4 1.59 5.36a10.5 10.5 0 01-4.07 5.49 7.86 7.86 0 014.57-6.41 4.5 4.5 0 012.72-.39 2.49 2.49 0 011.94 1.8 3.29 3.29 0 01-.15 1.58c-1 3.75-3.83 6.75-6.77 9.31s-6.16 4.84-8.57 7.9" fill="none" stroke="#fff" stroke-miterlimit="10" stroke-width=".8"/><rect x="280.71" y="130.59" width="23.66" height="11.3" rx="2.36" transform="rotate(23.67 320.095 8.298)" fill="url(#56-03following_the_idea-0334h)"/><rect x="279.37" y="134.38" width="26.46" height="4.1" rx="1.98" transform="rotate(23.67 320.16 8.484)" fill="url(#56-03following_the_idea-0334i)"/></svg>