<svg data-name="Layer 1" xmlns="http://www.w3.org/2000/svg" xmlns:xlink="http://www.w3.org/1999/xlink" viewBox="0 0 515.05 391.75"><defs><linearGradient id="49-03going_to_school-0345c" x1="393.56" y1="255.05" x2="409.39" y2="255.05" gradientUnits="userSpaceOnUse"><stop offset="0" stop-color="#ecc4d7"/><stop offset=".42" stop-color="#efd4d1"/><stop offset="1" stop-color="#f2eac9"/></linearGradient><linearGradient id="49-03going_to_school-0345r" x1="420.11" y1="217.16" x2="406.68" y2="297.21" xlink:href="#49-03going_to_school-0345a"/><linearGradient id="49-03going_to_school-0345b" x1="203.54" y1="233.02" x2="174.62" y2="248.13" gradientUnits="userSpaceOnUse"><stop offset=".05" stop-opacity="0"/><stop offset=".89" stop-opacity=".75"/><stop offset=".99"/></linearGradient><linearGradient id="49-03going_to_school-0345e" x1="174.37" y1="241.56" x2="194.34" y2="241.56" xlink:href="#49-03going_to_school-0345a"/><linearGradient id="49-03going_to_school-0345f" x1="121.16" y1="462.41" x2="177.02" y2="349.69" xlink:href="#49-03going_to_school-0345b"/><linearGradient id="49-03going_to_school-0345g" x1="167.26" y1="364.5" x2="177.83" y2="364.5" xlink:href="#49-03going_to_school-0345c"/><linearGradient id="49-03going_to_school-0345h" x1="156.55" y1="359.1" x2="167.55" y2="359.1" xlink:href="#49-03going_to_school-0345c"/><linearGradient id="49-03going_to_school-0345i" x1="179.25" y1="288.82" x2="192.73" y2="288.82" xlink:href="#49-03going_to_school-0345c"/><linearGradient id="49-03going_to_school-0345j" x1="250.46" y1="267.37" x2="248.14" y2="110.11" xlink:href="#49-03going_to_school-0345a"/><linearGradient id="49-03going_to_school-0345d" x1="246.65" y1="109.4" x2="261.37" y2="349.54" gradientUnits="userSpaceOnUse"><stop offset="0" stop-opacity="0"/><stop offset=".99"/></linearGradient><linearGradient id="49-03going_to_school-0345k" x1="235.31" y1="62.11" x2="258.55" y2="260.94" xlink:href="#49-03going_to_school-0345a"/><linearGradient id="49-03going_to_school-0345l" x1="168.77" y1="264.53" x2="182.88" y2="264.53" xlink:href="#49-03going_to_school-0345c"/><linearGradient id="49-03going_to_school-0345m" x1="156.71" y1="292.01" x2="185.25" y2="292.01" xlink:href="#49-03going_to_school-0345a"/><linearGradient id="49-03going_to_school-0345n" x1="140.3" y1="284.37" x2="163.38" y2="284.37" xlink:href="#49-03going_to_school-0345c"/><linearGradient id="49-03going_to_school-0345o" x1="102.26" y1="309.64" x2="186.61" y2="334.43" xlink:href="#49-03going_to_school-0345b"/><linearGradient id="49-03going_to_school-0345p" x1="164.54" y1="363.9" x2="161.18" y2="462.54" xlink:href="#49-03going_to_school-0345a"/><linearGradient id="49-03going_to_school-0345q" x1="177.31" y1="256.34" x2="171.46" y2="256.51" xlink:href="#49-03going_to_school-0345b"/><linearGradient id="49-03going_to_school-0345a" x1="241.9" y1="52.06" x2="266.18" y2="116.61" gradientUnits="userSpaceOnUse"><stop offset="0" stop-color="#fff" stop-opacity="0"/><stop offset=".99" stop-color="#fff"/></linearGradient><linearGradient id="49-03going_to_school-0345s" x1="423.03" y1="354.96" x2="433.35" y2="222.07" xlink:href="#49-03going_to_school-0345a"/><linearGradient id="49-03going_to_school-0345t" x1="379.07" y1="386.4" x2="389.4" y2="253.51" xlink:href="#49-03going_to_school-0345a"/><linearGradient id="49-03going_to_school-0345u" x1="397.39" y1="245.71" x2="457.3" y2="409.42" xlink:href="#49-03going_to_school-0345d"/><linearGradient id="49-03going_to_school-0345v" x1="388.61" y1="263.16" x2="471.76" y2="339.85" xlink:href="#49-03going_to_school-0345a"/><linearGradient id="49-03going_to_school-0345w" x1="387.86" y1="257.05" x2="415.06" y2="381.34" xlink:href="#49-03going_to_school-0345b"/><linearGradient id="49-03going_to_school-0345x" x1="411.49" y1="366.75" x2="423.84" y2="366.75" xlink:href="#49-03going_to_school-0345c"/><linearGradient id="49-03going_to_school-0345y" x1="434.11" y1="365.85" x2="392.02" y2="452.62" xlink:href="#49-03going_to_school-0345a"/><linearGradient id="49-03going_to_school-0345z" x1="380.28" y1="298.55" x2="391.06" y2="298.55" xlink:href="#49-03going_to_school-0345c"/><linearGradient id="49-03going_to_school-0345A" x1="431.61" y1="292.22" x2="439.07" y2="292.22" xlink:href="#49-03going_to_school-0345c"/><linearGradient id="49-03going_to_school-0345B" x1="96.68" y1="343.09" x2="237.67" y2="247.55" xlink:href="#49-03going_to_school-0345b"/><linearGradient id="49-03going_to_school-0345C" x1="408.54" y1="168.82" x2="490.65" y2="396.57" xlink:href="#49-03going_to_school-0345d"/><linearGradient id="49-03going_to_school-0345D" x1="444" y1="706.43" x2="4.96" y2="-148.54" xlink:href="#49-03going_to_school-0345b"/><linearGradient id="49-03going_to_school-0345E" x1="389.57" y1="345.85" x2="416.32" y2="350.73" xlink:href="#49-03going_to_school-0345b"/><linearGradient id="49-03going_to_school-0345F" x1="393.14" y1="372.94" x2="401.38" y2="372.94" xlink:href="#49-03going_to_school-0345c"/><linearGradient id="49-03going_to_school-0345G" x1="501.95" y1="470.68" x2="351.67" y2="334.34" xlink:href="#49-03going_to_school-0345b"/><linearGradient id="49-03going_to_school-0345H" x1="192.22" y1="265.84" x2="135.07" y2="333.84" xlink:href="#49-03going_to_school-0345b"/><linearGradient id="49-03going_to_school-0345I" x1="166.62" y1="267.49" x2="143.13" y2="369.75" xlink:href="#49-03going_to_school-0345b"/></defs><path d="M477.91 110.84c-1.61 30.24-8.54 60.26-7.45 90.51-29.68.78-59-.13-88.48 5.93-33.18 6.8-67.33 6.68-101.2 6.47q-137.43-.89-274.86-3.26a401.63 401.63 0 0114.09-48.67c12.45-35.22-5.72-77.67 15-109.57C70.9-3.12 158.76 8.25 213.5 11.67c30.75 1.94 61.81 3.87 92.21-1.11C325.29 7.35 369.59-.04 372.26 0c30.16.55 110.47 21.32 105.65 110.84z" fill="#4e7699" opacity=".18" style="isolation:isolate"/><path fill="#4e7699" d="M247.2 80.3v19.1h2.5v-7.8h14.5l-4.5-6 5.1-5.8-17.6.5z"/><path fill="url(#49-03going_to_school-0345a)" d="M247.2 80.2v19.1h2.5v-7.8h14.5l-4.5-6 5.1-5.8-17.6.5z"/><path d="M499.4 364c-6.5 6.6-14.9 11.4-23.6 15.3-37.7 16.4-81.3 13.9-122.2 7.8s-81.9-15.5-123.2-11.6c-24 2.2-47.5 8.9-71.4 10.1q-4.3.2-8.7.2c-14.4-.1-28.6-2.6-42.5-6.4-7.2-1.9-14.3-4.2-21.3-6.6-21.1-7.3-42.4-16.5-56.8-32.8-8.4-9.5-43.6-38.9-23.9-129.6q137.4 2.4 274.9 3.3c33.9.2 68 .3 101.2-6.5 29.5-6 58.8-5.1 88.5-5.9.1 2.4.2 4.8.4 7.2 1.4 17.1 5.9 25.7 14.9 39.9 8.4 13.2 17 26.5 22.7 41.1 9.7 24.6 10 55.1-9.2 74.5z" fill="#12A171"/><path d="M407.67 255.74c.43-1.65 1.08-3.24 1.53-4.89a3 3 0 00.05-1.94 2.85 2.85 0 00-1.14-1.17 13.88 13.88 0 00-9.59-2.19 5.91 5.91 0 00-2.49.85 5.13 5.13 0 00-1.92 3.08 21.58 21.58 0 00-.39 3.69 18.37 18.37 0 000 5 4.68 4.68 0 003 3.66 4.1 4.1 0 01.5.14c1 .39 1.11 1.73 1.94 2.33a2.74 2.74 0 001.54.41 6.33 6.33 0 006-3 4.47 4.47 0 00.42-2.13 17.4 17.4 0 01.55-3.84z" transform="translate(-3 -48.7)" fill="url(#49-03going_to_school-0345c)"/><path fill="url(#49-03going_to_school-0345b)" d="M196.1 233.2l-11.5 23.6-8.4-8.6L183 230l11.4 1.4 1.7 1.7z"/><path fill="#4e7699" d="M194.3 231.4L182.8 255l-8.4-8.6 6.8-18.2 13.2 3.2z"/><path fill="url(#49-03going_to_school-0345e)" d="M194.3 231.4L182.8 255l-8.4-8.6 6.8-18.2 13.2 3.2z"/><path d="M173.79 394.36c-1.25 3.93-2.44 7.86-3.58 11.82q-3.39 11.74-6.17 23.67a10.53 10.53 0 01-1.36 3.68 4.82 4.82 0 01-.65.77q-4.32.22-8.67.19c-14.41-.13-28.61-2.65-42.48-6.38l.12-.11a30.46 30.46 0 014.88-5.52c6-5.75 18.12-9.24 24.32-14.79a36.4 36.4 0 018.25-6.06c5.15-2.47 5.1-4.57 10.81-4.47a3.26 3.26 0 011.88.41c1.21.87.73 2.75.11 4.12q-1.44 3.21-2.9 6.43a6.57 6.57 0 004.74-2.42 18.92 18.92 0 002.78-4.69l3.66-7.79a12.24 12.24 0 012.62-4.05c4.72-4.32 2.26 3.26 1.64 5.19z" transform="translate(-3 -48.7)" fill="url(#49-03going_to_school-0345f)"/><path d="M175.13 369.22c-.8 2.62-1.83 5.17-2.47 7.83a15.19 15.19 0 000 8.11 3.1 3.1 0 01.24 2.06 1.67 1.67 0 01-1.52 1 2.84 2.84 0 01-1.78-.65 6.48 6.48 0 01-2.26-4.76 33.94 33.94 0 01.33-5.42c.42-4.88-.39-9.77-.4-14.66 0-1.81.09-3.62.2-5.42q.39-6.14.92-12.25a27.63 27.63 0 010-3.41c.23-.45 1.45-.14 1.88-.39 1.82-1.09 3.54.09 5.64.44 2.26.38 1.88 2.1 1.87 4a113.57 113.57 0 01-.88 15.2 55 55 0 01-1.77 8.32z" transform="translate(-3 -48.7)" fill="url(#49-03going_to_school-0345g)"/><path d="M157.67 351c-.27 2.19-.71 4.35-.93 6.54-.65 6.39.54 12.8 1 19.2a3.15 3.15 0 00.61 2 1.94 1.94 0 001.07.53 3.74 3.74 0 003.63-1.92 9.9 9.9 0 001.12-4.19c.4-3.83.5-7.68.59-11.53a9.06 9.06 0 00-.15-2.38c-.17-.67-.5-1.29-.65-2-.42-1.95.7-3.85 1.54-5.66a21.87 21.87 0 001.87-6.92c.24-2.48.56-4.91-2.32-5.56-3.41-.78-6 .71-6.72 4.13-.52 2.52-.33 5.2-.66 7.76z" transform="translate(-3 -48.7)" fill="url(#49-03going_to_school-0345h)"/><path d="M187.78 276.43c1.92 2.3 2.53 5.39 3 8.34q1.08 6.53 1.8 13.1c.19 1.76.32 3.71-.72 5.14a2.07 2.07 0 01-1 .81 2.6 2.6 0 01-2.46-.95c-3-2.89-3.9-7.22-5.26-11.14-1-2.8-2.24-5.51-3-8.37-.57-2.09-1.7-7.11.13-8.86 2.02-1.95 6.12.25 7.51 1.93z" transform="translate(-3 -48.7)" fill="url(#49-03going_to_school-0345i)"/><path fill="#4e7699" d="M143.4 141.1h211.4v72.5H143.4z"/><path fill="url(#49-03going_to_school-0345j)" d="M143.4 141.1h211.4v72.5H143.4z"/><path fill="#4e7699" d="M146.1 118.7l-13.3 24.5h231.8l-14.5-23.6-203.9-.9z"/><path fill="url(#49-03going_to_school-0345d)" d="M146.1 118.7l-13.3 24.5h231.8l-14.5-23.6-203.9-.9z"/><path fill="#4e7699" d="M279.1 213.8h-61.6v-81.9l31.1-29.1 30.5 29.1v81.9z"/><path fill="url(#49-03going_to_school-0345k)" d="M279.1 213.8h-61.6v-81.9l31.1-29.1 30.5 29.1v81.9z"/><path fill="#4e7699" d="M210.3 133.2l2.7 3.2 35.6-33.5 34.7 33.3 3.2-2.7-38.1-38.3-38.1 38.1z"/><path fill="#fff" d="M231.7 167h32.6v46.8h-32.6z"/><path fill="#4e7699" d="M234.2 150.6h28.9v9.6h-28.9z"/><circle cx="248.7" cy="129.7" r="11.3" fill="#4e7699"/><path fill="#4e7699" d="M152 149.9h24v6.9h-24zm31.7 0h24v6.9h-24zm106.5 0h24v6.9h-24zm31.7 0h24v6.9h-24zm-169.7 10.4h23.3v14.5h-23.3z"/><path fill="#4e7699" d="M159.4 160.5h9.1v14.9h-9.1zm24.7-.1h23.3v14.5h-23.3z"/><path fill="#4e7699" d="M191.2 160.5h9.1v14.9h-9.1zm-7.1 23.9h23.3v14.5h-23.3z"/><path fill="#4e7699" d="M191.2 184.5h9.1v14.9h-9.1zm-39.3-.1h23.3v14.5h-23.3z"/><path fill="#4e7699" d="M159 184.5h9.1v14.9H159zm163.8-.1h23.3v14.5h-23.3z"/><path fill="#4e7699" d="M329.9 184.5h9.1v14.9h-9.1zm-39.3-.1h23.3v14.5h-23.3z"/><path fill="#4e7699" d="M297.7 184.5h9.1v14.9h-9.1zm25.1-24.6h23.3v14.5h-23.3z"/><path fill="#4e7699" d="M329.9 160h9.1v14.9h-9.1zm-39.3-.1h23.3v14.5h-23.3z"/><path fill="#4e7699" d="M297.7 160h9.1v14.9h-9.1z"/><path d="M181.54 266c-.3.92-.82 1.94-1.77 2.11a3.86 3.86 0 01-1.78-.35 1.67 1.67 0 00-1.72.22 5.32 5.32 0 00-.51.94c-.5.81-2.2 4-3.15 3.93a5.75 5.75 0 01-2.38-.65 2.83 2.83 0 01-1.44-1.92c-.14-.85.79-4.79 1-5.62a19.89 19.89 0 01.75-2.64 8.1 8.1 0 011.76-2.32c1.88-1.86 4.24-3.54 6.89-3.54a3 3 0 011.5.33 3.35 3.35 0 011.07 1.08 7.17 7.17 0 011 1.74 4.64 4.64 0 01-.17 1.95 32.28 32.28 0 01-1.05 4.74z" transform="translate(-3 -48.7)" fill="url(#49-03going_to_school-0345l)"/><path d="M161.18 221.07a30.92 30.92 0 0119.73 3.43 2.57 2.57 0 011 .84 2.42 2.42 0 01.28 1.09c.29 3.52-1 6.94-1.77 10.4a62.41 62.41 0 00-1 8.95l-.88 13.08a8.71 8.71 0 01-1.24 4.7c-1.14 1.53-3.16 2.13-5.06 2.32a23.7 23.7 0 01-9.58-1.22 14.36 14.36 0 01-5.69-3.06 11.77 11.77 0 01-3.23-8 29.79 29.79 0 011.21-8.68c1.33-5.31 3-10.62 3.05-16.09.01-3.13-.73-7.13 3.18-7.76z" fill="#4e7699"/><path d="M164.17 269.75a30.92 30.92 0 0119.73 3.43 2.57 2.57 0 011 .84 2.42 2.42 0 01.28 1.09c.29 3.52-1 6.94-1.77 10.4a62.41 62.41 0 00-1 8.95l-.88 13.08a8.71 8.71 0 01-1.24 4.7c-1.14 1.53-3.16 2.13-5.06 2.32a23.7 23.7 0 01-9.58-1.22 14.36 14.36 0 01-5.69-3.06 11.77 11.77 0 01-3.23-8 29.79 29.79 0 011.21-8.68c1.33-5.31 3-10.62 3.05-16.09.01-3.13-.73-7.13 3.18-7.76z" transform="translate(-3 -48.7)" fill="url(#49-03going_to_school-0345m)"/><path d="M154.6 276.89c-1.28 1.22-2.39 2.6-3.65 3.84-1.81 1.77-3.9 3.22-5.8 4.89a14.84 14.84 0 00-4.49 6c-.51 1.46-.59 3.26.48 4.39s2.78 1.16 4.3 1.09a7.75 7.75 0 002.72-.48 7.58 7.58 0 001.71-1.16A112.26 112.26 0 00161 285a9.23 9.23 0 001.84-2.51 8.16 8.16 0 00.54-3.47c0-1.43-.07-7.4-2.2-7.44-1 0-2.38 1.78-3.12 2.38-1.17.97-2.37 1.88-3.46 2.93z" transform="translate(-3 -48.7)" fill="url(#49-03going_to_school-0345n)"/><path d="M178.22 270.19a71.4 71.4 0 011 26.06c-2.46-2.57-6.41-3-10-2.68s-7.08 1.28-10.61.87c-3.29-.39-6.51-1.95-9.77-1.37-.92.17-1.81.5-2.74.65-2.88.47-5.72-.85-8.35-2.14-.39-.19-.84-.45-.9-.89a1.27 1.27 0 01.25-.81 19.06 19.06 0 015.73-6.22 12.07 12.07 0 002.72-2.14 9.65 9.65 0 001.19-2.1 34.68 34.68 0 001.87-4.77c.71-2.59.79-5.31 1.37-7.92s1.83-5.28 4.15-6.62 5-1.1 7.46-.55c4.16.92 8.09 2.66 12.2 3.75 3.63.94 3.67 3.49 4.43 6.88z" fill="#4e7699"/><path d="M181.21 318.87a71.4 71.4 0 011 26.06c-2.46-2.57-6.41-3-10-2.68s-7.08 1.28-10.61.87c-3.29-.39-6.51-1.95-9.77-1.37-.92.17-1.81.5-2.74.65-2.88.47-5.72-.85-8.35-2.14-.39-.19-.84-.45-.9-.89a1.27 1.27 0 01.25-.81 19.06 19.06 0 015.73-6.22 12.07 12.07 0 002.72-2.14 9.65 9.65 0 001.19-2.1 34.68 34.68 0 001.87-4.77c.71-2.59.79-5.31 1.37-7.92s1.83-5.28 4.15-6.62 5-1.1 7.46-.55c4.16.92 8.09 2.66 12.2 3.75 3.63.94 3.67 3.49 4.43 6.88z" transform="translate(-3 -48.7)" fill="url(#49-03going_to_school-0345o)"/><path d="M155.67 326.51a3.39 3.39 0 014.44.72 7.53 7.53 0 011.53 4.63 16.35 16.35 0 00.37 3.46 11 11 0 002.65 4.3c1 1.15 2.15 2.48 1.94 4s-1.74 2.53-3.25 2.82a6.9 6.9 0 01-6.53-2.35c-2.12-2.6-2-6.11-1.72-9.25.17-2.52-1.86-6.4.57-8.33z" fill="#3f3d56"/><path d="M159.63 383.73a4.63 4.63 0 01.38-2.48 1.86 1.86 0 012.11-1 2.22 2.22 0 011.23 2.12 22.8 22.8 0 00-.06 2.61 6.42 6.42 0 002.31 3.52 8 8 0 012 2.37 2.47 2.47 0 01-.42 2.86 2.33 2.33 0 01-1.9.41 4.93 4.93 0 01-1.81-.85 8.14 8.14 0 01-3.24-4.12 8.32 8.32 0 01-.21-2.22c-.02-1.08-.33-2.14-.39-3.22z" transform="translate(-3 -48.7)" fill="url(#49-03going_to_school-0345p)"/><path d="M170.54 341.38a4.29 4.29 0 01-2.53-.06 10.74 10.74 0 01-2.13-1.1 3.13 3.13 0 01-1.09-1.24 3.64 3.64 0 01-.65-2.54c0-.61-.14-2.35.6-2.63s2.2 1.38 2.73 1.8 1.16.77 1.62.37.12-1.23.27-1.87a9.34 9.34 0 013.37.22 2.41 2.41 0 011.13.53 1.75 1.75 0 01.46 1 4.73 4.73 0 01-1.19 3.34 5.63 5.63 0 01-2.35 2.14z" fill="#3f3d56"/><path d="M169.71 204.22a2.26 2.26 0 011 2.25 1 1 0 01-.25.53.83.83 0 01-1.06-.07 3.46 3.46 0 01-.66-.94c-.24-.41-1.48-1.49-1.29-1.82.35-.61 1.83-.23 2.26.05z" fill="none" stroke="#3cb6d5" stroke-miterlimit="10" stroke-width="1.51"/><path d="M164.74 200.32a9.07 9.07 0 012.59-2 6.73 6.73 0 011.48-.65 6 6 0 011.84-.15 10.57 10.57 0 016.13 2.37 10.2 10.2 0 013.47 5.57 7.07 7.07 0 01.2 1.94 6.66 6.66 0 01-1.75 4 12.87 12.87 0 00-1 1.13 10.63 10.63 0 00-.91 2.24 4.62 4.62 0 01-1.13 1.86 2.45 2.45 0 01-2 .73 1.28 1.28 0 00-.55 0 1.64 1.64 0 00-.49.35 2.23 2.23 0 01-1.91.35 7.93 7.93 0 01-1.85-.79 1.19 1.19 0 00-.51-.17c-.44 0-.75.46-1.17.59a1.38 1.38 0 01-1.21-.35 6 6 0 00-1-.79 2.37 2.37 0 01-.64-.31 1.22 1.22 0 01-.3-.5c-1-2.6.13-5.6-.7-8.25a5.13 5.13 0 01-.47-2c.06-.61.38-1.18.49-1.78a6.53 6.53 0 011.39-3.39z" fill="#3f3d56"/><path d="M167.73 249a9.07 9.07 0 012.59-2 6.73 6.73 0 011.48-.65 6 6 0 011.84-.15 10.57 10.57 0 016.13 2.37 10.2 10.2 0 013.47 5.57 7.07 7.07 0 01.2 1.94 6.66 6.66 0 01-1.75 4 12.87 12.87 0 00-1 1.13 10.63 10.63 0 00-.91 2.24 4.62 4.62 0 01-1.13 1.86 2.45 2.45 0 01-2 .73 1.28 1.28 0 00-.55 0 1.64 1.64 0 00-.49.35 2.23 2.23 0 01-1.91.35 7.93 7.93 0 01-1.85-.79 1.19 1.19 0 00-.51-.17c-.44 0-.75.46-1.17.59a1.38 1.38 0 01-1.21-.35 6 6 0 00-1-.79 2.37 2.37 0 01-.64-.31 1.22 1.22 0 01-.3-.5c-1-2.6.13-5.6-.7-8.25a5.13 5.13 0 01-.47-2c.06-.61.38-1.18.49-1.78a6.53 6.53 0 011.39-3.39z" transform="translate(-3 -48.7)" fill="url(#49-03going_to_school-0345q)"/><path d="M384.86 222.7l3-2.8a19.53 19.53 0 015.61-4.06 16.62 16.62 0 016.69-.9c3.31.08 6.6.46 9.89.84 4.27.49 8.17 2.57 11.83 4.83a225.79 225.79 0 00-.5 29.77c.43 8.5 1.34 17 .82 25.51a2.29 2.29 0 01-2.91 2.51c-5.25 0-10.47-1-15.72-1a39.16 39.16 0 00-14.51 2.78 1.33 1.33 0 01-.93.13 1.35 1.35 0 01-.62-.65 19.92 19.92 0 01-2.45-5.5 19.58 19.58 0 010-6.3l.46-4.36a15.54 15.54 0 01.63-3.45 36.57 36.57 0 012-4 24 24 0 002-9 117.69 117.69 0 00.17-15.14c-.13-2.32-.38-4.78-1.82-6.59a9.2 9.2 0 00-3.64-2.62z" fill="#4e7699"/><path d="M434.27 236.22a1.28 1.28 0 01.12.69 1.22 1.22 0 01-.58.65 38.33 38.33 0 01-6.23 3.4 2.69 2.69 0 01-1.91.29 2.79 2.79 0 01-1.1-.95c-1.7-2.07-3.39-4.15-5.09-6.23a8.15 8.15 0 01-1.27-1.91 7.34 7.34 0 01-.42-2c-.22-2.1-1.1-6.7.69-8.32s4.72.79 6.24 1.94a29.63 29.63 0 019.55 12.44zm-50.67-12.27a20.87 20.87 0 00-3 5.17c-.95 2.13-1.85 4.29-2.68 6.47-.94 2.48-1.82 5.11-1.43 7.73 1.25-.1 2.12-1.24 2.88-2.24s1.82-2.05 3.06-1.85 1.87 1.43 2.28 2.55c.23.62.7 1.39 1.32 1.18a1.27 1.27 0 00.6-.59l3.06-4.88a10.32 10.32 0 001.41-2.84c.77-2.93-1-5.82-2-8.7-.31-.95-.36-4.48-1.23-4.8-1.17-.44-3.61 2.02-4.27 2.8z" fill="#4e7699"/><path d="M387.85 271.38l3-2.8a19.53 19.53 0 015.61-4.06 16.62 16.62 0 016.69-.9c3.31.08 6.6.46 9.89.84 4.27.49 8.17 2.57 11.83 4.83a225.79 225.79 0 00-.5 29.77c.43 8.5 1.34 17 .82 25.51a2.29 2.29 0 01-2.91 2.51c-5.25 0-10.47-1-15.72-1a39.16 39.16 0 00-14.51 2.78 1.33 1.33 0 01-.93.13 1.35 1.35 0 01-.62-.65 19.92 19.92 0 01-2.45-5.5 19.58 19.58 0 010-6.3l.46-4.36a15.54 15.54 0 01.63-3.45 36.57 36.57 0 012-4 24 24 0 002-9 117.69 117.69 0 00.17-15.14c-.13-2.32-.38-4.78-1.82-6.59a9.2 9.2 0 00-3.64-2.62z" transform="translate(-3 -48.7)" fill="url(#49-03going_to_school-0345r)"/><path d="M437.26 284.9a1.28 1.28 0 01.12.69 1.22 1.22 0 01-.58.65 38.33 38.33 0 01-6.23 3.4 2.69 2.69 0 01-1.91.29 2.79 2.79 0 01-1.1-.95c-1.7-2.07-3.39-4.15-5.09-6.23a8.15 8.15 0 01-1.27-1.91 7.34 7.34 0 01-.42-2c-.22-2.1-1.1-6.7.69-8.32s4.72.79 6.24 1.94a29.63 29.63 0 019.55 12.44z" transform="translate(-3 -48.7)" fill="url(#49-03going_to_school-0345s)"/><path d="M386.59 272.63a20.87 20.87 0 00-3 5.17c-.95 2.13-1.85 4.29-2.68 6.47-.94 2.48-1.82 5.11-1.43 7.73 1.25-.1 2.12-1.24 2.88-2.24s1.82-2.05 3.06-1.85 1.87 1.43 2.28 2.55c.23.62.7 1.39 1.32 1.18a1.27 1.27 0 00.6-.59l3.06-4.88a10.32 10.32 0 001.41-2.84c.77-2.93-1-5.82-2-8.7-.31-.95-.36-4.48-1.23-4.8-1.17-.44-3.61 2.02-4.27 2.8z" transform="translate(-3 -48.7)" fill="url(#49-03going_to_school-0345t)"/><path d="M394.82 217.46c.37 1.28-.6 2.51-1.22 3.68a13.24 13.24 0 00-1.14 3.31 51 51 0 001.28 27.87 20 20 0 003.35 6.55 12.52 12.52 0 009.45 4.41 38.12 38.12 0 004.26-.4 35.76 35.76 0 019.07.13c1.5.22 3.12.51 4.48-.17a6.69 6.69 0 001.87-1.61c1.55-1.71 3.11-3.54 3.61-5.79a13.55 13.55 0 00.05-4.17q-.8-8.49-2.09-16.92a41 41 0 00-2.38-9.68 15.19 15.19 0 00-6.26-7.56c-2-1.14-4.37-1.67-6.18-3.09a8.82 8.82 0 00-1.94-1.41 1.71 1.71 0 00-2.14.5 6.36 6.36 0 00-9.55 1.36 31.66 31.66 0 00-4-.39c-1.17.13-3 .44-3.8 1.32 1.21.41 2.85.57 3.28 2.06z" fill="#4e7699"/><path d="M397.81 266.14c.37 1.28-.6 2.51-1.22 3.68a13.24 13.24 0 00-1.14 3.31 51 51 0 001.28 27.87 20 20 0 003.35 6.55 12.52 12.52 0 009.45 4.41 38.12 38.12 0 004.26-.4 35.76 35.76 0 019.07.13c1.5.22 3.12.51 4.48-.17a6.69 6.69 0 001.87-1.61c1.55-1.71 3.11-3.54 3.61-5.79a13.55 13.55 0 00.05-4.17q-.8-8.49-2.09-16.92a41 41 0 00-2.38-9.68 15.19 15.19 0 00-6.26-7.56c-2-1.14-4.37-1.67-6.18-3.09a8.82 8.82 0 00-1.94-1.41 1.71 1.71 0 00-2.14.5 6.36 6.36 0 00-9.55 1.36 31.66 31.66 0 00-4-.39c-1.17.13-3 .44-3.8 1.32 1.21.41 2.85.57 3.28 2.06z" transform="translate(-3 -48.7)" fill="url(#49-03going_to_school-0345u)"/><path d="M398.16 236.24c-.27-3.9 0-8.18 2.6-11.15a11.59 11.59 0 017.34-3.62 28.44 28.44 0 018.33.44 8.07 8.07 0 014.58 1.83 8.28 8.28 0 011.8 4q2.28 9.36 4.12 18.82a7.41 7.41 0 010 4.35c-.75 1.75-2.68 2.63-4.44 3.36-5.68 2.36-13.36 4.68-18.77.2-4.43-3.6-5.2-13.02-5.56-18.23z" fill="#4e7699"/><path d="M401.15 284.92c-.27-3.9 0-8.18 2.6-11.15a11.59 11.59 0 017.34-3.62 28.44 28.44 0 018.33.44 8.07 8.07 0 014.58 1.83 8.28 8.28 0 011.8 4q2.28 9.36 4.12 18.82a7.41 7.41 0 010 4.35c-.75 1.75-2.68 2.63-4.44 3.36-5.68 2.36-13.36 4.68-18.77.2-4.43-3.6-5.2-13.02-5.56-18.23z" transform="translate(-3 -48.7)" fill="url(#49-03going_to_school-0345v)"/><path d="M386.66 302.06c-.33 1.92-.85 4-.06 5.73 1 2.28 3.74 3.17 6.2 3.57a38.25 38.25 0 008.21.44 2 2 0 001.11-.28 2.12 2.12 0 00.62-1.63l.33-4.43-.07 1.19a13.48 13.48 0 0118.25-2.45c-.42-4.22-.84-8.49-.21-12.68a37.39 37.39 0 00.72-5.14 17.22 17.22 0 00-1.66-6.8 2.91 2.91 0 00-.85-1.27 3 3 0 00-1.2-.42 67.86 67.86 0 00-15.19-1.09c-3.82.15-9.8 0-13.08 2.22-2.41 1.66-2.38 4.75-2.5 7.39-.27 5.21.28 10.49-.62 15.65z" fill="#4e7699"/><path d="M389.65 350.74c-.33 1.92-.85 4-.06 5.73 1 2.28 3.74 3.17 6.2 3.57a38.25 38.25 0 008.21.44 2 2 0 001.11-.28 2.12 2.12 0 00.62-1.63l.33-4.43c0 .4 2.07 3.68 2.05 4.08 4.12-5.44 10.72-9.5 16.13-5.34-.42-4.22-.84-8.49-.21-12.68a37.39 37.39 0 00.72-5.14 17.22 17.22 0 00-1.66-6.8 2.91 2.91 0 00-.85-1.27 3 3 0 00-1.2-.42 67.86 67.86 0 00-15.19-1.09c-3.82.15-9.8 0-13.08 2.22-2.41 1.66-2.38 4.75-2.5 7.39-.27 5.21.28 10.49-.62 15.65z" transform="translate(-3 -48.7)" fill="url(#49-03going_to_school-0345w)"/><path d="M405.41 309.32a.31.31 0 00-.07.21c0 .12.18.16.31.18 4 .44 8-1.22 11.67-2.92l3-1.41c.46-.22 1-.56.95-1.07a1.12 1.12 0 00-.25-.54 5.49 5.49 0 00-3.12-2 10.74 10.74 0 00-3.75-.18 6.9 6.9 0 00-4.8 2.22 47.61 47.61 0 00-3.94 5.51z" fill="#3f3d56"/><path d="M416.37 377.66c.05 1.7-.09 3.41 0 5.1a.75.75 0 001 .87 11.67 11.67 0 005.24-2.52 3 3 0 001.14-1.24 3.18 3.18 0 00.05-1.41c-.22-1.67-.44-3.35-.5-5-.05-1.4 0-2.8.08-4.2l.36-7.79c.15-3.3.25-6.83-1.5-9.62a4.1 4.1 0 00-1.69-1.64 5.22 5.22 0 00-2.36-.3 7.79 7.79 0 00-4.58 1.24c-3.68 2.87-1.64 8.13-.64 11.75 1.34 4.83 3.24 9.65 3.4 14.76z" transform="translate(-3 -48.7)" fill="url(#49-03going_to_school-0345x)"/><path d="M413.75 330.75c-.78 4.17 1.86 8.39 1.17 12.56-.19 1.14-.63 2.23-.73 3.38a4.91 4.91 0 00.94 3.45 3.63 3.63 0 003.19 1.42 4.67 4.67 0 001.75-.63c4.06-2.26 6-7.38 5.35-12a29.94 29.94 0 00-.92-3.85q-.94-3.22-1.87-6.45c-.4-1.39-.69-3.5-2.27-4.07-3.04-1.1-6.16 3.76-6.61 6.19z" fill="#3f3d56"/><path d="M420.87 389.66a14.27 14.27 0 01-1.57 3.12 8.17 8.17 0 00-.95 4.38 2.69 2.69 0 001.78 2.64 3.38 3.38 0 002.51-.51 8 8 0 001.84-1.72 13.23 13.23 0 003-5 9.31 9.31 0 00.21-2.73 23.06 23.06 0 00-.89-5.48c-.45-1.51-.91-3.57-2.19-4.71-1.11-1-2.56-.66-3.65.41a4.29 4.29 0 00-1.13 4.39c.45 1.72 1.48 3.38 1.04 5.21z" transform="translate(-3 -48.7)" fill="url(#49-03going_to_school-0345y)"/><path d="M381.67 300.5a17.87 17.87 0 002 2.67l4.74 5.58c1.37-1.14 2.89-2.62 2.62-4.39a5.72 5.72 0 00-.68-1.71 22.24 22.24 0 01-1.74-4.76 7.87 7.87 0 01-.18-3.7 7.84 7.84 0 00.41-1.77c0-1.19-.9-2.16-1.76-3a3.18 3.18 0 00-1.79-1.08 2.78 2.78 0 00-1.5.43c-1.81 1-3.35 2.45-3.47 4.56a12.75 12.75 0 001.35 7.17z" transform="translate(-3 -48.7)" fill="url(#49-03going_to_school-0345z)"/><path d="M439.06 291.53c-.05 1.58-1.27 2.84-2.46 3.89a14.18 14.18 0 01-3.71 2.55 9.35 9.35 0 01-.81-3.55l-.46-5.05a1 1 0 010-.46.92.92 0 01.33-.35c1-.72 3.5-2.73 4.84-1.9.6.37 1 1.54 1.36 2.14a5.25 5.25 0 01.91 2.73z" transform="translate(-3 -48.7)" fill="url(#49-03going_to_school-0345A)"/><path d="M172.57 234.23c-.59 4.4.42 8.83 1.24 13.19 1.07 5.63 1.83 11.48.49 17s-5.16 10.86-10.66 12.46a20.25 20.25 0 01-9.48 0 17.31 17.31 0 01-7.42-2.86c-4.48-3.43-5.39-10-3.92-15.47s4.83-10.16 7.64-15.06 5.19-10.45 4.38-16a14.61 14.61 0 01-.32-3 5 5 0 016.9-3.86l2.11 5.16a1.51 1.51 0 002.45.93c2.42-1.12 4.53-2.83 7-3.83a7.24 7.24 0 016.31 0c-.75 3.86-6.04 6.26-6.72 11.34z" fill="#4e7699"/><path d="M175.56 282.91c-.59 4.4.42 8.83 1.24 13.19 1.07 5.63 1.83 11.48.49 17s-5.16 10.86-10.66 12.46a20.25 20.25 0 01-9.48 0 17.31 17.31 0 01-7.42-2.86c-4.48-3.43-5.39-10-3.92-15.47s4.83-10.16 7.64-15.06 5.19-10.45 4.38-16a14.61 14.61 0 01-.32-3 5 5 0 016.9-3.86l2.11 5.16a1.51 1.51 0 002.45.93c2.42-1.12 4.53-2.83 7-3.83a7.24 7.24 0 016.31 0c-.75 3.86-6.04 6.26-6.72 11.34z" transform="translate(-3 -48.7)" fill="url(#49-03going_to_school-0345B)"/><path d="M70.01 110.72c-.43 5.24 2.12 10.22 4.6 14.87-8.19.91-14.41 10-12.25 18 .34 1.26.84 2.67.2 3.8a4.48 4.48 0 01-2.12 1.59c-7.77 3.79-14.49 10.21-17.37 18.36s-1.4 18 4.71 24.12c5.26 5.27 13.06 7.19 20.5 7.43s14.87-.95 22.32-.86c5.27.06 10.64.76 15.76-.49s10.12-5.12 10.59-10.38c.58-6.47-5.48-11.38-10.93-14.94a16.06 16.06 0 003.69-20.29c-3.09-5.1-8.76-7.94-14.13-10.53 4.08-1.9 5.5-7.47 3.76-11.62s-5.84-6.91-10.14-8.25c2.61-1.45 5.33-3 6.91-5.54s1.53-6.36-.91-8.08c-1.35-1-3.25-1.16-4.22-2.5a10.44 10.44 0 01-1-2.57c-3.62-9.27-19.41 1.01-19.97 7.88zm329.22 40.26c-4.75 5.31-5.06 14.41.11 19.31-2.64 2.62-5.43 5.59-5.72 9.3-.49 6.38 7.13 10.92 13.43 9.81s11.23-5.86 15.7-10.44a19.64 19.64 0 0020.11 5.82 10.19 10.19 0 005.43-3.48c2.24-3.11 1.42-7.64-.88-10.71s-5.76-5-9.11-6.89c5.17-2.14 9.4-7.14 9.41-12.73s-5.16-11-10.7-10.21c5.73-3.93 6.76-12.77 3-18.58s-11.37-8.49-18.25-7.57c-7.94 1.06-15.76 8.34-13.92 16.14-4.21-2.81-10.64-1.71-13.42 2.51s-1 10.81 3.65 12.8c5.49 2.35 5.04.57 1.16 4.92z" fill="#4e7699"/><path d="M402.22 199.66c-4.75 5.31-5.06 14.41.11 19.31-2.64 2.62-5.43 5.59-5.72 9.3-.49 6.38 7.13 10.92 13.43 9.81s11.23-5.86 15.7-10.44a19.64 19.64 0 0020.11 5.82 10.19 10.19 0 005.43-3.48c2.24-3.11 1.42-7.64-.88-10.71s-5.76-5-9.11-6.89c5.17-2.14 9.4-7.14 9.41-12.73s-5.16-11-10.7-10.21c5.73-3.93 6.76-12.77 3-18.58s-11.37-8.49-18.25-7.57c-7.94 1.06-15.76 8.34-13.92 16.14-4.21-2.81-10.64-1.71-13.42 2.51s-1 10.81 3.65 12.8c5.49 2.35 5.04.57 1.16 4.92z" transform="translate(-3 -48.7)" fill="url(#49-03going_to_school-0345C)"/><path d="M414.5 171.72c-2.32-3.66-5.56-6.64-8.75-9.58l8.77 6a2.7 2.7 0 001.61.64c1.75-.09 1.62-2.73.92-4.34l-8.57-19.49a39.51 39.51 0 0111.44 18.33 41.5 41.5 0 005.73-8.67c1.15 4.49-2.5 8.72-3.29 13.29a20.73 20.73 0 00.24 6.57 143.44 143.44 0 007.29 28.09c-9.1.49-10.59-.32-10.58-9.43.01-7.39-.78-15.04-4.81-21.41zm-165.21 58.7c-.1 3.46-1.68 6.69-3.47 9.64-9.69 15.95-26.55 27.46-32.66 45.1-5.21 15-1.46 31.81 5.18 46.27s10.25 29.27 17.14 43.61c29.82-.46 97.61 6.33 126.89 12-15.11-9.86-85-68-94.55-100.77-4.22-14.49 9.27-21.86 7-36.79a47.23 47.23 0 00-16.45-28.63c-2.37-2-10.07-8.88-13.36-5.94-3.45 3.1 4.4 10.89 4.28 15.51z" fill="#4e7699"/><path d="M252.28 279.1c-.1 3.46-1.68 6.69-3.47 9.64-9.69 15.95-26.55 27.46-32.66 45.1-5.21 15-1.46 31.81 5.18 46.27s10.25 29.27 17.14 43.61c29.82-.46 97.61 6.33 126.89 12-15.11-9.86-85-68-94.55-100.77-4.22-14.49 9.27-21.86 7-36.79a47.23 47.23 0 00-16.45-28.63c-2.37-2-10.07-8.88-13.36-5.94-3.45 3.1 4.4 10.89 4.28 15.51z" transform="translate(-3 -48.7)" fill="url(#49-03going_to_school-0345D)"/><path d="M392.92 24.15a23.45 23.45 0 00-10 16.13 5.79 5.79 0 01-1 3.08c-1.43 1.61-4 .87-6.09.32-10.2-2.69-21.93 4-24.85 14.09-10.48.49-22.8 2-27.84 11.25a8.22 8.22 0 00-1.18 5c.65 4.66 6.39 6.43 11.08 6.94 10.79 1.18 21.67 1.09 32.52 1 34.52-.28 69.07-.56 103.48-3.22 1.53-.12 3.32-.39 4.06-1.74a4.46 4.46 0 00.27-2.71c-1.62-13.86-9.6-26.18-18.79-36.68-7.21-8.24-17-16.28-27.81-14.7-6.88 1-9.62 1.51-15.8-.79a20.07 20.07 0 00-18.05 2.03zM116.48 58.78a15.54 15.54 0 005 2.44c4.49.88 8.45-2.74 12.53-4.83 10.86-5.56 24-.26 34.61 5.69a21.23 21.23 0 006.24 2.68c2.5.48 5.08 0 7.61-.2 9.83-.84 19.55 2 29 4.88 1.61.48 3.36 1.07 4.25 2.51 1 1.66.47 3.88-.55 5.55-4.08 6.6-13.27 7.23-21 7.11L54.82 82.52c-2.69 0-5.45-.1-7.93-1.16a10.35 10.35 0 119.33-18.43c9.52-20 44.79-13.84 60.26-4.15z" fill="#fff"/><path d="M160.45 204.22c-2.44.76-4.29 2.75-5.8 4.81a12.51 12.51 0 00-1.43 2.31c-1.19 2.63-1 6-3.21 7.89a5 5 0 003.22-1.36 16.25 16.25 0 01-5.12 4 1.8 1.8 0 001.69 1 5.15 5.15 0 002-.52 11.57 11.57 0 007.93-7.55 17.08 17.08 0 00-1.13 2.85 1.07 1.07 0 000 1c.37.45 1.1 0 1.49-.4 2-2.24 3.35-5.1 5.73-6.94 1-.8 2.38-1.56 2.55-2.87.5-3.85-5.36-5.03-7.92-4.22z" fill="#3f3d56"/><path d="M404.08 338.07c-.07-.69-.3-1.55-1-1.67a27.46 27.46 0 00-1.48 5.36l-1.06 5.24a27.64 27.64 0 00-.79 6.45 8.37 8.37 0 001.51 4.82c.68.88 2.75 3.14 3.94 1.7.65-.79.8-4.86.86-5.82.12-1.96-1.61-12.67-1.98-16.08z" transform="translate(-3 -48.7)" fill="url(#49-03going_to_school-0345E)"/><path d="M390.26 306.77a24.88 24.88 0 013.25-.9 6.76 6.76 0 013.19.87l3.33 1.52a3.48 3.48 0 011.21.77 1.2 1.2 0 01.23 1.33 1.69 1.69 0 01-1.33.63 17.29 17.29 0 01-5.87-.27 33 33 0 01-4.33-1.38c-.7-.26-2.52-.8-2.39-1.79s1.99-.64 2.71-.78z" fill="#3f3d56"/><path d="M393.14 389.64a1.47 1.47 0 00.14.78 1.32 1.32 0 00.78.51c1.64.55 3.73.33 4.72-1.09.8-1.14.67-2.66.58-4-.44-7.17 1.33-14.27 1.91-21.43a16.13 16.13 0 00-.42-6.27c-.57-1.76-2-3.51-3.86-3.41-3.43.19-3.54 3.22-3.56 5.79l-.1 9.84q-.09 9.64-.19 19.28z" transform="translate(-3 -48.7)" fill="url(#49-03going_to_school-0345F)"/><path d="M389.78 347.58l.81 2.94a1.17 1.17 0 00.25.54 1.2 1.2 0 00.89.24 21.66 21.66 0 006.53-1.15 1.07 1.07 0 00.47-.25 1.1 1.1 0 00.22-.67 40.94 40.94 0 00.07-7.09 4.18 4.18 0 00-.91-2.7 1 1 0 00-.47-.3 1.36 1.36 0 00-1 .39 6.71 6.71 0 01-3.59 1.23 5.42 5.42 0 01-2-.21c-.35-.12-.91-.68-1.26-.69-2.32-.03-.35 6.51-.01 7.72z" fill="#3f3d56"/><path d="M434.57 435.47c1.67 1.16 3.47 2.34 5.5 2.43 2.92.13 5.39-2 8.11-3.09 3.11-1.24 6.57-1.09 9.89-1.49 8.44-1 16-5.63 23.18-10.13-9.86-9-24.51-9.63-37.07-14.18-2.91-1.05-5.73-2.33-8.58-3.52a152.8 152.8 0 00-16.21-5.72c-1.18.78-.46 2.61.38 3.75a88.18 88.18 0 0019 18.9c-2.26 1.76-5.54.46-8-1a131.46 131.46 0 01-22.86-16.63c-1.82-1.66-10-9.34-12-5.19-1.61 3.31 7.55 10.17 9.37 11.91a249.8 249.8 0 0029.29 23.96z" transform="translate(-3 -48.7)" fill="url(#49-03going_to_school-0345G)"/><path d="M164.6 282.74a11.39 11.39 0 015.94 3.45 12.66 12.66 0 012.56 6.72c.3 2.41.24 4.86.52 7.27.25 2.13.75 4.22.85 6.35a9.45 9.45 0 01-1.51 6.1c-2.28-2.6-2.42-6.36-3-9.77a29 29 0 00-3.72-10.53c-1.13-1.86-2.66-3.69-4.77-4.23a24.71 24.71 0 00-3.45-.3c-.71-.08-1.56-.39-1.66-1.1a1.79 1.79 0 01.2-.9c.52-1.29.85-3.25 2.33-3.71s4.21.28 5.71.65z" transform="translate(-3 -48.7)" fill="url(#49-03going_to_school-0345H)"/><path d="M161.91 304.56a7.84 7.84 0 00-2.38-3.73c-2.22-1.56-5.26-.44-7.67.79a9.76 9.76 0 00-2.82 1.89 8.76 8.76 0 00-1.91 4.49 27.8 27.8 0 00-.45 5.31 7.3 7.3 0 00.6 3.18 6.6 6.6 0 003.2 2.73 15.68 15.68 0 0011.54.7 6 6 0 002.91-1.78c1.37-1.73-.06-4.15-.49-6a54.41 54.41 0 00-2.53-7.58z" transform="translate(-3 -48.7)" fill="url(#49-03going_to_school-0345I)"/><path d="M389.42 193.15a29.31 29.31 0 01-.29 4.3c-.24 1.07-.75 2.16-.46 3.23a3.64 3.64 0 001.6 1.93 14.54 14.54 0 012.09 1.47 7.05 7.05 0 011.65 2.84 6.17 6.17 0 00.89 2 3.64 3.64 0 002.29 1.21 10.61 10.61 0 002.64 0l2.93-.25a2.37 2.37 0 001.63-.57c.42-.46.41-1.16.72-1.7.17-.28.42-.51.57-.8a4.58 4.58 0 00.29-1c.4-1.61 2-2.72 2.44-4.31.21-.74.18-1.53.45-2.25.47-1.27 1.76-2.06 2.37-3.27a4.21 4.21 0 01-2.77-1.35c-.14-.16-.22-.49 0-.53a3.5 3.5 0 001.16.16l-2.43-2.93a8.67 8.67 0 00-2.28-2.16c-1.57-.88-3.48-.71-5.28-.78a.63.63 0 01-.39-.1 1.32 1.32 0 01-.2-.32 1.16 1.16 0 00-1-.33 16.12 16.12 0 00-6 1.41c-1.82.66-2.48 2.27-2.62 4.1z" fill="#3f3d56"/></svg>