<svg data-name="Layer 1" xmlns="http://www.w3.org/2000/svg" xmlns:xlink="http://www.w3.org/1999/xlink" viewBox="0 0 314.19 397"><defs><linearGradient id="97-03idea_applications-0368b" x1="159.41" y1="262.07" x2="291.32" y2="493.48" gradientTransform="rotate(180 199.56 332.5)" xlink:href="#97-03idea_applications-0368a"/><linearGradient id="97-03idea_applications-0368h" x1="5822.88" y1="1536.87" x2="5868.85" y2="1536.87" gradientTransform="translate(-5570.57 -1474.06)" xlink:href="#97-03idea_applications-0368a"/><linearGradient id="97-03idea_applications-0368c" x1="150.27" y1="267.28" x2="282.18" y2="498.69" gradientTransform="rotate(-180 210.865 373.58)" xlink:href="#97-03idea_applications-0368a"/><linearGradient id="97-03idea_applications-0368d" x1="110.15" y1="246.31" x2="242.06" y2="477.71" xlink:href="#97-03idea_applications-0368a"/><linearGradient id="97-03idea_applications-0368e" x1="67.48" y1="270.63" x2="199.39" y2="502.04" xlink:href="#97-03idea_applications-0368a"/><linearGradient id="97-03idea_applications-0368g" x1="5825.07" y1="1536.61" x2="5866.18" y2="1536.61" gradientTransform="translate(-5570.1 -1473.54)" xlink:href="#97-03idea_applications-0368a"/><linearGradient id="97-03idea_applications-0368a" x1="168.55" y1="256.86" x2="300.46" y2="488.27" gradientTransform="rotate(-180 188.255 291.42)" gradientUnits="userSpaceOnUse"><stop offset=".01"/><stop offset=".13" stop-opacity=".69"/><stop offset="1" stop-opacity="0"/></linearGradient><linearGradient id="97-03idea_applications-0368i" x1="187.59" y1="191.86" x2="173.08" y2="233.69" xlink:href="#97-03idea_applications-0368a"/><linearGradient id="97-03idea_applications-0368j" x1="229.17" y1="141.42" x2="198.64" y2="145.94" xlink:href="#97-03idea_applications-0368a"/><linearGradient id="97-03idea_applications-0368k" x1="229.17" y1="197.15" x2="168.49" y2="197.9" xlink:href="#97-03idea_applications-0368a"/><linearGradient id="97-03idea_applications-0368l" x1="137.17" y1="238.4" x2="175.05" y2="231.61" xlink:href="#97-03idea_applications-0368a"/><linearGradient id="97-03idea_applications-0368m" x1="194.68" y1="283.35" x2="217.48" y2="259.98" xlink:href="#97-03idea_applications-0368a"/><radialGradient id="97-03idea_applications-0368f" cx="274.09" cy="117.66" r="41.01" gradientUnits="userSpaceOnUse"><stop offset=".34" stop-color="#fff"/><stop offset="1" stop-color="#fff" stop-opacity=".39"/></radialGradient></defs><path d="M296.05 227.02c.3 23.78 7.6 47.39 5 71-4.88 44-45.08 78.52-88.57 86.77-22.51 4.27-47.39 2.19-65.76-11.5-6.78-5.06-12.42-11.51-19.11-16.7-21.41-16.63-51.14-18.87-73.28-34.51-25.8-18.23-36.54-50.94-43.21-81.82q-5.88-27.2-9.22-54.86c-3.34-27.56-4-58.1 13.09-80 12.77-16.43 33-24.73 50.65-35.78 23.3-14.58 42.76-34.58 65.48-50.07 25.66-17.5 49.72-22.25 75.3-18.19l2.26.38a168.24 168.24 0 0133.76 10.22c34.1 13.89 63.7 43 70.23 80.27 7.85 44.84-17.18 89.26-16.62 134.79z" fill="#4E7699" opacity=".18" style="isolation:isolate"/><rect x="152.45" y="287.28" width="71.61" height="8.29" rx="4.15" transform="rotate(180 155.095 288.4)" fill="#4E7699"/><rect x="163.76" y="328.36" width="71.61" height="8.29" rx="4.15" transform="rotate(-180 166.4 329.48)" fill="#4E7699"/><rect x="175.06" y="369.44" width="71.61" height="8.29" rx="4.15" transform="rotate(180 177.705 370.56)" fill="#4E7699"/><path fill="#4E7699" d="M172.75 397h10.18l-27.71-112.5h-10.17l27.7 112.5zm-56.53 0h10.17l-27.7-112.5H88.52l27.7 112.5z"/><rect x="152.45" y="287.28" width="71.61" height="8.29" rx="4.15" transform="rotate(180 155.095 288.4)" fill="url(#97-03idea_applications-0368a)"/><rect x="163.76" y="328.36" width="71.61" height="8.29" rx="4.15" transform="rotate(-180 166.4 329.48)" fill="url(#97-03idea_applications-0368b)"/><rect x="175.06" y="369.44" width="71.61" height="8.29" rx="4.15" transform="rotate(180 177.705 370.56)" fill="url(#97-03idea_applications-0368c)"/><path fill="url(#97-03idea_applications-0368d)" d="M172.75 397h10.18l-27.71-112.5h-10.17l27.7 112.5z"/><path fill="url(#97-03idea_applications-0368e)" d="M116.22 397h10.17l-27.7-112.5H88.52l27.7 112.5z"/><path d="M172.13 103.84a6.4 6.4 0 014.64-2 9.51 9.51 0 01-1.57 4.69 7 7 0 00-.88 1.78 1.9 1.9 0 00.4 1.85c.33.32.81.47 1 .86a1.19 1.19 0 01-.34 1.42 3.48 3.48 0 01-1.43.66l-2.6.73a3.1 3.1 0 01-2 .11c-3.95-1.68 1.33-8.59 2.78-10.1z" fill="#f3bd8f"/><path d="M156.83 116.01a10.08 10.08 0 004.26-1.81 25.86 25.86 0 005.51-4.93 19.5 19.5 0 015.61 7.09 1.5 1.5 0 01-.23 2c-3.75 4.33-8.64 8.31-14.37 8.52a12.59 12.59 0 01-8.52-2.93c-2.36-2-6.62-8.85-3.26-11.64 1.78-1.48 3.22.4 4.55 1.45a8.88 8.88 0 006.45 2.25z" fill="#4E7699"/><rect x="254.97" y="53.25" width="41.11" height="19.62" rx="4.09" transform="rotate(180 242.365 60.045)" fill="#4E7699"/><rect x="252.3" y="59.24" width="45.97" height="7.13" rx="3.44" transform="rotate(-180 242.125 59.785)" fill="#4E7699"/><path d="M171.45 120.51a36.06 36.06 0 014.11-16.79l14.95-37.3h36.57l13.9 39.35a36.33 36.33 0 11-69.53 14.74z" fill="#4E7699"/><path d="M237.77 126.55a36.06 36.06 0 014.11-16.79l14.95-37.3h36.57l13.9 39.35a36.33 36.33 0 11-69.53 14.74z" transform="translate(-66.32 -6.04)" opacity=".69" fill="url(#97-03idea_applications-0368f)" style="isolation:isolate"/><path d="M213.68 65.82a83.45 83.45 0 018.22 35.7c0 2.77-.4 6-2.82 7.38-3 1.65-6.64-.93-8.26-3.91a15.63 15.63 0 01-.88-12.83c2 2.47 2.53 5.72 2.86 8.84a15.34 15.34 0 01-.41 6.88c-.79 2.18-2.74 4.1-5.06 4.18-3.56.12-5.87-3.87-6.27-7.42a18.16 18.16 0 012.62-11.57 13.61 13.61 0 01-2.8 13.37 7.83 7.83 0 01-4.06 2.53 4.3 4.3 0 01-4.34-1.52 5.89 5.89 0 01-.86-2.61c-1-6.69 1.38-13.42 4.28-19.53s6.42-12 8.13-18.55" fill="none" stroke="#fff" stroke-miterlimit="10" stroke-width="1.39"/><rect x="254.97" y="53.25" width="41.11" height="19.62" rx="4.09" transform="rotate(180 242.365 60.045)" fill="url(#97-03idea_applications-0368g)"/><rect x="252.3" y="59.24" width="45.97" height="7.13" rx="3.44" transform="rotate(-180 242.125 59.785)" fill="url(#97-03idea_applications-0368h)"/><path d="M140.46 206.69a31.61 31.61 0 01-.38 4.66 48.65 48.65 0 01-2.4 7.36 87.77 87.77 0 00-3 11.77l-5.83 28.67a2.24 2.24 0 000 1.23 2 2 0 00.7.81 11.37 11.37 0 003.13 1.77 1.78 1.78 0 001.13.13 2 2 0 001-1.09 54.39 54.39 0 005.14-12.4c6-20.85 12.43-33.44 13.62-43.73.2-1.67 2-3.18 1.12-4.61a6.52 6.52 0 00-2.19-2.27c-2.27-1.52-7.42-6-10.44-4.22-2.67 1.47-1.51 9.24-1.6 11.92z" fill="#f3bd8f"/><path d="M127.44 206.18a2.5 2.5 0 01-2.56 2.21c-13.84 2.1-28.31 2.41-40.94 8.43a4.75 4.75 0 00-2.1 1.55c-1.17 1.82.35 4.31-.32 6.36 7.81.24 15.59-1 23.3-2.26l28.64-4.64c1.82-.3 3.77-.66 5.06-2a8.8 8.8 0 001.86-4l2.24-8.42c.45-1.66.87-3.48.13-5-1-2.15-3.78-2.73-6.15-2.86-7.04-.39-7.49 5.13-9.16 10.63z" fill="#f3bd8f"/><path d="M193.76 212.22a2.5 2.5 0 01-2.56 2.21c-13.84 2.1-28.31 2.41-40.94 8.43a4.75 4.75 0 00-2.1 1.55c-1.17 1.82.35 4.31-.32 6.36 7.81.24 15.59-1 23.3-2.26l28.64-4.64c1.82-.3 3.77-.66 5.06-2a8.8 8.8 0 001.86-4l2.24-8.42c.45-1.66.87-3.48.13-5-1-2.15-3.78-2.73-6.15-2.86-7.04-.39-7.49 5.13-9.16 10.63z" transform="translate(-66.32 -6.04)" fill="url(#97-03idea_applications-0368i)"/><path d="M184.88 125.01c.21-.43.69-.92 1.05-.63a.81.81 0 01.23.54l.32 2.16a.79.79 0 00.13.4c.25.29.72.1 1-.12a26.52 26.52 0 004.88-4.34c.28-.32.68-.68 1.08-.51a.91.91 0 01.42.52 7.29 7.29 0 01.31 3.85 10.86 10.86 0 01-1.53 4.5 6.42 6.42 0 01-3.73 2.82c-1.23.31-2.58.18-3.71.76-.68.35-1.31.95-2.07.87-.94-.1-1.43-1.18-1.52-2.12-.26-3.1 1.83-6.04 3.14-8.7z" fill="#f3bd8f"/><path d="M146.95 91.29c.29 2.84.6 5.87 2.42 8.07.75.91 1.72 1.63 2.39 2.6a5.39 5.39 0 01.95 3.09c-4.85-.22-9.6 2-14.44 1.56a23 23 0 01.35-8.05c.83-3.69 2.6-7.25 2.43-11-.05-1.24-.35-2.77.43-3.87.65-.91 2.16-1.39 3-.49a10.61 10.61 0 011.6 3.42 21.49 21.49 0 01.87 4.67z" fill="#3e3e54"/><path d="M143.68 107.11c8.56 5 12 23.41 13.37 27.94a66.69 66.69 0 012.51 21.15c-.07 3.14-.3 6.39-1.68 9.21-1.9 3.88-5.78 6.51-9.91 7.75s-8.53 1.25-12.83 1c-2.78-.15-5.76-.47-7.87-2.28-2.88-2.47-3.17-6.74-3.21-10.54q-.27-22.54.45-45.11a22.86 22.86 0 01.9-6.7 7.82 7.82 0 014.33-4.94c3.82-1.42 10.38.42 13.94 2.52z" fill="#4E7699"/><path d="M210 113.15c8.56 5 12 23.41 13.37 27.94a66.69 66.69 0 012.51 21.15c-.07 3.14-.3 6.39-1.68 9.21-1.9 3.88-5.78 6.51-9.91 7.75s-8.53 1.25-12.83 1c-2.78-.15-5.76-.47-7.87-2.28-2.88-2.47-3.17-6.74-3.21-10.54q-.27-22.54.45-45.11a22.86 22.86 0 01.9-6.7 7.82 7.82 0 014.33-4.94c3.82-1.42 10.38.42 13.94 2.52z" transform="translate(-66.32 -6.04)" fill="url(#97-03idea_applications-0368j)"/><path d="M146.94 97.06a4.13 4.13 0 01-.92 2.85 3.62 3.62 0 01-2.83.76 20.27 20.27 0 00-3-.27 1.64 1.64 0 00-1.84 1.78c0 1.39.59 2.72.58 4.11s-1.07 3-2.43 2.7a2.7 2.7 0 01-1.55-1.24c-1.93-2.81-2.05-6.49-3.52-9.58-.86-1.81-2.18-3.4-2.81-5.31a8.74 8.74 0 012.66-9.06c2.53-2.19 8.37-3.83 11.1-1.09 3.43 3.45 4.74 9.68 4.56 14.35z" fill="#f3bd8f"/><path d="M141.4 77.54a7.38 7.38 0 011.87 1 9.35 9.35 0 012.76 4.65L138.91 87a1.2 1.2 0 01-.72.2c-.51-.09-.75-.8-1.26-.83a5.73 5.73 0 01.57 1.32l-2.78 2a3 3 0 00-.81.72 3.09 3.09 0 00-.36 1.83 82.15 82.15 0 002.43 15.8 8 8 0 01-3.45 1 49 49 0 00-13.23 4 16.5 16.5 0 00-.65-4.24 11.83 11.83 0 01-.78-3.45 10 10 0 011.21-3.82c.78-1.72 1.44-3.49 2.1-5.26a15 15 0 001-3.69 24.38 24.38 0 00-.42-4.88 6.66 6.66 0 01.9-4.71c1.43-1.92 4.16-2.45 6.11-3.68a14.53 14.53 0 017.91-2.61 12.68 12.68 0 014.72.84z" fill="#3e3e54"/><path d="M146.59 146.54c2 2 11.11 4.06 14.35 4 8.38 0 25.84-10.38 25.54-11.13l-5.13-12.59c-4.33 2.84-8.86 5.58-13.93 6.61s-10.82.06-14.41-3.66c-2.56-2.66-3.73-6.34-5.8-9.39s-5.9-5.62-9.31-4.22c-4.49 1.84-5.52 9.23-3.91 13.16 2.58 6.37 7.84 12.43 12.6 17.22z" fill="#4E7699"/><path d="M119.07 197.09c-.33 1-.7 2-1.08 3-1.08 2.73-2.14 6.38.19 8.17a5.44 5.44 0 002.76.92c3.28.37 6.6-.26 9.9-.19 7.21.14 13.92 3.55 20.16 7.16a14 14 0 004.29 1.88 4.49 4.49 0 004.29-1.29c1-1.25 1-3 .9-4.64l-1.55-30c-.19-3.67 1-15.1-3.37-16.13-2.78-.66-7.08.7-10 .89-3.51.24-7 .34-10.56.33a18.59 18.59 0 01-5.2-.59c-1-.32-4.28-2.13-5.39-1.88-3.39.8-1.94 11.94-2.05 14.56a64 64 0 01-3.29 17.81z" fill="#3e3e54"/><path d="M185.39 203.13c-.33 1-.7 2-1.08 3-1.08 2.73-2.14 6.38.19 8.17a5.44 5.44 0 002.76.92c3.28.37 6.6-.26 9.9-.19 7.21.14 13.92 3.55 20.16 7.16a14 14 0 004.29 1.88 4.49 4.49 0 004.29-1.29c1-1.25 1-3 .9-4.64l-1.55-30c-.19-3.67 1-15.1-3.37-16.13-2.78-.66-7.08.7-10 .89-3.51.24-7 .34-10.56.33a18.59 18.59 0 01-5.2-.59c-1-.32-4.28-2.13-5.39-1.88-3.39.8-1.94 11.94-2.05 14.56a64 64 0 01-3.29 17.81z" transform="translate(-66.32 -6.04)" fill="url(#97-03idea_applications-0368k)"/><path d="M76.94 217.21a3.45 3.45 0 00-2.18.89 3.72 3.72 0 00-.59 2.65 160.86 160.86 0 002.39 22c.16.9.46 2 1.33 2.24 1.27.42 2.24-1.14 2.68-2.4l5.64-16.33a3 3 0 00.23-1.64c-.22-.91-1.22-1.38-1.82-2.11-1.15-1.43-.38-3.88-1.82-5.05-1.28-1.04-4.4-.44-5.86-.25zm46.67 45.43a3.46 3.46 0 00-.8 2.22 3.71 3.71 0 001.57 2.21 159.58 159.58 0 0017.93 13c.78.48 1.76 1 2.55.52 1.17-.67.66-2.43 0-3.6l-8.35-15.13a2.92 2.92 0 00-1-1.27c-.83-.45-1.85 0-2.79-.07-1.84-.1-3.14-2.31-5-2-1.63.19-3.27 2.91-4.11 4.12z" fill="#4E7699"/><path d="M143.26 223.25a3.45 3.45 0 00-2.18.89 3.72 3.72 0 00-.59 2.65 160.86 160.86 0 002.39 22c.16.9.46 2 1.33 2.24 1.27.42 2.24-1.14 2.68-2.4l5.64-16.33a3 3 0 00.23-1.64c-.22-.91-1.22-1.38-1.82-2.11-1.15-1.43-.38-3.88-1.82-5.05-1.28-1.04-4.4-.44-5.86-.25z" transform="translate(-66.32 -6.04)" fill="url(#97-03idea_applications-0368l)"/><path d="M189.93 268.68a3.46 3.46 0 00-.8 2.22 3.71 3.71 0 001.57 2.21 159.58 159.58 0 0017.93 13c.78.48 1.76 1 2.55.52 1.17-.67.66-2.43 0-3.6l-8.35-15.13a2.92 2.92 0 00-1-1.27c-.83-.45-1.85 0-2.79-.07-1.84-.1-3.14-2.31-5-2-1.63.19-3.27 2.91-4.11 4.12z" transform="translate(-66.32 -6.04)" fill="url(#97-03idea_applications-0368m)"/><rect x="83.3" y="280.73" width="71.61" height="8.29" rx="4.15" fill="#4E7699"/><rect x="71.99" y="321.81" width="71.61" height="8.29" rx="4.15" fill="#4E7699"/><rect x="60.69" y="362.89" width="71.61" height="8.29" rx="4.15" fill="#4E7699"/><path fill="#4E7699" d="M68.29 396.5H58.11L85.81 284h10.18l-27.7 112.5zm56.53 0h-10.17l27.7-112.5h10.17l-27.7 112.5zM208.68 1.74v45.57h-2.26V1.36z"/></svg>