<svg data-name="Layer 1" xmlns="http://www.w3.org/2000/svg" xmlns:xlink="http://www.w3.org/1999/xlink" viewBox="0 0 406.39 320.69"><defs><linearGradient id="27-03it_support-0384d" x1="441.67" y1="443.69" x2="219.22" y2="238.19" xlink:href="#27-03it_support-0384a"/><linearGradient id="27-03it_support-0384k" x1="224.6" y1="86.53" x2="214.15" y2="127.47" xlink:href="#27-03it_support-0384a"/><linearGradient id="27-03it_support-0384e" x1="204.74" y1="304.22" x2="206.43" y2="332.73" xlink:href="#27-03it_support-0384a"/><linearGradient id="27-03it_support-0384f" x1="259.23" y1="154.67" x2="253.39" y2="200.4" xlink:href="#27-03it_support-0384a"/><linearGradient id="27-03it_support-0384b" x1="253.75" y1="196.7" x2="274.92" y2="216.74" gradientUnits="userSpaceOnUse"><stop offset=".02" stop-color="#fff" stop-opacity="0"/><stop offset=".58" stop-color="#fff" stop-opacity=".39"/><stop offset="1" stop-color="#fff"/></linearGradient><linearGradient id="27-03it_support-0384g" x1="250.41" y1="206.47" x2="229.94" y2="207.88" xlink:href="#27-03it_support-0384b"/><linearGradient id="27-03it_support-0384h" x1="245.56" y1="145.01" x2="143.94" y2="324.55" xlink:href="#27-03it_support-0384a"/><linearGradient id="27-03it_support-0384i" x1="181.28" y1="387.2" x2="119.18" y2="214.44" gradientUnits="userSpaceOnUse"><stop offset=".01"/><stop offset=".09" stop-opacity=".82"/><stop offset="1" stop-opacity="0"/></linearGradient><linearGradient id="27-03it_support-0384j" x1="246.99" y1="65.36" x2="249.06" y2="87" xlink:href="#27-03it_support-0384a"/><linearGradient id="27-03it_support-0384a" x1="270.74" y1="234.8" x2="202.24" y2="237.81" gradientUnits="userSpaceOnUse"><stop offset=".01"/><stop offset="1" stop-opacity="0"/></linearGradient><linearGradient id="27-03it_support-0384l" x1="271.45" y1="94.82" x2="254.52" y2="108.37" xlink:href="#27-03it_support-0384a"/><linearGradient id="27-03it_support-0384m" x1="285.59" y1="107.76" x2="271.24" y2="110.63" xlink:href="#27-03it_support-0384a"/><linearGradient id="27-03it_support-0384n" x1="291.6" y1="88.55" x2="259.14" y2="102.67" xlink:href="#27-03it_support-0384a"/><linearGradient id="27-03it_support-0384c" x1="58.42" y1="67.19" x2="52.45" y2="186.54" gradientUnits="userSpaceOnUse"><stop offset=".02" stop-color="#fff" stop-opacity="0"/><stop offset=".58" stop-color="#fff" stop-opacity=".39"/><stop offset=".68" stop-color="#fff" stop-opacity=".68"/><stop offset="1" stop-color="#fff"/></linearGradient><linearGradient id="27-03it_support-0384o" x1="152.92" y1="132.64" x2="129.21" y2="189.38" xlink:href="#27-03it_support-0384c"/><linearGradient id="27-03it_support-0384p" x1="221.66" y1="123.38" x2="223.73" y2="93.83" xlink:href="#27-03it_support-0384a"/><linearGradient id="27-03it_support-0384q" x1="262.03" y1="150.04" x2="272.33" y2="171.21" xlink:href="#27-03it_support-0384c"/><linearGradient id="27-03it_support-0384r" x1="251.05" y1="156.41" x2="238.63" y2="181.44" xlink:href="#27-03it_support-0384a"/></defs><path d="M361.05 309.73c21.17-8 40.31-25.11 44.46-47.37 3.42-18.36-3.63-37-12.2-53.61s-18.95-32.66-22.95-50.9c-7.45-33.92 7.92-71.55-6.68-103.06-4.39-9.46-11.25-17.62-19-24.57C310.79-.06 259.9-6.84 216.49 6.55S136.84 51.2 110.18 87.98c-11 15.16-20.56 31.35-32.55 45.72-15.98 19.14-36.72 35.94-43.66 59.85-5.05 17.28-2 36 4 53 9.23 26.06 49 72.41 67.93 72.32 42.19-.21 123.14 1.86 162.25.36 29.3-1.15 62.23 2.08 92.9-9.5z" fill="#4E7699" opacity=".18" style="isolation:isolate"/><path d="M180.2 274.62c-1 2.85-1.88 6.12-.43 8.77a11.19 11.19 0 003.81 3.58l13.8 9.38c2.65 1.8 5.46 3.65 8.64 3.89s6.79-1.79 7.06-5c.32-3.67-3.53-6.18-5.33-9.4-2.36-4.22-1.06-9.45.17-14.13a258.72 258.72 0 006.78-35.86c-2.83-1.16-11.07-6.35-14-5.49-3.3 1-6.28 10.23-7.75 13.24a239.76 239.76 0 00-12.75 31.02z" fill="#f1af8c"/><path d="M206.67 195.47c-3.58 10.17-7.38 20.37-13.12 29.51a1.45 1.45 0 00-.31.93 1.43 1.43 0 00.56.78c5.77 5.05 12 10.32 19.59 11.41a2.4 2.4 0 001.48-.13 2.44 2.44 0 00.92-1.27c4.84-11.21 6.55-23.49 6.39-35.63a146.68 146.68 0 00-1.44-18.12c-.2-1.46-.31-7.94-1.58-8.7-1.93-1.14-4.05 2.84-4.89 4.09-3.48 5.21-5.54 11.21-7.6 17.13z" fill="#fff"/><path d="M226.39 205.54s-4.51 1.69-8.18 14.39-12.43 43.48-12.43 43.48 13.55 6.77 16.94 4.23 3.67-62.1 3.67-62.1z" transform="translate(-4.03 -29.45)" fill="url(#27-03it_support-0384a)"/><path d="M260.8 163.01c7.38-.23 14.85.13 21.95 2.13s13.85 5.78 18.51 11.51c5.16 6.34 7.42 14.63 7.94 22.78s-.56 16.32-1.38 24.46a388 388 0 00-1.52 57.35c.22 4.58 2.84 28.49-.38 31.76-2 2.06 2 4.12-.85 4.8-23.3 5.6-65.16 2.85-87.22-6.49-5.61-2.38-11.24-5.69-14-11.11-3-5.87 5.1-29.14 6.07-35.67q4.41-29.89 6.36-60.1c.57-8.91-.09-18.51 1.74-27.26 1.33-6.35 5.42-8.08 11.32-9.64a142.43 142.43 0 0131.46-4.52z" fill="#fff"/><path d="M284 296.71c-.77 4.05-1.78 8.28-4.55 11.34a19.56 19.56 0 01-7.82 4.78c-13.9 5.24-29.75 4.42-43.07 11a9.3 9.3 0 00-2.56 1.67c-2.57 2.54-1.85 7 .19 10 4.53 6.63 13.34 8.49 21.29 9.72 19.06 3 38.52 5.45 57.57 2.38a5.28 5.28 0 002.85-1.09 5.18 5.18 0 001.21-2.7c4.32-19.18.92-39.15.84-58.81 0-11.34 1-22.69.23-34a69 69 0 00-4.34-20.57c-1.77-4.48-6.95-14.37-10.06-5.19-4.94 14.59-6.36 30.32-8.14 45.53-.97 8.67-2.01 17.35-3.64 25.94z" transform="translate(-4.03 -29.45)" fill="url(#27-03it_support-0384d)"/><rect x="116.1" y="302.42" width="178.04" height="16.42" rx="8.21" fill="#4E7699"/><rect x="116.1" y="302.42" width="178.04" height="16.42" rx="8.21" fill="url(#27-03it_support-0384e)"/><path d="M242.97 178.55c-3.31-.53-5.17-3.86-3.69-11.88.16-.89.37-1.75.61-2.61 0-.16.09-.32.13-.48.36-1.24.77-2.48 1.17-3.71a27.07 27.07 0 001.74-9.23c-.09-2.3-.27-4.69.58-6.81a11.14 11.14 0 013.71-4.49c3.57-2.75 14-7.92 16-1.09.89 2.92.24 6.32.2 9.31a28 28 0 002.3 12.49c2.18 4.38-14.62 19.8-22.75 18.5z" fill="#f1af8c"/><path d="M244.65 191.71s18.44-7 22-18.07L247 180.07s-.47 10.13-2.35 11.64z" transform="translate(-4.03 -29.45)" fill="url(#27-03it_support-0384f)"/><path d="M290.61 186.2a123.88 123.88 0 0010.08 61.19 4.56 4.56 0 001.23 1.85 5 5 0 003 .74 36.81 36.81 0 0022.86-7.34c2-1.51 3.88-3.44 4.05-5.79a9.42 9.42 0 00-.73-3.67 406.48 406.48 0 00-17.85-43.51c-2.52-5.24-5.9-11.38-12-13.69-7.34-2.77-10.13 4.74-10.64 10.22z" fill="#fff"/><path d="M254.88 198.16c5.47-5.77 9.48-12.74 13.44-19.63 2.41-4.2 4.88-8.59 5.22-13.43a2.68 2.68 0 00-.25-1.61 2.89 2.89 0 00-.92-.85l-7.51-5.09c-.13 4.61-3.44 8.57-7.22 11.22-4 2.84-15.45 5.95-13 11.84.61 1.49 9.6 18.22 10.24 17.55zm-11.91-19.61a131.86 131.86 0 01-7.51 12.91c-1.06 1.61-2.25 3.28-4 4a1.1 1.1 0 01-.73.1c-.44-.15-.54-.73-.57-1.19-.37-7.69-.73-15.51 1.15-23a21.21 21.21 0 013.24-7.41c.54-.72 4.86-3.82 6.68-4.15-.4 1.23-.81 2.47-1.17 3.71a1.22 1.22 0 00-.12.37v.11c-.24.86-.45 1.72-.61 2.61-1.5 8.08.36 11.41 3.64 11.94z" fill="#4E7699"/><path d="M258.91 227.61c5.47-5.77 9.48-12.74 13.44-19.63 2.41-4.2 4.88-8.59 5.22-13.43a2.68 2.68 0 00-.25-1.61 2.89 2.89 0 00-.92-.85l-7.51-5.09c-.13 4.61-3.44 8.57-7.22 11.22-4 2.84-15.45 5.95-13 11.84.61 1.49 9.6 18.22 10.24 17.55z" transform="translate(-4.03 -29.45)" fill="url(#27-03it_support-0384b)"/><path d="M247 208a131.86 131.86 0 01-7.51 12.91c-1.06 1.61-2.25 3.28-4 4a1.1 1.1 0 01-.73.1c-.44-.15-.54-.73-.57-1.19-.37-7.69-.73-15.51 1.15-23a21.21 21.21 0 013.24-7.41c.54-.72 4.86-3.82 6.68-4.15-.4 1.23-.81 2.47-1.17 3.71a1.22 1.22 0 00-.12.37v.11c-.24.86-.45 1.72-.61 2.61-1.5 8.08.36 11.41 3.64 11.94z" transform="translate(-4.03 -29.45)" fill="url(#27-03it_support-0384g)"/><path d="M297.61 306.18l43.8-8.37c2.59-.5 5.29-1 7.34-2.7 2.81-2.26 3.8-6.22 3.39-9.81s-2-6.92-3.58-10.18c-6.22-12.88-18.84-36-18.92-34.65-7.66 1.62-14 1.7-20.58 5.91a7.53 7.53 0 00-2.78 2.59c-2.63 5 4.56 12.3 7 16.1a9.42 9.42 0 011.82 4.15 6.84 6.84 0 01-.58 3.11c-2.37 5.82-10.81 9.21-16 12.2a53.87 53.87 0 01-22.28 7.48c-6.12.52-12.37-.27-18.35 1.1a26.29 26.29 0 00-17.23 13.44c3.56 2.26 8.19.95 12.29-.08a71.93 71.93 0 0123.25-1.87c5.06.43 19.01 6.29 21.41 1.58z" fill="#f1af8c"/><path d="M229.89 318.85h-124l-32.71-83a7.29 7.29 0 016.78-10h97.34a23.47 23.47 0 0121.85 14.87z" fill="#4E7699"/><path d="M233.92 348.3h-124l-32.71-83a7.29 7.29 0 016.78-10h97.34a23.47 23.47 0 0121.85 14.87z" transform="translate(-4.03 -29.45)" fill="url(#27-03it_support-0384h)"/><path d="M227.62 348.39H109.8l-31.08-78.81a6.93 6.93 0 016.44-9.47h92.46a22.34 22.34 0 0120.76 14.13z" transform="translate(-4.03 -29.45)" fill="url(#27-03it_support-0384i)"/><path d="M238.97 45.04c3-1.76 6-3.55 9.39-4.21s8-.26 10.29 2.3a21.42 21.42 0 00-15.29 8.07 1.49 1.49 0 01-.77.66 1.45 1.45 0 01-.81-.15c-1.38-.52-11.72 1.84-12.32.59.03 0 8.24-6.49 9.51-7.26z" fill="#4E7699"/><path d="M243 74.49c3-1.76 6-3.55 9.39-4.21s8-.26 10.29 2.3a21.42 21.42 0 00-15.29 8.07 1.49 1.49 0 01-.77.66 1.45 1.45 0 01-.81-.15c-1.38-.52-11.72 1.84-12.32.59.03 0 8.24-6.49 9.51-7.26z" transform="translate(-4.03 -29.45)" fill="url(#27-03it_support-0384j)"/><ellipse cx="216.62" cy="106.34" rx="12.14" ry="14.96" fill="#4E7699"/><ellipse cx="219.11" cy="108.02" rx="11.23" ry="13.84" fill="#4E7699"/><ellipse cx="219.11" cy="108.02" rx="11.23" ry="13.84" fill="url(#27-03it_support-0384k)"/><path d="M215.16 80.14l2.81 51.41s1.25 19.4 20.48 19.59c23.1.23 30.13-13.2 33.64-23.42s6.68-40.24 0-48.54-44.27-28.73-56.93.96z" fill="#f1af8c"/><path d="M229.77 49.27c-9.06-.16-19.41 4.07-23.54 12.62a14.8 14.8 0 00-.28 12.73 8.71 8.71 0 01.78 1.87 8.76 8.76 0 010 2.17 10.59 10.59 0 004.29 9c1.59 1.15 3.52 1.87 4.79 3.36l-.49-9.57a2 2 0 011.52-2.38l6.09-2.84s1.88 1.37 2.11 1.48a7.66 7.66 0 003.2.61 45 45 0 007.14-.4c5.11-.73 10-2.6 14.77-4.46a6.72 6.72 0 01-1.82 3.94l15.53 3a42.2 42.2 0 015.45 10.18 35.47 35.47 0 012.1 8.81 31.83 31.83 0 01-1.13 12.19 12.79 12.79 0 002.74-2.86 15.73 15.73 0 004.6 2.19 2 2 0 001.07.09c.76-.21.92-1.11 1-1.83.62-6.45 5.42-11.9 7.62-18.06 2.67-7.46 1.32-15.85-2.76-22.76a18.35 18.35 0 00-4.83-5.64c-7.15-5.24-17.31-2.84-25.47-5.58-3.88-1.3-7-3.77-10.71-5.4-4.12-1.75-9.28-2.38-13.77-2.46z" fill="#3f3d56"/><path d="M233.8 78.72c-9.06-.16-19.41 4.07-23.54 12.62a14.8 14.8 0 00-.28 12.73 8.71 8.71 0 01.78 1.87 8.76 8.76 0 010 2.17 10.59 10.59 0 004.29 9c1.59 1.15 3.52 1.87 4.79 3.36l-.49-9.57a2 2 0 011.52-2.38l6.09-2.84s1.88 1.37 2.11 1.48a7.66 7.66 0 003.2.61 45 45 0 007.14-.4c5.11-.73 10-2.6 14.77-4.46a6.72 6.72 0 01-1.82 3.94l15.53 3a42.2 42.2 0 015.45 10.18 35.47 35.47 0 012.1 8.81 31.83 31.83 0 01-1.13 12.19 12.79 12.79 0 002.74-2.86 15.73 15.73 0 004.6 2.19 2 2 0 001.07.09c.76-.21.92-1.11 1-1.83.62-6.45 5.42-11.9 7.62-18.06 2.67-7.46 1.32-15.85-2.76-22.76a18.35 18.35 0 00-4.83-5.64c-7.15-5.24-17.31-2.84-25.47-5.58-3.88-1.3-7-3.77-10.71-5.4-4.12-1.75-9.28-2.38-13.77-2.46z" transform="translate(-4.03 -29.45)" fill="url(#27-03it_support-0384l)"/><ellipse cx="283.49" cy="108.18" rx="12.01" ry="14.81" fill="#4E7699"/><ellipse cx="283.49" cy="108.18" rx="12.01" ry="14.81" fill="url(#27-03it_support-0384m)"/><ellipse cx="288.09" cy="108.18" rx="12.01" ry="14.81" fill="#4E7699"/><path d="M288.18 94.55l-6 .64-1.43.15-6-29.53c-3.12-11.68-10.75-20.66-20.32-24.14a10.8 10.8 0 00-4.62-.55l-4.09.37 2-.53 4-1.06a13.17 13.17 0 013.84-.47c10.68.39 20.81 9 24.48 21.34z" fill="#4E7699"/><path d="M292.21 124l-6 .64-1.43.15-6-29.53c-3.12-11.68-10.75-20.66-20.32-24.14a10.8 10.8 0 00-4.62-.55l-4.09.37 2-.53 4-1.06a13.17 13.17 0 013.84-.47c10.68.39 20.81 9 24.48 21.34z" transform="translate(-4.03 -29.45)" fill="url(#27-03it_support-0384n)"/><path d="M288.18 94.55l-6 .64-6-29.6c-3.17-11.8-10.87-20.85-20.53-24.36a10.55 10.55 0 00-4.67-.56l-3.26.29 4-1.06a13.17 13.17 0 013.84-.47c10.68.39 20.81 9 24.48 21.34z" fill="#4E7699"/><rect y="5.16" width="177.91" height="203.46" rx="15.64" fill="#4E7699" opacity=".45" style="isolation:isolate"/><circle cx="53.65" cy="162.54" r="26.62" fill="url(#27-03it_support-0384c)"/><path fill="#4E7699" d="M15.85 24.45h113.71v6.4H15.85z"/><path fill="#4E7699" opacity=".51" d="M19.28 108.61h113.71v6.4H19.28z"/><path fill="#4E7699" d="M19.28 97.66h80.83v6.4H19.28zm91.89 0h54.11v6.4h-54.11zM81.9 57.15h83.2v5.69H81.9z"/><path fill="#4E7699" opacity=".51" d="M64.47 67.24h89.01v5.69H64.47z"/><path fill="#4E7699" d="M20.83 57.15h54.72v5.69H20.83zm24 19.89H165.1v5.69H44.83z"/><path fill="#4E7699" opacity=".51" d="M20.83 77.04h17.66v5.69H20.83zm64.88 10.1h79.38v5.69H85.71z"/><path fill="#4E7699" d="M20.83 87.14h54.72v5.69H20.83zm0-20.14h35.19v5.69H20.83zm38.72 78.04c-1.56 1.91-1.82 4.58-1.53 7a3.3 3.3 0 010 1.33 3 3 0 01-.6 1 102.87 102.87 0 01-14.17 14.44 1.46 1.46 0 01-.51.32 1.5 1.5 0 01-1-.14c-1.5-.59-3.11-1.23-4.68-.85a4.7 4.7 0 00-3.09 2.95 8 8 0 00-.23 4.39q2.56-2.13 5.33-4l2.63 2.61a1.17 1.17 0 01.46.88 1.14 1.14 0 01-.31.54l-3.88 4.58a7.51 7.51 0 007.69-1.28c2-1.9 2.3-5.45.34-7.36l14.89-16.69a5.7 5.7 0 006.91-.1 7.5 7.5 0 002.6-6.66 27.92 27.92 0 00-5.12 3.94l-3-3.74c1.06-1 5.17-3.76 2.5-4.84-1.76-.71-4.09.29-5.23 1.68z"/><path d="M149.77 201.47l1.43-4.55s-5.65-4.46-5.82-4.18l-.23-3.29 5.17-5.5-2.38-4.13s-7 1.14-7 1.46a33.09 33.09 0 00-4.35-3.45l-.22-7.5-4.6-1.25s-4.21 5.84-3.93 6c0 0-3.24.68-4.79 1.17l-5.24-4.46-4 2.58s1.19 5.57 1.66 6.74c-1.12 1.23-2.52 2.62-2.52 2.62l-7.46 1.2-.64 4.72s5.25 2.84 6.27 3.13a16.35 16.35 0 00.7 4.51l-4.07 6.26 3.07 3.64s4.07-1.43 5.84-2.21c1.65 1.5 4 3.28 4 3.28l1.88 7.32 4.76.2s2.29-5.33 2.53-6.5a23.58 23.58 0 014.61-.06l6.69 3.51 3.35-3.4a68.39 68.39 0 00-3.23-6.32 13.08 13.08 0 001.15-1.64zm-22.2.17a9.46 9.46 0 119.45-9.46 9.47 9.47 0 01-9.45 9.46z" transform="translate(-4.03 -29.45)" fill="url(#27-03it_support-0384o)"/><path d="M212.73 107c1.77-3.5 5.61-5.58 9.48-6.21s7.83-.05 11.7.54c-3.75 3-14.22 7.47-14.42 8.27a24.37 24.37 0 00-.05 4.26c.14 2.06.21 4.22.2 6.28a16 16 0 00-3.22-2.44 8 8 0 01-2.7-1.73 8.31 8.31 0 01-.99-8.97z" transform="translate(-4.03 -29.45)" fill="url(#27-03it_support-0384p)"/><path d="M259.63 144.08a46.6 46.6 0 01-13.3-2.22 2.004 2.004 0 011.15-3.84c10.3 3.1 18.05 2.69 23-1.22 6.74-5.29 6.3-15.37 6.3-15.47a2.002 2.002 0 014-.2c0 .49.53 12.27-7.83 18.83q-5.22 4.11-13.32 4.12z" fill="#4E7699"/><path d="M263.66 173.53a46.6 46.6 0 01-13.3-2.22 2 2 0 011.15-3.84c10.3 3.1 18.05 2.69 23-1.22 6.74-5.29 6.3-15.37 6.3-15.47a2 2 0 014-.2c0 .49.53 12.27-7.83 18.83q-5.22 4.11-13.32 4.12z" transform="translate(-4.03 -29.45)" fill="url(#27-03it_support-0384q)"/><path d="M247.37 134.64a5.3 5.3 0 012.53 2.74c.44 1.7-.88 3.33-2.24 4.44a8.37 8.37 0 01-4.15 2c-2.26.27-4.42-.95-6.3-2.24a8.34 8.34 0 01-2.62-2.53c-1.74-3.06.51-7 3.46-8.3 3.27-1.41 6.75 2.2 9.32 3.89z" fill="#4E7699"/><path d="M251.4 164.09a5.3 5.3 0 012.53 2.74c.44 1.7-.88 3.33-2.24 4.44a8.37 8.37 0 01-4.15 2c-2.26.27-4.42-.95-6.3-2.24a8.34 8.34 0 01-2.62-2.53c-1.74-3.06.51-7 3.46-8.3 3.27-1.41 6.75 2.2 9.32 3.89z" transform="translate(-4.03 -29.45)" fill="url(#27-03it_support-0384r)"/></svg>