<svg data-name="Layer 1" xmlns="http://www.w3.org/2000/svg" xmlns:xlink="http://www.w3.org/1999/xlink" viewBox="0 0 377.89 377.89"><defs><linearGradient id="94-03news-0315c" x1="325.06" y1="146.27" x2="372.86" y2="169.99" xlink:href="#94-03news-0315a"/><linearGradient id="94-03news-0315m" x1="159.64" y1="125.94" x2="192.3" y2="125.94" xlink:href="#94-03news-0315b"/><linearGradient id="94-03news-0315b" x1="148.51" y1="132.33" x2="162.18" y2="132.33" gradientUnits="userSpaceOnUse"><stop offset="0" stop-opacity="0"/><stop offset=".99"/></linearGradient><linearGradient id="94-03news-0315d" x1="192.71" y1="200.65" x2="227.1" y2="200.65" xlink:href="#94-03news-0315a"/><linearGradient id="94-03news-0315e" x1="186.34" y1="189.91" x2="185.64" y2="254.12" xlink:href="#94-03news-0315b"/><linearGradient id="94-03news-0315f" x1="328.03" y1="176.75" x2="305.92" y2="176.49" xlink:href="#94-03news-0315b"/><linearGradient id="94-03news-0315g" x1="328.84" y1="168.89" x2="360.76" y2="203.61" xlink:href="#94-03news-0315b"/><linearGradient id="94-03news-0315h" x1="330.49" y1="176.03" x2="338.6" y2="126.57" xlink:href="#94-03news-0315b"/><linearGradient id="94-03news-0315i" x1="178.86" y1="186.34" x2="160.81" y2="235.67" xlink:href="#94-03news-0315b"/><linearGradient id="94-03news-0315j" x1="169.95" y1="148.41" x2="174.91" y2="169.91" xlink:href="#94-03news-0315a"/><linearGradient id="94-03news-0315k" x1="174.44" y1="152" x2="214.04" y2="124.26" xlink:href="#94-03news-0315a"/><linearGradient id="94-03news-0315l" x1="170.54" y1="121.29" x2="183.54" y2="151.21" xlink:href="#94-03news-0315a"/><linearGradient id="94-03news-0315a" x1="343.58" y1="150.19" x2="331.72" y2="151.42" gradientUnits="userSpaceOnUse"><stop offset="0" stop-color="#e5c5d5"/><stop offset=".42" stop-color="#ead4d1"/><stop offset="1" stop-color="#f0e9cb"/></linearGradient><linearGradient id="94-03news-0315n" x1="144.62" y1="200.28" x2="184.76" y2="200.28" xlink:href="#94-03news-0315a"/><linearGradient id="94-03news-0315o" x1="299.47" y1="131.54" x2="338.72" y2="135.47" xlink:href="#94-03news-0315a"/><linearGradient id="94-03news-0315p" x1="312.19" y1="121.89" x2="348.82" y2="121.89" xlink:href="#94-03news-0315b"/><linearGradient id="94-03news-0315q" x1="342.35" y1="177.11" x2="325.21" y2="172.53" xlink:href="#94-03news-0315b"/><linearGradient id="94-03news-0315r" x1="313.98" y1="156.35" x2="351.14" y2="275.69" xlink:href="#94-03news-0315b"/><linearGradient id="94-03news-0315s" x1="319.15" y1="208.78" x2="338.46" y2="208.78" xlink:href="#94-03news-0315a"/><linearGradient id="94-03news-0315t" x1="305.02" y1="208.82" x2="321.65" y2="208.82" xlink:href="#94-03news-0315a"/><linearGradient id="94-03news-0315u" x1="247.58" y1="299.44" x2="247.58" y2="160.04" gradientTransform="rotate(180 247.58 246.175)" xlink:href="#94-03news-0315b"/><linearGradient id="94-03news-0315v" x1="323.77" y1="173.47" x2="335.81" y2="179.75" xlink:href="#94-03news-0315b"/><linearGradient id="94-03news-0315w" x1="164.75" y1="141.04" x2="167.38" y2="141.04" xlink:href="#94-03news-0315a"/><linearGradient id="94-03news-0315x" x1="206.01" y1="176.62" x2="169.77" y2="192.71" xlink:href="#94-03news-0315b"/><linearGradient id="94-03news-0315y" x1="333.55" y1="135" x2="355.41" y2="144.69" xlink:href="#94-03news-0315a"/></defs><circle cx="188.95" cy="188.95" r="188.95" fill="#4E7699" opacity=".18" style="isolation:isolate"/><path d="M338.88 152.35a5 5 0 01-.05 2.25 4.67 4.67 0 01-1 2 7 7 0 01-7.65 2 3.66 3.66 0 01-2.27-2 5 5 0 01.41-3.37 2.29 2.29 0 01.43-.8 2.44 2.44 0 011.2-.54c3.43-.88 7.59-7.09 10.42-9-.73 2.57-2.03 7.19-1.49 9.46z" transform="translate(-60.85 -.48)" fill="url(#94-03news-0315a)"/><path d="M336.74 151.23a10.6 10.6 0 01-1.33 2 7.09 7.09 0 01-5.13 2.17c-.75 0-1.64-.14-2-.82a3.06 3.06 0 01-.12-1.17 4.24 4.24 0 01.1-1.78 2.89 2.89 0 011.38-1.24c2.63-1.45 5.36-2.73 8.08-4 .35-.17 1.11-.53 1.39-.08s-.35 1.14-.54 1.49c-.57 1.2-1.2 2.3-1.83 3.43z" transform="translate(-60.85 -.48)" fill="url(#94-03news-0315c)"/><circle cx="186.58" cy="87.66" r="54.18" fill="#4E7699" opacity=".46" style="isolation:isolate"/><path d="M90.15 192.26a15 15 0 004.79 1.31 3 3 0 001.22-.13 1.33 1.33 0 00.84-.84 1.63 1.63 0 00-.37-1.32 6.8 6.8 0 00-2.46-1.87 19.88 19.88 0 00-7.69-2.34c-.61 0-2.66-.28-2.63.77s1.83 2.05 2.52 2.5a21.32 21.32 0 003.78 1.92zm-1.71-64.64a7 7 0 00-.42 6.21 8.29 8.29 0 004.51 4.39c1.81.76 4.12.83 5.55-.53a6 6 0 001.16-1.66 27.64 27.64 0 001.51-3.33c1.19-3.15-.37-6-3.52-7.12s-6.83-1.06-8.79 2.04z" fill="#3e3e54"/><path d="M149.47 128.12a6.94 6.94 0 00-.43 6.21 8.32 8.32 0 004.51 4.39c1.82.76 4.13.83 5.56-.52a6.49 6.49 0 001.16-1.67 31.15 31.15 0 001.51-3.33c1.19-3.15-.38-6-3.52-7.12s-6.83-1.08-8.79 2.04z" transform="translate(-60.85 -.48)" fill="url(#94-03news-0315b)"/><path d="M76.15 202.35c-1.66 2.91-1.52 6.58-.39 9.74a.77.77 0 00.23.39.82.82 0 00.54.09l16.74-1.05c-.47 0-3.54-6.21-4-6.92-1-1.69-2.05-3.94-3.59-5.24-2.98-2.56-7.84.05-9.53 2.99z" fill="#3e3e54"/><path d="M197.82 186.85a77 77 0 014.23 9.89 16.29 16.29 0 001.64 3.75 2.68 2.68 0 00.86.88 2.76 2.76 0 001.24.29 13.74 13.74 0 005.23-1.22 9.54 9.54 0 002.52-1.24 12.46 12.46 0 002.12-2.45 21.18 21.18 0 012.86-3.05 8.6 8.6 0 013.9-2.15 4 4 0 014 1.41 5.51 5.51 0 01.61 3.61 8.06 8.06 0 01-.89 3.28c-1.34 2.33-4.27 3.18-6.21 5a20.32 20.32 0 00-1.61 1.85 31.68 31.68 0 01-5.15 4.87 13.76 13.76 0 01-3.26 2 13.12 13.12 0 01-3.67.77 21.4 21.4 0 01-7.73-.6 5.79 5.79 0 01-3.07-1.75 7.05 7.05 0 01-1.18-3.46 109.81 109.81 0 01-1.56-14.66c0-2.13.18-4.54 1.83-5.88a5.92 5.92 0 014.87-.78" transform="translate(-60.85 -.48)" fill="url(#94-03news-0315d)"/><path d="M310.52 197.66a10 10 0 015.49 6.68 22.53 22.53 0 01.31 8.89 72.56 72.56 0 00-16.28-2l1.06-9.06c.26-2.19.14-4.16 2.3-4.95a11.71 11.71 0 017.12.44z" fill="#3e3e54"/><path d="M52.51 208h267.11a7 7 0 017 7H45.53a7 7 0 017-7z" fill="#4E7699"/><path d="M52.51 208h267.11a7 7 0 017 7H45.53a7 7 0 017-7z" fill="url(#94-03news-0315e)"/><path d="M285.39 157.08a18.44 18.44 0 0113.43 14.95c2.29 12.62 5.73 35.55 4.58 39.56h-29.81c-7.84 0-15.16.75-23 1-2.77.1-5.67.16-8.14-1.1a2.59 2.59 0 01-1-.82 2.84 2.84 0 01-.32-1.63c0-5.17 1.27-10.24 2.5-15.25l4.92-20a33.26 33.26 0 012.56-7.63 16.61 16.61 0 0110.53-8.2c4.61-1.13 10.08-1.15 14.83-1 2.68.14 6.21.12 8.92.12z" fill="#4E7699"/><path d="M325.39 156.26l-3.61 1.74a1.82 1.82 0 00-.53.33 1.85 1.85 0 00-.44.69c-1.17 2.67-1.41 5.67-2.54 8.35a1.18 1.18 0 00-.12 1 1.07 1.07 0 00.39.37l2 1.34c.1.06.21.14.22.26a.41.41 0 01-.14.31l-3 3.65c0 3.45 1.72 6.84 3.45 9.84s5.31 9.67 6.14 13c-2.02-12.14-4.13-28.72-1.82-40.88z" transform="translate(-60.85 -.48)" fill="url(#94-03news-0315f)"/><path d="M349.45 166.58a7.35 7.35 0 01-.33 4.38 3.8 3.8 0 01-3.5 2.32c.29 1.42 2.07 2.22 2.19 3.66a3.5 3.5 0 01-1.26 2.47l-16.84 18.27c.4-.8-1.32-.81-1-1.63a161.9 161.9 0 008-23.57c.65-2.73 1.41-5.43 2.26-8.1.44-1.38 1.29-6.17 2.84-6.68 3.55-1.16 7.19 6.51 7.64 8.88z" transform="translate(-60.85 -.48)" fill="url(#94-03news-0315g)"/><path d="M271.15 157.52a16.12 16.12 0 01-2.49-.39c-.92-.26-1.75-.77-2.66-1.09a.79.79 0 00-.62-.05.87.87 0 00-.34.37 12.13 12.13 0 00-1.42 3.36 23.05 23.05 0 00-.56 5.37q-.09 4.78.2 9.57a22.58 22.58 0 00.46 3.77c.31 1.35.85 2.64 1.15 4 .22 1 .31 2 .52 2.92a23.7 23.7 0 002.08 5.22c1.38-.73 2.1-2.28 2.72-3.72l9.55-22.1a5.39 5.39 0 00.63-2.67c-.23-1.9-1.87-2-3.27-2.57a24.34 24.34 0 00-5.95-1.99z" fill="#fff" style="isolation:isolate"/><path d="M332 158a16.12 16.12 0 01-2.49-.39c-.92-.26-1.75-.77-2.66-1.09a.79.79 0 00-.62-.05.87.87 0 00-.34.37 12.13 12.13 0 00-1.42 3.36 23.05 23.05 0 00-.56 5.37q-.09 4.78.2 9.57a22.58 22.58 0 00.46 3.77c.31 1.35.85 2.64 1.15 4 .22 1 .31 2 .52 2.92a23.7 23.7 0 002.08 5.22c1.38-.73 2.1-2.28 2.72-3.72l9.55-22.1a5.39 5.39 0 00.63-2.67c-.23-1.9-1.87-2-3.27-2.57A24.34 24.34 0 00332 158z" transform="translate(-60.85 -.48)" fill="url(#94-03news-0315h)"/><path d="M139.32 185.14a2.33 2.33 0 01-.89 1.1 44.18 44.18 0 01-3.95 2.82 11.55 11.55 0 01-1.33 6.46c-.65 1.18-1.5 2.24-2.12 3.44a10 10 0 00-1.07 3.41c-.38 3 .12 6 .17 9a1.07 1.07 0 01-1.19 1.32 206.37 206.37 0 01-32.13.1 1.75 1.75 0 01-1.18-.41 1.57 1.57 0 01-.29-.88c1.85.16 3.75.17 5.61.17h21.11a2 2 0 001.66-.53 1.75 1.75 0 00.2-1.19c-.45-3.32-4-5.36-7.36-5.73a15 15 0 00-3.78.06 11.78 11.78 0 01-2 .22 8.92 8.92 0 01-2.9-.74q-5.52-2.14-11.06-4.25a31 31 0 00.65-5.65 2.21 2.21 0 00-1.24-2.27c-.3-.21-.6-.41-.92-.6a22.32 22.32 0 00-9.42-3.19c-.35 0-.69-.07-1-.09s-.76-.06-.95-.36a1 1 0 01-.12-.58 26.63 26.63 0 016.25-18c4.26-4.92 10.84-9 17.34-9.1 2.07 0 3.86 1.12 5.93 1.19s4.46-.63 6.51 0c2.58.7 5.22 1.45 7.33 3.1 2.68 2.1 4.1 5.36 5.8 8.32 2.21 3.86 5.06 7.43 6.33 11.69a2.14 2.14 0 01.01 1.17z" fill="#4E7699"/><path d="M158.05 193q-.23-4.37 0-8.72a9 9 0 011.09 3.65 11.59 11.59 0 006.54 8.1c1.72.76 3.8 1.24 4.7 2.9a13.55 13.55 0 00.71 1.49 3.43 3.43 0 002.35 1.22c3.17.49 6.65-.89 9.49.6 1.1.57 7.07-.29 7.87.65 0 0-.11 7.31.13 9.47.06.55-3.79 0-4.45-.05a104.78 104.78 0 01-13.58-1.71 34.9 34.9 0 01-12.6-5.15 6.7 6.7 0 01-2.35-2.41 7.6 7.6 0 01-.44-3.91c.17-2.49.38-5 .65-7.44" transform="translate(-60.85 -.48)" fill="url(#94-03news-0315i)"/><path d="M123.69 211.19a2 2 0 01-1.66.53h-21.11c-1.86 0-3.76 0-5.61-.17-.47-4 .67-8 1.44-12q5.53 2.11 11.06 4.25a8.92 8.92 0 002.9.74 11.78 11.78 0 002-.22 15 15 0 013.78-.06c3.33.37 6.91 2.41 7.36 5.73a1.75 1.75 0 01-.16 1.2z" fill="#4E7699"/><path d="M166.25 144.93c.36 4.3.72 10.21.76 14.52l-3.16 1.55a.92.92 0 00-.42.33 1 1 0 00-.06.52l.54 7.21a7.72 7.72 0 00.93 3.72c1 1.52 2.93 2.11 4.72 2.47a16.79 16.79 0 005.6.39 27.07 27.07 0 003.73-.92c1.73-.48 3.49-.86 5.25-1.18a3.08 3.08 0 001.46-.54 2.64 2.64 0 00.45-2.63 22.11 22.11 0 00-3.74-7.14A6 6 0 00180 161c-.51-.22-1.07-.3-1.6-.48a2 2 0 01-1.26-1 2.59 2.59 0 01-.1-.88v-4.31a6.08 6.08 0 00-.15-1.65 5.27 5.27 0 00-1.16-1.9 18 18 0 00-4.64-3.82 4.69 4.69 0 00-1.71-.68c-.61-.09-2.73-1.74-3.16-1.3" transform="translate(-60.85 -.48)" fill="url(#94-03news-0315j)"/><path d="M171.15 156.33a6.34 6.34 0 005.2 2.62.92.92 0 00.56-.19 1.14 1.14 0 00.29-.89l.13-4.72a1.47 1.47 0 00-1.09-1.7c-1.22-.62-7.6-4.79-8.5-3.2-.49.87.74 3.21 1.09 4.06a14.78 14.78 0 002.32 4.02z" transform="translate(-60.85 -.48)" fill="url(#94-03news-0315k)"/><path d="M190.68 129a30.93 30.93 0 01.43 6.94 35.17 35.17 0 01-1.22 10 13.68 13.68 0 01-5.89 7.86 11.64 11.64 0 01-11 0 14.57 14.57 0 01-6.94-8.72 4.1 4.1 0 01-3.39-2.22 5.77 5.77 0 01-.37-4.13c.27-1 .9-2 1.91-2.15s1.88.74 2.55 1.52c-.62-4 .15-8.27 2.79-11.28a13.89 13.89 0 017.55-4.16c2.71-.59 6.92-1.18 9.62-.28 2.36.8 3.52 4.47 3.96 6.62z" transform="translate(-60.85 -.48)" fill="url(#94-03news-0315l)"/><path d="M130.42 120.98a22.9 22.9 0 011 8v3.3h-21.11a.86.86 0 01-.48-.09.85.85 0 01-.3-.46 16.64 16.64 0 01-.8-3.16c-1.34 2.34-1.12 5.22-1.27 7.91a1.34 1.34 0 01-.42 1.07.92.92 0 01-1.09-.15 7.67 7.67 0 00-.75-.64c-1.5-1-2.75-.85-3.69 1.54-3.9-2.72-2.54-10.2-2.25-12.81a16 16 0 01.7-3.57 12.12 12.12 0 015.41-6.2c3.91-2.34 8.58-3.06 13.13-3a11.07 11.07 0 013.89.53 5.18 5.18 0 012.41 1.82 4.24 4.24 0 001.75 1.37 8.58 8.58 0 013.87 4.54z" fill="#3e3e54"/><path d="M191.27 121.46a22.9 22.9 0 011 8v3.3h-21.11a.86.86 0 01-.48-.09.85.85 0 01-.3-.46 16.64 16.64 0 01-.8-3.16c-1.34 2.34-1.12 5.22-1.27 7.91a1.34 1.34 0 01-.42 1.07.92.92 0 01-1.09-.15 7.67 7.67 0 00-.75-.64c-1.5-1-2.75-.85-3.69 1.54-3.9-2.72-2.54-10.2-2.25-12.81a16 16 0 01.7-3.57 12.12 12.12 0 015.41-6.2c3.91-2.34 8.58-3.06 13.13-3a11.07 11.07 0 013.89.53 5.18 5.18 0 012.41 1.82 4.24 4.24 0 001.75 1.37 8.58 8.58 0 013.87 4.54z" transform="translate(-60.85 -.48)" fill="url(#94-03news-0315m)"/><path d="M125.93 176.98a15.43 15.43 0 01-.85 5 7.11 7.11 0 01-3.23 3.87 9.31 9.31 0 01-3.13.84 13.32 13.32 0 01-4.32 0c-3.3-.64-6-3.14-7.68-6.05a35.23 35.23 0 01-3.28-9.49q7.56.26 15.14 0c1.25 0 2.5-.08 3.75-.14.72 0 2.18-.44 2.86 0 1.3.77.78 4.66.74 5.97z" fill="#fff"/><path d="M184.54 211.67a2 2 0 01-1.66.53h-21.11c-1.86 0-3.76 0-5.61-.17a19.27 19.27 0 01-6.28-1.52 8.61 8.61 0 01-5-5.23 10.8 10.8 0 01-.22-3.45 66 66 0 011.79-12.51c.09-.35.15-.7.22-1a22.32 22.32 0 019.42 3.19c0 2.1-1.81 4.34-1.67 6.58a1.12 1.12 0 00.18.65 1.45 1.45 0 00.61.37l2.39.92q5.53 2.11 11.06 4.25a8.92 8.92 0 002.9.74 11.78 11.78 0 002-.22 15 15 0 013.78-.06c3.33.37 6.91 2.41 7.36 5.73a1.75 1.75 0 01-.16 1.2z" transform="translate(-60.85 -.48)" fill="url(#94-03news-0315n)"/><path d="M165.94 175.41a1.78 1.78 0 00-.09-.86 1.8 1.8 0 00-.91-.76c-7.12-3.58-15.43-3.55-23.4-3.45a111.42 111.42 0 01-7.19 41.51l24 .42a24.42 24.42 0 00.5-5.07c.15-1.69.68-3.51 2.08-4.47a10.76 10.76 0 01-1.43-6.56 5.85 5.85 0 012.55-3.87c1.62-1.13 1.82-1.16 2.22-3.25a97.85 97.85 0 001.67-13.64z" fill="#fff"/><path d="M314.17 136.28c.12 4.45.47 9.27 3.4 12.63a11.74 11.74 0 008.89 3.75 17.4 17.4 0 009.34-3 13.67 13.67 0 004.59-4.61 9.94 9.94 0 011.6-2.59c.83-.79 2-1.12 2.82-1.95a4 4 0 001-2.59 4.27 4.27 0 00-2-4 2.85 2.85 0 00-3.94 1.24c.67-5 .2-10.61-3.25-14.31a15.16 15.16 0 00-5.13-3.43 22.82 22.82 0 00-9-1.92 11.54 11.54 0 00-5.95 1.39c-3.22 2-2.74 4.13-2.45 7.21.39 3.96-.02 8.16.08 12.18z" transform="translate(-60.85 -.48)" fill="url(#94-03news-0315o)"/><path d="M251.39 113.69a5.55 5.55 0 01.47-3.22 5.14 5.14 0 012-1.93 12.79 12.79 0 014.91-1.35 36.93 36.93 0 0119.96 3.33c1.88.9 3.84 2.17 4.36 4.19a15.37 15.37 0 01.14 3.26 1.36 1.36 0 00.19.72c.28.38.82.39 1.28.48a3.59 3.59 0 012.36 2.11 10.17 10.17 0 01.69 3.19 20.69 20.69 0 01.08 5.33 7.48 7.48 0 01-2.41 4.63 1.86 1.86 0 01-1 .49c-.87.06-1.47-.85-2.26-1.24a2.8 2.8 0 00-2.61.26 8.36 8.36 0 00-2 1.88l-1.85-12.83a2.14 2.14 0 00-2.61-2.19l-14.62-.56c-2.06-.08-3.27.2-4.75-1.42a9.17 9.17 0 01-2.33-5.13z" fill="#3e3e54"/><path d="M312.24 114.17a5.55 5.55 0 01.47-3.22 5.14 5.14 0 012-1.93 12.79 12.79 0 014.91-1.35 36.93 36.93 0 0119.96 3.33c1.88.9 3.84 2.17 4.36 4.19a15.37 15.37 0 01.14 3.26 1.36 1.36 0 00.19.72c.28.38.82.39 1.28.48a3.59 3.59 0 012.36 2.11 10.17 10.17 0 01.69 3.19 20.69 20.69 0 01.08 5.33 7.48 7.48 0 01-2.41 4.63 1.86 1.86 0 01-1 .49c-.87.06-1.47-.85-2.26-1.24a2.8 2.8 0 00-2.61.26 8.36 8.36 0 00-2 1.88l-1.85-12.83a2.14 2.14 0 00-2.61-2.19l-14.62-.56c-2.06-.08-3.27.2-4.75-1.42a9.17 9.17 0 01-2.33-5.13z" transform="translate(-60.85 -.48)" fill="url(#94-03news-0315p)"/><path d="M276.41 155.02c-1.15.54-2.39.89-3.49 1.52a.93.93 0 00-.37.31.82.82 0 00-.09.49 5 5 0 00.65 1.85l2.3 4.5a12.29 12.29 0 004.52-8.55c.22-3.48-2.08-.8-3.52-.12zm-10.64-.14a8.51 8.51 0 000 2.08 15.28 15.28 0 010 2.14 2.58 2.58 0 000 1 .85.85 0 00.63.66 1.2 1.2 0 001-.5c.61-.65 1.13-1.38 1.77-2a3.84 3.84 0 012.33-1.19 3.56 3.56 0 00-1.44-1.18 6.67 6.67 0 01-1.89-1.74c-.34-.46-.79-1.21-1.44-.9a2.47 2.47 0 00-.96 1.63z" fill="#fff"/><path d="M288.25 163.87a7.3 7.3 0 01-.33 4.39 3.8 3.8 0 01-3.5 2.32c.29 1.41 2.07 2.21 2.19 3.65a3.5 3.5 0 01-1.26 2.47l-16.84 18.28c3.92-7.82 5-16.7 7-25.21.65-2.72 1.41-5.42 2.26-8.09.44-1.38 1.29-6.18 2.84-6.69 3.54-1.16 7.2 6.53 7.64 8.88zm-22.75-8.7l-3.61 1.74a1.82 1.82 0 00-.53.33 1.85 1.85 0 00-.44.69c-1.17 2.67-1.41 5.66-2.54 8.35a1.22 1.22 0 00-.13 1 1.18 1.18 0 00.4.37l2 1.34a.32.32 0 01.08.57l-3 3.65c0 3.45 1.72 6.84 3.45 9.84s5.31 9.67 6.14 13c-2.02-12.15-4.17-28.72-1.82-40.88z" fill="#4E7699"/><path d="M349.1 164.35a7.3 7.3 0 01-.33 4.39 3.8 3.8 0 01-3.5 2.32c.29 1.41 2.07 2.21 2.19 3.65a3.5 3.5 0 01-1.26 2.47l-16.84 18.28c3.92-7.82 5-16.7 7-25.21.65-2.72 1.41-5.42 2.26-8.09.44-1.38 1.29-6.18 2.84-6.69 3.54-1.16 7.2 6.53 7.64 8.88z" transform="translate(-60.85 -.48)" fill="url(#94-03news-0315q)"/><path d="M334.64 205.75h14.71c1.2-7.64-.85-15.38-1.18-23.1a90.25 90.25 0 01-4.53 12.88 9.19 9.19 0 01-1.12 2 7.82 7.82 0 01-2.12 1.71c-6.43 3.85-14.48 4-21.8 2.44-.86-7.08-1.73-14.23-4.18-20.93a168.79 168.79 0 01-3.11 21.72 4.45 4.45 0 01-.75 1.87 8 8 0 01-1.46 1.17c-2.18 1.69-2.71 4.71-3.08 7.44a2.64 2.64 0 00.18 1.74 2.54 2.54 0 002.06.8 171.22 171.22 0 0021.13.09c1.86-.11 7.72.41 8.38-1.6.33-.98-2.05-8.23-3.13-8.23z" transform="translate(-60.85 -.48)" fill="url(#94-03news-0315r)"/><path d="M327.43 205.07a16.83 16.83 0 00-2.65.23 9.17 9.17 0 00-1.92.49 8 8 0 00-2.74 1.91 3.46 3.46 0 00-.72.94 4.13 4.13 0 00-.25 1.82c0 .7.09 1.52.7 1.87a2 2 0 00.94.17h2.2l10.91-.38a36.14 36.14 0 003.89-.27.78.78 0 00.58-.27.73.73 0 00.08-.36 4.6 4.6 0 00-.57-2.44c-.44-.82-1-1-1.84-1.37a30.16 30.16 0 00-5.42-1.93 14.33 14.33 0 00-3.19-.41z" transform="translate(-60.85 -.48)" fill="url(#94-03news-0315s)"/><path d="M319.73 207a4.41 4.41 0 011.85 2.41 2.34 2.34 0 01-1.1 2.65 3.91 3.91 0 01-1.32.24q-6.59.34-13.18.07a1 1 0 01-.53-.13 1 1 0 01-.31-.72 5.43 5.43 0 01.44-3.7c1.27-1.88 4.27-2.68 6.37-2.69 2.68-.01 5.53.29 7.78 1.87z" transform="translate(-60.85 -.48)" fill="url(#94-03news-0315t)"/><rect x="106.26" y="212.65" width="282.65" height="14.91" rx="3.01" transform="rotate(-180 217.155 219.86)" fill="#4E7699"/><path d="M305.77 316.8H67.69a14.55 14.55 0 01-14.55-14.55v-76h267.17v76a14.55 14.55 0 01-14.55 14.55z" fill="#4E7699"/><path transform="rotate(-180 217.155 245.935)" fill="url(#94-03news-0315u)" d="M114 226.69h267.17v38.96H114z"/><path d="M272.42 157.72a4.47 4.47 0 011.34 4.83c-.32.9-.92 1.68-1.15 2.61a7.21 7.21 0 00.12 2.77c.3 1.76.52 3.54.65 5.33a22.89 22.89 0 010 4 26.87 26.87 0 01-1 4.5l-2.3 8.09a45.49 45.49 0 01-2.13 6.28c-1.14-1.06-1.39-2.74-1.56-4.29q-.32-2.78-.57-5.57a25.27 25.27 0 01-.07-5.83 26.29 26.29 0 011.75-5.79c.8-2.08 1.6-4.15 2.41-6.23.59-1.53 1.2-3.2.79-4.79-.49-1.88-2.35-3.52-1.85-5.4a2.66 2.66 0 013.4-.85c1.36.77 1.72 2.52 1.94 4" fill="#3e3e54"/><path d="M333.27 158.2a4.47 4.47 0 011.34 4.83c-.32.9-.92 1.68-1.15 2.61a7.21 7.21 0 00.12 2.77c.3 1.76.52 3.54.65 5.33a22.89 22.89 0 010 4 26.87 26.87 0 01-1 4.5l-2.3 8.09a45.49 45.49 0 01-2.13 6.28c-1.14-1.06-1.39-2.74-1.56-4.29q-.32-2.78-.57-5.57a25.27 25.27 0 01-.07-5.83 26.29 26.29 0 011.75-5.79c.8-2.08 1.6-4.15 2.41-6.23.59-1.53 1.2-3.2.79-4.79-.49-1.88-2.35-3.52-1.85-5.4a2.66 2.66 0 013.4-.85c1.36.77 1.72 2.52 1.94 4" transform="translate(-60.85 -.48)" fill="url(#94-03news-0315v)"/><path d="M165.76 139.85a2.29 2.29 0 00-.37-.77 1 1 0 00-.74-.38 1.14 1.14 0 00-.94.84 3.68 3.68 0 00.51 3c.24.42.6.87 1.08.87 1.52-.03.7-2.82.46-3.56z" transform="translate(-60.85 -.48)" fill="url(#94-03news-0315w)"/><path d="M132.08 253.52h7.28l9.51 14v-14h7.36v25.25h-7.36l-9.45-13.86v13.86h-7.34zm29.31 0h20.91v5.39h-13.09v4h12.14v5.15h-12.14v5h13.47v5.72h-21.29zm22.89 0h7.41l2.67 14.13 3.9-14.13h7.39l3.91 14.12 2.67-14.12h7.37l-5.56 25.25h-7.65l-4.43-15.9-4.41 15.9h-7.65zm36.51 16.89l7.42-.47a5.73 5.73 0 001 2.76 4.12 4.12 0 003.44 1.53 3.81 3.81 0 002.58-.79 2.25 2.25 0 000-3.57 10 10 0 00-4-1.46q-5.13-1.15-7.32-3.07a6.15 6.15 0 01-2.2-4.87 6.66 6.66 0 011.13-3.68 7.48 7.48 0 013.39-2.72 15.85 15.85 0 016.21-1q4.83 0 7.38 1.8a7.78 7.78 0 013 5.73l-7.35.43a3.44 3.44 0 00-3.83-3.26 3.11 3.11 0 00-2.05.58 1.75 1.75 0 00-.68 1.4 1.4 1.4 0 00.56 1.09 6.5 6.5 0 002.62.93 32.19 32.19 0 017.33 2.23 7.67 7.67 0 013.22 2.8 7.07 7.07 0 011 3.73 8 8 0 01-1.35 4.48 8.35 8.35 0 01-3.75 3.11 15.1 15.1 0 01-6.08 1.06c-4.29 0-7.27-.83-8.92-2.48a9.81 9.81 0 01-2.75-6.29z" fill="#fff"/><path d="M195 184.12a19 19 0 00-.64-4.51c-.52-1.63-1.49-3.17-1.5-4.87a36.9 36.9 0 003.08 5c.66.91 1.35 1.78 2 2.73a15.69 15.69 0 011.34 2.65 2 2 0 01.19 1 2 2 0 01-1 1.24c-.74.49-2.41 2-3.12 1.18-.62-.65-.35-3.54-.35-4.42z" transform="translate(-60.85 -.48)" fill="url(#94-03news-0315x)"/><path d="M205.07 37.98l-.36 1.2a.1.1 0 01-.06 0c-1.49.2-1.62.39-1.23 1.87s.24 1.75-1 2.6a.7.7 0 00-.29 1 1.59 1.59 0 001.88 1.1c1-.06 1-.06 1.24.84a1.08 1.08 0 00.83.73 6 6 0 011.09.51c.32.18.3.42.12.74a8.23 8.23 0 00-.88 1.94 4.23 4.23 0 01-2.26 3.01c-.26.14-.51.3-.92.55l1.52.29a1.92 1.92 0 011.49.93 1 1 0 01-.39 1.48 9 9 0 01-1.57.67c-1.59.57-1.81 1.22-.86 2.6.35.5.69 1 1.07 1.49a2.27 2.27 0 00.71.6c.38.21.74.28 1-.26a3.55 3.55 0 01.67-.68 2.71 2.71 0 01.67 2.84c-.65 1.82-1.33 3.64-1.91 5.48a7.3 7.3 0 001.32 7.45 2.82 2.82 0 01.57 1.24 2.85 2.85 0 001.42 2 10 10 0 001 .55 6.06 6.06 0 012.41 2 6.26 6.26 0 001 1.11 1.5 1.5 0 002.35-.29 1.87 1.87 0 00.24-.38 1.83 1.83 0 012-1.07h.89c.86 0 1-.13 1.11-1 0-.15 0-.3.07-.44a1.05 1.05 0 011.35-.89c.7.11 1.42.21 2.13.27 1.25.1 1.7.52 1.56 1.76a4.93 4.93 0 00.82 3.2 15 15 0 002.52 3.3 2.2 2.2 0 01.53 3c-.22.49-.48 1-.73 1.44a2.62 2.62 0 00.09 2.8 23.82 23.82 0 002.49 3.24 4.12 4.12 0 011.36 3.52 5 5 0 001.36 4.13 1.9 1.9 0 00.21.19.83.83 0 00.14.07c1-1.08 2.66-1.17 3.56-2.56a53.77 53.77 0 11-32.39-66.13zm-41.59 19.77c1.66-.08 3.19.73 4.76.43l.34-2.25a7.08 7.08 0 00-.8-.16c-.39 0-.42-.3-.38-.54a.61.61 0 01.41-.35c.41-.08.85-.06 1.26-.15a5 5 0 00.91-.35v-.29a5.92 5.92 0 00-1.66-.12 4.74 4.74 0 01-4-.81 2.36 2.36 0 00-2.07-.39 12.86 12.86 0 00-2.1.75 3.24 3.24 0 01-3.08 0 3.46 3.46 0 00-1.26-.37c-.76-.07-.85.08-.61.83l1 .06a3.43 3.43 0 00-.52.65 4.13 4.13 0 00-.19.77c-1.15 0-1.48.36-1.5 1.52a10.07 10.07 0 00.06 1.22c.05.51.13 1 .2 1.59-1.58-.83-3.08 0-4.64 0 0-.2 0-.4-.06-.6a2.14 2.14 0 00-.25-.89 1.31 1.31 0 00-.8-.44c-.39 0-.41.37-.39.66a1.33 1.33 0 01-.74 1.27 7.49 7.49 0 01-3.31 1.18c-.81.08-1.62.2-2.41.35-.37.06-.74.25-.7.72a1.08 1.08 0 00.76.94.8.8 0 001-.3c.24-.34.45-.71.7-1.11.11.15.26.26.3.4.19.55.62.6 1.1.61a6.5 6.5 0 003.45-.87c.14-.08.28-.14.42-.21a2.19 2.19 0 01-.78.79c-.86.49-1.74 1-2.64 1.41a7.92 7.92 0 01-4.09.81h-1.61a1.86 1.86 0 00-1.83 1.28 10.33 10.33 0 00-.51 2c-.25 1.89-.38 3.8-.68 5.68a26 26 0 01-.92 3 1.76 1.76 0 00.52 2c.42.37.69.32.84-.23s.17-.87.27-1.41c.37.73.66 1.36 1 2a15.38 15.38 0 011.57 4.14 17.07 17.07 0 00.75 2.43 4.35 4.35 0 003.14 2.88 4.4 4.4 0 013.44 3.24 8.21 8.21 0 00.87 1.85 1.88 1.88 0 002.2.83l-1.07-1.18c-.49-.51-1-1-1.47-1.51a1.7 1.7 0 01-.31-1.85 2.28 2.28 0 01.59.18c1.66 1 3.51 1.76 4.8 3.25a6.54 6.54 0 006.39 2.25 23.14 23.14 0 015.26-.22 3.7 3.7 0 012.2.79 5 5 0 001.41.71c1.12.43 2.24.84 3.38 1.23a1.62 1.62 0 00.89.09.87.87 0 011 .22 4.13 4.13 0 011 1.37 12.16 12.16 0 01.37 2.56c.07 1.07 0 2.15.09 3.22a3.09 3.09 0 001.74 2.83 7 7 0 012.42 2.08l1.06 1.28a2.11 2.11 0 002 .87c1.06-.19 1.52.35 1.86 1.18.08.19.17.37.25.56.74 1.69 1.46 3.4 2.22 5.08a9.05 9.05 0 01.79 5.51 5.9 5.9 0 00.67 4c.42.8.73 1.65 1.12 2.47.67 1.4 1.33 2.81 2.07 4.16a2.52 2.52 0 001.18 1.13 5.82 5.82 0 003.86-.14c.13-.05.32-.25.3-.34a.61.61 0 00-.34-.38 3.61 3.61 0 00-.87 0 1.13 1.13 0 01-1.38-.89 11.41 11.41 0 01-.38-1.22c-.32-1.48-.64-3-.91-4.45-.07-.38-.09-1 .12-1.15a5.45 5.45 0 011.54-.72h.38c.1 0 .51-.26.56-.45s-.18-.42-.33-.71c.07-.09.23-.26.38-.45.54-.69.53-1 0-1.72a4.08 4.08 0 01-.69-.93 5.2 5.2 0 01-.46-1.67 1 1 0 01.55-.78 1.26 1.26 0 01.94.26 3.3 3.3 0 01.58.78 1.13 1.13 0 001.09-1.25 16.26 16.26 0 00-.17-2.7 5.25 5.25 0 01.5-3.39 9.55 9.55 0 00.79-2.29 5.35 5.35 0 011.62-2.85c.39-.36.79-.72 1.17-1.1a2.49 2.49 0 00.69-2.6 17.26 17.26 0 00-.87-2.34 6.75 6.75 0 01-.58-4.79c.23-.91 0-1.31-.91-1.49a9.34 9.34 0 00-3-.26 11.89 11.89 0 01-7.24-1 7.23 7.23 0 00-3.06-.67 2.9 2.9 0 01-1.67-.6 3.66 3.66 0 00-2.73-.83h-1.44c-1.6.12-3.21.23-4.81.43-.77.1-1 .5-1 1.28v1.47c-.45.26-.79.07-1.08-.31a.71.71 0 00-1.11-.18 1.59 1.59 0 01-2.16 0c-.25-.15-.55-.25-.78-.42-.63-.45-1.36-.83-1.23-1.82-.28.07-.49.13-.71.17a2 2 0 01-2.75-1.44c-.08-.27-.15-.54-.25-.8-.29-.77-.7-.92-1.51-.53a1.44 1.44 0 01-.84 1.77 3.07 3.07 0 01-4.14-2.32 10.45 10.45 0 01.06-2.37 3.76 3.76 0 012.85-3.27c.52-.17 1.06-.29 1.5-.4.15-.3.2-.64.38-.74 1.57-.83 2.32-1.3 3.77.52a3.58 3.58 0 00.54.56c.25.2.53.37.92.64a5.76 5.76 0 00-.11-.85c-.23-.8-.46-1.6-.75-2.38a4 4 0 01.17-3.43 4.63 4.63 0 00.38-1 1.33 1.33 0 00-.32-1.44c-.29-.26-.16-.45.06-.63a5.28 5.28 0 00.55-.37c.17-.18.41-.44.39-.65a1.68 1.68 0 01.6-1.31 3.29 3.29 0 00.67-1.16 10.32 10.32 0 00.21-1.59 6.44 6.44 0 01.15-1 1.2 1.2 0 011-.89c.44-.08.9-.24 1.22.3a.69.69 0 00.54.17 2.07 2.07 0 001.49-1.78l-1.77.11-.24-1c-1-.2-1.67.77-2.66.87.51-1.09 1-2.12 1.46-3.12a.66.66 0 01.8-.32 3.12 3.12 0 001.14 0 6.09 6.09 0 001.21-.39c.44-.19.57 0 .63.41a1.26 1.26 0 001.51 1.28c.61 0 1.22 0 1.83-.1s.85-.51.5-1.06a1.37 1.37 0 00-1.41-.67.49.49 0 01-.63-.45 2.86 2.86 0 00-2-2.11 11.64 11.64 0 00-1.91-.57 2.55 2.55 0 01-1.9-1.38 1.16 1.16 0 00-.4-.45c-.39-.26-.67-.13-.77.33a1.24 1.24 0 01-1.92.81 6.83 6.83 0 01-.74-.59 2.36 2.36 0 00-3.07.39 2.3 2.3 0 00-.08 3.14 1.08 1.08 0 01-.31 1.95 2.09 2.09 0 01-.74.2c-1.9.21-3.79.41-5.69.6-.83.08-1.12-.22-1-1.07a3.28 3.28 0 01.3-1c.46-.94 1-1.87 1.43-2.8a3.24 3.24 0 00.84.49 1.46 1.46 0 001.05 0 8.37 8.37 0 001.41-1.32c.44-.46.38-.71-.16-1-.13-.08-.29-.2-.32-.33-.16-.8-.29-1.6-.44-2.45.77-.07 1.7-.57 2.39.38l1.62-.43.17.15zm9.9-7.28a4.91 4.91 0 00.23 1 7 7 0 001 1.76 10.89 10.89 0 002 1.55 2 2 0 002.39.23c.82-.53.74-1.38.7-2.2 0-.55-.08-1.11-.06-1.66a1.33 1.33 0 01.85-1.25 7.74 7.74 0 001.76-1 23.72 23.72 0 014.24-2.93c.75-.37.78-.66.46-1.44a13.79 13.79 0 01-.6-1.78c-.11-.43.12-.71.61-.7h.88c.82 0 1.07-.15 1.31-.91a1.82 1.82 0 011.06-1.2c.22-.09.51-.21.58-.4a3.44 3.44 0 00.12-1c-.23 0-.52-.14-.69 0-.66.37-1.27.82-1.9 1.23a4.94 4.94 0 01-1.36.81 10.07 10.07 0 00-2.69.81c-.62.31-.9.07-.72-.61a19.15 19.15 0 01.78-2.12c.16-.4.41-.81 0-1.19s-.72-.06-1.07.07-.51.21-.76.33a3.52 3.52 0 01-2.17.25 1.38 1.38 0 00-1.75 1 .78.78 0 01-.58.44 2.54 2.54 0 01-1.15-.28 1.32 1.32 0 00-2 .47 3 3 0 01-2.7 1.77 4.83 4.83 0 00-3.26 1.34 16.86 16.86 0 01-1.82 1.46 5.86 5.86 0 00-2.43 3.34c-.38 1.3-.21 1.5 1.11 1.21a3.35 3.35 0 013 .67c.23.19.47.37.71.54 1.19.78 2.4 1.6 3.92.44zm-8.9-5.34l-.09-.19a4.2 4.2 0 00-1 .22c-.57.28-1.1.67-1.66 1-.8.43-1.6.84-2.41 1.23-.61.29-1.28.49-1.87.82a1.66 1.66 0 00-.88 1.82.86.86 0 010 .24c-.86.22-1.69.4-2.49.65-.23.07-.39.34-.58.51.19.19.36.51.57.54a6.36 6.36 0 001.57 0c.87-.12 1.48-.11 1.47 1.1 0 0 0 .07.12.22.82-.05 1.7-.05 2.57-.17.67-.09.85-.42.77-1.05a2.33 2.33 0 01-.59 0 1.23 1.23 0 01-.67-.3c-.08-.13 0-.5.19-.65a12.12 12.12 0 011.39-1.19 3.48 3.48 0 001.52-2.16 2.81 2.81 0 011.31-1.84 6.05 6.05 0 00.76-.8zm35.41 2.51c-.18.61-.34 1.1-.48 1.59 0 .15-.08.39 0 .47.4.42.13.74-.11 1.07l-.92 1.25c.19.11.27.19.37.23.41.18.73.62 1.26.39s.36-.73.46-1.14a.78.78 0 01.48-.49c.15 0 .4.18.54.34a1.54 1.54 0 01.19.51 1.63 1.63 0 001.34 1.17 2 2 0 002.13-2.13 8.55 8.55 0 01-4.17-2.48 7.17 7.17 0 00-1.09-.78zm-7.24-1.59a4.84 4.84 0 01-1.21-.17 1.12 1.12 0 00-1.35.29 1.69 1.69 0 01-1.31.58 2.45 2.45 0 00-1.07.42c-.46.28-.47.62 0 .88s1.24.55 1.91.85a1.75 1.75 0 011.53-1.38 2.45 2.45 0 00.71-.3 1.41 1.41 0 00.79-1.17zm-46.94 13.27a2.17 2.17 0 00.54-.06c.42-.15 1-.22 1.19-.52a2.59 2.59 0 011.5-1.37c.15-.05.23-.28.34-.43a2 2 0 00-.5-.26c-.42-.07-.63.21-.82.53-.47.77-.79.83-1.58.43a.79.79 0 00-.7.15c-.3.28-.55.54-1 .35a.39.39 0 00-.32 0c-.57.42-1.12.84-1.67 1.28-.07.07-.13.3-.08.34a.5.5 0 00.38.12c.34-.12.66-.31 1-.42a7.32 7.32 0 011.15-.23 2.45 2.45 0 01.57.09zm20.17 29.07l.14.26a3.79 3.79 0 001.18-.47 2 2 0 012.55-.23 2.78 2.78 0 002.35.3c.2 0 .52-.31.5-.44a1.1 1.1 0 00-.46-.59c-.12-.09-.35 0-.53 0-.51 0-1-.08-1.51-.14a2.14 2.14 0 00-.65-.08c-1 .24-2 .51-2.9.83-.26.06-.4.36-.67.56zm10.81-1.18h-1.2a2 2 0 00-.49 0 6.23 6.23 0 00-1.4.47.78.78 0 00.06 1.36 2.13 2.13 0 002.13-.71c.25-.37.57-.71.9-1.12zm-24.35-32.94c.07-.24-.05-.44-.43-.48a2.56 2.56 0 00-.65-.12 4 4 0 00-.94.25s0 .36.05.36a5.27 5.27 0 001 .06c.28 0 .58-.04.97-.07zm-4.61 1.63l-.19-.12-1 1.22.08.19c.22 0 .48 0 .63-.13a1.1 1.1 0 00.48-1.16z" fill="#4E7699"/><path d="M342.09 135.64a1.11 1.11 0 01.58.51 3.22 3.22 0 01.35 2.43 4.19 4.19 0 01-1.31 2.11 1.4 1.4 0 01-2.23-1.69c.29-.62.59-1.16.83-1.82s.89-1.8 1.78-1.54z" transform="translate(-60.85 -.48)" fill="url(#94-03news-0315y)"/></svg>