<svg data-name="Layer 1" xmlns="http://www.w3.org/2000/svg" xmlns:xlink="http://www.w3.org/1999/xlink" viewBox="0 0 444.15 407.31"><defs><linearGradient id="91-03programming_code_1-0366d" x1="141.4" y1="277.42" x2="160.86" y2="335.81" xlink:href="#91-03programming_code_1-0366a"/><linearGradient id="91-03programming_code_1-0366J" x1="255.56" y1="287.26" x2="275.02" y2="345.65" xlink:href="#91-03programming_code_1-0366a"/><linearGradient id="91-03programming_code_1-0366e" x1="141.4" y1="287.26" x2="160.86" y2="345.65" xlink:href="#91-03programming_code_1-0366a"/><linearGradient id="91-03programming_code_1-0366f" x1="141.4" y1="297.1" x2="160.86" y2="355.49" xlink:href="#91-03programming_code_1-0366a"/><linearGradient id="91-03programming_code_1-0366g" x1="141.4" y1="306.94" x2="160.86" y2="365.33" xlink:href="#91-03programming_code_1-0366a"/><linearGradient id="91-03programming_code_1-0366h" x1="154.08" y1="277.42" x2="173.55" y2="335.81" xlink:href="#91-03programming_code_1-0366a"/><linearGradient id="91-03programming_code_1-0366i" x1="154.08" y1="287.26" x2="173.55" y2="345.65" xlink:href="#91-03programming_code_1-0366a"/><linearGradient id="91-03programming_code_1-0366j" x1="154.08" y1="297.1" x2="173.55" y2="355.49" xlink:href="#91-03programming_code_1-0366a"/><linearGradient id="91-03programming_code_1-0366k" x1="154.08" y1="306.94" x2="173.55" y2="365.33" xlink:href="#91-03programming_code_1-0366a"/><linearGradient id="91-03programming_code_1-0366l" x1="166.77" y1="277.42" x2="186.23" y2="335.81" xlink:href="#91-03programming_code_1-0366a"/><linearGradient id="91-03programming_code_1-0366m" x1="166.77" y1="287.26" x2="186.23" y2="345.65" xlink:href="#91-03programming_code_1-0366a"/><linearGradient id="91-03programming_code_1-0366n" x1="166.77" y1="297.1" x2="186.23" y2="355.49" xlink:href="#91-03programming_code_1-0366a"/><linearGradient id="91-03programming_code_1-0366o" x1="166.77" y1="306.94" x2="186.23" y2="365.33" xlink:href="#91-03programming_code_1-0366a"/><linearGradient id="91-03programming_code_1-0366p" x1="179.45" y1="277.42" x2="198.92" y2="335.81" xlink:href="#91-03programming_code_1-0366a"/><linearGradient id="91-03programming_code_1-0366q" x1="179.45" y1="287.26" x2="198.92" y2="345.65" xlink:href="#91-03programming_code_1-0366a"/><linearGradient id="91-03programming_code_1-0366r" x1="179.45" y1="297.1" x2="198.92" y2="355.49" xlink:href="#91-03programming_code_1-0366a"/><linearGradient id="91-03programming_code_1-0366s" x1="192.14" y1="277.42" x2="211.6" y2="335.81" xlink:href="#91-03programming_code_1-0366a"/><linearGradient id="91-03programming_code_1-0366t" x1="192.14" y1="287.26" x2="211.6" y2="345.65" xlink:href="#91-03programming_code_1-0366a"/><linearGradient id="91-03programming_code_1-0366u" x1="192.14" y1="297.1" x2="211.6" y2="355.49" xlink:href="#91-03programming_code_1-0366a"/><linearGradient id="91-03programming_code_1-0366v" x1="204.82" y1="277.42" x2="224.29" y2="335.81" xlink:href="#91-03programming_code_1-0366a"/><linearGradient id="91-03programming_code_1-0366w" x1="204.82" y1="287.26" x2="224.29" y2="345.65" xlink:href="#91-03programming_code_1-0366a"/><linearGradient id="91-03programming_code_1-0366x" x1="204.82" y1="297.1" x2="224.29" y2="355.49" xlink:href="#91-03programming_code_1-0366a"/><linearGradient id="91-03programming_code_1-0366y" x1="217.51" y1="277.42" x2="236.97" y2="335.81" xlink:href="#91-03programming_code_1-0366a"/><linearGradient id="91-03programming_code_1-0366z" x1="217.51" y1="287.26" x2="236.97" y2="345.65" xlink:href="#91-03programming_code_1-0366a"/><linearGradient id="91-03programming_code_1-0366A" x1="217.51" y1="297.1" x2="236.97" y2="355.49" xlink:href="#91-03programming_code_1-0366a"/><linearGradient id="91-03programming_code_1-0366B" x1="230.19" y1="277.42" x2="249.66" y2="335.81" xlink:href="#91-03programming_code_1-0366a"/><linearGradient id="91-03programming_code_1-0366C" x1="230.19" y1="287.26" x2="249.66" y2="345.65" xlink:href="#91-03programming_code_1-0366a"/><linearGradient id="91-03programming_code_1-0366D" x1="230.19" y1="297.1" x2="249.66" y2="355.49" xlink:href="#91-03programming_code_1-0366a"/><linearGradient id="91-03programming_code_1-0366E" x1="242.88" y1="277.42" x2="262.34" y2="335.81" xlink:href="#91-03programming_code_1-0366a"/><linearGradient id="91-03programming_code_1-0366F" x1="242.88" y1="287.26" x2="262.34" y2="345.65" xlink:href="#91-03programming_code_1-0366a"/><linearGradient id="91-03programming_code_1-0366G" x1="242.88" y1="297.1" x2="262.34" y2="355.49" xlink:href="#91-03programming_code_1-0366a"/><linearGradient id="91-03programming_code_1-0366H" x1="242.88" y1="306.94" x2="262.34" y2="365.33" xlink:href="#91-03programming_code_1-0366a"/><linearGradient id="91-03programming_code_1-0366I" x1="255.56" y1="277.42" x2="275.02" y2="335.81" xlink:href="#91-03programming_code_1-0366a"/><linearGradient id="91-03programming_code_1-0366a" x1="207.58" y1="316.27" x2="209.76" y2="384.73" gradientUnits="userSpaceOnUse"><stop offset="0" stop-color="#010101" stop-opacity="0"/><stop offset=".95" stop-color="#010101"/></linearGradient><linearGradient id="91-03programming_code_1-0366K" x1="255.56" y1="297.1" x2="275.02" y2="355.49" xlink:href="#91-03programming_code_1-0366a"/><linearGradient id="91-03programming_code_1-0366L" x1="255.56" y1="306.94" x2="275.02" y2="365.33" xlink:href="#91-03programming_code_1-0366a"/><linearGradient id="91-03programming_code_1-0366M" x1="268.24" y1="277.42" x2="287.71" y2="335.81" xlink:href="#91-03programming_code_1-0366a"/><linearGradient id="91-03programming_code_1-0366N" x1="268.24" y1="287.26" x2="287.71" y2="345.65" xlink:href="#91-03programming_code_1-0366a"/><linearGradient id="91-03programming_code_1-0366O" x1="268.24" y1="297.1" x2="287.71" y2="355.49" xlink:href="#91-03programming_code_1-0366a"/><linearGradient id="91-03programming_code_1-0366P" x1="268.24" y1="306.94" x2="287.71" y2="365.33" xlink:href="#91-03programming_code_1-0366a"/><linearGradient id="91-03programming_code_1-0366Q" x1="201.17" y1="299.29" x2="200.66" y2="387.48" xlink:href="#91-03programming_code_1-0366a"/><linearGradient id="91-03programming_code_1-0366b" x1="241.75" y1="324.01" x2="280.1" y2="324.01" gradientUnits="userSpaceOnUse"><stop offset="0" stop-color="#e5c6d6"/><stop offset=".42" stop-color="#ead4d0"/><stop offset="1" stop-color="#f0e9cb"/></linearGradient><linearGradient id="91-03programming_code_1-0366R" x1="297.63" y1="345.78" x2="344.09" y2="345.78" xlink:href="#91-03programming_code_1-0366b"/><linearGradient id="91-03programming_code_1-0366c" x1="229.76" y1="451.83" x2="225.94" y2="247.42" gradientTransform="matrix(1 0 0 -1 -88.24 449.13)" gradientUnits="userSpaceOnUse"><stop offset="0" stop-color="#fff" stop-opacity="0"/><stop offset=".99" stop-color="#fff"/></linearGradient><linearGradient id="91-03programming_code_1-0366S" x1="219.63" y1="441.06" x2="216.1" y2="252.08" xlink:href="#91-03programming_code_1-0366c"/><linearGradient id="91-03programming_code_1-0366T" x1="322.22" y1="441.69" x2="318.61" y2="249.34" xlink:href="#91-03programming_code_1-0366c"/><linearGradient id="91-03programming_code_1-0366U" x1="250.84" y1="430.96" x2="247.52" y2="254.69" xlink:href="#91-03programming_code_1-0366c"/><linearGradient id="91-03programming_code_1-0366V" x1="274.55" y1="421.86" x2="271.44" y2="256.61" xlink:href="#91-03programming_code_1-0366c"/><linearGradient id="91-03programming_code_1-0366W" x1="336.5" y1="420.37" x2="333.43" y2="255.67" xlink:href="#91-03programming_code_1-0366c"/><linearGradient id="91-03programming_code_1-0366X" x1="268.6" y1="412.51" x2="265.72" y2="258.58" xlink:href="#91-03programming_code_1-0366c"/><linearGradient id="91-03programming_code_1-0366Y" x1="344.84" y1="414.34" x2="341.9" y2="256.9" xlink:href="#91-03programming_code_1-0366c"/><linearGradient id="91-03programming_code_1-0366Z" x1="242.37" y1="365.56" x2="239.72" y2="223.82" xlink:href="#91-03programming_code_1-0366c"/><linearGradient id="91-03programming_code_1-0366aa" x1="233.6" y1="358.48" x2="231.15" y2="227.25" xlink:href="#91-03programming_code_1-0366c"/><linearGradient id="91-03programming_code_1-0366ab" x1="317.74" y1="363.14" x2="315.12" y2="223.77" xlink:href="#91-03programming_code_1-0366c"/><linearGradient id="91-03programming_code_1-0366ac" x1="258.93" y1="353.78" x2="256.58" y2="228.63" xlink:href="#91-03programming_code_1-0366c"/><linearGradient id="91-03programming_code_1-0366ad" x1="278.41" y1="349.28" x2="276.16" y2="229.81" xlink:href="#91-03programming_code_1-0366c"/><linearGradient id="91-03programming_code_1-0366ae" x1="329.83" y1="347.34" x2="327.62" y2="229.32" xlink:href="#91-03programming_code_1-0366c"/><linearGradient id="91-03programming_code_1-0366af" x1="273.3" y1="343.25" x2="271.21" y2="231.37" xlink:href="#91-03programming_code_1-0366c"/><linearGradient id="91-03programming_code_1-0366ag" x1="337.03" y1="346.81" x2="334.84" y2="229.82" xlink:href="#91-03programming_code_1-0366c"/><linearGradient id="91-03programming_code_1-0366ah" x1="251.09" y1="310.87" x2="249.12" y2="205.63" xlink:href="#91-03programming_code_1-0366c"/><linearGradient id="91-03programming_code_1-0366ai" x1="243.38" y1="305.62" x2="241.56" y2="208.4" xlink:href="#91-03programming_code_1-0366c"/><linearGradient id="91-03programming_code_1-0366aj" x1="314.69" y1="312.02" x2="312.67" y2="204.73" xlink:href="#91-03programming_code_1-0366c"/><linearGradient id="91-03programming_code_1-0366ak" x1="264.7" y1="303.52" x2="262.92" y2="209.18" xlink:href="#91-03programming_code_1-0366c"/><linearGradient id="91-03programming_code_1-0366al" x1="281.21" y1="301.33" x2="279.49" y2="209.99" xlink:href="#91-03programming_code_1-0366c"/><linearGradient id="91-03programming_code_1-0366am" x1="325.16" y1="299.24" x2="323.49" y2="209.75" xlink:href="#91-03programming_code_1-0366c"/><linearGradient id="91-03programming_code_1-0366an" x1="276.73" y1="297.05" x2="275.13" y2="211.31" xlink:href="#91-03programming_code_1-0366c"/><linearGradient id="91-03programming_code_1-0366ao" x1="331.48" y1="301.34" x2="329.77" y2="209.9" xlink:href="#91-03programming_code_1-0366c"/></defs><path d="M367.55 336.31c-13.21 5.07-27.17 8.17-40.12 13.86-21.14 9.34-38.67 25.21-58.67 36.78a146 146 0 01-27.21 12.26 152.77 152.77 0 01-28.75 6.56 188 188 0 01-39.13.95 253.36 253.36 0 01-37.31-5.69 386.22 386.22 0 01-54.31-16.82C27.23 363.09-8.56 253.63 15.33 201.88c10.52-22.82 31.1-39.19 45.93-59.47 27.5-37.64 35.77-89.33 71.86-118.86C156.5 4.43 188.33-1.89 218.42.47s58.94 12.7 87 23.86c13.54 5.37 27.26 11.12 38.21 20.76 19.3 16.94 27.11 43 39.31 65.61 19.95 37 53.69 68.07 60.19 109.52 7.69 49.34-28.99 98.16-75.58 116.09z" fill="#4E7699" opacity=".24" style="isolation:isolate"/><path fill="#4E7699" d="M134.26 277.56h145.95v56.37H134.26z"/><path fill="url(#91-03programming_code_1-0366a)" d="M134.26 277.56h145.95v56.37H134.26z"/><path fill="#4E7699" d="M134.26 274.06h145.95v56.37H134.26z"/><path fill="url(#91-03programming_code_1-0366d)" d="M139.98 283.43h9.62v8.31h-9.62z"/><path fill="url(#91-03programming_code_1-0366e)" d="M139.98 293.27h9.62v8.31h-9.62z"/><path fill="url(#91-03programming_code_1-0366f)" d="M139.98 303.11h9.62v8.31h-9.62z"/><path fill="url(#91-03programming_code_1-0366g)" d="M139.98 312.96h9.62v8.31h-9.62z"/><path fill="url(#91-03programming_code_1-0366h)" d="M152.66 283.43h9.62v8.31h-9.62z"/><path fill="url(#91-03programming_code_1-0366i)" d="M152.66 293.27h9.62v8.31h-9.62z"/><path fill="url(#91-03programming_code_1-0366j)" d="M152.66 303.11h9.62v8.31h-9.62z"/><path fill="url(#91-03programming_code_1-0366k)" d="M152.66 312.96h9.62v8.31h-9.62z"/><path fill="url(#91-03programming_code_1-0366l)" d="M165.35 283.43h9.62v8.31h-9.62z"/><path fill="url(#91-03programming_code_1-0366m)" d="M165.35 293.27h9.62v8.31h-9.62z"/><path fill="url(#91-03programming_code_1-0366n)" d="M165.35 303.11h9.62v8.31h-9.62z"/><path fill="url(#91-03programming_code_1-0366o)" d="M165.35 312.96h9.62v8.31h-9.62z"/><path fill="url(#91-03programming_code_1-0366p)" d="M178.03 283.43h9.62v8.31h-9.62z"/><path fill="url(#91-03programming_code_1-0366q)" d="M178.03 293.27h9.62v8.31h-9.62z"/><path fill="url(#91-03programming_code_1-0366r)" d="M178.03 303.11h9.62v8.31h-9.62z"/><path fill="url(#91-03programming_code_1-0366s)" d="M190.72 283.43h9.62v8.31h-9.62z"/><path fill="url(#91-03programming_code_1-0366t)" d="M190.72 293.27h9.62v8.31h-9.62z"/><path fill="url(#91-03programming_code_1-0366u)" d="M190.72 303.11h9.62v8.31h-9.62z"/><path fill="url(#91-03programming_code_1-0366v)" d="M203.4 283.43h9.62v8.31h-9.62z"/><path fill="url(#91-03programming_code_1-0366w)" d="M203.4 293.27h9.62v8.31h-9.62z"/><path fill="url(#91-03programming_code_1-0366x)" d="M203.4 303.11h9.62v8.31h-9.62z"/><path fill="url(#91-03programming_code_1-0366y)" d="M216.09 283.43h9.62v8.31h-9.62z"/><path fill="url(#91-03programming_code_1-0366z)" d="M216.09 293.27h9.62v8.31h-9.62z"/><path fill="url(#91-03programming_code_1-0366A)" d="M216.09 303.11h9.62v8.31h-9.62z"/><path fill="url(#91-03programming_code_1-0366B)" d="M228.77 283.43h9.62v8.31h-9.62z"/><path fill="url(#91-03programming_code_1-0366C)" d="M228.77 293.27h9.62v8.31h-9.62z"/><path fill="url(#91-03programming_code_1-0366D)" d="M228.77 303.11h9.62v8.31h-9.62z"/><path fill="url(#91-03programming_code_1-0366E)" d="M241.45 283.43h9.62v8.31h-9.62z"/><path fill="url(#91-03programming_code_1-0366F)" d="M241.45 293.27h9.62v8.31h-9.62z"/><path fill="url(#91-03programming_code_1-0366G)" d="M241.45 303.11h9.62v8.31h-9.62z"/><path fill="url(#91-03programming_code_1-0366H)" d="M241.45 312.96h9.62v8.31h-9.62z"/><path fill="url(#91-03programming_code_1-0366I)" d="M254.14 283.43h9.62v8.31h-9.62z"/><path fill="url(#91-03programming_code_1-0366J)" d="M254.14 293.27h9.62v8.31h-9.62z"/><path fill="url(#91-03programming_code_1-0366K)" d="M254.14 303.11h9.62v8.31h-9.62z"/><path fill="url(#91-03programming_code_1-0366L)" d="M254.14 312.96h9.62v8.31h-9.62z"/><path fill="url(#91-03programming_code_1-0366M)" d="M266.82 283.43h9.62v8.31h-9.62z"/><path fill="url(#91-03programming_code_1-0366N)" d="M266.82 293.27h9.62v8.31h-9.62z"/><path fill="url(#91-03programming_code_1-0366O)" d="M266.82 303.11h9.62v8.31h-9.62z"/><path fill="url(#91-03programming_code_1-0366P)" d="M266.82 312.96h9.62v8.31h-9.62z"/><path fill="url(#91-03programming_code_1-0366Q)" d="M163.45 313.5h75.22v8.15h-75.22z"/><path d="M243.4 314c.26-1.11 1-2.5 2.12-2.14.59.19.88.84 1.1 1.42.61 1.59 3 3.77 3.58 5.37.11-4 .26-14.12 2.66-19.91a1.49 1.49 0 012.85.37c.93 6.58 1.54 17.23 1.92 15.05.49-2.75 2-24.82 6.13-22.3 1.3 3.92.38 19.09-.11 23.19 1.1-5.43 3.17-26.91 7.33-24.62 2.63 6.86-2.82 24.41-.32 31.32.46 1.27 1.45 2.63 2.81 2.53s2.07-1.54 2.15-2.83-.28-2.58-.18-3.87a2 2 0 011-1.73c1.2-.52 2.22 1 2.56 2.29a33.53 33.53 0 01-.3 18.42c-1.9 6.25-5.59 11.78-9.22 17.21a7.46 7.46 0 01-1.82 2.09 4.77 4.77 0 01-1.25.59 27.56 27.56 0 01-9.69 1.38c-14.17-.78-12.88-9.91-14-17.72a68.69 68.69 0 01.68-26.11z" transform="translate(-88.24 -1.05)" fill="url(#91-03programming_code_1-0366b)"/><path d="M155.35 357.53a6 6 0 012.9-3 6.91 6.91 0 012.36-.32 95.94 95.94 0 0119.65 1.64 2.58 2.58 0 011.65.77 2.38 2.38 0 01.37 1.18 21.35 21.35 0 01-1 9.58 2 2 0 01-.76 1.16 2.14 2.14 0 01-1.33.12 173.09 173.09 0 00-20.1-1.1c-6.76-.03-6.67-4.67-3.74-10.03z" fill="#fff"/><path d="M180.6 406.7a263.67 263.67 0 01-38.84-5.93 8.58 8.58 0 01-.25-3.95 83 83 0 0110-28.18 5 5 0 012-2.21 4.72 4.72 0 012.18-.37 123.09 123.09 0 0124.54 1.89 4.56 4.56 0 013.16 1.49 4.47 4.47 0 01.59 2.48 129.26 129.26 0 01-3.38 34.78z" fill="#4E7699"/><path d="M298.2 354.77c-.54-1-.95-2.41 0-3a2.07 2.07 0 011.53-.17 12.53 12.53 0 015.18 2.11c2.39 1.67 5 4.34 7.68 3.14 2.32-1.05 2.52-4.21 2.37-6.76q-.76-12.8-1.54-25.61c0-.85 0-1.89.74-2.3 1.13-.61 2.23.84 2.7 2l6.12 15.5c1.17-3.73-.19-16.54.38-22.23a1.66 1.66 0 013.18-.49c1.85 4.45 3.86 16 4.21 18.74 1 8.16 1.51 1 1.81-.37.72-3.4-.22-15 1.83-15.89 3 .22 4 4.12 4.07 7.14s-1.51 14.72 1.43 15.42c1.3-3.26 1.2-9.19 2.95-9.41 2.74 1.26.32 13.73-.55 16.62-2.6 8.66-.93 7.52-3.52 16.17a15.93 15.93 0 01-2.8 6 12.55 12.55 0 01-6.25 3.45c-14.44 4.02-25.27-8.74-31.52-20.06z" transform="translate(-88.24 -1.05)" fill="url(#91-03programming_code_1-0366R)"/><path d="M227.35 385.53a2.66 2.66 0 00.89 2 2.69 2.69 0 001.12.32 45.74 45.74 0 0017.58-1.31 3.48 3.48 0 001.65-.79 3.2 3.2 0 00.76-1.83c.56-3.87-1.16-7.66-2.84-11.19a1.41 1.41 0 00-.48-.64 1.36 1.36 0 00-.87-.05q-4.2.69-8.45 1c-2.06.14-5.44-.52-7.35.27-3.74 1.55-2.38 8.83-2.01 12.22z" fill="#fff"/><path d="M253.65 398.14a160.16 160.16 0 01-30 6.84c.13-4 .25-8.14.59-12.15.28-3.42 3.67-10.16 7.83-10.16 4.17-1.8 8.86-1.93 13.39-2.05 1.59 0 3.36 0 4.57 1.05s1.43 2.55 1.68 4c.72 4.11 1.44 8.28 1.94 12.47z" fill="#4E7699"/><path fill="#4E7699" opacity=".52" d="M318.29 245.82H76.85L11.53 109.64h388.41l-81.65 136.18z"/><path d="M131.07 231.95H36.16c-5.52 0-11.43-3.08-13.21-6.89L6.63 190.12c-1.77-3.81 1.26-6.89 6.77-6.89h94.92c5.51 0 11.42 3.08 13.2 6.89l16.32 34.91c1.78 3.81-1.25 6.92-6.77 6.92z" fill="#fff" opacity=".27"/><path d="M124.95 240.67H30.03c-5.51 0-11.43-3.08-13.2-6.89L.51 198.87c-1.75-3.81 1.25-6.92 6.77-6.92h94.91c5.52 0 11.43 3.09 13.21 6.9l16.36 34.93c1.73 3.81-1.3 6.89-6.81 6.89z" fill="#fff"/><path d="M300.56 201.2h94.92c5.52 0 11.43-3.09 13.21-6.89L425 159.39c1.78-3.8-1.25-6.89-6.76-6.89h-94.92c-5.51 0-11.43 3.09-13.21 6.89l-16.35 34.92c-1.74 3.8 1.29 6.89 6.8 6.89z" fill="#fff" opacity=".27"/><path d="M300.56 213.45h94.92c5.52 0 11.43-3.09 13.21-6.9L425 171.64c1.78-3.8-1.25-6.89-6.76-6.89h-94.92c-5.51 0-11.43 3.09-13.21 6.89l-16.35 34.91c-1.74 3.81 1.29 6.9 6.8 6.9z" fill="#fff"/><path fill="url(#91-03programming_code_1-0366c)" d="M102.88 135.55h71.22l.8 5.11h-69.67l-2.35-5.11z"/><path fill="url(#91-03programming_code_1-0366S)" d="M107.34 145.24h41.67l1.22 4.42h-40.86l-2.03-4.42z"/><path fill="url(#91-03programming_code_1-0366T)" d="M165.82 145.24h131.14l-1.71 4.44H166.71l-.89-4.44z"/><path fill="url(#91-03programming_code_1-0366U)" d="M132.26 154.18h55.02l.46 4.29h-53.92l-1.56-4.29z"/><path fill="url(#91-03programming_code_1-0366V)" d="M152.24 162.41h63.05l-.1 4.02h-61.82l-1.13-4.02z"/><path fill="url(#91-03programming_code_1-0366W)" d="M219.4 162.41h52.84l-1.32 4.45h-51.71l.19-4.45z"/><path fill="url(#91-03programming_code_1-0366X)" d="M154.3 170.04h46.89l.17 3.51h-46.07l-.99-3.51z"/><path fill="url(#91-03programming_code_1-0366Y)" d="M205.69 170.04h96.76l-1.79 3.87h-94.87l-.1-3.87z"/><path fill="url(#91-03programming_code_1-0366Z)" d="M123.12 179.51h57.84l.53 3.38h-56.81l-1.56-3.38z"/><path fill="url(#91-03programming_code_1-0366aa)" d="M126.09 185.95h34.1l.82 2.97h-33.56l-1.36-2.97z"/><path fill="url(#91-03programming_code_1-0366ab)" d="M173.95 185.95h107.33l-1.15 2.99H174.55l-.6-2.99z"/><path fill="url(#91-03programming_code_1-0366ac)" d="M146.01 191.97h45.36l.32 2.93h-44.62l-1.06-2.93z"/><path fill="url(#91-03programming_code_1-0366ad)" d="M162.16 197.62h52.33l-.06 2.77h-51.48l-.79-2.77z"/><path fill="url(#91-03programming_code_1-0366ae)" d="M217.9 197.62h43.86l-.91 3.07h-43.08l.13-3.07z"/><path fill="url(#91-03programming_code_1-0366af)" d="M163.58 202.9h39.16l.12 2.46h-38.59l-.69-2.46z"/><path fill="url(#91-03programming_code_1-0366ag)" d="M206.5 202.9h80.81l-1.25 2.71h-79.49l-.07-2.71z"/><path fill="url(#91-03programming_code_1-0366ah)" d="M136.96 209.56h48.69l.37 2.41h-47.95l-1.11-2.41z"/><path fill="url(#91-03programming_code_1-0366ai)" d="M139.07 214.15h28.87l.59 2.13h-28.47l-.99-2.13z"/><path fill="url(#91-03programming_code_1-0366aj)" d="M179.58 214.15h90.84l-.83 2.14h-89.58l-.43-2.14z"/><path fill="url(#91-03programming_code_1-0366ak)" d="M155.66 218.48h38.58l.23 2.13h-38.04l-.77-2.13z"/><path fill="url(#91-03programming_code_1-0366al)" d="M169.2 222.58h44.73l-.05 2.03h-44.11l-.57-2.03z"/><path fill="url(#91-03programming_code_1-0366am)" d="M216.84 222.58h37.49l-.67 2.25h-36.91l.09-2.25z"/><path fill="url(#91-03programming_code_1-0366an)" d="M170.23 226.47h33.62l.09 1.81h-33.2l-.51-1.81z"/><path fill="url(#91-03programming_code_1-0366ao)" d="M207.08 226.47h69.38l-.92 2h-68.41l-.05-2z"/><path d="M9.19 201.37h36.56l.41 1.94H10.4l-1.21-1.94zm2.29 3.68h21.39l.63 1.68H12.53l-1.05-1.68zm30.02 0h67.33l-.88 1.69H41.96l-.46-1.69zm-17.23 3.4h28.25l.24 1.63H25.07l-.8-1.63zm10.26 3.13H66.9l-.05 1.52H35.11l-.58-1.52zm34.48 0h27.13l-.68 1.69H68.91l.1-1.69zm-33.42 2.9h24.07l.09 1.33H36.1l-.51-1.33zm26.38 0h49.67l-.91 1.47H62.02l-.05-1.47zm-42.39 3.6h29.69l.28 1.29H20.38l-.8-1.29zm1.52 2.45h17.51l.42 1.13H21.81l-.71-1.13zm24.58 0h55.1l-.59 1.13H45.98l-.3-1.13zm-14.35 2.28h23.29l.16 1.12h-22.9l-.55-1.12zm8.3 2.15h26.86l-.03 1.05H40.03l-.4-1.05zm28.61 0h22.52l-.47 1.17H68.17l.07-1.17zm-27.89 2.01h20.11l.06.93H40.71l-.36-.93zm22.04 0h41.49l-.65 1.03H62.42l-.03-1.03zm-35.7 2.53h24.99l.2.92H27.25l-.56-.92zm1.08 1.75h14.82l.3.81H28.28l-.51-.81zm20.8 0H95.2l-.42.81H48.79l-.22-.81zm-12.28 1.64h19.8l.12.81H36.68l-.39-.81zm6.95 1.56H66.2l-.03.77H43.53l-.29-.77zm24.46 0h19.24l-.34.86H67.65l.05-.86zm-23.93 1.48h17.26l.04.69H44.03l-.26-.69zm18.92 0H98.3l-.47.76H62.71l-.02-.76zm267.22-60.8h30.06l-.83 1.66h-29.4l.17-1.66zm-.33 3.16h17.59l-.5 1.44h-17.24l.15-1.44zm24.68 0h55.34l-1.74 1.45h-54.24l.64-1.45zm-16.21 2.91h23.22l-.79 1.4h-22.75l.32-1.4zm6.55 2.68h26.61l-.96 1.31h-26.09l.44-1.31zm28.34 0h22.3l-1.57 1.45h-21.82l1.09-1.45zm-29.21 2.49h19.78l-.73 1.14h-19.44l.39-1.14zm21.68 0h40.84l-1.64 1.26h-40.04l.84-1.26zm-37.01 3.08h24.41l-.55 1.11h-23.98l.12-1.11zm-.22 2.1h14.39l-.33.97h-14.16l.1-.97zm20.2 0h45.29l-1.17.97h-44.55l.43-.97zm-13.17 1.96h19.14l-.53.96h-18.83l.22-.96zm5.53 1.84h22.08l-.66.9h-21.73l.31-.9zm23.52 0h18.51l-1.09 1H363.5l.76-1zm-24.14 1.72h16.53l-.51.8h-16.28l.26-.8zm18.12 0h34.1l-1.14.89h-33.55l.59-.89zm-30.87 2.17h20.55l-.4.79h-20.24l.09-.79zm-.16 1.5h12.18l-.24.69h-12.01l.07-.69zm17.1 0h38.33l-.84.7H344l.31-.7zm-11.09 1.41h16.28l-.39.69h-16.05l.16-.69zm4.78 1.34h18.87l-.48.66h-18.62l.23-.66zm20.1 0h15.82l-.79.73h-15.58l.55-.73zm-20.56 1.26h14.19l-.38.59h-14.01l.2-.59zm15.55 0h29.28l-.84.66h-28.87l.43-.66z" opacity=".52" fill="#4E7699"/></svg>