<svg data-name="Layer 1" xmlns="http://www.w3.org/2000/svg" xmlns:xlink="http://www.w3.org/1999/xlink" viewBox="0 0 394.08 329.91"><defs><linearGradient id="90-03start_up-0388b" x1="120.85" y1="136.33" x2="139.87" y2="136.33" gradientUnits="userSpaceOnUse"><stop offset="0" stop-color="#e5c5d5"/><stop offset=".42" stop-color="#ead4d1"/><stop offset="1" stop-color="#f0e9cb"/></linearGradient><linearGradient id="90-03start_up-0388k" x1="161.18" y1="141.77" x2="211.4" y2="107.22" xlink:href="#90-03start_up-0388a"/><linearGradient id="90-03start_up-0388d" x1="124.54" y1="125.54" x2="175.65" y2="164.69" xlink:href="#90-03start_up-0388b"/><linearGradient id="90-03start_up-0388e" x1="152.61" y1="109.61" x2="155.09" y2="129.8" xlink:href="#90-03start_up-0388a"/><linearGradient id="90-03start_up-0388f" x1="141.14" y1="227.11" x2="198.01" y2="190.43" xlink:href="#90-03start_up-0388a"/><linearGradient id="90-03start_up-0388g" x1="144.54" y1="81.29" x2="161.99" y2="81.29" xlink:href="#90-03start_up-0388b"/><linearGradient id="90-03start_up-0388h" x1="151.04" y1="75.67" x2="127.76" y2="119.05" xlink:href="#90-03start_up-0388b"/><linearGradient id="90-03start_up-0388i" x1="136.77" y1="64.74" x2="163.05" y2="64.74" xlink:href="#90-03start_up-0388b"/><linearGradient id="90-03start_up-0388j" x1="174.12" y1="91.21" x2="151.09" y2="153.92" xlink:href="#90-03start_up-0388a"/><linearGradient id="90-03start_up-0388a" x1="157.63" y1="70.42" x2="179.16" y2="274.11" gradientUnits="userSpaceOnUse"><stop offset="0" stop-opacity="0"/><stop offset=".99"/></linearGradient><linearGradient id="90-03start_up-0388c" x1="171.33" y1="133.5" x2="163.72" y2="137.58" gradientUnits="userSpaceOnUse"><stop offset=".02" stop-color="#fff" stop-opacity="0"/><stop offset=".58" stop-color="#fff" stop-opacity=".39"/><stop offset=".68" stop-color="#fff" stop-opacity=".68"/><stop offset="1" stop-color="#fff"/></linearGradient><linearGradient id="90-03start_up-0388l" x1="112.99" y1="142.6" x2="163.48" y2="120.02" xlink:href="#90-03start_up-0388a"/><linearGradient id="90-03start_up-0388m" x1="126.59" y1="136.54" x2="121.28" y2="137.95" xlink:href="#90-03start_up-0388c"/><linearGradient id="90-03start_up-0388n" x1="115.7" y1="134.65" x2="129.57" y2="134.65" xlink:href="#90-03start_up-0388b"/><linearGradient id="90-03start_up-0388o" x1="155.43" y1="123.07" x2="209.72" y2="123.07" xlink:href="#90-03start_up-0388b"/><linearGradient id="90-03start_up-0388p" x1="161.16" y1="65.52" x2="155.31" y2="76.41" xlink:href="#90-03start_up-0388b"/><linearGradient id="90-03start_up-0388q" x1="157.23" y1="102.03" x2="92.57" y2="145.08" xlink:href="#90-03start_up-0388a"/><linearGradient id="90-03start_up-0388r" x1="185.91" y1="119.92" x2="207.17" y2="117.27" xlink:href="#90-03start_up-0388b"/></defs><path d="M158.06 325.53c1.41-7.94-4.67-10.14-9.67-16.44s-11-12.14-13.88-19.7c-1.65-4.37-2.33-9.45-5.83-12.55-2.36-2.09-5.65-2.9-7.95-5.06-4.83-4.54-3.23-12.4-1.55-18.81s2.42-14.66-3.13-18.28c-3.68-2.39-8.61-1.54-12.66-3.22-5.35-2.24-8-8.49-8.17-14.28s1.56-11.46 2.38-17.2c4.25-29.5-15.38-58.51-11.35-88-2.54-.15-5.81-.4-8.34-.54.27 21 .53 42.17-3.47 62.79s-12.63 40.9-27.78 55.45c-5.81 5.57-13.15 11.81-12 19.78.68 4.9 4.63 9.6 3 14.26-.76 2.15-2.58 3.72-4.25 5.28a55.4 55.4 0 00-12.38 16.83c-5.72 12.18-9.7 32-21 39.33 50.75 2.92 107.25-2.58 158.03.36z" fill="#030708" opacity=".18" style="isolation:isolate"/><path d="M68.51 65.99a17.23 17.23 0 013.42-8.35 2.91 2.91 0 011.31-1c1.31-.39 2.5.85 3.25 2 4.34 6.69 6.18 14.64 7.88 22.43 2.02 9.32 4.02 18.72 4.02 28.25a3.25 3.25 0 01-.25 1.58 3.22 3.22 0 01-2 1.34c-3.13 1-9.24 2.24-11.69-.75-2.17-2.65-2.11-8.85-2.79-12-2.34-10.99-5.12-22.27-3.15-33.5z" fill="#828c99"/><path d="M178.8 39.8c1.2.2 61.6 25.8 61.6 25.8s1.4 24.5 1.2 23.9-162.7 15.2-162.5 13.8-2.2-30.8-2.2-30.8l52.9-26.7z" fill="#ff6d66"/><path d="M179.8 90.3c1.2.2 62.7 26.6 62.7 26.6s4 17.8 3.8 17.2-162.7 15.2-162.5 13.8-1.8-24.2-1.8-24.2l53-27.3z" transform="translate(-4.6 -44.6)" fill="url(#90-03start_up-0388a)"/><path d="M126.89 146.32c1.85 1.44 3.53 3.49 5.88 3.63a8.1 8.1 0 003.25-.74 5.55 5.55 0 003.17-2.18 5.15 5.15 0 00.45-1.7 28.51 28.51 0 00-2.2-15.17c-.74-1.68-.33-6.53-2-7.33s-5 2.58-6.85 2.85a1.74 1.74 0 00-.54.15c-.6.33-.55 1.19-.43 1.86a65.35 65.35 0 011.08 12.48c-.11-1.38-1.7-2.18-3.08-2.17-2.16 0-5.53 2.1-4.63 4.72.31.88 1.25 1.11 2 1.44a17.42 17.42 0 013.9 2.16z" transform="translate(-4.6 -44.6)" fill="url(#90-03start_up-0388b)"/><path d="M132.26 137.06a2 2 0 001.12 0c.77-.27 1-1.23 1.06-2a17.48 17.48 0 00-.3-3.14l-.94-5.92a.69.69 0 00-.13-.38.73.73 0 00-.58-.18 13.79 13.79 0 00-5 1l.54 4.33a2 2 0 00.13.58 5.33 5.33 0 00.31.51c.7 1.1 0 2.41.62 3.44s2.18 1.52 3.17 1.76z" transform="translate(-4.6 -44.6)" fill="url(#90-03start_up-0388d)"/><path d="M143.84.85a16.87 16.87 0 0111.4.3 10.34 10.34 0 012.42 1.24c2.87 1.93 5.51 4.5 6.48 7.81.41 1.39.5 2.87.95 4.25a4.51 4.51 0 002.78 3.12 3.78 3.78 0 01-3.38 1.57 28.28 28.28 0 003.3 4.25 7.7 7.7 0 01-4.45-.4 7.86 7.86 0 01.61 3.25 8.58 8.58 0 01-3.48-1.08 1.69 1.69 0 01-1.8 1.19 5.09 5.09 0 01-2.18-.84l-3.42-2a29.53 29.53 0 01-7.1-5.15 22.83 22.83 0 01-3.19-4.71c-.81-1.5-5.17-3.05-5.3-4.79-.27-3.57 3.34-7.42 6.36-8.01z" fill="#3e3e54"/><path d="M130.54 79.91l1.45 5.85a31.62 31.62 0 001.1 3.71c1.43 3.65 4.28 6.74 5 10.59.13.65.27 1.42.88 1.68a1.92 1.92 0 001.16 0c3.6-.8 7.35-.36 11-.7a61.13 61.13 0 008.13-1.59 177.09 177.09 0 0125.17-4c.86-.08 1.89-.26 2.21-1.06a2.21 2.21 0 00.09-1c-.49-7.69-4-14.79-6.43-22.1a1.38 1.38 0 01.88-2 93.56 93.56 0 0015.52-9.8l-6.14-9.36c-3.55-5.42-7.42-11.12-13.33-13.8-3.69-1.66-7.84-2-11.88-2-4.35 0-8.69.41-13 .8a46.39 46.39 0 00-8.15 1.06c-7.31 2-18.38 7.83-21 13.62-7 15.37-3.61 29.94-4.24 30.83a3 3 0 00-.63 1c-.21.82.67 1.59 1.51 1.63a5 5 0 002.39-.77 21.56 21.56 0 018.29-2.18c-.04.19-.04-.64.02-.41z" fill="#fff"/><path d="M161.13 67.39a44.32 44.32 0 01-.31 5.87 1.89 1.89 0 01-.31 1 2.45 2.45 0 01-1.62.64c-6.82.87-13.74.65-20.63.44a2.14 2.14 0 01-.87-.16 1.6 1.6 0 01-.66-.79c-.63-1.34-1.42-4 .14-5.09s5.22-.62 7-.74z" fill="#68e1fd"/><path d="M165.74 112a44.32 44.32 0 01-.31 5.87 1.89 1.89 0 01-.31 1 2.45 2.45 0 01-1.62.64c-6.82.87-13.74.65-20.63.44a2.14 2.14 0 01-.87-.16 1.6 1.6 0 01-.66-.79c-.63-1.34-1.42-4 .14-5.09s5.22-.62 7-.74z" transform="translate(-4.6 -44.6)" fill="url(#90-03start_up-0388e)"/><path d="M141.39 99.73c0-.47-.73-.38-1.12-.13-12 7.64-23.48 16-35 24.26a47.92 47.92 0 00-7.47 6.21c-2.2 2.41-4 5.43-4 8.69a14.43 14.43 0 001.1 5.21c4.44 11.88 15.2 20 22.89 30.12 3.84 5 7.07 10.75 12.25 14.39 1 .71 2.15 1.42 2.54 2.59-.12.12 1.17-.31 1.05-.19a54.55 54.55 0 0011.17-9 82.14 82.14 0 01-10-10.16c-1.64-1.86-3.28-3.72-4.74-5.72a84.74 84.74 0 01-6.56-11.16c-1.45-2.78-3.64-5-2.75-8 1.27-4.29 12.65-10.17 19.2-14 6.34-3.72 17-9.46 16.73-9.34 0 0-5.91 26.12 8.15 47s33.09 52.47 34.17 52.11 10.82-14.07 10.82-14.07l-26.69-45.45s7.66-56.21 1.3-67.78z" fill="#3e3e54"/><path d="M146 144.34c0-.47-.73-.38-1.12-.13-12 7.64-23.48 16-35 24.26a47.92 47.92 0 00-7.47 6.21c-2.2 2.41-4 5.43-4 8.69a14.43 14.43 0 001.1 5.21c4.44 11.88 15.2 20 22.89 30.12 3.84 5 7.07 10.75 12.25 14.39 1 .71 2.15 1.42 2.54 2.59-.12.12 1.17-.31 1.05-.19a54.55 54.55 0 0011.17-9 82.14 82.14 0 01-10-10.16c-1.64-1.86-3.28-3.72-4.74-5.72a84.74 84.74 0 01-6.56-11.16c-1.45-2.78-3.64-5-2.75-8 1.27-4.29 12.65-10.17 19.2-14 6.34-3.72 17-9.46 16.73-9.34 0 0-5.91 26.12 8.15 47s33.09 52.47 34.17 52.11 10.82-14.07 10.82-14.07l-26.69-45.45s7.66-56.21 1.3-67.78z" transform="translate(-4.6 -44.6)" fill="url(#90-03start_up-0388f)"/><path d="M139.72 195.44q.55 7.32 1.54 14.6c.14 1 .38 2.17 1.27 2.65a2.74 2.74 0 002.68-.4 10 10 0 003.81-5.14 29.22 29.22 0 001.26-6.37l1.08-8.67c.15-1.26.25-2.7-.63-3.61s-2.36-.86-3.6-1.19c-1.9-.51-3.34-2-4.68-3.44-1.08 1.25-4.5 3.71-4.43 5.37 0 .89.94 1.93 1.19 2.8a17 17 0 01.51 3.4zm64.55 27.22a10.13 10.13 0 01.72 2.84 90.31 90.31 0 002.21 9.33 9.11 9.11 0 001.11 2.8 3.09 3.09 0 002.51 1.47c1.68 0 2.73-1.8 3.38-3.34a30.91 30.91 0 002.58-9 14.74 14.74 0 00-1.78-9 3.12 3.12 0 00-1.08-1.17 7.72 7.72 0 00-1.94-.44c-1.78-.44-2.86-2.25-4.45-3.15a.92.92 0 00-.52-.17 1.14 1.14 0 00-.73.45 32.16 32.16 0 00-3.8 5c-.73 1.19-.94 1.35.09 2.29a7.21 7.21 0 011.7 2.09z" fill="#3e3e54"/><path d="M229.85 53.01a17.35 17.35 0 013.41-8.35 2.93 2.93 0 011.32-1c1.31-.4 2.5.85 3.25 2 4.34 6.68 6.18 14.64 7.88 22.43 2 9.31 4 18.72 4.06 28.25a3.31 3.31 0 01-.25 1.57 3.17 3.17 0 01-2 1.34c-3.13 1-9.25 2.24-11.69-.74-2.17-2.66-2.11-8.85-2.8-12-2.38-10.99-5.16-22.27-3.18-33.5z" fill="#828c99"/><path d="M394.08 329.77c-18.18-3.36-30.37-20.21-39.52-36.27-2.29-4-4.65-8.21-8.46-10.82s-9.55-3.06-12.71.31a90.86 90.86 0 00-11.13-25.33c-4.46-7-10.36-13.69-18.33-16s-18.1 1.51-20.11 9.55c-6.82.4-12-6.45-13.48-13.11s-.69-13.71-2.51-20.29c-1.21-4.41-3.58-8.57-3.79-13.13-.43-9.72 9-18.83 5.86-28-1.87-5.5-7.62-8.69-10.65-13.64-2-3.31-2.74-7.24-3.42-11.07l-9.63-54.75c-2.34.55-5.52 3.06-7.86 3.61 4.14 44.87 7.91 92.13-10.78 133.13-3.86 8.46-8.88 16.79-16.61 22-4.81 3.22-10.4 5-15.78 7.18-8.66 3.43-17.22 8-22.95 15.34s-8 18-3.45 26.13c3.29 5.89-.69 14.6-.3 21.33 71.63-1.21 153.98 4.95 225.61 3.83z" fill="url(#90-03start_up-0388a)" opacity=".18" style="isolation:isolate"/><path d="M162 80.34a17.76 17.76 0 01-6.22 10.79 10 10 0 01-4.1 2.17 5.43 5.43 0 01-4.44-.82A7.42 7.42 0 01145 89c-.09-.25-.18-.51-.26-.76a4.79 4.79 0 011.52-5 3 3 0 00.51-.6 2.1 2.1 0 00.2-.49c.62-2.2-.45-3.89-.66-5.8a3.61 3.61 0 011.22-2.7 13.56 13.56 0 016.82-4.37 3.52 3.52 0 011.07-.12c2.18.1 2.58 2 2.82 3.58.18 1.18.36 2.35.53 3.53a7.56 7.56 0 00.8 2.78 2.52 2.52 0 002.43 1.29z" transform="translate(-4.6 -44.6)" fill="url(#90-03start_up-0388g)"/><path d="M156.51 69.74a22.12 22.12 0 01-1.66 6.91c-2.73 5.92-8.06 6-8.06 6a2.1 2.1 0 00.2-.49c.62-2.2-.45-3.89-.66-5.8z" transform="translate(-4.6 -44.6)" fill="url(#90-03start_up-0388h)"/><path d="M138.1 65.86a14.2 14.2 0 00-1.3 4 7.17 7.17 0 001.75 5.43 7.07 7.07 0 005.2 2.35 10.52 10.52 0 003.78-.79 21.32 21.32 0 008.69-6.12 2.75 2.75 0 002.72 1.06 5.29 5.29 0 002.66-1.47 2.88 2.88 0 001.14-2.24c-.13-1.33-1.68-1.95-3-2.29a10.83 10.83 0 002.7-3.26 7.23 7.23 0 00-1.42-7.74 10.34 10.34 0 00-7.53-3.06c-1.53 0-3.05.25-4.58.38a16.1 16.1 0 00-4 .6c-1.69.6-1.92 1.85-2.59 3.4z" transform="translate(-4.6 -44.6)" fill="url(#90-03start_up-0388i)"/><path d="M168.93 96.77h-4.61a5.46 5.46 0 01-1.21-1.5c-6.13-10.6-5.23-58.86-3.39-61 1.63-1.94 7.41-1.75 9.2-1.64h.54l2.75 1.69c-6.2 13.12-3.28 62.45-3.28 62.45z" fill="#68e1fd"/><path d="M170.6 139.9h-2.9c-6.1-10.6-5.2-58.9-3.4-61 1.6-1.9 7.4-1.8 9.2-1.6l.4.2c-6.2 13.1-3.3 62.4-3.3 62.4z" transform="translate(-4.6 -44.6)" fill="url(#90-03start_up-0388j)"/><path d="M174.39 105.25a8.57 8.57 0 01-7.35-4.19l-17.46-29.31a1.65 1.65 0 012.83-1.69l17.51 29.33a5.23 5.23 0 005.23 2.52c11.93-1.61 17.88-2.77 19.72-3.37v-4.3a1.651 1.651 0 113.3-.12c0 .41.13 4 0 5.52s-.92 2.1-9.2 3.54c-4.38.76-9.67 1.51-13.33 2a9 9 0 01-1.25.07zm-49.61 5.36a3.26 3.26 0 01-1.6-.43 6.48 6.48 0 01-2.73-4.16l-8.1-29.3a1.655 1.655 0 113.19-.88l8.09 29.3c.42 1.52 1 2.07 1.17 2.16 5.34-1.56 7.78-2.61 8.58-3.09.17-2.42.83-9.64.86-10a1.652 1.652 0 013.29.3c-.28 3.1-.83 9.26-.88 10.38-.06 1.36-1.2 2.22-4.7 3.54-2.07.77-4.55 1.53-6.27 2a3.11 3.11 0 01-.9.18z" fill="#68e1fd"/><path d="M179 150a8.54 8.54 0 01-7.35-4.18l-17.47-29.31a1.65 1.65 0 012.82-1.71l17.47 29.31a5.26 5.26 0 005.22 2.52c11.94-1.61 17.89-2.77 19.73-3.37v-4.31a1.65 1.65 0 013.3-.11c0 .41.14 4 0 5.52s-.92 2.1-9.2 3.54c-4.39.76-9.67 1.51-13.33 2a7.63 7.63 0 01-1.19.1z" transform="translate(-4.6 -44.6)" fill="url(#90-03start_up-0388k)"/><path d="M179 149.73a8.56 8.56 0 01-7.35-4.18l-17.46-29.31a1.65 1.65 0 112.83-1.69l17.47 29.3a5.26 5.26 0 005.23 2.53c11.93-1.62 17.88-2.78 19.72-3.38v-4.3A1.65 1.65 0 01201 137a1.67 1.67 0 011.71 1.6c0 .4.13 4 0 5.52s-.92 2.09-9.2 3.53c-4.38.76-9.67 1.51-13.33 2a9 9 0 01-1.18.08z" transform="translate(-4.6 -44.6)" fill="url(#90-03start_up-0388c)"/><path d="M129.36 155.22a3.23 3.23 0 01-1.6-.43 6.53 6.53 0 01-2.74-4.16l-8.09-29.3a1.65 1.65 0 113.18-.88l8.1 29.3a3.73 3.73 0 001.16 2.16c5.35-1.56 7.79-2.61 8.59-3.09.17-2.42.83-9.64.86-10a1.65 1.65 0 013.29.3c-.28 3.1-.84 9.26-.88 10.38-.06 1.36-1.2 2.22-4.71 3.54-2.06.77-4.54 1.53-6.26 2a3.11 3.11 0 01-.9.18z" transform="translate(-4.6 -44.6)" fill="url(#90-03start_up-0388l)"/><path d="M129.55 155.16a3.26 3.26 0 01-1.6-.43 6.56 6.56 0 01-2.74-4.16l-8.09-29.31a1.65 1.65 0 013.18-.88l8.1 29.31a3.78 3.78 0 001.16 2.16c5.35-1.57 7.79-2.61 8.59-3.1.17-2.42.83-9.64.86-10a1.65 1.65 0 113.29.3c-.28 3.1-.84 9.26-.88 10.38-.06 1.36-1.2 2.22-4.7 3.53-2.07.78-4.55 1.54-6.27 2a3.11 3.11 0 01-.9.2z" transform="translate(-4.6 -44.6)" fill="url(#90-03start_up-0388m)" opacity=".69"/><path d="M124.41 126.94a6.05 6.05 0 012.27.46 2.53 2.53 0 011.46 1.7c.14.71-.12 1.47.13 2.15s.72 1 .9 1.54c.34 1-.54 2.16-.25 3.21.13.47.48.86.6 1.34a2.18 2.18 0 01-.16 1.35c-1 2.6-4.14 3.8-6.94 3.72a6.45 6.45 0 01-4.46-1.63 7.32 7.32 0 01-1.68-3.74 26.13 26.13 0 01-.58-5.29c-.04-4.9 4.74-5 8.71-4.81z" transform="translate(-4.6 -44.6)" fill="url(#90-03start_up-0388n)"/><path d="M199.16 105.84s13.78 26.28 9.86 30.52-35.29 1.16-35.29 1.16c-2.85-.14-5.09 2.33-7.91 2.72a5.6 5.6 0 01-5.34-2.41 4.36 4.36 0 00-1.29-1.58c-.3-.17-.66-.23-1-.38-1.28-.6-1.5-2.32-1.46-3.74a1.25 1.25 0 00-.14-.79 1.59 1.59 0 00-.39-.34 2.58 2.58 0 01-.49-3.08 4.82 4.82 0 012.55-2.12c1-.43 2.15-.65 3.21-1a12.7 12.7 0 003.89-2.16c.76-.62 1.69-1.38 2.61-1a2.55 2.55 0 01.87.67l3 3.08a3.4 3.4 0 003 1.35l10.51.38a18.2 18.2 0 006.79-.62l-7.44-10.36c-.27-.38-.55-.85-.36-1.28a1.36 1.36 0 01.58-.53c4.81-2.93 9.49-5.61 14.24-8.49z" transform="translate(-4.6 -44.6)" fill="url(#90-03start_up-0388o)"/><path d="M159.65 67.24a1.09 1.09 0 01.84.11 1.52 1.52 0 01.84.77 1.66 1.66 0 01-.5 1.51 2.8 2.8 0 01-1.94 1.18 1.58 1.58 0 01-1.5-1 1.26 1.26 0 01.72-1.57c.29-.08.54 0 .81-.22s.39-.64.73-.78z" transform="translate(-4.6 -44.6)" fill="url(#90-03start_up-0388p)"/><path d="M141.39 99.73l-2.23.41-1.38.25-5.89-19.7c-10.81-18.38-6.47-38-4.76-40 .7-.83 2.64-1.47 4.66-1.93a53.63 53.63 0 015.81-1c-5.41 11.92 3.79 61.97 3.79 61.97z" fill="#68e1fd"/><path d="M143.8 144.8l-1.4.3-5.9-19.7c-10.8-18.4-6.5-38-4.8-40 .7-.8 2.6-1.5 4.7-1.9s3.6-.5 3.6-.5c-5.3 11.7 3.5 60.5 3.8 61.9z" transform="translate(-4.6 -44.6)" fill="url(#90-03start_up-0388q)"/><path d="M189 111.62s9.39 12.4 7.8 14-5.67 1.41-5.67 1.41a2.31 2.31 0 00-.27-2.39c-.89-1.33-7.09-10-7.09-10z" transform="translate(-4.6 -44.6)" fill="url(#90-03start_up-0388r)"/></svg>