<svg data-name="Layer 1" xmlns="http://www.w3.org/2000/svg" xmlns:xlink="http://www.w3.org/1999/xlink" viewBox="0 0 373.29 341.39"><defs><linearGradient id="119-03teacher-0321h" x1="84.71" y1="195.82" x2="125.99" y2="165.66" xlink:href="#119-03teacher-0321a"/><linearGradient id="119-03teacher-0321a" x1="123.21" y1="452.53" x2="128.41" y2="291.2" gradientUnits="userSpaceOnUse"><stop offset=".01"/><stop offset="1" stop-opacity="0"/></linearGradient><linearGradient id="119-03teacher-0321c" x1="245.42" y1="122.25" x2="55.31" y2="162.13" xlink:href="#119-03teacher-0321a"/><linearGradient id="119-03teacher-0321d" x1="91.11" y1="228.78" x2="128.15" y2="230.81" xlink:href="#119-03teacher-0321a"/><linearGradient id="119-03teacher-0321e" x1="134.14" y1="194.49" x2="139.79" y2="194.8" xlink:href="#119-03teacher-0321a"/><linearGradient id="119-03teacher-0321f" x1="114.79" y1="193.99" x2="131.92" y2="194.93" xlink:href="#119-03teacher-0321a"/><linearGradient id="119-03teacher-0321g" x1="135.25" y1="167.8" x2="147.84" y2="165.25" xlink:href="#119-03teacher-0321a"/><linearGradient id="119-03teacher-0321b" x1="222.73" y1="294.65" x2="213.63" y2="-171.11" gradientUnits="userSpaceOnUse"><stop offset=".01"/><stop offset=".15" stop-opacity=".26"/><stop offset="1" stop-opacity="0"/></linearGradient><linearGradient id="119-03teacher-0321i" x1="96.11" y1="101.56" x2="82.74" y2="96.57" xlink:href="#119-03teacher-0321a"/><linearGradient id="119-03teacher-0321j" x1="132.98" y1="108.66" x2="115.63" y2="85.46" xlink:href="#119-03teacher-0321a"/><linearGradient id="119-03teacher-0321k" x1="111.44" y1="114.32" x2="104.03" y2="115.87" xlink:href="#119-03teacher-0321a"/><linearGradient id="119-03teacher-0321l" x1="109.64" y1="175.51" x2="96.71" y2="169.39" xlink:href="#119-03teacher-0321a"/><linearGradient id="119-03teacher-0321m" x1="167.47" y1="112.35" x2="198.4" y2="172.19" xlink:href="#119-03teacher-0321a"/><linearGradient id="119-03teacher-0321n" x1="167.38" y1="165.19" x2="174.79" y2="179.51" xlink:href="#119-03teacher-0321a"/></defs><path d="M161.55 339.38c57.14-1.72 117-4.18 166.38-32.93 23.47-13.66 45.26-36.79 43.47-63.88-1.77-26.78-25-46.07-43.28-65.74a223.2 223.2 0 01-53.78-102.06c-6.62-29.34-31.77-58.1-60-68.47-23.91-8.78-50.41-7.18-75.44-2.48-13.78 2.59-27.49 6.12-40.12 12.21-40.64 19.58-64.44 62.67-79.49 105.2-20.53 58-29.12 124.15-3.2 180 4.14 8.92 9.26 17.64 16.8 24 11.4 9.48 26.78 12.38 41.53 14.13 32.81 3.82 54.12 1.01 87.13.02z" fill="#f5f5f5" opacity=".18" style="isolation:isolate"/><ellipse cx="127.3" cy="324.5" rx="88.1" ry="16.9" fill="url(#119-03teacher-0321a)"/><path fill="#501cd1" d="M64.6 16.4h308.7v181.2H64.6z"/><path fill="url(#119-03teacher-0321b)" d="M74.2 25.4h289.7v161.8H74.2z"/><path d="M158.65 200.8s10.84-20.82 16.48-30.36 6.33-15.88 6.33-15.88l-14.08 6.24s-6 30.25-11.59 22.42-1-8.77-1-8.77-.43-10.62-1-13.87-5.68-21.36-12-21.94-7.8-2-7.8-2 .87-4.63 2.6-4.92a28.39 28.39 0 004.92-1.73l2.89-9 .29-8.39s1.15-5.2 2.31-6.36 4.33-18.43-4.77-21.68-18.87 15-18.87 15l-14.51 15.55 3 27.6A16.6 16.6 0 0099.43 155c-2.8 10.66-6.27 32.87-6.27 32.87l1.46 5.64.71 6z" transform="translate(-19.7 -3.4)" fill="url(#119-03teacher-0321c)"/><path d="M91.63 317.34a15.33 15.33 0 01-.89 3.51 17.12 17.12 0 01-3.58 6 10.63 10.63 0 01-6.1 3.28 5.12 5.12 0 01-3.55-.61 5.35 5.35 0 01-1.57-1.74 7.1 7.1 0 01-1-2.84c-.21-1.9.59-3.76 1.38-5.5l2.87-6.35a7.46 7.46 0 011.3-2.17 6.23 6.23 0 012.35-1.43 10 10 0 014.2-.83c1.54.08 3.39.77 4 2.25a14.08 14.08 0 01.59 6.43zm6.06-8.52a11 11 0 00-.81 7.77 38.21 38.21 0 011.25 4.16 14.6 14.6 0 010 3.17 1.7 1.7 0 00.32 1.35 1.16 1.16 0 001.51-.08 3.35 3.35 0 00.83-1.41l1.24-3.18c.08-.2.2-.44.41-.48a.69.69 0 01.49.18 60.11 60.11 0 004.89 3.54 10.63 10.63 0 005.71 1.69 14.74 14.74 0 004.88-1.35c.91-.37 1.94-.85 2.22-1.79a2.26 2.26 0 00-.57-2.06 6.94 6.94 0 00-1.78-1.34 64.71 64.71 0 01-9.28-6.84 7.17 7.17 0 00-1.75-1.25 9.26 9.26 0 00-2.63-.48 11.19 11.19 0 01-4.8-1.78c-.53-.39-1.75-.58-2.13.18z" fill="#fc8063"/><path d="M81.13 310.99c-.81 2.33-1.92 4.6-2.08 7.05a3.46 3.46 0 00.31 1.91 3.15 3.15 0 002.46 1.38 7.49 7.49 0 006.71-3.43 15.17 15.17 0 002.29-7.48c.22-2.63.06-5.29.4-7.91 4.35-33.54 3.27-42.22 3-43.18-.51-2-2.79-2.88-4.81-3.2-2.19-.35-7.15-.32-7.46 2.28-.34 2.91 0 5.24.15 8.17.25 6.74.31 40.71-.97 44.41zm18.68-39.38c-.06 3.45-.38 6.89-.61 10.33-.59 8.42-.7 16.88-.81 25.32a12.53 12.53 0 00.39 4.07 11.25 11.25 0 002.56 3.84 9.35 9.35 0 002.6 2.28 2.81 2.81 0 003.14-.25 4.09 4.09 0 00.87-3.68 36.47 36.47 0 00-1.2-3.76c-.66-2.22 7.28-38.63 6.6-50.72a2.69 2.69 0 00-.39-1.5c-.24-.31-2.16.17-2.5 0a12.28 12.28 0 00-5.55-.81c-1.05.1-3.74.28-4.54 1.16-.94 1.05-.56 4.94-.58 6.33-.02 2.5.07 4.95.02 7.39z" fill="#bb826c"/><path d="M77.52 225.3c.77 11.11 2.42 22.21 1.92 33.31a2.38 2.38 0 00.29 1.59 2.71 2.71 0 001 .78c2.36 1.15 5.24 1.23 8 1.29l22.25.44c1.33 0 2.9 0 3.64-.94a2.86 2.86 0 00.51-1.33q4.49-22.92 7.08-46.05c.89-7.85 1.57-16-1.5-23.43-10.64 1.75-18.91.2-29.73-.51-3.83-.25-7.84 2.46-11.17 13.77a63 63 0 00-2.29 21.08z" fill="#3f3d56"/><path d="M118.24 265.68l14.62.29a9.47 9.47 0 01-2.13.15l-22.25-.44c-2.74-.05-5.63-.14-8-1.29a2.71 2.71 0 01-1-.78 2.53 2.53 0 01-.3-1.6c.51-11.11-1.19-22.21-1.91-33.32a63 63 0 012.33-21.06c3.33-11.31 7.34-14 11.17-13.77 2.33.15 4.54.35 6.68.54-2.83 1.25-5.64 4.93-8.09 13.23a62.78 62.78 0 00-2.36 21.06c.72 11.11 2.42 22.21 1.91 33.32a2.52 2.52 0 00.29 1.6 2.82 2.82 0 001.06.78c2.35 1.15 5.23 1.24 7.98 1.29z" transform="translate(-19.7 -3.4)" fill="url(#119-03teacher-0321d)"/><path d="M140.8 195.2c-1.9 0-3.9 0-5.8-.1 1.8-.1 3.6-.3 5.5-.6.1.3.2.5.3.8z" transform="translate(-19.7 -3.4)" fill="url(#119-03teacher-0321e)"/><path d="M135 195a107.65 107.65 0 01-17.58-.61 6.46 6.46 0 013.07-.54c5.24.36 9.89.89 14.51 1.15z" transform="translate(-19.7 -3.4)" fill="url(#119-03teacher-0321f)"/><path d="M130.34 159.82c.81 3.57.89 7.26 1.58 10.85.8 4.12 2.41 8.13 2.38 12.33a5.54 5.54 0 01-.25 1.86 4.36 4.36 0 01-2.42 2.42c-3 1.32-6.7-.26-8.73-2.86s-2.77-6-3.27-9.22c-1.36-8.89-1.4-17.91-1.42-26.9 0-1.67-6.22-9.27-4.18-9.83s9.59 6.87 10.49 8.33a43.29 43.29 0 015.82 13.02z" fill="#fc8063"/><path d="M150.83 190.86c-2.91.95-6.3-.6-8.22-3.05-2-2.6-2.77-6-3.27-9.22-1.36-8.88-1.4-17.92-1.41-26.9 0-1.67-6.23-9.27-4.19-9.84.74-.2 2.1.56 3.61 1.68 1 2.48 5.68 16.15 5.69 17.37 0 9-1.3 8.81.06 17.69.5 3.26 1.23 6.62 3.27 9.22a9 9 0 004.46 3.05z" transform="translate(-19.7 -3.4)" fill="url(#119-03teacher-0321g)"/><path d="M80.51 142.28a8 8 0 00-2 2.91c-.71 2.12.16 4.44 1.21 6.42 2.14 4 5 7.58 7.54 11.41s1.83 6.85 2 11.41c.22 5-4.57 12.32-5.53 17.23a7.36 7.36 0 00-.14 2.68c.25 1.34 6.62 1.17 7.7 2a15 15 0 007 2.67 28.39 28.39 0 0016.87-2.2c2.57-1.26 5-3.12 6.08-5.78a16.73 16.73 0 00.67-6.47c-.08-4.54-3.44-8.67-1.41-12.74 1.06-2.13 2.59-4 3.57-6.2a14.11 14.11 0 00-.67-12.7c-1.19-2-2.89-3.74-3.86-5.88-1.28-2.8-1.32-6.3-3.54-8.43-1.84-1.78-4.63-2-7.18-2.2-3.32-.22-3-1-6.34-1.23-2.75-.18-5.36-.74-8.07-.25a26.17 26.17 0 00-7.58 2.64c-1.09.58-6.32 3.32-6.32 4.71z" fill="#ff7b5c"/><path d="M130.72 201.78a30.1 30.1 0 01-12.71.62 15.12 15.12 0 01-7-2.66c-1.08-.84-7.45-.67-7.7-2a7.36 7.36 0 01.14-2.68c1-4.91 5.75-12.23 5.53-17.23-.19-4.56.46-7.59-2-11.42S101.57 159 99.43 155c-1.06-2-1.93-4.31-1.2-6.43.37-1.12 2.31-5.08 8.31-7.62a36.54 36.54 0 017.59-2.64 17.55 17.55 0 014.8-.06c-1.4.5-2.77 1.11-4.14 1.68-6 2.55-7.94 6.5-8.33 7.63-.72 2.12.15 4.44 1.21 6.42 2.14 4 5 7.58 7.54 11.41s1.82 6.85 2 11.4c.21 5-4.57 12.32-5.53 17.24a7.35 7.35 0 00-.14 2.68c.25 1.34 6.62 1.17 7.7 2a15.22 15.22 0 007 2.65 33.29 33.29 0 004.48.42z" transform="translate(-19.7 -3.4)" fill="url(#119-03teacher-0321h)"/><path d="M101.06 145.33a19.61 19.61 0 003.6 2.18c1.2.62 2.43 1.2 3.66 1.76a.72.72 0 00.47.1.66.66 0 00.33-.27 4.3 4.3 0 00.31-4c-.47-1.32-1.27-2.5-1.82-3.79a14.18 14.18 0 00-1.77-3.87 8.43 8.43 0 00-2.79-1.9c-1.63-.82-5-2.38-6.18-.1-1 1.87.48 4.93 1.4 6.56a11.81 11.81 0 002.79 3.33z" fill="#fff"/><path d="M68.89 87.61a13.24 13.24 0 00-4.6 6.05c-1.41 3.38-2 7.44-.11 10.58a8.78 8.78 0 007.93 4 11.43 11.43 0 008-4.26c2.72-3.29 5.61-11 2.48-14.9-2.88-3.58-10.19-3.83-13.7-1.47z" fill="#3f3d56"/><path d="M88.6 91a13.24 13.24 0 00-4.6 6.05c-1.41 3.38-2 7.44-.11 10.58a8.78 8.78 0 007.93 4 11.43 11.43 0 008-4.26c2.72-3.29 5.61-11 2.48-14.9-2.88-3.58-10.19-3.83-13.7-1.47z" transform="translate(-19.7 -3.4)" fill="url(#119-03teacher-0321i)"/><path d="M90.59 80.66a10.17 10.17 0 00-3.36.91 19.43 19.43 0 00-9.12 7.46 25.47 25.47 0 00-2.82 7.24 25.16 25.16 0 00-.74 11 25.66 25.66 0 003 7.34 21.35 21.35 0 002.23 3.34 21.89 21.89 0 004.51 3.66 15.65 15.65 0 004.63 2.38c4.08 1.09 8.37-1 11.65-3.61a27.45 27.45 0 008-10.17 21.56 21.56 0 001.55-12.74 27.85 27.85 0 00-1.85-5.6c-1.56-3.6-3.6-6.3-7.46-7.41-3.59-1.01-6.27-4.05-10.22-3.8z" fill="#3f3d56"/><path d="M119.44 115.72c-.6 4.29-2.53 8.73-6.33 10.8-2 1.08-4.46 1.54-5.79 3.36-1.49 2-.93 4.83-.68 7.33a2.83 2.83 0 01-.1 1.33 2.7 2.7 0 01-1.8 1.27 17.11 17.11 0 01-6.32.75 1.78 1.78 0 01-1.92-1.66c-.81-3-.61-6.31-1.75-9.24a42.4 42.4 0 00-2.4-4.45 34.55 34.55 0 01-3.51-12.88 79.84 79.84 0 01-.33-13.3 12.2 12.2 0 01.69-3.89 12.36 12.36 0 012.3-3.4 19.13 19.13 0 016.1-5.17 12.8 12.8 0 019.91 0 20.48 20.48 0 018 6.1c5.21 6.19 4.98 15.41 3.93 23.05z" fill="#bb826c"/><circle cx="99" cy="109.2" r="7.5" fill="#fff" opacity=".46"/><circle cx="115.1" cy="107.9" r="7" fill="#fff" opacity=".46"/><path d="M99.52 76.24a20.7 20.7 0 0112.28-.94c5.43 1.24 10.54 5 12.09 10.39a15.15 15.15 0 01-.42 9 25.87 25.87 0 01-4.61 7.88.67.67 0 01-.39.28c-.2 0-.37-.13-.52-.26a8.46 8.46 0 00-3.4-1.52c-6.16-1.82-11.91-4.78-17.75-7.47-1.38-.63-3.05-1.24-4.33-.42a4.46 4.46 0 00-1.57 2.83 55.21 55.21 0 00-1.83 12 29.71 29.71 0 01-4.23-8 21.88 21.88 0 01-1.15-7.33c0-1.77 0-3.68 1.06-5.12s2.48-1 4-1.6c1.21-.51 1.75-2.25 2.48-3.25a19.52 19.52 0 018.29-6.47z" fill="#3f3d56"/><path d="M119.23 79.63a20.7 20.7 0 0112.28-.94c5.43 1.24 10.54 5 12.09 10.39a15.15 15.15 0 01-.42 9 25.87 25.87 0 01-4.61 7.88.67.67 0 01-.39.28c-.2 0-.37-.13-.52-.26a8.46 8.46 0 00-3.4-1.52c-6.16-1.82-11.91-4.78-17.75-7.47-1.38-.63-3.05-1.24-4.33-.42a4.46 4.46 0 00-1.57 2.83 55.21 55.21 0 00-1.83 12 29.71 29.71 0 01-4.23-8 21.88 21.88 0 01-1.15-7.33c0-1.77 0-3.68 1.06-5.12s2.48-1 4-1.6c1.21-.51 1.75-2.25 2.48-3.25a19.52 19.52 0 018.29-6.47z" transform="translate(-19.7 -3.4)" fill="url(#119-03teacher-0321j)"/><path d="M86.29 106.19a3.26 3.26 0 00-2.19 2.39c-.64 2.29.37 4.71 1.63 6.73.71 1.13 1.72 2.33 3.06 2.3a1.28 1.28 0 001-.39 2 2 0 00.15-1.76 31.41 31.41 0 01-.55-6.71 2.52 2.52 0 00-3.1-2.56z" fill="#bb826c"/><path d="M107.59 115.11a1.42 1.42 0 01-.7-1.1c0-.4 0-.85-.21-1.16a1.06 1.06 0 00-.77-.32 1.17 1.17 0 00-.69.14 1.3 1.3 0 00-.33 1.31 5.77 5.77 0 002.32 3.65 1.48 1.48 0 001.14.34 1.24 1.24 0 00.77-1.33 5.87 5.87 0 00-.33-1.55 1.4 1.4 0 01-1.2.02z" transform="translate(-19.7 -3.4)" fill="url(#119-03teacher-0321k)"/><path d="M76.84 218.76c.75 2.51 1.36 5.11 2.76 7.31s3.81 4 6.41 3.82a2.58 2.58 0 001.53-.51 2.89 2.89 0 00.73-1c1.22-2.45 1.5-5.58-.11-7.78a32.63 32.63 0 00-2.63-2.63c-2.66-2.86-2.88-7.13-3.48-11a89.9 89.9 0 00-3.25-12.8 5.29 5.29 0 00-1.36-2.56 5.42 5.42 0 00-2.22-.93c-2.35-.59-6.61-2.94-7.18.31-.48 2.73 1.34 7 2.17 9.53 1.99 6.09 4.58 12.09 6.63 18.24z" fill="#bb826c"/><path d="M134.29 167.82c.18-.05-.09-.26-.27-.21a9.07 9.07 0 00-2.14.81 3 3 0 00-1.42 1.73 4.28 4.28 0 00.05 1.85l1.78 10.61a3.32 3.32 0 00.89 2.08c1 .8 2.41.3 3.49-.32q1-.57 1.92-1.23a2 2 0 001-2.41 54.56 54.56 0 00-1.68-10.33c-.38-1.27-1-2.69-2.33-3a4.12 4.12 0 00-2.43.48" fill="#ff7b5c"/><path d="M139.39 166.37a13 13 0 00-3.61 4.28 10.05 10.05 0 00-.62 3.57 11.63 11.63 0 00.92 5.61 3.09 3.09 0 001.87 1.76c1.18.28 2.31-.56 3.19-1.4 5.16-4.86 8.62-11.21 11.8-17.54a6.94 6.94 0 011.43-2.13 8.18 8.18 0 012.14-1.2c2.68-1.25 5.25-3.49 5.51-6.43a3.15 3.15 0 00-.27-1.72c-.67-1.27-2.34-1.56-3.78-1.64-1.25-.07-2.52-.11-3.78-.1a6.21 6.21 0 00-2.87.51c-2.67 1.41-2 5.26-3.65 7.47a65 65 0 01-8.28 8.96z" fill="#bb826c"/><path d="M72.29 158.03c-1.94 6.41-2.6 13.14-3 19.83a19.54 19.54 0 00.52 7.36c.78 2.35 2.64 4.5 5.08 4.91a4.38 4.38 0 004.2-1.52 7.1 7.1 0 001.1-3.54 57.42 57.42 0 012.1-11.46c1.18-3.41 3.08-6.52 4.69-9.75 2.93-5.89 5.22-15.93-2.3-19.67-6.96-3.46-10.96 9.12-12.39 13.84z" fill="#ff7b5c"/><path d="M106.71 167.27c-1.61 3.23-3.5 6.33-4.68 9.75a56.57 56.57 0 00-2.12 11.44 7.56 7.56 0 01-1.1 3.54 4.39 4.39 0 01-4.19 1.52 6.57 6.57 0 01-4.56-3.65 5.56 5.56 0 001.74.62A4.39 4.39 0 0096 189a7.44 7.44 0 001.1-3.54A56.67 56.67 0 0199.21 174c1.18-3.41 3.08-6.52 4.69-9.75 2.23-4.47 4.08-11.36 1.53-16 6.28 4.04 4.08 13.41 1.28 19.02z" transform="translate(-19.7 -3.4)" fill="url(#119-03teacher-0321l)"/><path d="M73.45 184.49a31.16 31.16 0 00-3-1.23 8.7 8.7 0 00-2.27-.32 1.22 1.22 0 00-.6.09 1.31 1.31 0 00-.49.55 10.57 10.57 0 00-1.34 5.8 1.94 1.94 0 00.23.93 2 2 0 00.83.63c3.65 1.87 7.74 3.27 11.78 2.63a2.65 2.65 0 001.85-.92 3.32 3.32 0 00.36-1.43 11.76 11.76 0 011.14-3.8c.51-1 .13-1.09-.82-1.21s-1.78-.22-2.66-.37a22.28 22.28 0 01-5.01-1.35z" fill="#ff7b5c"/><path fill="#bb826c" d="M155.3 150.9l36.6-52.2 1 .6-35.1 52.1-2.4-.6z"/><path fill="url(#119-03teacher-0321m)" d="M155.3 150.9l36.6-52.2 1 .6-35.1 52.1-2.4-.6z"/><path d="M170.5 163.3l-6.1 8.9s1.4 2 2.8 1.2l6.1-9.6z" transform="translate(-19.7 -3.4)" fill="url(#119-03teacher-0321n)"/><path d="M164.87 86.61a2.4 2.4 0 00-.16-.9 6.73 6.73 0 00-.38-.83 1.4 1.4 0 01-.07-.42q0-.27-.24-.24v.32a.87.87 0 00.1.42 4 4 0 00.22.4c.09.13.17.26.25.4a.94.94 0 01.11.45h-.82l-.2-.23a.09.09 0 000 .06v.06a.24.24 0 00.07.18.24.24 0 01.07.18.43.43 0 01-.06.22.18.18 0 01-.17.1h-.48a1.2 1.2 0 01-.34-.07h-.24l-.38-.07a2.79 2.79 0 00-.38-.07h-.25a1.25 1.25 0 01-.27-.09l-.26-.11-.09-.06a.09.09 0 010-.05v-1.65l.2.11a1.65 1.65 0 00.07-.21.8.8 0 000-.21c.06-.14.12-.21.19-.23h.34c.05 0 .07-.07.07-.19a.25.25 0 00-.2-.27l-.4-.07a.89.89 0 01.13-.41 1.7 1.7 0 01.33-.38 1.92 1.92 0 01.42-.28.94.94 0 01.43-.12h.17l.23.09h.17v.69a.56.56 0 01-.3-.08.68.68 0 00-.27-.07h-.09s0 .06-.1.1a.46.46 0 00-.12.13v.11l.22-.11v.4l-.22-.12v.12c0 .19 0 .31.08.35a.51.51 0 00.21.1l.26.06a.33.33 0 01.21.23v-.8a.38.38 0 00.2-.27 1 1 0 000-.34c0-.12 0-.24-.08-.37a.71.71 0 010-.35c0-.06.06-.07.14 0l.25.1.3.12a.64.64 0 00.24.07.1.1 0 01.07.06s.06.06.08.06 0-.16 0-.13a.87.87 0 00.11.17l.21.28a.75.75 0 00.27.22l.53.07a5.45 5.45 0 00.55 0h.08a.18.18 0 00.16-.06.26.26 0 01.18 0h.07a.21.21 0 01.07.15.32.32 0 000 .16h.2a1.22 1.22 0 01.27 0 .71.71 0 01.22.07.24.24 0 01.1.23h-.86c-.06 0-.09.05-.09.14l.09.17v.34c0 .25.14.38.31.41a.67.67 0 01.37.16.54.54 0 01.08.21.35.35 0 010 .21h.2v-.7l.26-.09v-.26a.05.05 0 00.05 0 .09.09 0 00.06 0l-.19.09h-.15l-.11-.1-.12-.1a2.07 2.07 0 00.36-.31.44.44 0 00.1-.49.21.21 0 01.09.06s.08.06.1.06l-.22-.09a.2.2 0 00.2-.13.21.21 0 01.22-.12c.13 0 .24.1.33.32a.81.81 0 01.07.5 1.29 1.29 0 01.33-.33.74.74 0 01.41-.13v.63h.25a.71.71 0 00.34-.24.44.44 0 01.39-.19h.32a.5.5 0 01.25.07s.06.07.07.17a.34.34 0 00.05.17h.06a.31.31 0 00.27-.14.48.48 0 00.1-.31.4.4 0 00.15.13c.09 0 .13.08.13.1h.14l.15-.14a.64.64 0 01.08-.2l.12-.23a1.56 1.56 0 01.41-.3l.44-.24.25-.1a2.93 2.93 0 00.31-.12.85.85 0 00.23-.06.36.36 0 00.23-.2v-.2c0-.13 0-.23.06-.31v-.11l-.18-.06a.37.37 0 01-.16-.06l-.14-.22s-.07-.13-.2-.27a1 1 0 01-.2-.27 1 1 0 010-.34v-.34l-.21-.2c-.13-.12-.2-.19-.21-.23a1.83 1.83 0 01-.2-.27 2.15 2.15 0 01-.17-.27c-.08-.09-.13-.13-.16-.11a.56.56 0 01-.24 0v.42h-.06a.05.05 0 01-.05 0l-.13-.07a.41.41 0 00-.16 0h-.08c-.08 0-.12 0-.12.11a1 1 0 000 .17.3.3 0 00.07.17v.12l-.21.21-.22.21.12.23h-.26c-.06 0-.08 0-.08-.12a.24.24 0 010-.13l.07-.1a.41.41 0 01-.26 0 .6.6 0 01-.22-.12.66.66 0 01-.19-.18 1.21 1.21 0 01-.1-.16.41.41 0 01-.25.34.94.94 0 01-.43.12c-.09 0-.14 0-.14-.09a.2.2 0 00-.06-.14l-.11-.06h-.11v-.09a.45.45 0 010-.14v-.06a.24.24 0 000-.07.72.72 0 000-.18 2.77 2.77 0 00-.42 0 .46.46 0 00-.34.28.62.62 0 01-.05.18v.16a.81.81 0 01-.5.19h-.55a.32.32 0 01-.31-.17c-.06-.12-.11-.25-.17-.4a1.87 1.87 0 01-.28.38.7.7 0 01-.4.07 2.16 2.16 0 01-.87-.21.67.67 0 01-.46-.64v-.25l.11-.06h.14l.23-.05a.67.67 0 00.2-.07.52.52 0 00.05-.2 1.61 1.61 0 000-.25.91.91 0 000-.31 1 1 0 000-.32.42.42 0 00.37-.37 1.21 1.21 0 00.33 0 .77.77 0 00.29 0c.1 0 .18-.09.26-.22a.76.76 0 00.11-.29l.2.2a.14.14 0 00.1-.21c-.05-.1 0-.18.13-.24a.1.1 0 00.11.11h.1c.05 0 .08-.06.1-.06h.09a.38.38 0 01.36.2.36.36 0 00.32.2 1.44 1.44 0 00.32-.07.45.45 0 00.27-.19.44.44 0 010-.14l.06-.2h.22a.11.11 0 01.12-.12v-.11a1.16 1.16 0 01.82-.78 5.71 5.71 0 011.19-.13h.43a2.51 2.51 0 01-.29.21l-.28.22h-.11v-.17h-.37a1.07 1.07 0 01-.05.16 1.25 1.25 0 000 .18l.13.13.1.1a.24.24 0 00.11 0l.12-.07a1.78 1.78 0 01.34-.06 2 2 0 00.34-.06.49.49 0 010-.31.47.47 0 01.12-.18.53.53 0 01.14-.12.12.12 0 00.07-.1.7.7 0 00-.08-.16.56.56 0 01-.09-.15.22.22 0 000-.09.19.19 0 010-.08s.05-.1.14-.17a2.62 2.62 0 01.32-.23l.32-.23a.49.49 0 00.19-.2l.07-.18a1.67 1.67 0 01.07-.19.26.26 0 00.11-.08l.11-.11v-.06h-.26v-.35a.38.38 0 00-.14-.33.07.07 0 010 .06v.05h-.09c-.15 0-.23-.06-.24-.2a.26.26 0 00-.16-.25h-.28a.27.27 0 01-.2-.21.31.31 0 00-.2-.24.43.43 0 00-.25.07.56.56 0 01-.26.07h-.11a.85.85 0 00-.23-.09 1 1 0 00-.23 0h-1.41l-.1.07a.29.29 0 00-.1.07c-.44.09-.8.15-1.09.18a4.55 4.55 0 00-1 .24s-.05 0-.09.06l-.05.06h-.09l-.14.06a.37.37 0 01-.16.06c-.08 0-.12 0-.12.05a1.88 1.88 0 00-.37.23c-.15.11-.23.19-.23.23v.11h.3c.12 0 .18 0 .18.17a.19.19 0 01-.1.16 2.11 2.11 0 01-.22.14 1.22 1.22 0 01-.24.11c-.08 0-.12.07-.12.1v.43a2.49 2.49 0 010 .32 3.22 3.22 0 01-.07.36l-.58.08a3.89 3.89 0 01-.53 0 1.24 1.24 0 01-.64-.14c-.16-.09-.24-.3-.24-.62s.05 0 .09-.06l.11-.11a2 2 0 010-.3c0-.16.06-.26.07-.3l.12-.08v-.17a.89.89 0 00-.06-.31 1.15 1.15 0 01-.06-.37 1.71 1.71 0 00.06-.26c0-.11 0-.18.06-.19h.17c.09 0 .14 0 .14-.06a.48.48 0 00.07-.28.52.52 0 01.07-.29.68.68 0 01.26-.1.54.54 0 01.25 0 .17.17 0 01.14.14 1.89 1.89 0 01.05.23.72.72 0 000 .21c0 .07.1.1.22.1s.14-.06.14-.2v-.22a.48.48 0 00-.07-.27.64.64 0 00-.17-.16.59.59 0 01-.17-.13.23.23 0 01-.07-.18c0-.06 0-.13.17-.21a2.78 2.78 0 01.38-.25 3.89 3.89 0 01.42-.19 1.25 1.25 0 01.27-.09.26.26 0 01.23.13.3.3 0 00.26.13h.08a.09.09 0 00.06 0 1.85 1.85 0 00.24-.16l.21-.15h.19a.7.7 0 01.15.14v-.34a.29.29 0 00.27-.12 1 1 0 00.11-.3q0-.17.09-.3a.2.2 0 01.21-.13h.19c.06 0 .1 0 .1.1a.7.7 0 01-.09.23l-.11.22v.06a.3.3 0 00.24-.09 1.74 1.74 0 00.11-.18c0-.07 0-.13.07-.19a.12.12 0 01.11-.08h.2l.23.09a.56.56 0 00-.1.18 1 1 0 000 .19.61.61 0 00.12.32.37.37 0 00.3.19s.09-.09.22-.27a1.17 1.17 0 01.24-.3l-.34-.31.31-.17a.51.51 0 01.25-.06h.09v.06a.09.09 0 00.06 0h.23a.73.73 0 01.27.24.35.35 0 01.07.33c.21 0 .31-.15.31-.32a1.13 1.13 0 01.11-.48.85.85 0 01.33-.2 1.35 1.35 0 01.38-.11h.58a.54.54 0 01.5.23.94.94 0 000 .1.52.52 0 01.07.12l.12.06h.08v.23a.28.28 0 00.16.14l.27.1.27.07h.18a1.36 1.36 0 010 .36.87.87 0 00-.06.32c0 .15.09.23.28.23h.09l-.14-.2.28-.1a1.17 1.17 0 00.28-.13v.12a.36.36 0 01-.1.27.33.33 0 00-.1.24h.06a.55.55 0 01.16-.1.4.4 0 00.15-.13h.12a1.12 1.12 0 000 .24 1.54 1.54 0 00.07.24c.06.13.1.17.14.1s.1-.06.2 0 0 0 .1.12a.93.93 0 00.1.16 2.23 2.23 0 00.2.18c.09.09.14.15.14.19l-.06.14-.06.17-.1.07a.31.31 0 01-.12 0q-.09 0-.09.12a1.6 1.6 0 010 .17v.19a4 4 0 000 .46v.13a.38.38 0 010 .16h-.31a.49.49 0 00-.2 0c-.08 0-.12.07-.13.23s0 .31 0 .49a1.93 1.93 0 01-.12.5.33.33 0 01-.34.23c-.11 0-.16-.05-.14-.13a1 1 0 000-.21h-.4v.45h.19c.1 0 .15 0 .15.11a1.16 1.16 0 010 .16.44.44 0 01-.05.18.47.47 0 00-.09.12l-.05.08a.44.44 0 00-.06.17.37.37 0 01-.06.17h-.17a.47.47 0 00-.2-.07v.74a.33.33 0 010 .14c0 .05-.05.08-.07.08a.73.73 0 01-.2-.38 2.07 2.07 0 01-.06-.5v-.88c0-.12 0-.08-.11-.08h-.32v.31a1.12 1.12 0 00.06.31l.11.12v.22a.38.38 0 01-.17.1h-.14a2 2 0 01.14.76h-.2v-.54l-.28.2v-.31a1 1 0 010-.34.78.78 0 00.05-.28v-.12a1.43 1.43 0 00-.06-.31.81.81 0 010-.2l-.06-.06a.09.09 0 01-.06 0l-.06.06a.1.1 0 00-.11.11v2.35h.11a.77.77 0 00.15-.1s.08-.08.08-.1h.09l.38.06.47.06h.59a2.45 2.45 0 00.37.13l.31.1a3.37 3.37 0 01.34.27 3.85 3.85 0 01.34.3h.09l.11.06c.1.08.13.14.1.2a.84.84 0 000 .34h.37l-.14-.09a1.06 1.06 0 01.24.16.34.34 0 01.15.27h-.12a.19.19 0 00-.13 0c-.1 0-.14.09-.14.21v.21h-.09l-.31-.65h-.09a.4.4 0 00-.29.12.64.64 0 00-.19.25.4.4 0 01.17 0 .37.37 0 01.17 0s.06 0 .13.13a1.94 1.94 0 01.21.3c.08.11.15.22.21.32a.65.65 0 01.1.19.71.71 0 01-.15.1.38.38 0 00-.16.12v.12a1.74 1.74 0 01.16.18.59.59 0 00.15.16.31.31 0 00.12-.22c0-.1.06-.15.14-.15a.21.21 0 01.09.05.09.09 0 010 .06.28.28 0 01-.07.2l-.16.1a.42.42 0 00-.15.11.26.26 0 00-.08.19v.29l.06.17.06.17s-.06.1-.17.14l-.17.06-.2 1.33c0 .07-.07.13-.2.17a.35.35 0 00-.25.28.71.71 0 00-.08.33q0 .24-.24.21v-.2a1.14 1.14 0 00-.27.21.88.88 0 00-.1.22 1.74 1.74 0 01-.05.22.51.51 0 01-.14.23.33.33 0 01-.12.06h-.11a.53.53 0 00-.27.48.73.73 0 01-.16.51 1.2 1.2 0 01-.17-.16.32.32 0 01-.08-.21v-.06h.07a.09.09 0 00.07-.09h-.34l-.31.68c0-.09 0-.21-.07-.35a.25.25 0 00-.27-.21c-.14 0-.21 0-.22.17a1.4 1.4 0 000 .35 1.38 1.38 0 010 .35c0 .12-.08.17-.21.17s0-.13 0-.29a1 1 0 00-.05-.3c0-.15-.08-.23-.19-.23a.2.2 0 00-.22.14 2.55 2.55 0 00-.07.32 2.81 2.81 0 01-.08.31.26.26 0 01-.26.14.66.66 0 01-.52-.24c-.15-.16-.26-.24-.36-.24a.09.09 0 00-.06 0 1 1 0 010 .18c0 .1 0 .17-.07.18s-.07 0-.11 0h-.12a.09.09 0 00-.08.06.68.68 0 000 .26 2.32 2.32 0 01-.47-.1c-.21-.07-.34-.14-.38-.22l-.43.17.12.12h-.26c-.17 0-.27 0-.31-.09a.44.44 0 01-.08-.2l-.06-.2s-.1-.08-.23-.08a2.48 2.48 0 00.06.27c0 .16 0 .25-.14.27a.27.27 0 00-.13 0 .22.22 0 01-.13.06 4.7 4.7 0 01-.82-.07l-.85-.16h-.1a.22.22 0 00-.1 0 1.35 1.35 0 00-.4 0h-.39l-.16-.09a.19.19 0 01-.1-.19zm-3.26-2.27v.07s.11-.1 0-.1zm.45-.14c-.06 0-.08 0-.08.12s0 .13.08.13.06 0 .06-.13-.02-.15-.06-.15zm1 1.44v-.11a.17.17 0 000-.13l-.1-.1zm.11.88h.31v-.11h-.31zm.31-2v-.12h-.11zm0 .45c-.06 0-.08 0-.08.11s0 .12.08.12.09 0 .09-.12-.06-.12-.12-.12zm0-.77h.11l.16-.07.16-.07s-.06 0-.1-.13a2 2 0 01-.1-.18l-.06-.11-.06-.12h-.11zm.11 1.08c-.05 0-.08 0-.08.11s0 .12.08.12.09 0 .09-.12-.06-.12-.12-.12zm0-11.43h.14a.26.26 0 00-.14-.23zm.29 11.54a1 1 0 00.11.17l.11.15.19-.1a.64.64 0 00-.12-.14c-.05-.06-.09-.09-.11-.09h-.14zm0-13a1.5 1.5 0 000 .2.2.2 0 00.1.17c.07 0 .11-.07.11-.11s0-.09-.1-.12a.47.47 0 00-.06-.14zm0 .94a.23.23 0 000 .09l.06.11h.11l-.11-.45a.21.21 0 00-.09.14v.11zm.41-1.22a.28.28 0 00.11.24.35.35 0 00.25.1v-.06a.7.7 0 00-.09-.23c-.06-.11-.09-.19-.11-.22s-.16.02-.16.17zm0 14.5c.06 0 .09 0 .09.14s0 .14-.09.14-.06 0-.06-.14.06-.14.06-.14zm.11-2.33a.46.46 0 00.09.27l.18.24a1.06 1.06 0 01.16.23.34.34 0 010 .28.5.5 0 00.34-.2c0-.07 0-.21-.1-.41a2.6 2.6 0 00-.1-.35.41.41 0 00-.3-.19l-.27-.07zm.23-1a.36.36 0 000 .18.2.2 0 00.1.07l.15.06a.31.31 0 01.17.14.67.67 0 01.13.41.26.26 0 00.3.27h.06a.59.59 0 00.09-.31v-.34c0-.06-.14-.31-.41-.37a3.22 3.22 0 00-.55-.1zm.06-13.05l.2.08-.09.12c-.07 0-.11 0-.11-.12zm0 3.6l.42-.11a.13.13 0 00-.11-.1h-.31zm.31-3.18c-.06 0-.09 0-.09.1s0 .1.09.1.08 0 .08-.1.02-.09-.04-.09zm.08 15.18a.26.26 0 00.2.14v-.14zm.34-13.64s-.08 0-.08.11 0 .11.08.11.09 0 .09-.11.01-.1-.05-.1zm.37 12.59a.94.94 0 00.12.47 2.35 2.35 0 01.17.44l.06-.06a1.29 1.29 0 00-.06-.2 1.36 1.36 0 010-.22c0-.08-.05-.16-.07-.26a.2.2 0 00-.18-.16zm.29-.4s-.05-.06-.14-.06-.14 0-.12.06a.2.2 0 00.14.06.12.12 0 00.16-.05zm-.09-4.93h.57v-.14a1 1 0 01-.34-.06.35.35 0 01-.23-.23zm.2 6.24c-.06 0-.08 0-.08.12s0 .13.08.13.06 0 .06-.13.04-.11-.02-.11zm.09-1s-.06 0-.06.13 0 .13.06.13.08 0 .08-.13.01-.12-.07-.12zm.08.63a2.07 2.07 0 01.06.26v.2a.4.4 0 00.13.06h.1s.16.16.13.2 0 .06.18.06a.93.93 0 000-.24 1.66 1.66 0 00-.16-.33 1.7 1.7 0 00-.21-.28.33.33 0 00-.23-.12zm.11-7a.67.67 0 00.12.36.34.34 0 00.31.18.71.71 0 00-.1-.37.36.36 0 00-.29-.17zm.2-7.57s-.08 0-.08.07 0 .06.08 0 .12-.03.04-.07zm0 12.45h-.11v-.11zm.4-13.41h-.23l.11-.12zm-.14 14.26v.26s-.09 0-.09-.13.1-.13.16-.13zm0-6.69v.22a.09.09 0 00.06-.09.18.18 0 00.03-.13zm.12.76c0 .1 0 .15.11.15h.12a2.46 2.46 0 01.15-.42 3.74 3.74 0 00.16-.38l.11-.1.14-.1h-.11a.4.4 0 00-.37.2 3.4 3.4 0 00-.17.34.58.58 0 01-.05.31zm.4 7.41s0 .07 0 0 .11 0 .11-.06.05.06-.02.06zm.25.31a.43.43 0 00.14.34l.2-.2a.21.21 0 00-.17-.13zm1-6.16q.09.06 0 .15s-.05 0-.05-.09.12-.07.16-.06zm.09-3.51s.08 0 .08.11 0 .11-.08.11-.06 0-.06-.11.13-.11.17-.11zm0 2.32s-.06 0-.06.14 0 .18.06.15 0-.07 0-.15a.17.17 0 00.11-.14zm0 6.61s-.06 0-.06.1 0 .1.06.1.08 0 .08-.1.08-.1.03-.1zm.11-9.13c.06 0 .09 0 .09.1s0 .1-.09.1-.09 0-.09-.1.14-.1.2-.1zm.31 8.9s-.05 0-.05.12 0 .11.05.11.09 0 .09-.11.08-.12-.01-.12zm.37-8.36h.31v-.12h-.31zm.31-6.64a.53.53 0 00.1.14l.1.12v-.63a.15.15 0 00-.15.11.68.68 0 000 .23zm.2-1.19l.23.23h-.03a.22.22 0 01-.22-.12zm.34 7.91c0-.08 0-.12-.11-.12l-.12.12zm-.11 2.67v-.23l-.12.12zm.11-8.6a.66.66 0 00.14-.17.31.31 0 00.09-.17s0-.08-.11-.08h-.12zm.23 8s0 .07 0 0 .06 0 .06 0 .09.03.05.03zm.11-2.41c-.05 0-.08 0-.08.11s0 .12.08.12.09 0 .09-.12.08-.08.02-.08zm.12 2.87c-.06 0-.09 0-.09.11s0 .11.09.11.08 0 .08-.11.08-.08.03-.08zm.19-2.76c-.17 0-.25.1-.25.29v.42c.13 0 .2 0 .2-.12a.86.86 0 01.05-.27h.12a.09.09 0 000 .05v.06h.23c.19-.25.05-.4-.24-.4zm-.08 2c-.06 0-.09 0-.09.1s0 .1.09.1.06 0 .06-.1.09-.08.05-.08zm.06.31a.41.41 0 00.19.36.85.85 0 00.43.12c0-.21-.06-.34-.17-.39a1 1 0 00-.34-.07zm.33-9.06c0 .18.07.26.2.26h.09a.7.7 0 00-.09-.17.22.22 0 00-.2-.09zm.29.6c-.19 0-.29.08-.29.23h.29zm0 7.83h.11a1 1 0 000-.24.93.93 0 00-.08-.22zm0 2.27c0-.13.05-.2.17-.2a.49.49 0 00.07.28q.06.12.27.06a.93.93 0 01-.05.24.34.34 0 01-.18.24.64.64 0 01-.2-.31 1 1 0 01-.08-.28zm.2-.63v.23s-.06 0-.06-.11.02-.12.06-.12zm.08-3.85v-.06.06c0 .06 0 0 0 0s0 .03 0 0zm0-4.12a.68.68 0 000 .19c0 .06.07.1.17.1l.07-.07a.13.13 0 000-.07.21.21 0 00-.17-.13zm.23 8.31s.08 0 .08.12 0 .11-.08.11-.09 0-.09-.11.03-.12.09-.12zm.11-9.36s-.06 0-.06.12 0 .12.06.08a.11.11 0 00.06-.11q0-.09-.07-.09zm.26 9.68v.22s-.12 0-.12-.11.04-.11.12-.11zm0-1.85s-.06 0-.06.05 0 .06.06 0 0 0 0-.06.03.01 0 .01zm0-6.35a.18.18 0 00.2.2v-.4a.18.18 0 00-.23.2zm0-2.69l.08-.09h-.08zm.08 15.65h-.06s0 .08.06.06.06 0 .06-.06-.02 0-.06 0zm.09-8q0 .09-.09 0h.07c.07 0 .05-.06.02-.03zm0-.9s-.06 0-.06.11 0 .11.06.11a.11.11 0 100-.22zm.25-5.22a.29.29 0 00-.25.17h.25zm-.25 3.57c0 .15.06.23.19.23s.08-.07.17-.21a1.14 1.14 0 01.2-.25l-.11-.05h-.17a.26.26 0 00-.2.11.38.38 0 00-.08.14zm.45-2.89s-.06 0-.06.06 0 .07.06 0 .06 0 .06 0-.02-.11-.06-.11zm0 6.64s-.06 0-.06.11 0 .11.06.11.08 0 .08-.11.03-.14-.08-.14zm0-4.29l.11.12h.06a.17.17 0 00.17-.16 1.26 1.26 0 000-.21h-.23c-.09 0-.13.06-.13.16zm0 5.48a.9.9 0 000 .15.93.93 0 00.08.22l.09.08a.45.45 0 01.07.24c0 .07.06.1.21.1a1.72 1.72 0 00-.08-.48 1.65 1.65 0 00-.2-.4.09.09 0 00-.06 0l-.08.06zm.11 1.22v-.1a.05.05 0 00-.06.06s0 .05.07.05-.01-.01-.01-.04zm.09-7.24h.21a.21.21 0 00.16-.1.35.35 0 00-.23-.11h-.14zm.34-.59a.3.3 0 000 .14c0 .06.06.09.1.09v-.23zm.25-2.72c0-.06 0-.09-.14-.09s-.12 0-.08.09a.11.11 0 00.1 0 .18.18 0 00.12-.03zm-.22 2.29h.25a.15.15 0 00-.1-.15l-.15-.07zm0 1.68h.11v-.12zm.11 1.3h-.06s0 .07.06.07.08-.1 0-.1zm0 3.38s-.06 0-.06.07 0 .07.06.07a.05.05 0 00.06-.06s-.02-.09-.06-.11zm.2 1.67a.63.63 0 00.08.34.38.38 0 010 .34.51.51 0 00.17-.25 1 1 0 00.09-.26.53.53 0 00-.09-.3.42.42 0 01-.05-.3.47.47 0 00-.2.4zm.23-8.59q-.09 0-.09.12c0 .09 0 .13.09.13s.11 0 .11-.13-.04-.15-.11-.15zm.14 13.67c.05 0 .05 0 0 .08s-.09 0-.09 0 .03-.13.09-.11zm.05-14a.27.27 0 00.15.27 1.25 1.25 0 00.31.1v-.06s-.06-.21-.16-.22a1.69 1.69 0 00-.3-.16zm.15 13.27s.08 0 .08.11 0 .12-.08.12-.09 0-.09-.12.03-.18.09-.18zm0-8.79c0-.21.1-.39.15-.55s.2-.25.47-.25a1.34 1.34 0 01-.51 1l-.11-.12v-.08zm.08 3.68v.6a1 1 0 00.2.54.09.09 0 00.06 0s.06 0 .12-.11.2-.14.2-.14a.38.38 0 01.18 0c.11 0 .16 0 .16-.07v-.06a.52.52 0 00-.31-.53 1.77 1.77 0 00-.61-.34zm0-6a.19.19 0 00.17-.13.48.48 0 00.06-.21h-.23zm.11 10.13a.07.07 0 00-.08.08c0 .06 0 .09.08.09s.06 0 .06-.09.01-.13-.03-.13zm0-11.26a.19.19 0 00.16.2h.3v-.22h-.11a.62.62 0 01-.18-.05.35.35 0 01-.14-.07.09.09 0 000 .06zm.23 8.59h-.06s0 .06.06 0 .06 0 .06-.06-.02.01-.06.01zm.12-.79v.11l-.12-.11zm.11-7.49c-.06 0-.09 0-.09.11s0 .12.09.12.08 0 .08-.12-.02-.16-.07-.16zm.34 8.08s-.06 0-.06.1 0 .1.06.1.08 0 .08-.1-.02-.15-.08-.15zm.2-9.81c.05 0 .08 0 .08.11s0 .12-.08.12-.06 0-.06-.12.02-.16.06-.16zm.22 1.42h-.07c-.02 0 0-.06.07-.06s.02-.03 0 .01zm19.94 11.12a.36.36 0 01.09-.28.34.34 0 00.08-.23 1.26 1.26 0 00-.05-.33.79.79 0 01-.06-.29v-.23a.4.4 0 01.06-.13.59.59 0 00.05-.12.76.76 0 00-.11-.16c-.06-.07-.1-.1-.14-.1s0-.21 0-.4v-1.02a2 2 0 01.11-.65 1.08 1.08 0 01.17-.34.57.57 0 00.12-.37c0-.11-.08-.17-.23-.17l-.11.06h-.15a.78.78 0 00-.41.15.18.18 0 000 .17 1.13 1.13 0 010 .15s0 .07-.15.07-.07-.05-.14-.17-.14-.18-.18-.19h-.08c0 .09 0 .18-.07.28a1.45 1.45 0 01-.1.25h-.07a.15.15 0 00-.13 0s-.06 0-.13.11-.11.11-.12.11h-.12a.65.65 0 01-.25-.15c-.12-.11-.18-.17-.18-.19h-.06c-.09 0-.14.06-.15.19a.19.19 0 01-.21.2h-.09s-.05 0-.1-.08-.08-.09-.1-.09a.26.26 0 00-.14.09c-.06.06-.1.08-.14.08a1.3 1.3 0 01-.34-.15l-.4-.22-.11-.11c.08 0 .11-.06.11-.17s-.09-.21-.28-.34c-.07 0-.13 0-.17.16a.69.69 0 00-.06.21l.05.06c.05.06 0 0 0 0v.06a.07.07 0 010 .06s-.05 0-.05.05a.52.52 0 01-.24-.05l-.24-.12q0-.14.24-.12c.12 0 .18-.06.18-.19a.74.74 0 00-.14-.48.58.58 0 01-.14-.4 2 2 0 010-.21c0-.1.06-.15.16-.13v.37l.07-.08a.16.16 0 000-.09v-.08a1.58 1.58 0 000-.19.49.49 0 00-.05-.18.9.9 0 00-.32.17.48.48 0 00-.21.28.66.66 0 01-.16-.35.75.75 0 010-.36s0-.07.07-.11a.22.22 0 01.13-.06l.17.17a.11.11 0 00.08-.1v-.15a.33.33 0 010-.15s.08-.05.2-.05h.05l.06.08a.17.17 0 00.11.06.12.12 0 00.09 0 .24.24 0 00.17-.09h.06a.68.68 0 01.31.12l.34.17a1.3 1.3 0 01.34.09s.05.06 0 .09a.36.36 0 010 .09s0 .05.11.07c0-.23.13-.34.37-.34a.42.42 0 01.2 0 .35.35 0 00.17 0h.17v-.09a.81.81 0 01-.06-.2.49.49 0 00-.05-.17v-.08h.11a.54.54 0 01.07.26c0 .11.06.17.16.17a.32.32 0 00.27-.13.38.38 0 01.32-.13.25.25 0 01.23.09.23.23 0 00.2.08.55.55 0 000-.17c0-.05 0-.08.11-.08h.06l.1.1s.08.07.1.07h-.12a.83.83 0 00.17-.24 1.66 1.66 0 000-.24.92.92 0 000-.19s-.08-.09-.17-.13a.09.09 0 01.09-.08h.32a.09.09 0 00.07-.1.62.62 0 00-.06-.19c0-.1-.08-.2-.13-.3a1.13 1.13 0 00-.15-.27c-.06-.08-.11-.11-.14-.11v-.88a.2.2 0 01.14.25.22.22 0 00.11.26c.13 0 .2 0 .2-.15a.54.54 0 000-.29.74.74 0 00-.17-.33h.11a.78.78 0 01.22 0 .41.41 0 00.18 0c.15 0 .26-.12.31-.34a.8.8 0 01.26-.46v-.64a.3.3 0 00.2.08h.08c.08 0 .07-.05.09 0a.69.69 0 01.21.15.43.43 0 01.13.27.57.57 0 00-.29.05s-.05.1-.05.24v.17l.25-.17h.06a.13.13 0 010 .07v.14a1.31 1.31 0 000 .17h.28c.15 0 .25.21.3.52a9.87 9.87 0 01.1 1 9 9 0 00.1 1c0 .29.14.44.3.44s.15 0 .17-.09h.62l.09-.06h.11l.19.18a1.15 1.15 0 01.15.19.28.28 0 01.09-.41.72.72 0 01.42-.16h.2s.07 0 .09.12a1 1 0 010 .19c.11 0 .17-.07.18-.14a.19.19 0 01.13-.17.48.48 0 00.42.25.72.72 0 00.44-.14.74.74 0 01.44-.14h.23l.06.14h.11a.09.09 0 00.06 0v-.31a.27.27 0 00.22.08 2.15 2.15 0 00.44 0 2 2 0 00.44 0 .19.19 0 00-.05.09.28.28 0 01-.06.08v.06a.17.17 0 00.18-.13q0-.12.27-.12a.3.3 0 010 .19.35.35 0 000 .2.93.93 0 01.25 0 .71.71 0 00.26.05c.09 0 .15 0 .17-.06s.06-.06.14-.06a.09.09 0 01.06 0v.09l.12.09s.08.06.08.08l-.08.17-.06.14-.06.15h.48a.35.35 0 01-.05.2.31.31 0 00-.06.19.43.43 0 00.2.07.23.23 0 01.17.1h-.1l-.1.08v.35c0 .14.06.23.07.27v.16s-.06.06-.19.08h-1.39a.32.32 0 01-.14-.11.22.22 0 00-.15-.08h-.11a.33.33 0 01-.14 0l-.1.07a.22.22 0 01-.1 0h.07a.86.86 0 01-.47-.11.71.71 0 00-.35-.11v.11a.35.35 0 00-.4.4l-.13-.12c-.07 0-.11-.08-.13-.08s-.07 0-.1.08a.54.54 0 01-.07.12.25.25 0 01-.27-.1 1.36 1.36 0 01-.11-.28 2.11 2.11 0 00-.1-.3.2.2 0 00-.2-.14h-.07a.43.43 0 000 .14c0 .08.05.12.07.12h-.11a.43.43 0 01-.17-.07.4.4 0 00-.17-.08l-.17.43c0-.09-.08-.15-.13-.17a.48.48 0 00-.18 0 .85.85 0 00-.42.11.39.39 0 00-.18.35l-.06-.06v-.06a.54.54 0 01.24-.44 1.25 1.25 0 00.36-.41s0-.06-.09-.11h-.08a.52.52 0 01-.13.15l-.13.13h-.25a.2.2 0 00-.11.17 1.93 1.93 0 000 .24.58.58 0 010 .23c0 .07-.09.1-.2.1s-.11 0-.11-.12 0-.11-.12-.11a.25.25 0 00-.24.19 3.13 3.13 0 00-.11.44c0 .16-.05.33-.07.49a.57.57 0 01-.12.33.1.1 0 01-.08 0 .09.09 0 01-.06 0v-.42h-.22c-.19 0-.31.1-.34.2a1 1 0 00-.06.37h.27c.08 0 .1.09 0 .24a.89.89 0 00.24-.13c.07 0 .14-.1.21-.15a1.66 1.66 0 01.23.78v1.29a1.29 1.29 0 00-.2.35 3.59 3.59 0 00-.14.43l-.11.37q-.06.15-.09.15h-.54c-.09 0-.15.1-.17.24a.41.41 0 01-.14.3l-.34-.32a.54.54 0 00-.34-.19v.43c0 .08-.11.13-.35.17a1.55 1.55 0 01-.06-.39zm-4.45-6.49v-.06s-.07 0-.07.06a.08.08 0 00.07 0zm-.11.71h.11v-.18h-.11zm.39.7c.12 0 .17-.09.17-.28h-.17zm1.17-1.16l.08.09h.06l-.06-.17zm1.16 1.87a.34.34 0 00-.14.29.39.39 0 00.11-.28zm1.9-4.22c0 .09 0 .14.1.14h.35c.06 0 .09-.05.09-.14a.21.21 0 00-.11-.16.38.38 0 00-.18-.07l-.2.2zm.11 7.51a.66.66 0 00.12.27.3.3 0 00.28.13v-.45a.53.53 0 00-.22-.43.81.81 0 000 .24c-.04.13-.1.22-.18.22zm.09-1h.05v-.02zm.34-8.08v.17a.05.05 0 00.06-.06.15.15 0 00-.06-.05zm.25-.8zm.29 1.85h.08v-.06h-.08zm.17-.68c0 .09 0 .15.08.17l.2-.17zm.37.53h-.06a.05.05 0 00.06.06zm.08 5.05a.18.18 0 00.1-.14.71.71 0 000-.14h-.11zm.17-3.2s-.06 0-.06.08 0 .09.06.09.06 0 .06-.09-.02-.07-.06-.07zm.37 5.84v.06s.01-.01.01-.05zm2.33-4.34h-.06s0 .08.06.08a.09.09 0 000-.07zm.59-.79v.2s.06 0 .06-.1.03-.09-.06-.09zm.46 1.59s-.06 0-.06.1 0 .09.06.09 0 0 0-.09.03-.09 0-.09zm.17-1.9v.17c0 .1 0 .14.1.14a.32.32 0 00.27-.17.62.62 0 00.1-.31c0-.1-.07-.15-.2-.15h-.13a.4.4 0 00-.12.07zm1 1.64s-.06 0-.06.1 0 .1.06.1.09 0 .09-.1-.07-.09-.13-.09zm1.7-.79l.09-.09h-.09zm23.5 10.13a.46.46 0 000-.24.34.34 0 00-.11-.24l-.26-.07h-.34a.22.22 0 01-.11-.1 1.41 1.41 0 01-.26-.17l-.25-.19h-.19l-.32-.08-.31-.09a.3.3 0 01-.17-.07 1.59 1.59 0 01-.64-.37 4.88 4.88 0 00-.58-.45h-.06c-.09 0-.16.07-.2.21l-.08.27q-.26-.06-.3-.21a.53.53 0 00-.21-.27l-.06.06h-.06a.41.41 0 000 .26v.25a.34.34 0 01-.15 0 .24.24 0 01-.13-.1.34.34 0 010-.28c0-.1 0-.16-.12-.2h-.05a.11.11 0 01-.08 0v.76a.74.74 0 00-.35.23.52.52 0 01-.34.2h-.7a.27.27 0 01-.05.13.23.23 0 01-.07.09h-.64a1.16 1.16 0 01-.37-.09.79.79 0 01-.1-.17.69.69 0 00-.13-.2 1.87 1.87 0 01-.27-.93v-1a5.21 5.21 0 01.07-.81 9.14 9.14 0 01.2-1c.09-.33.18-.65.28-1a5.07 5.07 0 01.33-.78.79.79 0 01.43-.37.85.85 0 00.42-.37s.09-.12.16-.29a2.56 2.56 0 01.13-.31l.11-.14h.11a.4.4 0 00.14-.13.36.36 0 00.09-.12.1.1 0 000-.12.23.23 0 010-.11l.1-.1a.48.48 0 01.12-.1l.05.16h.15c.09 0 .12 0 .19-.14a2.43 2.43 0 00.18-.32 1.73 1.73 0 00.14-.32.88.88 0 00.06-.21h.3a2 2 0 00.35-.06.6.6 0 00.3-.14.38.38 0 00.16-.27h.59a.41.41 0 01.05-.11.48.48 0 01.09-.14h.25a.55.55 0 00.24 0l.62-.48.43-.33a1.28 1.28 0 01.22-.16.56.56 0 000-.15v-.13c0-.02.05-.06.14-.11l.2-.12a.27.27 0 00.06-.11.27.27 0 01.06-.11.64.64 0 01.12-.15l.13-.11c0-.07.1-.21.19-.4l.15-.34v-.17a2.61 2.61 0 000-.31 3.06 3.06 0 01.05-.32v-.19a.24.24 0 01.06-.11.31.31 0 00.06-.12 1.12 1.12 0 00.11-.22.85.85 0 00.06-.17.09.09 0 01-.06 0 .15.15 0 00-.11-.06 2.79 2.79 0 00-.48-.15l-.49-.13v-.31h-.24a1 1 0 01-.24.06 1.52 1.52 0 01-.18-.23l-.16-.2-.52-.18-.5-.16h-.34a4.87 4.87 0 00-1.32.2 1.83 1.83 0 00-1.06.77v.14a.5.5 0 00.11.37l.51.25a4 4 0 01.74.56c.22.21.43.44.62.66a.58.58 0 000 .1v.1a1.26 1.26 0 01-.14.37c-.1.19-.16.28-.2.28s-.16-.06-.2-.18a1.57 1.57 0 01-.08-.33 1.31 1.31 0 01-.71.17c0-.13 0-.19.17-.19a.15.15 0 00.17-.17v-.15a2 2 0 01-.47.2 1.85 1.85 0 01-.5.06h-.28c0-.17-.06-.26-.17-.27a.53.53 0 01-.31-.13.9.9 0 01-.41-.52 1.44 1.44 0 00-.33-.56.88.88 0 00-.27-.12l-.42-.13-.39-.11c-.11 0-.17-.08-.17-.12v-2.18a.23.23 0 01-.13-.14 1 1 0 010-.17.54.54 0 00.47-.21l.3-.44h.64l.38-.06h.26l.15-.1a.36.36 0 01.18-.1 1 1 0 01.43-.14.55.55 0 00.34-.23h1.05v-.27c0-.03 0-.11-.13-.24h.15a6 6 0 011 .41 1.45 1.45 0 01.7.84h.08c.1 0 .15-.07.17-.22a.22.22 0 01.23-.21h.4a1.19 1.19 0 01.25.07h.5a.64.64 0 01.28.06.25.25 0 01.16.2 1.58 1.58 0 01.07.34 2.71 2.71 0 010 .37 2.64 2.64 0 01.67.39 1.15 1.15 0 01.47.6 1.76 1.76 0 010 .23 1.49 1.49 0 000 .22.74.74 0 00.28 0 .55.55 0 01.26-.06h.11l.22.07h.15v.4a1.37 1.37 0 00.21.28 1 1 0 01.18.27 1.2 1.2 0 01.1.49v.56a5.31 5.31 0 010 .68 4.08 4.08 0 00-.06.71v.61a1.85 1.85 0 00.11.58 1.42 1.42 0 01-.29.21l-.3.19s-.11 0-.26-.15a.86.86 0 00-.28-.17.9.9 0 000 .15c0 .07 0 .15.05.24l.06.25a1.16 1.16 0 010 .16.27.27 0 00.06.14.41.41 0 01.05.11v.23a.82.82 0 01-.07.37.28.28 0 01-.27.14.24.24 0 01-.27-.18c0-.13-.09-.19-.18-.19a.87.87 0 01-.11.44l-.24.36c-.09.11-.17.23-.26.35a1 1 0 00-.16.44.55.55 0 000-.2.76.76 0 00-.09-.17h-.05a.39.39 0 00-.23.06.58.58 0 01-.31.06V80l-.09.07a.3.3 0 01-.14 0 .56.56 0 01-.26 0h-.25l-.2.17a.16.16 0 01-.11 0 .17.17 0 01-.06-.12.26.26 0 00.08-.11.31.31 0 01.09-.11v-.19c-.08 0-.13 0-.17-.14h-.06a.46.46 0 01-.12.13.58.58 0 00-.11.13v.11a.42.42 0 00.06.14.81.81 0 01.05.14 3.94 3.94 0 01-.48.34l-.35.26a.89.89 0 01-.19.11l.14.12-.28.53a1.57 1.57 0 00-.28.33l-.26.35c0 .08.13.09.29 0a.86.86 0 01.31-.1h.08a.19.19 0 00.09-.13.44.44 0 01.05-.13h.2l.06-.2h.09a.22.22 0 01.14 0 .38.38 0 00.38.23 1.07 1.07 0 01.41.06.44.44 0 00.09.11l.11.11a.72.72 0 00.55.22h.58a.39.39 0 000 .14v.12a.09.09 0 000 .06.85.85 0 01-.28.12.89.89 0 00-.29.13v1.33q0 .15.12.15s.06-.09.08-.27.05-.38.09-.59a2.75 2.75 0 01.15-.55q.1-.24.3-.21l.34.48a1.2 1.2 0 000 .23.16.16 0 00.17.14.41.41 0 00.23-.06.3.3 0 01.19 0c.14 0 .23 0 .27.1a.89.89 0 01.13.24h.6a.45.45 0 01-.2-.09.36.36 0 01-.17-.14v-.06a.35.35 0 00.06-.09s0-.06.05-.06a3 3 0 00.4.15 2.17 2.17 0 01.34.11 1.22 1.22 0 00.38 0h.42s.05 0 .11.06h.14a.92.92 0 000 .22 1.08 1.08 0 00.07.18h.17a.54.54 0 01.15-.08.32.32 0 00-.05-.16.4.4 0 01-.06-.13v-.06h.14l.22.07h.15v.06a.56.56 0 01-.18.48 1.77 1.77 0 00-.33.34v.14a.45.45 0 01-.17.3.42.42 0 01-.24.07h-.44l.32.31a.05.05 0 010 .07.14.14 0 01-.1 0c-.13 0-.22 0-.25-.12a.61.61 0 01-.07-.24 2 2 0 000-.24.15.15 0 00-.17-.11s-.07.06 0 .2a1 1 0 010 .38.32.32 0 01-.22.24c-.13 0-.35 0-.67-.23v-.76a.09.09 0 01-.06 0l-.05-.06-.08.14a.79.79 0 000 .12 1.89 1.89 0 000 .51v.54h.06s0-.08.07-.14a.43.43 0 000-.14 1.6 1.6 0 01.25.27.48.48 0 01.12.3.22.22 0 01-.06.18s-.06.1-.06.21v.06-.18a.85.85 0 01.09-.24.17.17 0 01.17-.12l.34-.2.22-.14c.15-.07.23-.09.23 0l-.23 1.44a1.69 1.69 0 00-1 .24 1.48 1.48 0 01-.86.24h-.47a1.61 1.61 0 01-.46-.15zm-7.12-5.93h.06a2.36 2.36 0 010-.24.28.28 0 01.17-.24h-.06v-.06h-.15zm.54-1c-.07 0-.11 0-.11.13s0 .13.11.13.09 0 .09-.13-.03-.09-.09-.09zm.34.48c-.07 0-.11 0-.11.13s0 .13.11.13.12 0 .12-.13-.04-.09-.12-.09zm.15-.59h.11l-.11-.12zm.11-.63l.37.12a1.36 1.36 0 00.36 0c0-.13 0-.21-.11-.24a.75.75 0 00-.28 0h-.19a.14.14 0 00-.15.16zm.11 5c-.06 0-.08 0-.08.13s0 .13.08.13.09 0 .09-.13-.03-.04-.09-.04zm.23-12.62c-.06 0-.09 0-.09.1s0 .1.09.1.11 0 .11-.1-.04-.01-.11-.01zm.71 9.84a1 1 0 00.1.44.32.32 0 00.32.21h.12l.07-.09.18-.26v-.08a.09.09 0 000-.06l-.38-.1a2.59 2.59 0 00-.41.03zm.34-3.12a.21.21 0 000 .09v1.16q.09 0 .09-.06a.26.26 0 00.08-.17 1 1 0 01.06-.2h.11l.11-.06v-.16a1.24 1.24 0 01.08-.27c0-.14.07-.22.07-.24a.15.15 0 00-.1-.15.79.79 0 00-.22-.06.58.58 0 01-.21-.07.21.21 0 01-.1-.2s-.07.08-.1.17a.68.68 0 000 .2zm.2 6h-.12c.04 0 .05.09.07.09s.05.07.05.01zm.25-7a.1.1 0 00-.11.11v.12l.11-.12v-.01zm0-8.94a.21.21 0 00.13.22.8.8 0 00.27 0v-.43a.92.92 0 00-.2.05.6.6 0 00-.17.07zm0 15.83l.11.2a.53.53 0 00.15.17 1.11 1.11 0 00.07-.13.34.34 0 000-.13V85a.3.3 0 000-.14c0-.06-.06-.09-.07-.09h-.12c-.07 0-.11 0-.11.12v.05zm.11-2.55a.55.55 0 00.13-.23 1.27 1.27 0 000-.22v-.18c0-.07-.05-.13-.15-.17l-.11.17zm.15-2.13c-.08 0-.12 0-.12.13s0 .13.12.13.08 0 .08-.13-.03-.03-.08-.03zm0 1.11a.26.26 0 00.14-.26h-.14zm1.47 1a.23.23 0 00-.23.14.91.91 0 000 .26c.13 0 .21 0 .24-.13a.77.77 0 00-.01-.21zm.17 3.46a.24.24 0 00.26.27h.48c0-.16-.09-.24-.27-.26zm.31-3.69c0 .17-.06.31-.08.42l-.06.32v.48a.6.6 0 01.11.13 1.42 1.42 0 00.18.22h.16a1.56 1.56 0 00.05-.57s0-.05.06-.09h.06v-.16a1.36 1.36 0 000-.27 2.51 2.51 0 010-.27v-.16zm.34-4.28a.26.26 0 00.15.23v-.23zm.26 6.89l.14-.14-.14-.11zm1-.22c0 .09 0 .14.07.15h.19a.45.45 0 01.21.12.24.24 0 10.21.19.31.31 0 01.12-.17h.05a.16.16 0 00.09 0v.25c0 .06.07.09.23.09v-.56c0-.24-.11-.4-.26-.46h-.25v-.45l-.6.65zm.51-6.55l.12.34h.17a.23.23 0 010-.09.81.81 0 00.05-.14l.09-.46c0-.07-.06-.06-.19 0a.53.53 0 01-.29.15zm.51 5.87v.17s.04-.11-.04-.11zm.15.17c-.08 0-.12 0-.12.11s0 .11.12.11.08 0 .08-.11-.07-.05-.12-.05zm.11.11c-.06 0-.09 0-.09.13s0 .13.09.13.06-.05.06-.13-.06-.07-.1-.07zm.08.37l.15-.11h-.15zm.35-8.91s-.09.05-.13.13a1.59 1.59 0 00-.12.27 2.56 2.56 0 00-.05.27v.13s.08-.05.13-.13.08-.18.11-.27a1.31 1.31 0 00.06-.27c.01-.02-.01-.07-.04-.07zm.53 9.39l.12-.11h-.12zm17.41 1.48a.14.14 0 000-.06v-.06a1 1 0 000-.18.48.48 0 00-.1-.19.58.58 0 00-.1-.2.46.46 0 01-.1-.17v-.08l-.07-.23a1.26 1.26 0 00-.07-.17 1 1 0 00-.16-.21 2.22 2.22 0 01-.18-.24.27.27 0 010-.12v-.37a.26.26 0 010-.11.43.43 0 01.08-.17 1.58 1.58 0 01.14-.2s.05 0 .09-.06a.56.56 0 01.29-.1h.3l.19-.05.18-.06h.34a.55.55 0 00.19-.06.62.62 0 01.18 0l.11-.12.12-.11a1.28 1.28 0 01.3-.07 1.47 1.47 0 00.29-.07l.17-.06a.57.57 0 01.17 0h.71a.84.84 0 01.12.18c.05.1.1.17.14.18h.25a.38.38 0 01.09-.11.92.92 0 00.11-.14.37.37 0 00.06-.16l.05-.18.23-.12a1 1 0 00.19-.12.33.33 0 01.18-.1l.23.11.07.07h.07a.24.24 0 00.11 0l.12-.07.18-.06.18-.05a.47.47 0 01.23-.14l.26-.12h.21a.51.51 0 00.24 0h.06a.21.21 0 000-.09h.12l.11.09h.37l.1.07a.43.43 0 00.15 0h1.14a1.14 1.14 0 00.31-.1 2 2 0 00.31-.16l.06-.08.06-.12s.05 0 .11.06.09.06.11.06h.12l.12-.12c.07 0 .1-.09.1-.11a2.23 2.23 0 000 .26 1 1 0 00.06.25.26.26 0 00.08.16c.06.07.09.1.11.1h1.45c0-.08.1-.2.18-.38a1.68 1.68 0 01.19-.33.23.23 0 01.08-.14h.15a1.32 1.32 0 00.38.1h.33s.07 0 .17.07h.79a.27.27 0 000 .12.56.56 0 00.05.08 2 2 0 00.06.31 2.31 2.31 0 01.06.31l.18.17c.11.1.16.16.16.18a2 2 0 01.17.19 1.14 1.14 0 01.11.17l-.14.23s.05.08.14.11l.2.06v.77c.08 0 .11.08.11.14l.08.11a.31.31 0 00.07.12h.11a2.64 2.64 0 00.11-.25l.12-.24.12-.14c.07 0 .11-.08.13-.08h.39a1.26 1.26 0 01-.06.24c0 .12-.06.2-.08.24l-.12.24a.85.85 0 01-.11.21.58.58 0 01-.06.2 1.47 1.47 0 00-.05.17.24.24 0 01-.16.09.73.73 0 01-.18 0s-.08-.06-.13-.12a.39.39 0 00-.13-.13.7.7 0 00-.21 0h-.21a.49.49 0 00-.06-.17.05.05 0 000-.05l-.06-.06h-.14s-.05 0-.11.06l-.12.05h-.08a.63.63 0 01-.21-.05.55.55 0 00-.19-.06.1.1 0 01-.11-.11.34.34 0 00.14 0c.06 0 .1 0 .11-.07l.08-.13a.28.28 0 000-.12v-.06l-.08-.06h-.25l-.16.22-.18.27-.06.11v.11l-.08.07a.27.27 0 000 .07 1.27 1.27 0 00-.11-.15c-.06-.07-.11-.1-.14-.1h-.12a1.47 1.47 0 01-.05.17.67.67 0 00-.06.17 2.23 2.23 0 00-.18.2.88.88 0 00-.16.2.52.52 0 00-.13-.15l-.13-.11h-.34l-.11.11-.14.15-.06.11a.09.09 0 000 .06h-.11l-.17.08-.17.06a.57.57 0 01-.13-.07.31.31 0 00-.12-.07h-.23a.9.9 0 01-.26 0 .36.36 0 01-.05-.09l-.06-.11c0-.1 0-.15-.11-.15h-.12s-.05 0-.11.06l-.11.09a.63.63 0 00-.19 0 .54.54 0 01-.18 0h-.29l-.48.09-.48.08-.26.05a1 1 0 00-.29.11.91.91 0 01-.3.11.56.56 0 01-.26 0h-.22l-.26.26h-.34s-.08 0-.13.08a.76.76 0 01-.1.12h-.85a.64.64 0 01-.2 0l-.25-.06-.26-.06h-.11a.83.83 0 01-.17.13.46.46 0 01-.17.1h-.24l-.13-.07-.15-.06a.55.55 0 00-.19-.06h-.11l-.06.06-.06.06-.07.12a.46.46 0 01-.07.13h-.06a1.23 1.23 0 00-.29 0H249l-.12-.06s-.08 0-.14.09a.64.64 0 00-.12.14h-1.53l.12-.25a2.17 2.17 0 01.11-.26v.02a.05.05 0 00.03-.09zm.45-7.06a.71.71 0 000-.22v-.95a.31.31 0 000-.12c0-.07-.05-.14-.08-.22l-.09-.22a.54.54 0 010-.15.65.65 0 010-.18.37.37 0 01.1-.18l.11-.06.12-.06a.56.56 0 00.17-.1.51.51 0 01.2-.1h.11l.23.2s.11.08.27.13a1.35 1.35 0 01.32.13h.12a.84.84 0 01.11-.2c.06-.09.09-.15.11-.17s.11 0 .21 0a.63.63 0 00.22.07.45.45 0 000-.08.61.61 0 010-.14.64.64 0 010-.2c0-.1.08-.14.11-.14h.12s.06 0 .12.11.1.11.14.11h.29a.24.24 0 00.13 0 .2.2 0 01.09 0 .84.84 0 00.07-.16.6.6 0 01.08-.13c.05 0 .08 0 .08-.11h.14a.3.3 0 01.07.13l.07.13a.26.26 0 00.09.14.6.6 0 01.11-.14.64.64 0 00.12-.15l.07-.1a.54.54 0 01.07-.12.31.31 0 000 .12c0 .07.05.1.07.1h.06a.1.1 0 00.11-.11v-.11c0-.06 0-.09-.11-.09a.83.83 0 01.22-.14l.23-.11h.14a.33.33 0 01.06.12.31.31 0 00.06.13h.07a.1.1 0 00.07 0h.31l.44-.12a1.89 1.89 0 00.38-.11.4.4 0 01.13-.06.34.34 0 00.13 0h.25l.23-.24c.11-.13.19-.21.23-.25l.1.08a.33.33 0 00.13 0l.11-.06a.27.27 0 01.14-.06h.11l.12.06.11.06h.11l.17-.07.3-.15a2.09 2.09 0 00.3-.14.66.66 0 00.17-.1l.31-.07.4-.07h.23l.14.09h.11a1.7 1.7 0 00.41 0 1.58 1.58 0 00.41 0l.05.06.07.06h.21a.31.31 0 00.06-.13.43.43 0 000-.13.21.21 0 00.09 0h.17a.09.09 0 01.06 0h.05a.4.4 0 00.06.13.4.4 0 01.06.13h.11l.07-.09.07-.08h.46a.52.52 0 01-.06.14.38.38 0 00-.06.17v.08s0 .07.1.13l.13.13h.14c.08 0 .11 0 .11.08a1 1 0 00.05.17 1.38 1.38 0 00.07.2v.06a.12.12 0 00.09 0 .26.26 0 000 .11l.05.11.23-.11a.38.38 0 000 .13 1.47 1.47 0 00.1.13l.1.07.13.07s-.08.08-.13.2-.08.19-.1.22v.06a.09.09 0 000 .06h.2a.34.34 0 00.14-.09l.2.48a.56.56 0 00.13-.07.38.38 0 01.13 0h.11v.26h-.24a.87.87 0 00-.24.06l-.37.37a.66.66 0 010 .13.31.31 0 01-.06.13h-.45a.59.59 0 00-.21 0l-.19.07-.07.1a.34.34 0 000 .13l-.11.11h-.12a.27.27 0 00-.11-.06h-.11a1.32 1.32 0 00-.36-.07 1.35 1.35 0 01-.35-.08.77.77 0 01-.19-.15l-.18-.19-.07.07a.15.15 0 00-.05.08h-.22l-.19-.09a.46.46 0 00-.18-.06l-.34.34h-.11a.25.25 0 01-.12 0l-.11-.06h-.26l-.08.08h-.37s-.05 0-.1-.09-.09-.1-.13-.1h-.34a.33.33 0 00-.18.1.43.43 0 01-.19.09h-1.53a3.13 3.13 0 00-.44 0h-.63a1.19 1.19 0 01-.23 0l-.23.06a.24.24 0 00-.11.06h-.48a.4.4 0 01-.17.07l-.2.05a1 1 0 01-.34 0h-.34a.92.92 0 00-.2.14.76.76 0 01-.17.11h-1.9a.26.26 0 00-.12.07.3.3 0 01-.11.07h-.79a.33.33 0 01-.15 0zm1.05-1.73h.14v-.12h-.14zm.48.08h.12v-.08h-.16zm1.31-.71l-.05.06a1.21 1.21 0 000 .2.92.92 0 000 .18s0 .06.05 0a.35.35 0 000-.22.6.6 0 000-.22zm1.16 6.16l.11-.12h-.11zm1.31.37h.05s.07.06.09.06h.17v-.12l-.06-.05c-.06-.05-.06 0-.06-.06h-.01a.64.64 0 00-.1.13.24.24 0 00-.08.02zm.14-.85h-.09s0 .08.09.06h.05a.08.08 0 00-.01-.06zm.68.36q-.09 0-.09.12c0 .07 0 .11.09.11a.1.1 0 00.11-.11c0-.08-.04-.12-.11-.12zm.48-.93a.1.1 0 00-.11.11c0 .08 0 .11.11.11s.08 0 .08-.11-.02-.11-.08-.11zm4.59-.85l-.24.25c-.12.13-.2.2-.24.2s0 0-.08.06a.09.09 0 01-.06 0v-.06a.16.16 0 010-.08l.18-.19.19-.18h.22zm-.22.59v.12l-.12-.12zm.11-5.78h-.06s0 .08.06.06a.05.05 0 00.06-.06h-.06zm.45 6.72s-.05 0-.05.13 0 .12.05.12a.11.11 0 00.12-.12c0-.09-.04-.13-.12-.13zm.6-7.55h-.07a.07.07 0 00.07.06v-.06zm1.08-.08s-.06 0-.06-.07.02.03.06.07zm.34 9.42v-.06s-.08 0-.08.06a.1.1 0 00.08.05v-.05zm.34-2.47v.11h-.09v-.11zm.37 2.69v-.11h-.09zm18.43-2.07h-.2c-.05 0-.09 0-.12-.13a1.27 1.27 0 01-.06-.28v-.47a.31.31 0 00-.22.14.23.23 0 01-.21.11v-.79a.05.05 0 01-.05 0 .09.09 0 01-.06 0 .79.79 0 010 .12.31.31 0 000 .11h-.05l-.24-.03a.42.42 0 01-.11-.21l-.09-.24a.51.51 0 010-.14l-.13-.26-.21-.42-.22-.43a1 1 0 01-.1-.25 4 4 0 00-.05-.43l-.06-.35c0-.13 0-.22-.05-.3v-.17a3.78 3.78 0 01.08-.6 2.41 2.41 0 00.08-.44 1.1 1.1 0 01.06-.27s.05 0 .14.05l.17.07h.17a.22.22 0 010 .1.22.22 0 000 .1.2.2 0 000 .07.3.3 0 010 .1c0 .13 0 .2.07.21h.21a.55.55 0 00-.06-.26.58.58 0 01-.07-.21.24.24 0 010-.17.78.78 0 01.26-.16c.13 0 .2 0 .2.09 0-.17.08-.27.2-.29h.37a1.1 1.1 0 00-.15-.57.6.6 0 00-.48-.31.45.45 0 00-.1.37v.36a.93.93 0 00-.24 0 1 1 0 01-.27 0 .17.17 0 01-.16-.07s0-.15.1-.3a.33.33 0 00.23-.06.29.29 0 00.07-.12.81.81 0 000-.16.45.45 0 01.06-.2 1 1 0 01.21-.21c.12-.1.26-.21.43-.33l.44-.32.25-.22a.24.24 0 01.09-.08l.11-.09c.11 0 .21.07.29.28a1.43 1.43 0 00.22.4h.07c.07 0 .05-.06.07-.06a1.13 1.13 0 00-.11-.34.86.86 0 01-.12-.34c.14 0 .21 0 .23-.14a1.15 1.15 0 01.11-.29.86.86 0 01.06-.25.48.48 0 01.08-.17h.06a1.48 1.48 0 000 .24.19.19 0 00.19.16 3.37 3.37 0 01.31-.76 1.82 1.82 0 01.54-.6.26.26 0 01.18.11.91.91 0 01.18.27 3.16 3.16 0 00.18.27.22.22 0 00.17.11s.05 0 .09-.1a1.25 1.25 0 00.15-.24c0-.09.09-.18.12-.26a.4.4 0 00.06-.16v-.06a.31.31 0 00.11-.09l.09-.08v-.09a.2.2 0 00-.13-.2.27.27 0 01-.15-.25c.13 0 .2 0 .21.08s.09.09.24.09a.45.45 0 01.06-.24 2.25 2.25 0 01.12-.21 2 2 0 00.13-.25.82.82 0 00.06-.35c0-.13 0-.26-.06-.37s-.11-.19-.28-.23a.24.24 0 01.02.24.5.5 0 01-.13.1h-.07c-.07 0-.08-.07-.1-.07h-.11a.16.16 0 00-.1.07c0 .05-.08.07-.1.07s-.12 0-.12-.11l.12-.09a.29.29 0 01.08-.08.13.13 0 000-.06.14.14 0 010-.06h-.06s0 .05-.07.08a.29.29 0 00-.1.07c-.1-.23-.22-.34-.38-.33a2 2 0 01-.53 0 1.57 1.57 0 010 .27.33.33 0 010 .17.14.14 0 01-.16 0 .23.23 0 01-.14-.07c-.06-.05-.09-.09-.09-.13l-.48.54h-.11a.11.11 0 01-.09-.09h-.05a.18.18 0 00-.12.12.68.68 0 000 .19 1.57 1.57 0 00-.62.13 2.37 2.37 0 01-.65.15c0 .13-.08.21-.17.21h-.46a.22.22 0 01-.14 0 .77.77 0 00-.14-.31l-.23-.34a2 2 0 00-.22-.3.57.57 0 01-.14-.21s.05 0 .05-.13v-.16a3 3 0 00-.21-.3l-.33-.39c-.11-.14-.21-.29-.31-.43a.74.74 0 01-.14-.38c0-.15 0-.23.1-.24h.32a.78.78 0 01.39.08.68.68 0 00.35.09v-.66a1.2 1.2 0 010-.28c0-.09.05-.13.09-.13a1.15 1.15 0 00.28-.11c.06 0 .09-.07.1-.1a.28.28 0 000-.09h.09a.86.86 0 01.34-.06 1.14 1.14 0 00.37 0 1 1 0 00.2-.22.2.2 0 01.19-.09h.06l-.28.56a4.42 4.42 0 00.61.13 2.47 2.47 0 00.61 0c.07 0 .12 0 .12-.05a.59.59 0 000-.14.91.91 0 010-.17.14.14 0 01.1-.12 1.19 1.19 0 000 .14.26.26 0 00.1.15h.09a1.42 1.42 0 01.18-.22.94.94 0 00.19-.21l.13-.07a.2.2 0 01.09 0h.2a1 1 0 01.2.15v.11a.66.66 0 010 .25.75.75 0 000 .26v.06l.05.07a.07.07 0 00.06 0 .54.54 0 00.1-.3v-.34a.82.82 0 01.07-.28.34.34 0 01.2-.19v.6l.05.06c0 .05.08.06.12 0a.51.51 0 00.08-.21v-.08a.32.32 0 01.15 0 1.77 1.77 0 01.39.06c.16 0 .25.12.26.26v.05a.31.31 0 010 .12.24.24 0 000 .11v.06s0 .09.11.1h.34c.02 0 .07-.05.15-.05a.5.5 0 01.19.13l.32.3a2.86 2.86 0 01.29.33.54.54 0 01.13.18 1.83 1.83 0 01.13.26 3.48 3.48 0 01.13.34c0 .11 0 .18.07.2h.22c.05 0 .11 0 .19.12a8.27 8.27 0 01.72.81 1.12 1.12 0 01.24 1 .38.38 0 01.26-.08 1.87 1.87 0 010 .27.54.54 0 010 .15.56.56 0 000 .12.59.59 0 000 .17.14.14 0 00.08.14s.07 0 .07.08a.21.21 0 01-.16.22.43.43 0 00-.24.15v.06a.09.09 0 000 .06l.07.08a.29.29 0 010 .11c0 .12-.1.28-.19.5s-.22.33-.37.33a.27.27 0 01-.22-.09 1.74 1.74 0 01-.11-.18 1.24 1.24 0 00-.1-.2.18.18 0 00-.17-.1 1.25 1.25 0 00.09.4c0 .07.08.19.14.36h-.06a.42.42 0 01-.35-.2 1.48 1.48 0 00-.3-.28.1.1 0 00-.09 0l-.05.07a.24.24 0 00.08.13l.19.21.18.22a.36.36 0 01.09.12s-.06.07-.16.13-.15.12-.13.16l-.37-.06a1.66 1.66 0 00.1.43c.07.19 0 .31-.07.37a.63.63 0 00-.07-.22l-.16-.31a1.27 1.27 0 00-.18-.27c-.07-.07-.11-.11-.13-.11a3.77 3.77 0 01.06.59 1 1 0 01-.1.44.56.56 0 01-.35.3.1.1 0 000-.08 2.08 2.08 0 00-.06-.42.7.7 0 010-.41v-.08a.07.07 0 000-.06h-.07a.51.51 0 00-.15.31v.41a1.82 1.82 0 01-.09.37.21.21 0 01-.22.15 1.39 1.39 0 01-.26-.35.34.34 0 00-.31-.21.87.87 0 00.13.41 1 1 0 01.13.47s-.06.09-.16.11l-.36.07a1.21 1.21 0 00-.35.13.32.32 0 00-.16.31 1.82 1.82 0 00.2.58 1.21 1.21 0 01.17.58l-.17-.05a.42.42 0 01-.14-.09.09.09 0 01-.06 0l-.05-.06h-.12a.21.21 0 00-.08.06.12.12 0 01-.09 0 .13.13 0 01-.07 0 .05.05 0 00-.07 0l-.17.09h-.17a.31.31 0 00.16.27.35.35 0 01.15.32l-.34.46-.25.31c-.08.09-.12.14-.14.14a.45.45 0 01-.15-.14.73.73 0 00-.11-.14v-.12l.16-.15c.06-.07.1-.11.1-.13a.24.24 0 01.28.06v-.29a.22.22 0 00-.14 0s-.05 0-.09.06 0 0-.08 0a.62.62 0 01-.34-.09.65.65 0 00-.31-.08.45.45 0 00-.48.56 1 1 0 01-.66-.19.81.81 0 00-.51-.2h-.23l-.08-.08h-.06l-.08.06v.77a.18.18 0 00.17-.09l.1-.17a.86.86 0 01.1-.16.21.21 0 01.14-.07.14.14 0 01.15.09.64.64 0 010 .2.67.67 0 000 .2c0 .05.05.08.13.08a.28.28 0 01.08-.06l.12-.05h.08a.68.68 0 00-.07.17 1 1 0 000 .2.82.82 0 000 .14.09.09 0 00.1.08 2.44 2.44 0 01.38-.69c.2-.28.38-.42.56-.44a.2.2 0 01.17.11 1.73 1.73 0 01.08.27 1.19 1.19 0 010 .33 1 1 0 010 .28l.24-.21a.83.83 0 01.27-.19.29.29 0 01.22.12 1.7 1.7 0 01.18.28 2.13 2.13 0 01.14.35 1.54 1.54 0 00.12.3 1.47 1.47 0 00-.33.9 8.3 8.3 0 000 1 .45.45 0 00.08.26 1 1 0 01.1.26.52.52 0 01-.44-.17.46.46 0 00-.39-.18.41.41 0 010 .1v.1s.05 0 .09.09.06.09.06.11a.12.12 0 01-.09 0 .57.57 0 01-.2-.07l-.22-.1s-.54.08-.6.08zm-2.21-14.12s0-.06-.07-.06 0 0 0 .06v.05s.07-.01.07-.05zm.54 9.58h.23c0-.09-.11-.16-.26-.19zm1.93 11.58a.21.21 0 00-.09 0h-.08c-.08 0 0 0 0 0h-.06c0-.15 0-.25-.07-.28a.28.28 0 01-.07-.2h.19c.08 0 .11-.08.1-.17l-.37-.4-.3-.27a.59.59 0 00-.21-.12.32.32 0 00-.14.11c-.06.06-.09.09-.09.11l-.31-.61a2 2 0 01-.23-.66c0-.16.07-.24.2-.26a.32.32 0 00.26-.17c.19-.32.38-.64.58-1a1.36 1.36 0 01.86-.61s.05 0 .1-.06.08 0 .1 0a.27.27 0 01.13 0c.05 0 .07.06.07.1a.61.61 0 010-.16.61.61 0 000-.16h.05q.18 0 .27.27c.07.18.13.38.19.59s.11.41.17.6.12.31.2.33c0-.15 0-.24.11-.28a.39.39 0 01.11.28.25.25 0 010 .21.62.62 0 00-.05.25.24.24 0 00.1.1l.12.07h.09a.81.81 0 00.06.33 1.6 1.6 0 01.08.3.45.45 0 01-.45.48.37.37 0 01-.37-.2.54.54 0 00-.16.27c0 .14-.09.29-.13.44a3.44 3.44 0 01-.11.41c0 .12-.07.18-.11.18a.25.25 0 01-.12 0 .11.11 0 01-.08 0h-.06c-.15 0-.23 0-.25.15s-.08.16-.17.16zm-1.22-11.49a.2.2 0 010 .08.61.61 0 00.05.12h.17v-.05c0-.09-.09-.14-.22-.14h-.05s.04-.01.02-.01zm.09-9.93h.11v-.19h-.11zm.11 12.6s-.05 0 0 .09 0 .1.07.1.08 0 .07-.1a.096.096 0 00-.17-.09zm0-3.35h.07c.08 0 .11-.11.1-.22s0-.19 0-.23a.23.23 0 00-.2.31zm0 2.86h.11v-.2h-.11zm.28 6.27s-.05 0-.05.09 0 .12.05.08a.1.1 0 00.06-.1s-.05-.07-.09-.07zm.09-8.65c.24 0 .36-.1.36-.31h-.39zm0 8.2l.11-.09-.11-.11zm.08-10.3a1.37 1.37 0 000 .16.15.15 0 00.1.13.21.21 0 00.12-.16 1.37 1.37 0 000-.16zm.06-7.49s-.05.07 0 .13 0 .09.07.07.05 0 0-.1-.03-.08-.1-.08zm.31 20.28v-.11h-.11zm-.12-20.26a.58.58 0 01.05.22c0 .12.06.18.15.2s.09-.08.09-.2-.1-.22-.29-.22zm.23.7c-.07 0-.11 0-.11.12v.48h.17a.44.44 0 010-.14.49.49 0 010-.12.36.36 0 000-.11v-.11q.03-.16-.06-.16zm0-1.36a.3.3 0 00.23.09v-.26c-.08-.04-.15.02-.23.13zm.12 20.66a2.48 2.48 0 00.08.51 3.36 3.36 0 01.09.54c.11 0 .19-.07.25-.2a.86.86 0 00.09-.26.26.26 0 01-.15-.14 1.21 1.21 0 00-.07-.2 2 2 0 00-.1-.21.34.34 0 00-.19-.16zm.39-11.77c0 .15.11.22.2.22s0-.26.1-.44a3.31 3.31 0 01.48-.55 3.77 3.77 0 01.61-.48 1.07 1.07 0 01.46-.2 1.35 1.35 0 01-.26 0h-.23c-.02 0-.09 0-.15.14a.89.89 0 01-.13.17.24.24 0 01-.11 0l-.12-.07c-.1 0-.18.08-.25.24s-.1.25-.1.27a.44.44 0 00-.08-.2c-.06-.09-.1-.14-.14-.14s-.07-.11-.09-.11a.61.61 0 01-.08.4.53.53 0 01-.4.19v.12a.23.23 0 01.1.14.43.43 0 010 .14.77.77 0 01.09-.13s.07-.07.11-.07h.1a.43.43 0 01-.06.24.43.43 0 00-.05.16zm-.22-1.23h.08v-.11h-.08zm.51 12.56a.43.43 0 00-.24.06c-.07 0-.09.11-.08.23.23-.02.34-.12.32-.27zm-.26-.82h.11l-.11-.08zm.17-9.47c-.06 0-.08 0-.08.1s0 .1.08.1.06 0 .06-.1-.02-.08-.06-.08zm0 11.4c-.06 0-.08.07-.07.14s0 .1.1.09.05 0 0-.12.04-.09 0-.09zm0-18.66l.11-.09h-.11zm0 7.46s0 .06.05.06.05 0 0 0a.1.1 0 00.01-.04zm.08 5.36h.44a.2.2 0 01.19.14.87.87 0 00-.13.19.52.52 0 01-.18.18q-.09 0-.18-.21a.59.59 0 00-.08-.28zm.2-15.83a1 1 0 000 .17.23.23 0 00.07.14v-.31zm.06 7.06h-.06s0 .07.06 0 .06 0 .06 0-.02.02-.06.02zm.12.48v.12a.1.1 0 00.05-.07zm.08 12.51h.26l-.17-.08zm.79-20.73a.4.4 0 00-.42.48v.2a1.27 1.27 0 00.3-.27.6.6 0 00.12-.39zm-.36.65s-.06 0-.06.11 0 .12.06.12.11 0 .11-.12a.1.1 0 00-.11-.08zm.48 7.35s0 .1.13.2.15.14.21.14l.34-.77-.21-.06h-.41a.51.51 0 00-.05.2 1.67 1.67 0 000 .19zm.25-7.15c-.05 0-.08 0-.07.1s0 .1.1.1.05 0 0-.1.01-.08-.03-.08zm0 9.1s0-.13.09-.28l.11-.23h.17l.11.06a.43.43 0 00-.07.21.43.43 0 000 .22 1.78 1.78 0 00.08.34.6.6 0 00.23.34h-.06a.53.53 0 01-.48-.2.7.7 0 01-.15-.44zm.14-.79a.08.08 0 00.09.09h.11a1.16 1.16 0 000-.17c0-.08 0-.11-.1-.09s0 0-.06.07a.33.33 0 00.03.12zm.4-3.91a.72.72 0 01-.31.62.2.2 0 000-.11.27.27 0 010-.12.58.58 0 01.06-.31c.01-.04.11-.06.28-.06zm-.14-3.35s.08 0 .14-.1a1.43 1.43 0 00.16-.24c0-.1.09-.18.12-.26a.42.42 0 00.06-.14.38.38 0 00-.42-.34h-.12zm0 1.19h.11a.29.29 0 00-.11-.2zm.23-2.81a.5.5 0 00.25.29c-.04-.2-.12-.29-.25-.27zm.39 1.28a.25.25 0 00-.25.21 1.34 1.34 0 00-.06.36.33.33 0 00.27-.23.61.61 0 00.04-.32zm.06 1.62s-.06 0-.06.08 0 .09.06.09a.08.08 0 00.09-.09c.04-.04-.03-.06-.09-.06zm.37 1.92a1.06 1.06 0 010 .19.16.16 0 00.1.13v-.32zm.14-2.07h.12v-.08h-.12zm.23-.59a2 2 0 000 .34c0 .11.09.16.22.14h.17l-.15-.51zm.11 4s-.05 0-.05.1 0 .1.05.1a.12.12 0 00.09-.13c0-.08-.03-.1-.09-.08zm.23-1.59a.53.53 0 00.06.24.18.18 0 00.19.13h.09a.59.59 0 01.06-.33.72.72 0 000-.35.6.6 0 00-.08-.2.45.45 0 01-.09-.2 1.94 1.94 0 01-.2.33.53.53 0 00.02.37zm.31 1.87a.16.16 0 00-.13.13.26.26 0 000 .16h.14zm.14-.82v.14a.55.55 0 000 .17v.09h.08zm.14-1.9h-.05s0 .07.05.07.06 0 .06-.07-.02-.01-.06-.01zm.91 3.15v.1c0 .05-.09.09-.07.12a3 3 0 00-.14.43 2.74 2.74 0 00-.1.31c0 .1-.06.16-.07.2a.26.26 0 01-.12.11l-.11.09a.09.09 0 010-.06v-.06a.92.92 0 01.08-.42.73.73 0 01.22-.24 1.2 1.2 0 00.22-.23.71.71 0 00.09-.36zm-.39-1.79h.11v-.11zm.9-.54v.07c0 .07 0 .06 0 0a.09.09 0 00.06-.08h-.02z" fill="#fff"/></svg>