<svg data-name="Layer 1" xmlns="http://www.w3.org/2000/svg" xmlns:xlink="http://www.w3.org/1999/xlink" viewBox="0 0 374.51 371.86"><defs><linearGradient id="45-03thinking-0355a" x1="188.74" y1="149" x2="183.4" y2="461.74" gradientUnits="userSpaceOnUse"><stop offset=".01"/><stop offset=".13" stop-opacity=".69"/><stop offset="1" stop-opacity="0"/></linearGradient><linearGradient id="45-03thinking-0355c" x1="217.53" y1="172.45" x2="253.76" y2="187.3" xlink:href="#45-03thinking-0355a"/><linearGradient id="45-03thinking-0355d" x1="255.36" y1="244.26" x2="294.4" y2="331.61" xlink:href="#45-03thinking-0355a"/><linearGradient id="45-03thinking-0355e" x1="162.83" y1="220.48" x2="224.31" y2="189.74" xlink:href="#45-03thinking-0355a"/><linearGradient id="45-03thinking-0355f" x1="274.68" y1="213.96" x2="181.9" y2="203.56" xlink:href="#45-03thinking-0355a"/><linearGradient id="45-03thinking-0355g" x1="106.75" y1="324.51" x2="239.18" y2="191.37" xlink:href="#45-03thinking-0355a"/><linearGradient id="45-03thinking-0355i" x1="237.59" y1="92.22" x2="261.03" y2="92.22" xlink:href="#45-03thinking-0355a"/><linearGradient id="45-03thinking-0355j" x1="236.34" y1="92.36" x2="262.56" y2="92.36" xlink:href="#45-03thinking-0355a"/><radialGradient id="45-03thinking-0355b" cx="250.59" cy="72.53" r="42.55" gradientUnits="userSpaceOnUse"><stop offset="0" stop-color="#fff"/><stop offset="1" stop-color="#fff" stop-opacity="0"/></radialGradient><radialGradient id="45-03thinking-0355h" cx="287.71" cy="79.81" r="23.39" gradientUnits="userSpaceOnUse"><stop offset=".34" stop-color="#fff"/><stop offset="1" stop-color="#fff" stop-opacity=".39"/></radialGradient></defs><path d="M62.79 27.47c-28.17 23.5-44.84 59.63-46.45 96.27-.94 21.58 3 43.2 1.29 64.73-3.21 40-25.76 79.67-14.52 118.16 11.55 39.55 55.44 61.34 96.52 64.6s81.95-7.1 123.12-8.64c22.42-.85 44.95.93 67.26-1.43s45.06-9.38 61.08-25.08 23.49-38.33 23.41-60.57-7.24-44-17.43-63.73c-10.72-20.8-25-40.31-30-63.18-7-32.21 4.46-70.12-16-96-12.68-16-33.93-21.93-53.73-26.94-32.92-8.31-66.6-20.04-100.32-24.47a124.09 124.09 0 00-50.6 3.31c-6.29 1.77-43.63 14.49-43.63 22.97z" fill="#4E7699" opacity=".18" style="isolation:isolate"/><circle cx="250.59" cy="72.53" r="63.15" fill="url(#45-03thinking-0355b)"/><ellipse cx="186.11" cy="303.18" rx="145.23" ry="30.29" fill="url(#45-03thinking-0355a)"/><path d="M250.21 304.89a6 6 0 001.56 2.6 5.12 5.12 0 002.42 1c3 .52 7-2.55 6.61-4.2s.18-7.43-.12-9.1a6.58 6.58 0 00-.58-2.16c-.9-1.55-3.05-1.72-4.83-1.55-2.37.24-6.06 1-6.79 3.62-.76 2.82.77 7.17 1.73 9.79z" fill="#f5bbb9"/><path d="M155.64 138.76c-3.34 2.48-4.36 7.23-3.43 11.29s3.45 7.56 6.11 10.76a101.33 101.33 0 0024 21.05c3.3 2.07 6.84 4 10.72 4.43 4.36.48 8.69-1 12.84-2.38a17.11 17.11 0 005.42-2.61 13.67 13.67 0 003.65-5.33 42.83 42.83 0 003.3-15.58c.26-7.05-1.21-7.16-3.67-13.77-1.84-5-4.83-10.82-9.94-9.41-13.68 3.76-9.69 18.4-9.68 25.05-4.51-5.31-12.89-12.94-18.13-17.53-4.32-3.83-15.41-10.25-21.19-5.97z" fill="#4E7699"/><path d="M193.22 157.49c-3.34 2.48-4.36 7.23-3.43 11.29s3.45 7.56 6.11 10.76a101.33 101.33 0 0024 21.05c3.3 2.07 6.84 4 10.72 4.43 4.36.48 8.69-1 12.84-2.38a17.11 17.11 0 005.42-2.61 13.67 13.67 0 003.65-5.33 42.83 42.83 0 003.3-15.58c.26-7.05-1.21-7.16-3.67-13.77-1.84-5-4.83-10.82-9.94-9.41-13.68 3.76-9.69 18.4-9.68 25.05-4.51-5.31-12.89-12.94-18.13-17.53-4.32-3.83-15.41-10.25-21.19-5.97z" transform="translate(-37.58 -18.73)" fill="url(#45-03thinking-0355c)"/><path d="M198.57 117.21c-1.3 2.47-.09 5.69-1.34 8.18a6.5 6.5 0 01-3.36 2.87c-2.48 1.06-5.3 1.21-7.72 2.38a10 10 0 00-4.8 5c-.93 2.2-1.13 4.84-2.87 6.48-2.09 2-5.43 1.59-8.2.81-1.9-.53-3.92-1.31-4.94-3a7 7 0 01-.77-3.66c0-3.06.91-6.05 1.5-9.05.85-4.31 1.14-8.72 2.15-13s2.84-8.52 6.16-11.4 10.61-10.31 14.8-9.58c4 .71 4.9 9.62 7.14 13a33.38 33.38 0 012 4c1.41 2.96 1.78 4.08.25 6.97z" fill="#f5bbb9"/><path d="M192.17 94.79c-.82 2.66-3.43 4.28-5.81 5.72s-4.95 3.17-5.58 5.88c-.4 1.66 0 3.54-1 5a6.69 6.69 0 00-1.34-2 2.24 2.24 0 00-2.24-.54 2.39 2.39 0 00-1.26 2.23 4.19 4.19 0 003.46 4.08 13 13 0 00-2.18 5.59c-.29 2.08-.14 4.39-1.46 6a4.19 4.19 0 01-5.74.55 3.62 3.62 0 01-1.43 1.64c-1.69-.88-1.65-3.23-2-5.1-.83-5-5.53-8.49-7.09-13.31a21 21 0 01-.51-8 21.1 21.1 0 011.51-7.44 15.28 15.28 0 017.87-7.14 41.77 41.77 0 019.53-2.6 55.2 55.2 0 018.17-1.33c5.08-.16 8.47 6.33 7.1 10.77zm46.37 110.07a8.89 8.89 0 012.95.47 7.5 7.5 0 012.3 1.62c7.64 7.16 9.95 18.19 11.87 28.48 3.23 17.26 6.46 34.6 6.9 52.15.09 3.46 1.49 6.61-.13 9.66s-9.05 3.35-12.32 2.23-2.46-2.43-3.78-5.66c-2.69-6.54-6.49-12.54-10.26-18.54l-13.78-21.83c-2.2-3.48-4.49-7.06-7.86-9.44-4.74-3.34-10.84-3.79-16.54-4.84s-11.87-3.28-14.49-8.45c-4.69-9.29 1.53-21.93 11.51-23.11 14.56-1.75 28.93-3.33 43.63-2.74z" fill="#2e2e3f"/><path d="M276.12 223.59a8.89 8.89 0 012.95.47 7.5 7.5 0 012.3 1.62c7.64 7.16 9.95 18.19 11.87 28.48 3.23 17.26 6.46 34.6 6.9 52.15.09 3.46.75 6.46-.87 9.52s-6.67 3.78-9.95 2.67-4.09-2.73-5.41-6c-2.69-6.5-6.49-12.5-10.26-18.5l-13.78-21.83c-2.2-3.48-4.49-7.06-7.86-9.44-4.74-3.34-10.84-3.79-16.54-4.84s-11.87-3.28-14.49-8.45c-4.69-9.29 1.53-21.93 11.51-23.11 14.56-1.75 28.93-3.33 43.63-2.74z" transform="translate(-37.58 -18.73)" fill="url(#45-03thinking-0355d)"/><path d="M254.72 261.48a9.51 9.51 0 001 3.13c1.39 2.37 4.37 3.35 7.13 3.4a6.58 6.58 0 003.42-.69 5.48 5.48 0 002.39-3.46 13.71 13.71 0 00.23-4.29 70.83 70.83 0 00-1.14-9.18 2.63 2.63 0 00-.49-1.26c-.65-.75-1.85-.52-2.8-.23-2.38.72-8.23 1.32-9.92 3.17-1.9 2.11.18 6.91.18 9.41z" fill="#f5bbb9"/><path d="M267.85 263.48a33.82 33.82 0 00-3.59 1.35 10.11 10.11 0 01-4.84.44c-1.75-.28-3.89-.89-5 .48a3.93 3.93 0 00-.4 3.22 35.5 35.5 0 001.75 6.22 6.23 6.23 0 001.07 2c1.19 1.33 3.19 1.49 5 1.56a164.81 164.81 0 0019.12 0c1.91-.14 4.26-.72 4.68-2.59a4 4 0 00-.79-2.93c-1.9-3-4.9-5-8-6.58-2.71-1.38-5.89-3.84-9-3.17zm-7.62 39.47a28.36 28.36 0 00-3.07 1.15 8.64 8.64 0 01-4.13.36c-1.49-.24-3.32-.76-4.29.41a3.35 3.35 0 00-.34 2.75 31.1 31.1 0 001.49 5.3 5.29 5.29 0 00.92 1.68c1 1.13 2.72 1.27 4.24 1.33a141.21 141.21 0 0016.33 0c1.63-.12 3.63-.62 4-2.21a3.37 3.37 0 00-.67-2.5 16.74 16.74 0 00-6.84-5.62c-2.27-1.14-4.99-3.23-7.64-2.65z" fill="#2e2e3f"/><path d="M163.97 132.27c-7.38 3.08-12.69 9.72-16.7 16.64-9.69 16.7-13.62 36-17.41 54.94-.78 3.92-1.57 7.9-1.25 11.89a15.9 15.9 0 001.14 4.91c2.46 5.81 9 8.95 15.33 9.33 5.58.35 11.11-1 16.64-1.84 4.65-.66 9.36-.9 13.91-2s9-3.33 11.84-7.07c3.26-4.34 3.84-10.07 4.31-15.47l2.51-29.3c.75-8.78 1.45-18-2-26.08a27.64 27.64 0 00-11.71-13c-4.94-2.95-11.16-5.28-16.61-2.95z" fill="#4E7699"/><path d="M231.87 192.93l-.51 5.94-2 23.36c-.35 4-.75 8.1-2.23 11.73a16.35 16.35 0 01-2.08 3.74c-2.81 3.74-7.29 5.93-11.84 7.07s-9.27 1.39-13.91 2c-5.54.79-11.06 2.19-16.64 1.84-6.29-.38-12.88-3.52-15.34-9.33a16.18 16.18 0 01-1.13-4.91c-.32-4 .47-8 1.25-11.89 3.79-18.93 7.72-38.24 17.41-54.94 4-6.92 9.32-13.56 16.71-16.64 5.45-2.28 11.66.07 16.62 2.9a27.62 27.62 0 0111.71 13c3.43 8.2 2.73 17.35 1.98 26.13z" transform="translate(-37.58 -18.73)" fill="url(#45-03thinking-0355e)"/><path d="M231.67 190.38c-.1 2.83-.21 5.66-.31 8.49l-2 23.36c-.35 4-.75 8.1-2.23 11.73-2.66 2.63-6.74 3.5-10.5 4.18a1.23 1.23 0 01-1.75-1.32c-.78-9.21 2.42-18.27 3-27.5a49.21 49.21 0 00-2.75-19.54c-1.25-3.52-8.79-13.74-.27-13.36a11.24 11.24 0 015 1.86 51.66 51.66 0 0110 7.78 5.79 5.79 0 011.53 2.12 6 6 0 01.28 2.2z" transform="translate(-37.58 -18.73)" fill="url(#45-03thinking-0355f)"/><path d="M195.42 130.58a3.52 3.52 0 01.15-3.14 4.09 4.09 0 012.32-1.26c1.37-.39 2.76-.73 4.16-1a5.86 5.86 0 011.9-.19c1.53.17 2.68 1.43 3.67 2.59a12 12 0 012.5 3.85 11.77 11.77 0 01.33 4.23l-.13 3.23a5.43 5.43 0 01-.28 1.75 3.57 3.57 0 01-1.27 1.53 7.26 7.26 0 01-3.47 1.2c-1.41.15-3.58.05-4.5-1.24-.6-.83-.41-2.22-.82-3.19-1.22-2.95-3.56-5.32-4.56-8.36z" fill="#f5bbb9"/><path d="M131.81 223.92h-.39l.22-1.36c-1.64 14.13 3.07 31.07 18.16 35.29 13 3.63 25.47 3.72 38-.45 10.17-3.37 19.81-10.14 27.7-17.37 6.81-6.24 12.07-14 19.06-20 1.63 2.56 4 4.32 5.79 6.75 2.23 3 2.48 6.32 3.69 9.7 1.28 3.6 3.56 6.69 5.11 10.16 3.15 7 4.49 10.32 12.53 10.33 2.68 0 3.86.48 5.65-1.53 2.92-3.29 1.81-12.55 1.62-16.48-.69-13.88-2.76-28.45-7.61-41.52-2.68-7.21-6-14.31-11.44-19.82-7.33-7.38-15.59-4.42-23.51.25-9.65 5.7-18.26 14.22-26.28 22.09-3.32 3.25-5.42 6.17-9.4 8.84-4.41 3-8.71 5.28-13.4 7.82-13.26 7.18-30.89 7.3-45.5 7.3z" fill="#2e2e3f"/><path d="M242.64 293.89a22.24 22.24 0 01-.71 4c-2.57 9.35-11.63 15.78-21.07 18s-19.31 1-28.92-.29c-21.47-2.89-142.88-11.26-128.52-153.69 1.72-17.16 12.21-39.85 28.52-43.14a21.21 21.21 0 019.38.25c34.08 8.43 7.66 69.31 54.44 90.82 13.9 6.39 25.5 17.09 39.77 22.59 25.48 9.85 41 38.18 41 38.18 3.34 7.37 6.75 15.4 6.11 23.28z" fill="#4E7699"/><path d="M250.3 158.42c3.1 2.58 4 6.95 4.08 11a3.76 3.76 0 01-.55 2.41 4 4 0 01-1.15.88c-2.31 1.36-5 2.76-7.54 1.93-2.23-.73-3.65-3-5.82-3.89-1.79-.74-4-.53-5.44-1.86a4.57 4.57 0 01-1.2-2.25c-2.67-10.79 10.8-13.88 17.62-8.22z" fill="#f5bbb9"/><path d="M203.56 152.98a12.71 12.71 0 003.65 2.26 11.23 11.23 0 004.44.32c8.63-.68 17.43-3.52 25.77-1.19a6.06 6.06 0 013.16 1.74 5.36 5.36 0 011 3.4c0 6-4.88 11-10.26 13.75-6.19 3.14-13.2 4.19-20.07 5.2-4.66.68-9.37 1.36-14.07.92a12.14 12.14 0 01-6.07-1.85c-40.65-29.38-26.48-33.75-23.72-42.15 1.44-4.39 19.57 4.42 23.79 7.77s8.24 6.55 12.38 9.83z" fill="#4E7699"/><path d="M280.22 312.62a22.24 22.24 0 01-.71 4c-2.57 9.35-11.63 15.78-21.07 18s-19.31 1-28.92-.29C208.05 331.44 86.64 323.07 101 180.64c1.72-17.16 12.21-39.85 28.52-43.14.77 4.5-3.19 9.89-4.69 14.74a103.31 103.31 0 00-2.83 48.59 98.81 98.81 0 008.78 26.56c5.71 11.41 13.54 21.62 21.66 31.47 6.1 7.4 12.54 14.76 20.76 19.69 7.43 4.46 16 6.72 24.44 8.54a294.6 294.6 0 0033.95 5.26c15.37 1.47 32.3 2.33 43.51 13a21 21 0 015.12 7.27z" transform="translate(-37.58 -18.73)" fill="url(#45-03thinking-0355g)"/><path d="M270.84 56.01a20.45 20.45 0 01-2.35 9.58l-8.52 21.27h-20.86l-7.92-22.45a20.46 20.46 0 01-1.78-8.4 20.72 20.72 0 0141.43 0z" fill="#4E7699"/><path d="M308.42 74.74a20.45 20.45 0 01-2.35 9.58l-8.52 21.27h-20.86l-7.92-22.45a20.46 20.46 0 01-1.78-8.4 20.72 20.72 0 0141.43 0z" transform="translate(-37.58 -18.73)" opacity=".69" fill="url(#45-03thinking-0355h)" style="isolation:isolate"/><path d="M246.74 87.2a47.69 47.69 0 01-4.68-20.36c0-1.58.22-3.44 1.61-4.21 1.69-.94 3.78.53 4.71 2.23a9 9 0 01.5 7.32 9.65 9.65 0 01-1.64-5 8.82 8.82 0 01.24-3.93 3.42 3.42 0 012.88-2.38c2-.07 3.36 2.21 3.58 4.23a10.28 10.28 0 01-1.51 6.6 7.79 7.79 0 011.6-7.63 4.45 4.45 0 012.32-1.44 2.45 2.45 0 012.47.87 3.34 3.34 0 01.5 1.48c.53 3.82-.79 7.66-2.45 11.15s-3.66 6.84-4.63 10.58" fill="none" stroke="#fff" stroke-miterlimit="10" stroke-width=".79"/><rect x="237.59" y="86.62" width="23.45" height="11.19" rx="2.34" fill="#4E7699"/><rect x="237.59" y="86.62" width="23.45" height="11.19" rx="2.34" fill="url(#45-03thinking-0355i)"/><rect x="236.34" y="90.33" width="26.22" height="4.06" rx="1.96" fill="#4E7699"/><rect x="236.34" y="90.33" width="26.22" height="4.06" rx="1.96" fill="url(#45-03thinking-0355j)"/></svg>