<svg data-name="Layer 1" xmlns="http://www.w3.org/2000/svg" xmlns:xlink="http://www.w3.org/1999/xlink" viewBox="0 0 558.9 410.2"><defs><linearGradient id="117-03word_of_mouth-0395h" x1="-1007.6" y1="285.59" x2="-942.42" y2="261.38" gradientTransform="matrix(-1 0 0 1 -566.54 0)" xlink:href="#117-03word_of_mouth-0395a"/><linearGradient id="117-03word_of_mouth-0395a" x1="230.6" y1="352.43" x2="177.52" y2="269.1" gradientUnits="userSpaceOnUse"><stop offset="0" stop-color="#010101" stop-opacity="0"/><stop offset=".95" stop-color="#010101"/></linearGradient><linearGradient id="117-03word_of_mouth-0395c" x1="149.29" y1="308.25" x2="146.18" y2="346.12" xlink:href="#117-03word_of_mouth-0395a"/><linearGradient id="117-03word_of_mouth-0395d" x1="404.87" y1="308.25" x2="401.77" y2="346.12" xlink:href="#117-03word_of_mouth-0395a"/><linearGradient id="117-03word_of_mouth-0395e" x1="396.78" y1="303.01" x2="407.95" y2="303.01" xlink:href="#117-03word_of_mouth-0395a"/><linearGradient id="117-03word_of_mouth-0395f" x1="141.66" y1="303.01" x2="152.83" y2="303.01" xlink:href="#117-03word_of_mouth-0395a"/><linearGradient id="117-03word_of_mouth-0395g" x1="112.52" y1="285.59" x2="177.7" y2="261.38" xlink:href="#117-03word_of_mouth-0395a"/><linearGradient id="117-03word_of_mouth-0395b" x1="310.19" y1="298.48" x2="376.43" y2="298.48" xlink:href="#117-03word_of_mouth-0395a"/><linearGradient id="117-03word_of_mouth-0395i" x1="236.93" y1="203.76" x2="191.76" y2="548.36" xlink:href="#117-03word_of_mouth-0395a"/><linearGradient id="117-03word_of_mouth-0395j" x1="192.7" y1="222.33" x2="64.23" y2="388.07" xlink:href="#117-03word_of_mouth-0395a"/><linearGradient id="117-03word_of_mouth-0395k" x1="209.7" y1="334.73" x2="168.73" y2="212.76" xlink:href="#117-03word_of_mouth-0395a"/><linearGradient id="117-03word_of_mouth-0395l" x1="369.7" y1="212.35" x2="424.94" y2="400.43" xlink:href="#117-03word_of_mouth-0395a"/><linearGradient id="117-03word_of_mouth-0395m" x1="343.56" y1="286.64" x2="405.94" y2="311.78" xlink:href="#117-03word_of_mouth-0395a"/><linearGradient id="117-03word_of_mouth-0395n" x1="270.27" y1="236.37" x2="270.89" y2="201.52" xlink:href="#117-03word_of_mouth-0395a"/></defs><path d="M153.15 3.93c-31.43 8.91-55.78 36-66.47 66.83-7.6 21.93-9.23 46.09-20.74 66.24-11.4 19.95-31.21 33.67-44.72 52.29-26.79 36.8-25.15 87.6-11.93 131.18 6.23 20.55 15.19 41 30.92 55.66 18.38 17.07 44.11 24.24 69.16 25.57s50.05-2.59 75-4.79c24.14-2.12 48.52-2.64 72.55.47 19 2.46 37.61 7.16 56.55 9.89 43.11 6.22 87.3 2.07 129.61-8.3 15.93-3.9 32.71-9.39 42.75-22.36 13.79-17.81 10.26-42.91 13.74-65.17 7.9-50.56 53.74-89.67 58.83-140.59 4.14-41.36-20.35-81-52-108-19.31-16.48-42.23-29.78-67.39-33.15-18-2.41-36.46.31-54.26-3.21-21.18-4.2-40.2-15.6-61.61-19.68-14.73-2.8-28.27-1.65-43-.14-42.24 4.34-85.5-14.52-126.99-2.74z" fill="#4E7699" opacity=".24" style="isolation:isolate"/><path d="M75.56 337.54a6.17 6.17 0 00-3.39 1.43c-3 3.11 2.35 7.33 6.58 8.12 12.33 2.3 24.94 2.59 37.49 2.87q52 1.13 104 2c11.81.19 24.12.27 34.75-4.88a19.5 19.5 0 00-7.45-6.48l46.75-.3c3.09 0 6.45.06 8.83 2s2.61 6.54-.27 7.65a427 427 0 00148.64 1.39c5-.84 11.55-4.11 9.92-8.94-1.16-3.44-5.66-4.12-9.29-4.2-99.1-2.33-198.22-4.39-297.31-7.13a365.56 365.56 0 00-40.13 1c-12.78 1.1-26.45 5.47-39.12 5.47z" fill="#4E7699" opacity=".24" style="isolation:isolate"/><path d="M190.8 273.09c4.37 5.32 4 12.92 4.12 19.81a111.21 111.21 0 002.09 20c.29 1.45.72 3.06 2 3.8a5.43 5.43 0 002.53.53l7.82.34c2 .09 4.25.06 5.54-1.44a6.56 6.56 0 001.21-3.11 194.57 194.57 0 003.56-32.2 43.87 43.87 0 00-1-12.69c-1.11-4.11-3.42-8-7-10.33-3.94-2.51-8.85-2.76-13.51-2.9-5-.15-10.1-.24-14.83 1.37-3.9 1.33-11.27 5.56-5.87 9.37 4.34 3.1 9.66 2.95 13.34 7.45z" fill="#606161"/><path d="M192.9 302.8c4.37 5.32 4 12.92 4.12 19.81a111.21 111.21 0 002.09 20c.29 1.45.72 3.06 2 3.8a5.43 5.43 0 002.53.53l7.82.34c2 .09 4.25.06 5.54-1.44a6.56 6.56 0 001.21-3.11 194.57 194.57 0 003.56-32.2 43.87 43.87 0 00-1-12.69c-1.11-4.11-3.42-8-7-10.33-3.94-2.51-8.85-2.76-13.51-2.9-5-.15-10.1-.24-14.83 1.37-3.9 1.33-11.27 5.56-5.87 9.37 4.34 3.1 9.66 2.95 13.34 7.45z" transform="translate(-2.1 -29.71)" fill="url(#117-03word_of_mouth-0395a)"/><path d="M203.34 323.59a5.61 5.61 0 00.32 2.16 5.14 5.14 0 001 1.37 26.21 26.21 0 0014.04 8.17 4.5 4.5 0 003.59-.34 3.94 3.94 0 001.32-3 9.71 9.71 0 00-5.58-9.18c-1.31-.59-2.74-.87-4.06-1.44a5 5 0 01-3-2.91c-.5-1.67.24-3.85-1.11-4.95-1.92-1.55-5.38-1.35-6.41.9-1.1 2.36-.17 6.63-.11 9.22zm119.72-83.52c-22.34 21.89-13.06 51.86-13 65.18 0 3.46 11.33 9.93 13-5.58.1-.9 1.4-40.74 31.65-38.79 11.43.74 25.82-14.19 16.77-28.48-6.9-10.9-41.47.89-48.42 7.67z" fill="#606161"/><path d="M325.16 269.78c-22.34 21.89-13.06 51.86-13 65.18 0 3.46 11.33 9.93 13-5.58.1-.9 1.4-40.74 31.65-38.79 11.43.74 25.82-14.19 16.77-28.48-6.9-10.9-41.47.89-48.42 7.67z" transform="translate(-2.1 -29.71)" fill="url(#117-03word_of_mouth-0395b)"/><path d="M312.11 307.95c.69 2.59-.42 5.27-1.42 7.75a47.42 47.42 0 00-3.5 12.31 3 3 0 00.24 2c.71 1.13 2.42.91 3.65.38a14 14 0 005.19-3.87 27.87 27.87 0 003.91-7.12 17.22 17.22 0 001.4-4.21 17.58 17.58 0 00-.72-6.74 1.78 1.78 0 00-.59-1.13 1.77 1.77 0 00-1-.19c-1.66 0-3.26.78-4.93.78z" fill="#606161"/><ellipse cx="147.17" cy="334.12" rx="21.18" ry="8.38" fill="#4E7699"/><ellipse cx="147.17" cy="334.12" rx="21.18" ry="8.38" fill="url(#117-03word_of_mouth-0395c)"/><ellipse cx="402.75" cy="334.12" rx="21.18" ry="8.38" fill="#4E7699"/><ellipse cx="402.75" cy="334.12" rx="21.18" ry="8.38" fill="url(#117-03word_of_mouth-0395d)"/><path d="M396.78 271.58H408v57.26a5.59 5.59 0 01-5.59 5.59 5.59 5.59 0 01-5.59-5.59v-57.26h-.04z" fill="#4E7699"/><path d="M396.78 271.58H408v57.26a5.59 5.59 0 01-5.59 5.59 5.59 5.59 0 01-5.59-5.59v-57.26h-.04z" fill="url(#117-03word_of_mouth-0395e)"/><rect x="141.66" y="271.58" width="11.17" height="62.85" rx="5.59" fill="#4E7699"/><rect x="141.66" y="271.58" width="11.17" height="62.85" rx="5.59" fill="url(#117-03word_of_mouth-0395f)"/><path d="M104.77 202.62c-9 6.06-10.88 18.69-9.29 29.44 4.4 29.74 30.59 54.85 60.49 58 8.79.92 18.42-.15 25-6 7.36-6.51 9.22-17.7 6.61-27.18s-9-17.47-16-24.35a128.23 128.23 0 00-32.87-23.36c-10.55-5.26-21.97-14.59-33.94-6.55z" fill="#4E7699"/><path d="M106.87 232.33c-9 6.06-10.88 18.69-9.29 29.44 4.4 29.74 30.59 54.85 60.49 58 8.79.92 18.42-.15 25-6 7.36-6.51 9.22-17.7 6.61-27.18s-9-17.47-16-24.35a128.23 128.23 0 00-32.87-23.36c-10.55-5.26-21.97-14.59-33.94-6.55z" transform="translate(-2.1 -29.71)" fill="url(#117-03word_of_mouth-0395g)"/><path d="M444.61 202.62c9 6.06 10.88 18.69 9.29 29.44-4.4 29.74-30.59 54.85-60.49 58-8.79.92-18.42-.15-25-6-7.36-6.51-9.22-17.7-6.6-27.18s9-17.47 16-24.35a128.11 128.11 0 0132.88-23.36c10.54-5.26 21.95-14.59 33.92-6.55z" fill="#4E7699"/><path d="M446.71 232.33c9 6.06 10.88 18.69 9.29 29.44-4.4 29.74-30.59 54.85-60.49 58-8.79.92-18.42-.15-25-6-7.36-6.51-9.22-17.7-6.6-27.18s9-17.47 16-24.35a128.11 128.11 0 0132.88-23.36c10.54-5.26 21.95-14.59 33.92-6.55z" transform="translate(-2.1 -29.71)" fill="url(#117-03word_of_mouth-0395h)"/><path d="M331.63 142.01a13 13 0 00.2 12.2 8.29 8.29 0 004.77 4.08 11.28 11.28 0 005.55-.32 78.63 78.63 0 0011.12-3.56c2.12-.86 4.38-2 5.3-4.08.75-1.7.43-3.66 0-5.47-.94-4.34-2.28-8.71-5-12.25a15.11 15.11 0 00-6.35-4.94c-3.05-1.21-3.93-1-5.36 1.55-2.62 4.88-7.65 7.88-10.23 12.79z" fill="#606161"/><path d="M265.1 181.17a159.81 159.81 0 01-9.82 27c-3.11 6.55-7.15 13.36-13.89 16-7.74 3-17.43-.17-24 4.79-2.15 1.59-3.67 3.91-5.43 5.92-8.73 10.29-22.62 14.32-35.71 17.47-12.73 3.07-26.52 5.75-38.56.59a33.56 33.56 0 01-6.68-3.84c-6.88-5-12.17-12.13-17-19.31-.53-.79-1.06-1.55-1.59-2.35-2.61-3.93-5.32-8-6.18-12.6-1.36-7 1.65-14.15 5.29-20.33a168.58 168.58 0 0113.29-18.79c6.91-8.69 14.32-17.36 24-22.78 7-3.87 14.82-5.89 22.56-7.87 14.28-3.64 27-1.06 39.78 6.45 8.27 4.82 11.74 14.94 13.19 24.37.57 3.64.93 7.31 1.39 11 .76 5.88 1.82 11.67 4.44 17 6.18-3.34 8.66-10.75 11-17.36a17.82 17.82 0 013.67-6.88 10.26 10.26 0 012.49-1.82c4.33-2.31 10.21-1.45 15.31-.39a3.4 3.4 0 012.51 1.32 3.3 3.3 0 01-.06 2.41z" fill="#4E7699"/><path d="M256.42 221.27a78.7 78.7 0 01-12.34 22.58 27.68 27.68 0 01-7.07 6.88c-4.2 2.68-9.26 3.44-14.19 4.2-5.29.76-5.89-.89-5.46-5.19.57-5.59-.56-11.67-.89-17.3-.66-11.87-1.09-23.74-.92-35.65a94 94 0 0112.26 19.75c.76 5.88 1.82 11.67 4.44 17 6.18-3.34 8.66-10.75 11-17.36a17.82 17.82 0 013.67-6.88 10.26 10.26 0 012.49-1.82 6.9 6.9 0 015.68 1.16c3.58 2.77 2.82 8.36 1.33 12.63z" transform="translate(-2.1 -29.71)" fill="url(#117-03word_of_mouth-0395i)"/><path d="M213.49 260.72a3 3 0 01-2 .56l-20.37.89c-6.38.27-13 .6-18.68 3.38-1.69.82-3.28 1.88-5 2.58A61 61 0 01161 270c-3.94 1.13-18.29 7.28-22.29 8.2a22.44 22.44 0 01-5.59.56c-6.88-5-12.17-12.13-17-19.31 3-1.22 6-2.38 6.48-2.48a69.44 69.44 0 0112.24-.53c6.64.07 13.32.17 20 .27a16.2 16.2 0 005.89-.66 16 16 0 005.52-4.24c.36-.33.73-.79.63-1.25a1.48 1.48 0 00-.7-.8 11.35 11.35 0 01-3.87-3.83c-.62-1.26-.29-2.88-1.12-4-1.09-1.39-4.53-2.28-6.12-3l-7.07-3.38a12.2 12.2 0 01-3.28-2.11c-2.15-2.29-2-6-.69-8.87s3.37-5.25 4.93-8c1.32-2.38 2.21-5 3.53-7.34s3.21-4.59 5.79-5.45c2.85-1 5.92-.1 8.8.76 10.15 3 20.34 6 30.49 9.06 4.3 1.25 9.09 2.94 11.08 7 1 2.06 1.09 4.44 1.22 6.75a174.91 174.91 0 003.94 30.49c.25.99.41 2.16-.32 2.88z" transform="translate(-2.1 -29.71)" fill="url(#117-03word_of_mouth-0395j)"/><path d="M209.25 119.18c.71 1.36 2 2.61 1.81 4.14-.17 1.91-2.34 2.9-3.39 4.5-1.65 2.52-.4 6.3-2.37 8.57-1.36 1.55-3.65 1.72-5.58 2.44-3.6 1.34-6.06 4.76-7.41 8.36-.55 1.48-1.09 2.95-1.7 4.41-4.26 10.22-14.15-4.81-13.69-7.58s3-8.91 3.61-11.61c1-4.21.42-8.6.64-12.91a37.2 37.2 0 012.24-10.94 14 14 0 013.41-5.62c2.42-2.18 5.9-2.79 9.16-2.71 2.45.06 5.07.55 6.78 2.3a11.61 11.61 0 012.28 4.36 18.62 18.62 0 001.37 3.27 10 10 0 011.3 2.81c.54 2.08.57 4.26 1.54 6.21z" fill="#f5c7c8"/><path d="M192.27 97.62c4.55.38 9.32 1.94 12 5.62a4.48 4.48 0 011 4 4.7 4.7 0 01-1.89 2.16 14.15 14.15 0 01-4.28 2c-2.65.75-5.8.9-7.47 3.08-1.5 1.95-1.14 4.71-1.87 7.06-.09.31-.27.66-.59.69a.81.81 0 01-.51-.18c-1.29-.87-2.39-2.35-3.94-2.29s-2.72 2-2.46 3.66a8.64 8.64 0 002.55 4.19 5.2 5.2 0 011.51 2.4c.32 1.63-1.11 3.22-2.73 3.57a6.82 6.82 0 01-4.75-1.12c-3.58-2.13-6.08-5.7-8-9.41a17.37 17.37 0 01-1.82-5 17.79 17.79 0 01.12-5.25c.53-4 1.74-7.89 5.68-9.62 3.35-1.47 6.16-4 9.72-5a22 22 0 017.73-.56z" fill="#606161"/><path d="M254.59 164.05c2.5-4 6.15-7.38 10.66-8.64a13.51 13.51 0 01-2.13 5.17 80.21 80.21 0 0117.56-6.06c.69-.16 1.54-.24 2 .32a1.57 1.57 0 01.24 1 9.27 9.27 0 01-1.58 4.61 24.8 24.8 0 01-11.38 10c-2.37 1-4.95 1.7-6.95 3.33-1.61 1.33-2.7 3.16-4 4.76s-3.69 3.57-6.1 3a4.77 4.77 0 01-3.55-4c-.12-2 1.13-4.37 1.81-6.17a40.63 40.63 0 013.42-7.32z" fill="#f5c7c8"/><path d="M132.49 203.51a251 251 0 0130.66 1.1 1 1 0 011.1 1.05 41.08 41.08 0 01-.29 10.45 5.36 5.36 0 01-.76 2.29 4.76 4.76 0 01-2.61 1.58 27.73 27.73 0 01-5.61.83c-13.09 1-26.23 2.1-39.35 1.38a10.45 10.45 0 01-5-1.14 8.94 8.94 0 01-2.61-2.76 14.83 14.83 0 01-2-4.19 10.15 10.15 0 011.12-7.87 12.44 12.44 0 017-5.11 23 23 0 018.74-.72 15.42 15.42 0 014.33.86c2.62 1 5.08 3.16 7.82 2.6" fill="#4E7699"/><path d="M174.81 211.69c6.29 0 13.07.62 17.87 4.7a4.29 4.29 0 011.37 1.74 1.8 1.8 0 01-.51 2 2.59 2.59 0 01-1.37.35c-4.68.21-9.39-1.14-14-.42-2.3.35-4.52 1.21-6.84 1.41-4.41.37-8.63-1.65-12.59-3.61a1.58 1.58 0 01-.7-.54 1.47 1.47 0 01.08-1.24c.37-1 .91-2.78 1.72-3.46s3.14-.49 4.33-.56c3.53-.19 7.08-.36 10.64-.37z" fill="#f5c7c8"/><rect x="198.61" y="182.51" width="10.55" height="25.29" rx="3.38" fill="#4E7699"/><path d="M131.65 243.41c12.44-8.89 31.58-8 46.87-8.36 10.77-.26 21.6-.24 32.26 1.36 4.86.73 9.76 1.81 14.05 4.19s8 6.18 11.37 10c12.47 14.12 22.81 30.35 28.7 48.26a31.7 31.7 0 01-10.33 2.71 8.79 8.79 0 01-3.67-.28 10 10 0 01-3.4-2.4c-8.67-8.12-17.43-16.19-26.81-23.48-3.7-2.87-7.66-5.7-12.27-6.55a30 30 0 00-8.09 0q-9.78.93-19.47 2.71c-12 2.21-25.19 6.76-35.27-.18-16.83-11.64-17.27-25.6-13.94-27.98z" fill="#606161"/><path d="M133.75 273.12c12.44-8.89 31.58-8 46.87-8.36 10.77-.26 21.6-.24 32.26 1.36 4.86.73 9.76 1.81 14.05 4.19s8 6.18 11.37 10c12.47 14.12 22.81 30.35 28.7 48.26a31.7 31.7 0 01-10.33 2.71A8.79 8.79 0 01253 331a10 10 0 01-3.4-2.4c-8.67-8.12-17.43-16.19-26.81-23.48-3.7-2.87-7.66-5.7-12.27-6.55a30 30 0 00-8.09 0q-9.78.93-19.47 2.71c-12 2.21-25.19 6.76-35.27-.18-16.83-11.64-17.27-25.6-13.94-27.98z" transform="translate(-2.1 -29.71)" fill="url(#117-03word_of_mouth-0395k)"/><path d="M339.42 144.41c-8.14 3.11-12.21 12-15.21 20.23-4.34 11.83-8.22 24.05-8.53 36.64-.18 7.15 1.35 15.25 7.33 19.17 4.34 2.83 9.89 2.73 15.06 2.52l18.53-.68a2.12 2.12 0 012.59 1.9c.76 2.33 10.75 3.68 11.52 6 .53 1.62-8.1 4.31-6.79 5.39s3.33 1.36 5.14 1.5a203.93 203.93 0 0039.37-.85c2.66-.32 5.53-.8 7.37-2.74 2.58-2.73 2-7.06 1.3-10.75 7.1-.49 14.79-3.39 17.77-9.85 1.79-3.85 1.58-8.38.37-12.45s-3.34-7.83-5.34-11.56c-3.66-6.72-7.1-13.66-12.1-19.45s-11.16-10.07-17.34-14.38c-4.87-3.39-9.8-6.82-15.37-8.86-7.72-2.82-15.73-2.27-23.75-3.1-6.89-.71-15.44-1.18-21.92 1.32z" fill="#4E7699"/><path d="M423.37 250.53c-9.85 2.08-20 2-30.06 1.82-10.42-.14-20.89-.29-31.15-2.08a5.06 5.06 0 01-3.33-1.54 5.12 5.12 0 01-.73-2.47c-.4-3.47-.64-7.44 1.79-9.94 1.46-1.5 3.59-2.11 5.61-2.66l23-6.26c3.54-1 7.38-2.12 9.46-5.15 4-5.8-.76-14.88 3.69-20.33a13.48 13.48 0 00-10.61-4.74c-4.21-.08-8.34 1-12.41 2.15l-32.54 8.88c-2.71.74-5.5 1.52-7.72 3.24-2.7 2.09-4.24 5.36-5.07 8.67a27 27 0 0022.72 33.25c2.32.29 5 .44 6.43 2.27.95 1.2 1.12 2.82 1.82 4.17 1.92 3.66 6.85 4.17 11 4.22l25 .28c5.74.06 12 0 16.53-3.52 3.74-2.79 4.85-5.93 6.57-10.26z" transform="translate(-2.1 -29.71)" fill="url(#117-03word_of_mouth-0395l)"/><path d="M339.09 124.8c-.46.83-1.1 1.85-.55 2.62.23.32.62.49.89.76a2.59 2.59 0 01.6 1.55c.21 1.88-.09 4 1.18 5.44 1.11 1.21 2.95 1.33 4.59 1.36l6.29.13a2.18 2.18 0 011.33.32 2 2 0 01.6 1.08c1.18 3.89 1.12 8.18 3.05 11.76a5.67 5.67 0 001.89 2.22 5.56 5.56 0 002 .68 9.7 9.7 0 0010.42-6.54 4.58 4.58 0 00.22-1.87 6.19 6.19 0 00-1.12-2.48 28.44 28.44 0 01-4.41-9.67 58 58 0 01-.62-6.32 36.11 36.11 0 00-1.55-7.55 10 10 0 00-1.45-3.08 11.29 11.29 0 00-2.15-2c-2.82-2.21-5.77-4.47-9.25-5.29a21.75 21.75 0 00-8.2 0 4.35 4.35 0 00-2.83 1.17c-.91 1.08-.53 2.54-.23 3.77a10.94 10.94 0 01.28 3.28c-.05 2.89.46 6.03-.98 8.66z" fill="#f5c7c8"/><path d="M341.03 102.66c-3.79 2.69-5.94 8-4 12.21a4.54 4.54 0 001.61 2 5.74 5.74 0 002.87.68 16.42 16.42 0 006.92-1 9.36 9.36 0 005.06-4.68 24.51 24.51 0 002.37 9l3-2.45a1.07 1.07 0 01.75-.33.93.93 0 01.62.43c1.24 1.64 1 4.05-.05 5.83a3.43 3.43 0 00-.71 1.79 2.88 2.88 0 00.39 1.12l3.42 6.66a14.29 14.29 0 007.62 7.57 62.1 62.1 0 0010.89 5.27 21.86 21.86 0 0011.92.87 13.34 13.34 0 009.19-7.24 15.64 15.64 0 001.12-5.54 12.16 12.16 0 00-1.27-6.52 12.34 12.34 0 00-4.52-4.2c-4-2.42-8.5-3.81-12.69-5.87a16.05 16.05 0 01-4.8-3.28 33.26 33.26 0 01-3.2-4.73 23.65 23.65 0 00-19.59-10.28c-1.22 0-2.45.27-3.64.19a40.13 40.13 0 00-4.11-.27 16.61 16.61 0 00-9.17 2.77z" fill="#606161"/><path d="M325.1 75.09c-.42 2.08 1 4 2.4 5.66s3.12 4.91 5 5.7c2.25 1 2.41-.18 1.91-1.89-.59-2-2.57-4.09-4-5.53-.45-.44-5.29-4-5.31-3.94zm-10.7 14.07c-.42.74.56 1.48 1.37 1.78 4.29 1.6 8.76 3.81 13.21 4.84 3.92-4.49-12.24-6.83-14.58-6.62zm-2.62 15.53c-.58.12-1.27.36-1.36.94s.61 1.08 1.22 1.27c2.08.66 11.78 2 11.6-.63-.34-4.76-9.17-2.05-11.46-1.58z" fill="#4E7699"/><path d="M372.61 227.04c-4.77 2-21.88 12-25.09 16.53-3 4.25-4.19 9.82-5.12 15.23a258.53 258.53 0 00-3.67 48c.05 2.92.45 6.41 2.71 7.69 1.5.85 3.32.35 4.8-.57 7.18-4.44 8-15.71 10.92-24.56 3.29-10 3.34-21.29 11.92-25.09 7-3.11 21.72-.22 29.13-1.71s15.14-4.72 19.39-11.94c7.47-12.69-1.38-24.27-12.35-24.5-15.23-.31-18.28-4.98-32.64.92z" fill="#606161"/><path d="M374.71 256.75c-4.77 2-21.88 12-25.09 16.53-3 4.25-4.19 9.82-5.12 15.23a258.53 258.53 0 00-3.67 48c.05 2.92.45 6.41 2.71 7.69 1.5.85 3.32.35 4.8-.57 7.18-4.44 8-15.71 10.92-24.56 3.29-10 3.34-21.29 11.92-25.09 7-3.11 21.72-.22 29.13-1.71s15.14-4.72 19.39-11.94c7.47-12.69-1.38-24.27-12.35-24.5-15.23-.31-18.28-4.98-32.64.92z" transform="translate(-2.1 -29.71)" fill="url(#117-03word_of_mouth-0395m)"/><path d="M260.05 310.02a4.36 4.36 0 001.16 1.39 4.25 4.25 0 003 .35 75.82 75.82 0 007.44-1.61l10.08-2.54c.7-.18 1.54-.5 1.65-1.21a1.76 1.76 0 00-.56-1.33c-3.18-3.74-8.51-5-13.41-4.62-2.11.17-4.37.58-6.24-.42a4.54 4.54 0 00-1.32-.62 3 3 0 00-1.59.29c-2.39.9-5.07.93-4.44 3.59.52 2.09 3.08 5 4.23 6.73z" fill="#606161"/><rect x="96.03" y="221.15" width="348.85" height="9.31" rx="4.66" fill="#4E7699"/><rect x="96.03" y="221.15" width="348.85" height="9.31" rx="4.66" fill="url(#117-03word_of_mouth-0395n)"/><path d="M333.9 210.29a33.1 33.1 0 00-8.09 3.49c-2 1.12-4 2.26-6 3.44a4.06 4.06 0 00-1.5 1.25 1.43 1.43 0 00.15 1.8 2 2 0 001.23.34c8.34.42 16.69-1.35 25-.78 3.65.25 7.43.94 10.89-.25a4.58 4.58 0 003.19-2.87c.41-1.64-1-4.14-2.41-5-1.66-1-4.8-.6-6.73-.85-5.2-.66-10.55-1.8-15.73-.57z" fill="#f5c7c8"/><path d="M337.41 206.38a13 13 0 015.82 1.59 5.23 5.23 0 012.8 2.3 1.78 1.78 0 01-.06 1.68 2.06 2.06 0 01-1.08.72 11.11 11.11 0 01-4.19.21 38.86 38.86 0 00-13.39 1.54 9.05 9.05 0 01-3.27.6.87.87 0 01-.67-.29.74.74 0 01-.06-.6 3.62 3.62 0 011.06-1.65c1-1.05 2-2.06 3-3.05a3.56 3.56 0 012.66-1.25c2.55-.31 4.87-1.72 7.38-1.8z" fill="#f5c7c8"/><path d="M336.9 321.29c-2.43 3.27-4.79 6.88-5 10.95a2.52 2.52 0 00.35 1.67 2.26 2.26 0 001.29.75 8.33 8.33 0 007.18-2 24.61 24.61 0 004.81-6l4.81-7.48a2.19 2.19 0 00.47-1.25c0-.62-.56-1.08-1-1.56-1.43-1.71-1.23-4.08-1.26-6.13-6.56.94-7.97 6.16-11.65 11.05z" fill="#606161"/><path d="M226.63 80.48c.32 1.61-.8 3.13-1.86 4.39s-2.43 3.81-3.85 4.42c-1.74.75-1.87-.13-1.48-1.46.45-1.54 2-3.18 3.09-4.3.37-.33 4.09-3.09 4.1-3.05zm8.27 10.91c.33.58-.44 1.15-1.06 1.39-3.33 1.24-6.8 3-10.25 3.75-3-3.45 9.52-5.3 11.31-5.14zm2.07 12.06c.44.09 1 .27 1.05.72s-.47.84-1 1c-1.61.52-9.14 1.52-9-.49.3-3.7 7.17-1.6 8.95-1.23z" fill="#4E7699"/></svg>